<svg id="teams" xmlns="http://www.w3.org/2000/svg" viewBox="0 0 353.7 177.2"><defs><style>.cls-1,.cls-7{fill:#fff;}.cls-2{fill:#cd2920;}.cls-3{fill:#e6341c;}.cls-4{fill:#eb5d2b;}.cls-5{stroke:#fcfcfc;stroke-miterlimit:10;stroke-width:0.25px;}.cls-6,.cls-7{fill-rule:evenodd;}</style></defs><path class="cls-1" d="M51.5,84.2c0,.4-.1.7-.1,1.1L47,84.6a2.2,2.2,0,0,1,.1-.8A21.8,21.8,0,0,1,51.5,84.2Z"/><path class="cls-1" d="M51.3,85.8l-.6,1.5-4.2-.6.3-1.5C48.3,85,49.6,85.8,51.3,85.8Z"/><path class="cls-1" d="M20,75.7l-.3.5a19,19,0,0,0-4.1,11.2,25.8,25.8,0,0,0,.8,6.8,15.9,15.9,0,0,0,1.2,2.7c0,.2.1.3.1.5a1.5,1.5,0,0,1-1-.9,13.9,13.9,0,0,1-2.2-4.6,15.5,15.5,0,0,1,.6-10A15.8,15.8,0,0,1,20,75.7Z"/><path class="cls-1" d="M17.8,97.4h0Z"/><polygon points="212.8 94.6 218 89.2 226.2 91.9 223.3 84.4 228.7 78.3 219.6 78.4 215 71.4 213 79 205.4 79.8 211.6 86 212.8 94.6"/><polygon class="cls-1" points="218.9 79.8 215.7 74.1 214 80.4 207.6 80.6 212.8 85.4 213.3 92.2 217.7 87.7 224.6 90.3 221.8 84.1 226.2 79.3 218.9 79.8"/><polygon class="cls-2" points="1 108.8 1 134.9 73.3 176.2 145.3 134.9 145.3 108.8 1 108.8"/><polygon class="cls-3" points="73.3 108.8 73.3 176.2 145.3 134.9 145.3 108.8 73.3 108.8"/><polygon class="cls-4" points="1 108.8 73.3 150 145.3 108.8 73.3 67.4 1 108.8"/><polygon class="cls-2" points="1 54.5 1 80.6 73.3 121.7 145.3 80.6 145.3 54.5 1 54.5"/><polygon class="cls-3" points="73.3 54.5 73.3 121.7 145.3 80.6 145.3 54.5 73.3 54.5"/><polygon class="cls-4" points="1 54.5 73.3 95.9 145.3 54.5 73.3 13.2 1 54.5"/><path class="cls-5" d="M181.8,42.3a3.7,3.7,0,0,1-3.8-3.9,3.2,3.2,0,0,1,3-3.4,3.9,3.9,0,0,1,4.3,4A3.2,3.2,0,0,1,181.8,42.3Zm-.4-5.6h-.3a1.6,1.6,0,0,0-1.3,1.7,1.9,1.9,0,0,0,2,2.1c1.1,0,1.7-.5,1.7-1.5A2.3,2.3,0,0,0,181.4,36.7Z"/><path class="cls-5" d="M210.2,56.7a1,1,0,0,1-.7-.4c-1.4-1.9-8.2-11.4-9.6-16.5l-2.8.2H186.3a.8.8,0,0,1-1-.1.9.9,0,0,1,0-1.3h0l.6-.2H197l3.6-.2h0a.9.9,0,0,1,.9.8c.6,3.2,5.1,10.6,9.4,16.4a.9.9,0,0,1-.2,1.3Z"/><path class="cls-5" d="M242.6,124.2a144.1,144.1,0,0,1-16.1-.7c-.6-3.5-2.4-7-3.9-10.1a9.1,9.1,0,0,1-.7-1.4,27.6,27.6,0,0,0,13.2-6.1h0a15.1,15.1,0,0,0,2.3-2.1c5.6-5.8,8.7-13.9,8.7-22.8a22.5,22.5,0,0,0-.3-3.8,26.6,26.6,0,0,0-10.9-16.3h-.1a41.2,41.2,0,0,0-10.7-5.4,25.6,25.6,0,0,0-7.9-1.3,29.4,29.4,0,0,0-20.9,9.4h0A27,27,0,0,0,188,82a31.3,31.3,0,0,0,8.3,21,28.4,28.4,0,0,0,21.1,9.4H220l.9,1.9c1.7,3.4,3.4,6.9,4,10.3,0,.4.4.7.8.8a156.4,156.4,0,0,0,16.9.7.9.9,0,1,0,0-1.8ZM244,77.6a17.9,17.9,0,0,1,.3,3.4c0,8.4-2.9,16.1-8.2,21.5l-1.5,1.5c-1.4-1.4-3.1-3.2-4.7-5.1a19.3,19.3,0,0,0,7.7-14.7c.2-5.9-2.8-12.2-7.7-16.4a54.7,54.7,0,0,1,4.5-5.1A25.1,25.1,0,0,1,244,77.6ZM206.9,98.9h0a17.5,17.5,0,0,1-8.6-14.4,19.1,19.1,0,0,1,18.3-19.6H218c8.7.2,18.1,8.5,17.8,19.2s-8.9,17.6-19.1,17.6h-.5A18.5,18.5,0,0,1,206.9,98.9Zm9.3-43a23,23,0,0,1,7.4,1.2,42.2,42.2,0,0,1,9.3,4.6c-1.5,1.6-3,3.2-4.4,5A18.9,18.9,0,0,0,218,63.1h-1.5a20.8,20.8,0,0,0-14.1,6.3c-1.7-1.8-3.4-3.6-5.2-5.3A27.2,27.2,0,0,1,216.2,55.9Zm-18.5,45.9A29,29,0,0,1,189.8,82,25,25,0,0,1,196,65.4c1.8,1.7,3.5,3.5,5.2,5.4a20.3,20.3,0,0,0-4.7,13.8,19.4,19.4,0,0,0,8.6,15.3c-1.2,1.8-2.5,3.6-3.8,5.2A28.2,28.2,0,0,1,197.7,101.8Zm5.1,4.4,3.9-5.3a21.3,21.3,0,0,0,9.4,2.6h.6a21.5,21.5,0,0,0,11.7-3.5l4.8,5.2a25.8,25.8,0,0,1-15.8,5.4A26.1,26.1,0,0,1,202.8,106.2Z"/><path class="cls-6" d="M247.2,128.1a7.3,7.3,0,0,1,2.3-9.9,6.8,6.8,0,0,1,9.6,2.3,7.2,7.2,0,0,1-2.2,9.9,6.9,6.9,0,0,1-9.7-2.3Z"/><path class="cls-7" d="M248.2,127.5a6.1,6.1,0,0,1,1.9-8.3,5.7,5.7,0,0,1,8,1.9,6.1,6.1,0,0,1-1.9,8.3,5.7,5.7,0,0,1-8-1.9Zm2.6-2.6a3,3,0,0,1,.7-3.8,2.2,2.2,0,0,1,3.3.9,3,3,0,0,1-.7,3.8,2.2,2.2,0,0,1-3.3-.9Z"/><path class="cls-7" d="M252.4,122.3a1.4,1.4,0,0,1,1.7.9,1.1,1.1,0,0,1-.9,1.4,1.5,1.5,0,0,1-1.7-.9,1.1,1.1,0,0,1,.9-1.4Z"/></svg>