<svg id="teams" xmlns="http://www.w3.org/2000/svg" xmlns:xlink="http://www.w3.org/1999/xlink" viewBox="0 0 353.7 177.2"><defs><style>.cls-1,.cls-9{fill:#fff;}.cls-2{fill:url(#Dégradé_sans_nom_7);}.cls-3,.cls-5{opacity:0.15;isolation:isolate;}.cls-3{fill:url(#Dégradé_sans_nom_6);}.cls-4{fill:url(#Dégradé_sans_nom_3);}.cls-5{fill:url(#Dégradé_sans_nom_4);}.cls-6{fill:url(#Dégradé_sans_nom_5);}.cls-7{stroke:#fff;stroke-miterlimit:10;stroke-width:0.25px;}.cls-8,.cls-9{fill-rule:evenodd;}</style><linearGradient id="Dégradé_sans_nom_7" x1="70.32" y1="71.96" x2="118.7" y2="204.86" gradientTransform="translate(0 -42)" gradientUnits="userSpaceOnUse"><stop offset="0.01" stop-color="#e4a910"/><stop offset="0.32" stop-color="#dfa311"/><stop offset="0.63" stop-color="#d08c0c"/><stop offset="1" stop-color="#c17f06"/></linearGradient><linearGradient id="Dégradé_sans_nom_6" x1="84.63" y1="219.17" x2="84.63" y2="96.69" gradientTransform="translate(0 -42)" gradientUnits="userSpaceOnUse"><stop offset="0" stop-color="#c17f06"/><stop offset="0.22" stop-color="#c17f06" stop-opacity="0.99"/><stop offset="0.37" stop-color="#c28006" stop-opacity="0.94"/><stop offset="0.5" stop-color="#c38107" stop-opacity="0.86"/><stop offset="0.61" stop-color="#c58207" stop-opacity="0.75"/><stop offset="0.72" stop-color="#c78408" stop-opacity="0.61"/><stop offset="0.82" stop-color="#ca8609" stop-opacity="0.43"/><stop offset="0.91" stop-color="#cd890b" stop-opacity="0.22"/><stop offset="1" stop-color="#d08c0c" stop-opacity="0"/></linearGradient><linearGradient id="Dégradé_sans_nom_3" x1="42.46" y1="96.15" x2="78.56" y2="222.01" gradientTransform="translate(0 -42)" gradientUnits="userSpaceOnUse"><stop offset="0" stop-color="#f6d54e"/><stop offset="0.31" stop-color="#eec634"/><stop offset="0.57" stop-color="#e9b822"/><stop offset="1" stop-color="#e9b21c"/></linearGradient><linearGradient id="Dégradé_sans_nom_4" x1="46.17" y1="219.17" x2="46.17" y2="137.22" gradientTransform="translate(0 -42)" gradientUnits="userSpaceOnUse"><stop offset="0" stop-color="#f7db5e"/><stop offset="0.2" stop-color="#f7da5d" stop-opacity="0.99"/><stop offset="0.34" stop-color="#f5d75a" stop-opacity="0.95"/><stop offset="0.45" stop-color="#f3d255" stop-opacity="0.89"/><stop offset="0.56" stop-color="#efcc4e" stop-opacity="0.8"/><stop offset="0.66" stop-color="#ebc345" stop-opacity="0.69"/><stop offset="0.75" stop-color="#e6b839" stop-opacity="0.55"/><stop offset="0.84" stop-color="#dfab2c" stop-opacity="0.39"/><stop offset="0.92" stop-color="#d89c1d" stop-opacity="0.21"/><stop offset="1" stop-color="#d08c0c" stop-opacity="0"/></linearGradient><linearGradient id="Dégradé_sans_nom_5" x1="14.94" y1="135" x2="40.27" y2="223.41" gradientTransform="translate(0 -42)" gradientUnits="userSpaceOnUse"><stop offset="0" stop-color="#f8e386"/><stop offset="0.31" stop-color="#f6dc65"/><stop offset="0.57" stop-color="#f7db5e"/><stop offset="1" stop-color="#fad859"/></linearGradient></defs><path class="cls-1" d="M51.5,84.2c0,.4-.1.7-.1,1.1L47,84.6a2.2,2.2,0,0,1,.1-.8A21.8,21.8,0,0,1,51.5,84.2Z"/><path class="cls-1" d="M51.3,85.8l-.6,1.5-4.2-.6.3-1.5C48.3,85,49.6,85.8,51.3,85.8Z"/><path class="cls-1" d="M20,75.7l-.3.5a19,19,0,0,0-4.1,11.2,25.8,25.8,0,0,0,.8,6.8,15.9,15.9,0,0,0,1.2,2.7c0,.2.1.3.1.5a1.5,1.5,0,0,1-1-.9,13.9,13.9,0,0,1-2.2-4.6,15.5,15.5,0,0,1,.6-10A15.8,15.8,0,0,1,20,75.7Z"/><path class="cls-1" d="M17.8,97.4h0Z"/><path class="cls-2" d="M114.6,177.2H68.5V21.9a7.9,7.9,0,0,1,7.9-7.7h38.2a7.8,7.8,0,0,1,7.7,7.7h0V169.3A7.9,7.9,0,0,1,114.6,177.2Z"/><path class="cls-3" d="M86.7,54.7H74.6V177.2h20V62.6A7.9,7.9,0,0,0,86.7,54.7Z"/><path class="cls-4" d="M88.5,177.2H33.8V62.6a7.9,7.9,0,0,1,7.9-7.9H80.6a7.9,7.9,0,0,1,7.9,7.9Z"/><path class="cls-5" d="M48.7,95.3h-13v81.9H56.6v-74A7.9,7.9,0,0,0,48.7,95.3Z"/><path class="cls-6" d="M54.7,177.2H7.7A7.9,7.9,0,0,1,0,169.3H0V103.2a7.9,7.9,0,0,1,7.7-7.9H46.8a8,8,0,0,1,7.9,7.9h0Z"/><path class="cls-7" d="M250.5,127.2l-26.2,3.2-5.1.3c-6,.3-13.6.7-23.8,1.6-12.4,1.1-19.3,2-23.4,2.6a6.7,6.7,0,0,1-4.9-1.4,6.4,6.4,0,0,1-2.4-4.6c-.4-5.6-.9-11-1.3-16.3-.9-12.1-1.8-23.5-2.8-36.2a5.1,5.1,0,0,1,4.5-5.5l73.1-7.2h.1a5.6,5.6,0,0,1,6.1,5c1,8.5,2.3,16.1,3.2,21.7.7,3.9,1.2,7,1.4,8.8s.1,2.5.2,3.7l.3,3.6c.1,1.2.2,2.1.3,3.2s1,10.4,1.5,15.5a1,1,0,0,1-.8,1h0a1,1,0,0,1-1-.8c-.4-5.1-1.2-13.8-1.4-15.5a31.1,31.1,0,0,1-.4-3.2c-.1-1.3-.2-2.5-.2-3.7l-.3-3.7c-.1-1.7-.7-4.8-1.3-8.7-.9-5.5-2.2-13.1-3.2-21.7a4.1,4.1,0,0,0-4.3-3.5h0l-73.1,7.3a3.4,3.4,0,0,0-3,3.5c1.1,12.8,2,24.2,2.9,36.3.4,5.3.8,10.7,1.3,16.3a4.6,4.6,0,0,0,5.3,4.3c4.1-.5,11-1.5,23.4-2.5,10.3-.9,17.8-1.3,23.9-1.7l31.3-3.4a.9.9,0,0,1,.9.8A.8.8,0,0,1,250.5,127.2Z"/><path d="M163.1,82.5c-.5.1-.9-.2-.9-.5s.3-.7.8-.7l80.5-7.8h0c.5,0,.9.2.9.6s-.3.6-.8.7l-80.5,7.7Z"/><path class="cls-7" d="M167.5,77.8a1.2,1.2,0,0,1-1.4-1.1,1.6,1.6,0,0,1,.8-1.4h.4a2.3,2.3,0,0,1,1.1.4h0l.3.5v.2a1.1,1.1,0,0,1-.1.8.8.8,0,0,1-.4.4Zm-.2-.8h.3c.1,0,.3-.1.3-.4a.5.5,0,0,0-.5-.5l.2.4h.2v.5h-.3Zm.3-.1Zm-.6-.5h0Z"/><path class="cls-7" d="M172.4,77.3a1.1,1.1,0,0,1-.9-.3.7.7,0,0,1-.4-.5.4.4,0,0,1-.1-.3,1.8,1.8,0,0,1,.6-1.3,1.1,1.1,0,0,1,.8-.1h.1a1.8,1.8,0,0,1,.8.5.9.9,0,0,1,.3.6C173.5,76.9,173,77.3,172.4,77.3Zm.1-1.1h.2a.3.3,0,0,0,.1-.2Zm-.7-.3h.3v-.1l.2-.3h-.1A.5.5,0,0,0,171.8,75.9Z"/><path class="cls-7" d="M177.2,76.8a1.3,1.3,0,0,1-1.5-1.1,1.6,1.6,0,0,1,1.2-1.5h.1a1.4,1.4,0,0,1,1,.5,1.2,1.2,0,0,1,.4.8A1.1,1.1,0,0,1,177.2,76.8Zm-.2-1.7V76a.4.4,0,0,0,.4-.4.5.5,0,0,0-.5-.5Zm-.3.8h.3v-.9c-.2,0-.4.3-.3.6Z"/><path class="cls-7" d="M213.8,110.4h-.6a.7.7,0,0,1-.6-.4c-1.8-2.9-4.4-5.3-7.2-7.9s-5.9-5.5-8.1-9c-6.5,6.7-14.5,12.3-22.3,17.8l-2.3,1.6a.8.8,0,0,1-1.2-.2.9.9,0,0,1,.2-1.3l2.3-1.6c8-5.6,16.3-11.4,22.8-18.3a.9.9,0,0,1,.7-.3,1,1,0,0,1,.7.4c2.2,3.7,5.3,6.7,8.4,9.6a45.8,45.8,0,0,1,7.1,7.6l2.7-3c3.9-4.2,8.3-9,12.6-11.5a.9.9,0,1,1,.8,1.6c-4,2.3-8.3,7-12.1,11.1l-3.3,3.6Z"/><path class="cls-7" d="M231.8,96.2a1.1,1.1,0,0,1-.8-.3c-1.6-1.8-3.1-3.3-4.5-4.6a.7.7,0,0,1-.3-.8,1.1,1.1,0,0,1,.6-.7l3.9-1.1,3.3-.9a1,1,0,0,1,.9.2.9.9,0,0,1,.1,1,54.1,54.1,0,0,0-2.5,6.6.9.9,0,0,1-.6.6Zm-3-5.1,2.5,2.5a30,30,0,0,1,1.4-3.6l-1.5.4Z"/><path class="cls-7" d="M179.9,132a.9.9,0,0,1-.9-.8l-.4-3.7c-.5-4.6-.9-9.4-1.5-14.1a.8.8,0,0,1,.8-.9.9.9,0,0,1,1,.7c.5,4.7,1,9.5,1.5,14.1l.3,3.8c.1.4-.3.8-.8.9Z"/><path class="cls-7" d="M190.7,130.9a.8.8,0,0,1-.9-.8c-.5-4.2-1.1-8.4-1.6-12.5s-.9-6.8-1.3-10.2c-.1-.4.3-.8.8-.9a.8.8,0,0,1,.9.7c.4,3.4.9,6.8,1.3,10.2s1.1,8.3,1.6,12.5a.9.9,0,0,1-.8,1Z"/><path class="cls-7" d="M200.1,130a.7.7,0,0,1-.9-.7c-.2-1.9-.5-3.9-.6-6.1s-.6-7.5-.8-11.2-.5-7.4-.8-11a.8.8,0,0,1,.8-.9,1,1,0,0,1,1,.7c.3,3.7.5,7.5.7,11.1s.5,7.5.8,11.2.4,4.1.6,6a.7.7,0,0,1-.7.9Z"/><path class="cls-7" d="M212.3,129.2c-.5,0-1-.3-1-.7l-.6-5.7c-.3-3.7-.7-7.5-1-11.3-.1-.4.3-.8.8-.9a.8.8,0,0,1,.9.8c.3,3.7.7,7.6,1.1,11.2l.6,5.7a1,1,0,0,1-.8.9Z"/><path class="cls-7" d="M225.2,127.4a1,1,0,0,1-1-.8l-.3-2.7c-.5-4.5-1-9.2-1.4-13.9a.9.9,0,0,1,.8-.9,1,1,0,0,1,1,.8c.4,4.6.9,9.3,1.4,13.9l.3,2.6a1,1,0,0,1-.8,1Z"/><path class="cls-7" d="M234.7,120.3h-.1a.8.8,0,0,1-.9-.8c-.1-1.6-.1-3.2-.2-4.8-.1-4.4-.3-9-.6-13.5-.1-.4.3-.8.8-.9h0a.8.8,0,0,1,.9.8c.3,4.5.5,9.1.7,13.6,0,1.6.1,3.1.2,4.7A.9.9,0,0,1,234.7,120.3Z"/><path class="cls-8" d="M270.4,114.5a7.4,7.4,0,0,1,2.3-10,6.8,6.8,0,0,1,9.6,2.3,7.4,7.4,0,0,1-2.2,10,6.9,6.9,0,0,1-9.7-2.3Z"/><path class="cls-9" d="M271.4,113.8a6.1,6.1,0,0,1,1.9-8.3,5.8,5.8,0,0,1,8,1.9,6.1,6.1,0,0,1-1.9,8.3,5.7,5.7,0,0,1-8-1.9Zm2.6-2.5a3.2,3.2,0,0,1,.7-3.9,2.2,2.2,0,0,1,3.3.9,3,3,0,0,1-.7,3.8,2.1,2.1,0,0,1-3.3-.8Z"/><path class="cls-9" d="M275.6,108.6a1.6,1.6,0,0,1,1.7.9,1.1,1.1,0,0,1-.9,1.4,1.5,1.5,0,0,1-1.7-.8,1.2,1.2,0,0,1,.9-1.5Z"/><path class="cls-8" d="M278.9,139.7a3.8,3.8,0,0,1,2.6-4.3,3.2,3.2,0,0,1,3.9,2.7,3.7,3.7,0,0,1-2.6,4.3,3.3,3.3,0,0,1-3.9-2.7Z"/><path class="cls-9" d="M280.4,139.4a2.1,2.1,0,0,1,1.6-2.5,2,2,0,0,1,2.5,1.5,2.1,2.1,0,0,1-1.7,2.5,1.9,1.9,0,0,1-2.4-1.5Z"/><path class="cls-8" d="M245.3,143.3a3.7,3.7,0,0,1,2.6-4.3,3.3,3.3,0,0,1,3.9,2.7,3.6,3.6,0,0,1-2.6,4.2,3.1,3.1,0,0,1-3.9-2.6Z"/><path class="cls-9" d="M246.7,142.9a2.1,2.1,0,0,1,4.2-.9,2.3,2.3,0,0,1-1.7,2.5,2,2,0,0,1-2.5-1.6Z"/></svg>