<svg id="Calque_1" data-name="Calque 1" xmlns="http://www.w3.org/2000/svg" viewBox="0 0 467.4 116.6"><defs><style>.cls-1{fill:#c6e9e1;}</style></defs><polygon class="cls-1" points="64.4 6.7 5.2 109.3 457.7 109.3 398.5 6.7 64.4 6.7"/><path class="cls-1" d="M71.2,13V7.6a20,20,0,0,1,3.5.2,49,49,0,0,0,9.4-.3,3.9,3.9,0,0,1,1.9.1,5.4,5.4,0,0,0,1.8,0,2.9,2.9,0,0,1,3,.1L92,7.2l1.1.7a11.1,11.1,0,0,0,1.1-1.6h3.2a4.9,4.9,0,0,0,3.3-.3,9.3,9.3,0,0,1-.5-1h.6l.7.3,3-.3c0,.6-.1.9-.1,1.3l3.8.2c.3,0,.8-.3.8-.5s-.4-.4-1-.9l5,.5-2.6.6c2.3.3,4.3.4,5.4-.6s1.8.9,3.1.1l1.6,2,3.1-2c1.8-.6,2.6.3,3.6.7l2.8-.8a4.1,4.1,0,0,0,.3,1l5.6-.4V7.4h.8V6.2l1.6.8h.4a13,13,0,0,0-1-1.5h2.7l1.4.9,2.4-1,.5.2-.9.6,4.6.5-3.3.3c2.5.6,5.3.5,6.4-.1l1.4.6c.9-.4,1.8-.7.6-1.3s-.3-.7,0-.8,1.4.1,1.7.5.8.3,1.3.5l-1.7.5c2.2.6,10.8.5,11.9,0l-2-.4,2.4-1,1.8.9-1.9.4c1.6.6,3.5.4,5.2.4s4.9,0,7.4-.2a6.1,6.1,0,0,0,1.7-.4,18.1,18.1,0,0,0,3.1.5l7.9-.4h4.8l4.2-.2c2-.2,4-.6,5.9.1a6,6,0,0,0,1.8-.3l1,.3V6l.5.2c1.5.9,2.2,1,4.6.5a7.4,7.4,0,0,1,2.1,0,15,15,0,0,0,5.6.2c.8-.1,2,.1,3.1.1l12.5.2a10.1,10.1,0,0,0,1.7-.3h2c.8.6,1.6.5,2.8.2s2.8-.5,3.5-.1l4.1-.2a1.9,1.9,0,0,1,.8-.4l1.9-.4-1.9-.6c1.6-.6,3.5.1,5.2-.3,0,.7-4.4.6-1.9,1.5l.4-.2a28.5,28.5,0,0,0,2.9.3l1.5-.3c0-.3-.3-.6-.6-.9h5v.2h-1.1l-2.1.3c.5.4.9,1,1.5,1a13.7,13.7,0,0,0,4.9-.3c1.1-.4,3.4-.2,5.2-.2.1,0,.3.3.6.7s1.1-.6,1.2-.9L274.6,6a6.6,6.6,0,0,1-2-.6h3.6l-2.1-.4h2.4c.1.7,1.6.4,2.5.5h4.8a3.5,3.5,0,0,0,1.1-.3c.4,0,1.1.2,1.3.1a4.2,4.2,0,0,0,1.2-.8c3.5.1,7.8-.8,11.5.7l-1.8.3c-.2-.2-.3-.5-.6-.6a12.9,12.9,0,0,0-2.9-.3l3.1,2.2c.2-.4.2-.6.4-1.1l2,1,3.2-.6c-1.1-.4-3.1-.1-2.9-1s1.5-.9,3.1-1.1l-.4-.7c.9-.2,1.9.1,1.9.6v.2l6.4.4h2.1V4.1L310,3.8V3.5h3.7c-.1.7-.1.7,2.4.8.5,0,.8.4,1.4.4l4.5.2a23,23,0,0,1,2.6.3,36.4,36.4,0,0,1,5.7-.4,87,87,0,0,0,12.5.2h6.7V3.5h.8l.5,1.7h.5a3.6,3.6,0,0,1,.7-1h2.3c.6,1,1.7,1.1,4.6.9a27.7,27.7,0,0,1,4.1-.1V4.8h-3.1c-1.4,0-2.4-.1-1.4-.9l6.5.7a6.4,6.4,0,0,0,2.1-.1,5.3,5.3,0,0,1,3.5-.1c1,.1,2,.4,2.4-.3h.9c.2.2.4.4.4.6s-.5.4-.8.7h4.2l-2-1.3h6.5c3.1-.5,6.6-.1,10,.3h-1.3v.2l1.9.3a7.4,7.4,0,0,1,3.9,0,1.8,1.8,0,0,0,1-.1,6.7,6.7,0,0,1,2.4-.4h3.6l4.4.4.9,1.9a4.4,4.4,0,0,1,1.7,1.5,9.9,9.9,0,0,1,.9,1.5,4.1,4.1,0,0,1,.5.9l.3.6c.7,1.4,1,3.2,2.4,4.3s.2.6.4.9l2,3.6a12.9,12.9,0,0,1,.9,1.6l1.2,1.1-.3.8a35.7,35.7,0,0,1,3.2,5.1c1.2,2.8,3,5.1,4.3,7.8s2.2,6,4.4,9.1c0-.4-.1-.8-.1-1.4l3.2,5h.2c.2.6.3,1.2.6,2l.8.2c-.2,1.2.1,2,1,1.8l2.1,4.4.5.6c1.9,1.9,2.3,2.5,2.8,5,2.3,2.2,3.1,5.3,4.5,8.2l.6-.6c.3,1,.7,1.9,1.1,3h.2c1.1,1.7,2.3,3.3,3.3,4.9a2,2,0,0,1,.3,1.1c1.9,3.2,3.6,6.1,5.4,9l.2-.2c.3,1.2.1,2.6,1.7,3.2s.3.5.4.7l2.4,4.6.6,1.1.3.6.5,1,2.2,3.9c1.8,3.2,4,6.5,6.1,9.8.7,1.2,1,2.2,1.6,3.3l.7,1.2h-6.9c-4.2,0-8.5,0-12.4.3l-3.6.2h-6.9l-17.7.4h-3.6v.7H387.6v-.7h-3.7l-17.7-.4c-3.1-.1-6.1,0-9.2-.3a56.2,56.2,0,0,0-7.1-.3l-4.7.2-2.2.2c-2.1-.1-4.2-.4-6.3-.3l-10.3.3h-.8c-1.3-1-2.5-.2-3.6.1v-.2l-10.5-.2c0,.1-.6.3-1,.3l-5.9-.4a.4.4,0,0,1-.3-.2l-3.2.6.3-.8c-3.2.2-6.2,1.1-9.3.2-2.4.8-3.2.8-5.8.1h-.7l-4.9.3c-.3-.8-1.1-.7-2,0a3.4,3.4,0,0,1-.6-.6l-2.1.5v-.2l-5.9-.3,1.3-.6c-3.8-.3-6.8.6-10.1.8s-5.9-.2-8.9.2a43.6,43.6,0,0,1-6.1-.3l-.5.7-1.5-.5h-6.9c-1.8-.7-3.4-.1-5,.1s-2.9.1-3.6-.7l-3.9.5a9.7,9.7,0,0,1-4.8-.2c-.3-.1-.9-.2-1-.1a7.4,7.4,0,0,1-3.9,0l-2,.3v.2h1.4c-3.5.4-6.9.8-10,.3h-6.6l2-1.3H196c.2.2.6.4.7.6s-.2.4-.4.6h-.9c-.4-.7-1.4-.4-2.4-.3s-2.4.6-3.4-.1a7.1,7.1,0,0,0-2.2-.1l-6.5.7c-.9-.8,0-.9,1.5-.9h3.1v-.3h-4.2c-2.8-.3-4-.1-4.6.9h-2.2l-.8-.9h-.5l-.4,1.7h-.8v-1.4h-6.7a106,106,0,0,0-12.6.2,54.4,54.4,0,0,1-5.7-.3l-2.6.2-4.5.2c-.5,0-.9.4-1.4.4-2.4.1-2.4.1-2.4.8h-3.7v-.3l2.4-.3v-.3h-2l-6.4.4v.2c-.1.5-1,.8-2,.6l.5-.7c-1.6-.2-2.9-.3-3.1-1.1s1.8-.6,2.9-.9l-3.2-.7-2.1,1c-.1-.5-.2-.7-.3-1.1l-3.1,2.2a8.3,8.3,0,0,0,2.8-.3c.4-.1.5-.4.7-.5l1.8.3c-3.8,1.5-8,.5-11.5.6a9.1,9.1,0,0,0-1.3-.8c-.1-.1-.9.1-1.2.1a3.5,3.5,0,0,0-1.1-.3h-4.8c-1,.1-2.5-.2-2.6.5H96.4l2-.4H94.8a7.3,7.3,0,0,1,2.1-.6l1.3-.3c-.1-.3-.5-.5-1.1-.9s-.5.7-.7.7c-1.8,0-4.1.2-5.1-.2a14.2,14.2,0,0,0-5-.3c-.6.1-1,.6-1.5,1l2.2.3h1v.3H82a2.7,2.7,0,0,1,1-.2c.3-.3.6-.6.6-.9a3.2,3.2,0,0,0-1.4-.3l-2.9.3-.5-.2c-2.5,1,1.9.8,1.9,1.5-1.7-.4-3.6.3-5.2-.3l1.9-.6-1.8-.4a1.9,1.9,0,0,1-.9-.4l-4.1-.2c-.7.4-1.6.5-3.5-.1s-1.9-.4-2.8.2H62.4l-1.7-.3-12.6.2a15.5,15.5,0,0,1-3,.1,17.2,17.2,0,0,0-5.6.2,7.4,7.4,0,0,1-2.1,0c-2.4-.5-3.2-.4-4.6.5l-.5.2v-.8l-1.1.3a5.6,5.6,0,0,0-1.8-.3,9.2,9.2,0,0,1-2.9.4H23.1l-5.9-.2H6.8l4.1-6.7a24.3,24.3,0,0,0,1.6-3.7,13.9,13.9,0,0,0,1.7-2.1l2.4-3.9,1.9-3.1c.8-1.5,2-3.1,2.2-4.7l-1.3,1.4c.1-.8.1-1.3.2-2l2-1.5L21,91.1c1-.7,5.3-8.1,5.9-10.3A6.8,6.8,0,0,1,25.7,82a4.2,4.2,0,0,0,.2-1.4c-.3-.4-.4-.8.4-1.7s.7.1.7.5.6.7,1.4,0V78c1.2-.6,2.6-3.1,3.4-5.5L30,75.2c.7-1.7,1.2-3,1.8-4.3l-1,.5.2-.5,2-1.6c0-.6-.1-1.3-.1-1.7l1.3-2.3.7,1.6.3-.4a12.3,12.3,0,0,1,.1-1.7l1,.5.4-.7L35.6,64l3.1-4.7-.7-.7,2.1-2c.2-1.2-.2-2.2,1.2-3.5l3.3-1.7-1-2.4c1.4-.7,1.3-1.7,1.5-2.8s2.3-2.2,3.2-4.3l-1.8,2c.8-1.6,1.3-2.8,2.1-4.6.1.8.1,1.3.3,1.4a1.8,1.8,0,0,0,.8-.5c.6-1.1,1.1-2.3,1.7-3.5l-1.1-.4,1.8-2.5V33l.4-.5.6.9c.8-.3,1.3-1.3,1.9-2.6a24,24,0,0,1,1.6-2.7l1.9-.3V26.6l1-.9a3.3,3.3,0,0,1,1.4-2.6c.3-.1.8-1.1.9-1.5a6,6,0,0,1,.9-1.8,53.9,53.9,0,0,0,5-8c.4-1,1-2,1.5-3l4.7,2.6v.9A16.1,16.1,0,0,0,70.6,18a4.9,4.9,0,0,1-2.1,3.4c-.7,1.5-1,3.2-2.5,4.2a4.3,4.3,0,0,0-.5,1.2c-.1,1.7-.8,2.7-1.8,3a6.5,6.5,0,0,1-.7,2.1L55.7,45.3c-1.9,3.3-3.7,6.6-5.5,10s-5.7,9.5-8.5,14.2a12.9,12.9,0,0,0-1.8,3.2,14.8,14.8,0,0,1-2.7,4.4,10.8,10.8,0,0,0-1.1,1.8c.8,1-1,2.5-1.6,3.7l.3-1.3h-.3c-.6,1.9-1,3.9-2.6,5.5a2,2,0,0,1-.1-.7L30,88.3l-1.3,4c0,.1-.6.4-.7.4s-.5,1.5-.7,1.8l-2,1.9a3.1,3.1,0,0,1-1,2.9,12,12,0,0,1,.7-1.8l-1.5,2.4c-.5.8-1.6,1.8-1,2.5a2.7,2.7,0,0,1-.4.7c-.1.1-.3.1-.3,0s-.5-.1-.8.3a1.5,1.5,0,0,0-.5.6,27.3,27.3,0,0,0-1.4,3.1c.7-.2,1.1-.2.6.5l-.6.9,4.1.3h1.5v.2l-2.2.2h0l1.4.4h1l.9-.2c.7-.4.9-.8,1.3,0l1.1.2,4.3-.4c.2-.1.4,0,.6,0l2.4.2,7.8-.2v.2l-2.1.4h3.7c-.5-.7.8-.9,1.9-.9l14.6-.2H71.6l6.6-.3,18-.3,28.5-.6h14l13.8-.4,22.3-.5,21.1-.3,15.8-.2h13.5l9.5-.2h31.9l35.7-.2h150l-1-1.7L436.5,78.2l-17.7-31L406.8,26,403,19.6l-.9-1.6-.4-.8V17h0c-.1-.1-.1-.2-.1-.4H373.6L352.5,16l-22.3-.5-13.8-.4H302.5l-28.6-.6L256,14.1l-6.7-.3c-3.4-.1-6.8,0-10.3,0l-14.5-.2c-1.1,0-2.4-.2-1.9-.9h-3.7l2,.4v.2l-7.7-.2-2.4.2h-.6l-4.3-.5-1.1.2c-.4.8-.7.4-1.4,0a14.4,14.4,0,0,0-2.3-.4l-2.6.4h-.1l3.9.2v.2l-2.9.2-11.9.3c-1.7.1-2.3-.2-2.4-.7l-6.6-.4c-.6,0-2.3.1-1.9.7s-.1.2-.2.3h-.8c-.3-.8-1.7-.4-2.7-.3h-2.7l1.9.3c-1.7.6-2.2,0-3.1-.5l-2.6.7a8.3,8.3,0,0,1-2-.2l-.7.4-4.1-.9-2.7.5.6.4c-2.2.6-4.1,0-6.1-.5l-.2.3,1.3.4c-1.4-.1-3.6.7-4.1-.5h-2a13,13,0,0,1-5.2.1h-3.7c-5.5.1-11.1.5-16.6.3l-11.4-.3-15.2-.3a20.7,20.7,0,0,1-2.2-.4c-.7.6-2,.7-3.5-.1H87.4c-1.6.8-3.2.2-4.9.1a4.9,4.9,0,0,1-4,.1,17.7,17.7,0,0,0-6.5-.1Zm40.5,104.1,1.8-.4-.7-.8h-6.5l-1.4-.5a5.2,5.2,0,0,1-4.1.3H99.2c-.3.1-.5.4-.3.5a3.3,3.3,0,0,0,1.5.3h7.9a5.3,5.3,0,0,1,2.2.5c-.5,1,1.1.5,2.3.5Zm71.4-1.5a10,10,0,0,0-3-.9,24.8,24.8,0,0,0-4.2.5l1.1-1.4-1.4-.2a48.2,48.2,0,0,1-5.4.1,9.7,9.7,0,0,0-3.3.3,14.3,14.3,0,0,1-2.2.4h-3.4l-.5.2h1.1c-1.8.9-4.2.7-6.6.6l1.5-.9-5.1.4-.8.6-1.5-.4a8.7,8.7,0,0,0-2.2-.5l-4,.5v.2h1.6v.2c-2.9-.4-5.6.6-8.6,0a17.7,17.7,0,0,0-2.2.1l-3.5.3-1.1.3.4.2h2.6c.4.7,1.2.8,3,.4a11.5,11.5,0,0,1,5.6.1c2.6,0,4.8-.3,6.7-.1a15.1,15.1,0,0,0,3,.2,73.6,73.6,0,0,1,8.1-.2c2.5.2,4.3.2,5.9-.5a2.9,2.9,0,0,1,1.3,0c1.8.8,2,.9,3.3.1,3.2.8,6.1-.8,9.2-.2l-1.4.4c3.4-.1,3.4-.1,3-.4Zm4.3-.7a12.6,12.6,0,0,1,5.4.3l1.9-1.5-.9-.2-1.9,1c-.1-.3-.4-.5-.3-.6s-1.1-.8-1.9-.6-4.2.2-6.2.3a8.6,8.6,0,0,1-2.2.1c-1.5-.6-1.6,0-2.2.2v.3l5.6-.2.4,1.4Zm8.6,2.3h-9.5v.4h6.9A4.2,4.2,0,0,0,196,117.2Zm21.3-3.4a18.5,18.5,0,0,0-7-.2,9.3,9.3,0,0,0-1.9-.4l-12.3.7.3,1.1c3.2-.3,6.6-.1,9.1-1.1.4.8,2,.5,3.3.5l5.6-.3ZM373.8,8.6l12.4.7a8.6,8.6,0,0,0,1.8-.4,19,19,0,0,0,7.1-.2l-2.9-.2-5.7-.3c-1.3-.1-2.8-.4-3.2.4-2.5-1-5.9-.8-9.1-1.1A4.9,4.9,0,0,1,373.8,8.6Zm-9.5-3.4,9.4.2a3.5,3.5,0,0,0-2.5-.5h-6.9ZM357,8.3v.3c.6.2.6.8,2.1.2a9.5,9.5,0,0,1,2.3.1c2,.1,4.1-.2,6.1.3s2.1.1,1.9-.6l.4-.5,1.9.9.9-.2-1.9-1.5a12.7,12.7,0,0,1-5.4.3l-2.3-.5a7.4,7.4,0,0,1-.4,1.4ZM307.2,6.2a4.5,4.5,0,0,0,1.1.3l3.5.3a19.3,19.3,0,0,0,2.3.1c3-.6,5.6.4,8.5,0v.2l-1.6.2v.2l3.9.4a9.5,9.5,0,0,0,2.3-.5l1.4-.4.8.6,5.1.5-1.4-1c2.4-.1,4.7-.3,6.6.6h-1.2l.5.2h3.5a8.7,8.7,0,0,1,2.2.5,12.7,12.7,0,0,0,3.3.2,46,46,0,0,1,5.3.1l1.5-.2a17.1,17.1,0,0,1-1.1-1.4,22.7,22.7,0,0,0,4.1.5,10.6,10.6,0,0,0,3.1-.9L358,6.2c.4-.3.4-.3-3-.4l1.3.4c-3.1.6-6-.9-9.2-.1-1.2-.8-1.5-.8-3.2,0h-1.3c-1.7-.8-3.4-.8-5.9-.6a75.4,75.4,0,0,1-8.2-.2l-3,.2c-1.8.2-4-.1-6.6-.1a11.5,11.5,0,0,1-5.6.1c-1.8-.4-2.6-.3-3.1.4h-2.6Zm-30.3.5h1.6a5,5,0,0,1,4.2.4l1.3-.6h6.5l.7-.7-1.8-.5,1.1-.5c-1.2,0-2.8-.5-2.2.5a5.3,5.3,0,0,1-2.2.5h-8a3.4,3.4,0,0,0-1.5.2C276.4,6.3,276.6,6.6,276.9,6.7Z" transform="translate(-6.8 -3.2)"/><path d="M150,45.3h8.5v3.9h-4V79.3h4v3.9H150Z" transform="translate(-6.8 -3.2)"/><path d="M173.5,52.9c5.6,0,8.5,3.3,8.5,7.3a6.8,6.8,0,0,1-5.4,6.8l5.7,9.6h-5.5l-5.2-9.2h-2.3v9.2h-4.7V52.9Zm-.2,4h-4v6.9h4c2.6,0,3.8-1.4,3.8-3.5S175.9,56.9,173.3,56.9Z" transform="translate(-6.8 -3.2)"/><path d="M194.5,76.9c-5.5,0-9.4-3.8-9.4-9.7s3.8-9.7,9.4-9.7,9.2,3.7,9.2,9.3a10.9,10.9,0,0,1-.1,1.8H189.9a4.3,4.3,0,0,0,4.5,4.3,3.8,3.8,0,0,0,3.7-2.2h5.1A8.7,8.7,0,0,1,194.5,76.9Zm-4.6-11.5h8.9a4.2,4.2,0,0,0-4.5-4A4.4,4.4,0,0,0,189.9,65.4Z" transform="translate(-6.8 -3.2)"/><path d="M207.1,52.9h14.6v3.9h-9.8v6h7.5v3.8h-7.5v10h-4.8Z" transform="translate(-6.8 -3.2)"/><path d="M232.4,57.5a7.3,7.3,0,0,1,6.2,3V57.8h4.7V76.6h-4.7V73.8a7.5,7.5,0,0,1-6.2,3.1c-4.8,0-8.6-3.9-8.6-9.8S227.6,57.5,232.4,57.5Zm1.2,4.2c-2.5,0-4.9,1.9-4.9,5.4s2.4,5.6,4.9,5.6,5-2,5-5.5S236.2,61.7,233.6,61.7Z" transform="translate(-6.8 -3.2)"/><path d="M256,57.5c4.7,0,7.8,2.5,8.8,6.6h-5.1a3.7,3.7,0,0,0-3.7-2.6c-2.7,0-4.4,2-4.4,5.7s1.7,5.6,4.4,5.6a3.5,3.5,0,0,0,3.7-2.6h5.1a8.5,8.5,0,0,1-8.8,6.7c-5.4,0-9.3-3.8-9.3-9.7S250.6,57.5,256,57.5Z" transform="translate(-6.8 -3.2)"/><path d="M269.1,61.7h-2.3V57.8h2.3V53.2h4.7v4.6H278v3.9h-4.2v9.1c0,1.2.5,1.8,2,1.8H278v4h-3c-3.5,0-5.9-1.6-5.9-5.9Z" transform="translate(-6.8 -3.2)"/><path d="M289.8,76.9c-5.5,0-9.6-3.8-9.6-9.7a9.7,9.7,0,1,1,19.3,0A9.3,9.3,0,0,1,289.8,76.9Zm0-4.2c2.5,0,4.9-1.8,4.9-5.5s-2.4-5.6-4.9-5.6-4.7,1.8-4.7,5.6S287.2,72.7,289.8,72.7Z" transform="translate(-6.8 -3.2)"/><path d="M307.7,76.6H303V57.8h4.7v2.9a6.7,6.7,0,0,1,5.8-3.2v5h-1.3c-2.8,0-4.5,1.1-4.5,4.7Z" transform="translate(-6.8 -3.2)"/><path d="M326.5,83.2H318V79.3h4.1V49.2H318V45.3h8.5Z" transform="translate(-6.8 -3.2)"/></svg>