<svg id="microsoft_365" data-name="microsoft 365" xmlns="http://www.w3.org/2000/svg" viewBox="0 0 340.11 319.88"><defs><style>.cls-1{fill:#737474;}.cls-2{fill:#f05125;}.cls-3{fill:#7ebb42;}.cls-4{fill:#33a0da;}.cls-5{fill:#fdb813;}.cls-6,.cls-8{fill:#fff;}.cls-7,.cls-8{fill-rule:evenodd;}</style></defs><g id="MS-symbol"><path class="cls-1" d="M269.08,159.84v.08a7.9,7.9,0,0,1,4.93,2.19,6.29,6.29,0,0,1,1.81,4.61,7.81,7.81,0,0,1-2.89,6.34,11.84,11.84,0,0,1-7.85,2.41,17.53,17.53,0,0,1-3.95-.45,9.79,9.79,0,0,1-3-1.1v-4.69a10.56,10.56,0,0,0,3.16,1.68,11.34,11.34,0,0,0,3.65.63,6.64,6.64,0,0,0,4.27-1.26,4.16,4.16,0,0,0,1.56-3.41,3.94,3.94,0,0,0-1.85-3.51,9.66,9.66,0,0,0-5.29-1.21h-2.51v-4h2.39a8.23,8.23,0,0,0,4.68-1.13,3.74,3.74,0,0,0,1.61-3.31,3.78,3.78,0,0,0-1.26-3.07,5.5,5.5,0,0,0-3.63-1.07,8.6,8.6,0,0,0-2.93.51,10.26,10.26,0,0,0-2.76,1.54v-4.37a12,12,0,0,1,3.12-1.17,16.85,16.85,0,0,1,3.81-.42,9.65,9.65,0,0,1,6.21,2,6.28,6.28,0,0,1,2.42,5.08,7,7,0,0,1-1.49,4.6A7.9,7.9,0,0,1,269.08,159.84Z"/><path class="cls-1" d="M283.66,160a5.42,5.42,0,0,1,2.55-2.41,8.68,8.68,0,0,1,3.85-.84,8.39,8.39,0,0,1,5.86,2.28q2.46,2.3,2.46,6.64a9.36,9.36,0,0,1-2.82,7.2,9.76,9.76,0,0,1-6.87,2.61,8.89,8.89,0,0,1-7.44-3.51q-2.72-3.51-2.7-9.78,0-8.17,3.61-12.35a11.46,11.46,0,0,1,9.06-4.19,20.47,20.47,0,0,1,3,.2,7.48,7.48,0,0,1,2.23.62v4.37a10.93,10.93,0,0,0-5-1.26,7,7,0,0,0-5.71,2.73c-1.43,1.83-2.17,4.38-2.19,7.68Zm.08,5.67a6.23,6.23,0,0,0,1.41,4.16,4.47,4.47,0,0,0,3.58,1.67,4.39,4.39,0,0,0,3.44-1.45,6.87,6.87,0,0,0,0-8.06,4.5,4.5,0,0,0-3.51-1.37A4.8,4.8,0,0,0,285.1,162a5,5,0,0,0-1.36,3.67Z"/><path class="cls-1" d="M318.4,166a8.9,8.9,0,0,1-2.88,6.91c-1.91,1.74-4.55,2.61-7.9,2.59a14.7,14.7,0,0,1-4-.52,13.82,13.82,0,0,1-2.93-1.11v-4.53a10.9,10.9,0,0,0,3.18,1.68,10.56,10.56,0,0,0,3.15.53,7,7,0,0,0,4.61-1.43,4.77,4.77,0,0,0,1.73-3.87,4.4,4.4,0,0,0-1.77-3.74,8.39,8.39,0,0,0-5.11-1.32c-.66,0-1.52,0-2.59.08s-1.8.12-2.2.18l1-15.27h14.34v4.13H306.78l-.48,7,1.3-.07h1.25q4.54,0,7.06,2.32A8.28,8.28,0,0,1,318.4,166Z"/><path class="cls-1" d="M114.72,146.15V175h-5v-22.6h-.08L100.67,175H97.35l-9.17-22.61h-.05V175H83.52V146.15H90.7L99,167.51h.12l8.75-21.36Zm4.19,2.19a2.62,2.62,0,0,1,.87-2,3.11,3.11,0,0,1,4.22,0,2.75,2.75,0,0,1,.83,2,2.59,2.59,0,0,1-.86,2,2.93,2.93,0,0,1-2.09.8,2.9,2.9,0,0,1-2.09-.81,2.63,2.63,0,0,1-.88-2Zm5.37,6V175H119.4V154.31ZM139,171.43a6.44,6.44,0,0,0,2.37-.49,10.16,10.16,0,0,0,2.41-1.34v4.53a9.81,9.81,0,0,1-2.64,1,14.83,14.83,0,0,1-3.25.34,9.94,9.94,0,0,1-7.41-2.89,10.06,10.06,0,0,1-2.86-7.37,11.69,11.69,0,0,1,2.93-8.19q2.94-3.21,8.26-3.27a11.69,11.69,0,0,1,2.77.36,9.29,9.29,0,0,1,2.22.83v4.67a9.68,9.68,0,0,0-2.3-1.25,6.5,6.5,0,0,0-2.42-.49,6.11,6.11,0,0,0-4.65,1.86,7,7,0,0,0-1.76,5.06,6.68,6.68,0,0,0,1.69,4.88,6.11,6.11,0,0,0,4.61,1.74ZM157.68,154a7.42,7.42,0,0,1,1,.08,5.12,5.12,0,0,1,.77.2v4.93a4.05,4.05,0,0,0-1.11-.53,5.4,5.4,0,0,0-1.78-.25,3.77,3.77,0,0,0-3,1.51,7,7,0,0,0-1.23,4.64V175H147.5V154.3h4.86v3.25h.08a5.73,5.73,0,0,1,2-2.61,5.5,5.5,0,0,1,3.24-1Zm2.09,11a11.19,11.19,0,0,1,2.9-8.12q2.9-3,8.05-3a9.86,9.86,0,0,1,7.56,2.89,12.48,12.48,0,0,1-.16,15.8,10.47,10.47,0,0,1-7.88,3,10.32,10.32,0,0,1-7.63-2.82,10.52,10.52,0,0,1-2.84-7.73Zm5.08-.16a7.44,7.44,0,0,0,1.46,4.95,5.25,5.25,0,0,0,4.19,1.7,4.91,4.91,0,0,0,4-1.7,8,8,0,0,0,1.4-5.08,7.46,7.46,0,0,0-1.45-5,5.67,5.67,0,0,0-8.18.07,7.86,7.86,0,0,0-1.48,5.09Zm23.41-5a2.1,2.1,0,0,0,.66,1.64,11.85,11.85,0,0,0,2.94,1.5,9.8,9.8,0,0,1,4.08,2.62,5.46,5.46,0,0,1,1.18,3.51,5.68,5.68,0,0,1-2.25,4.67,9.5,9.5,0,0,1-6.06,1.78,15.17,15.17,0,0,1-2.85-.32,12.3,12.3,0,0,1-2.64-.78V169.6a11.91,11.91,0,0,0,2.86,1.47,8.22,8.22,0,0,0,2.77.54,4.85,4.85,0,0,0,2.43-.46,1.66,1.66,0,0,0,.79-1.56,2.17,2.17,0,0,0-.82-1.7,12.52,12.52,0,0,0-3.08-1.6,9.54,9.54,0,0,1-3.83-2.51,5.48,5.48,0,0,1-1.12-3.58,5.67,5.67,0,0,1,2.22-4.61,8.86,8.86,0,0,1,5.76-1.8,14.09,14.09,0,0,1,2.43.24,10.28,10.28,0,0,1,2.25.62v4.62a10,10,0,0,0-2.25-1.1,7.56,7.56,0,0,0-2.53-.47,3.72,3.72,0,0,0-2.16.55,1.72,1.72,0,0,0-.8,1.49Zm11,5.21a11.17,11.17,0,0,1,2.89-8.12q2.89-3,8-3a9.93,9.93,0,0,1,7.58,2.88,12.51,12.51,0,0,1-.17,15.81,10.45,10.45,0,0,1-7.88,3,10.31,10.31,0,0,1-7.63-2.83,10.48,10.48,0,0,1-2.84-7.72Zm5.07-.16a7.34,7.34,0,0,0,1.47,4.94,5.18,5.18,0,0,0,4.18,1.69,5,5,0,0,0,4.05-1.7,7.89,7.89,0,0,0,1.38-5.08,7.57,7.57,0,0,0-1.43-5,5.68,5.68,0,0,0-8.19.07,7.69,7.69,0,0,0-1.46,5.09Zm32.31-6.5h-7.27V175h-4.92V158.3H221v-4h3.46v-2.89a7.15,7.15,0,0,1,2.12-5.34A7.44,7.44,0,0,1,232,144a10.13,10.13,0,0,1,1.56.09,6.23,6.23,0,0,1,1.21.27v4.19a5.09,5.09,0,0,0-.84-.34,4.31,4.31,0,0,0-1.38-.2,3,3,0,0,0-2.34,1,4.18,4.18,0,0,0-.84,2.83v2.51h7.25v-4.64l4.88-1.49v6.14h4.91v4h-4.91V168a4.08,4.08,0,0,0,.69,2.69,2.77,2.77,0,0,0,2.18.78,3.13,3.13,0,0,0,1-.2,4.83,4.83,0,0,0,1-.48v4a5.8,5.8,0,0,1-1.53.48,10.85,10.85,0,0,1-2.13.23,6,6,0,0,1-4.6-1.65,7,7,0,0,1-1.54-4.93Z"/><rect class="cls-2" x="21.02" y="136.53" width="22.84" height="22.84"/><rect class="cls-3" x="46.24" y="136.53" width="22.84" height="22.84"/><rect class="cls-4" x="21.02" y="161.75" width="22.84" height="22.84"/><rect class="cls-5" x="46.24" y="161.75" width="22.84" height="22.84"/></g><path d="M296.93,270.57c-.33-1.38,1.92-14.87,2.93-21.19.35-2.19.7-4.31,1-6.28l.13-.8c.12-.74.37-2.29.62-3.79s.49-2.93.59-3.54l.11-.7-.68-.24c-3.23-1.12-33.37-7.2-33.37-7.2L260,229.17s-7.58,35.61-8,41l-.05.72.7.18,4.7,1.19c7.46,1.9,15.92,4.06,23.53,5.31,1.82.3,3.55.54,5.14.71l.32,0,.27-.19,1.26-.92c.23-.17.57-.16.81-.32s.46-.58.7-.82a2.11,2.11,0,0,1,.95-.43,22.31,22.31,0,0,0,3.07-1.59,20,20,0,0,0,2.35-1.86C296.55,271.65,297.1,271.28,296.93,270.57Z"/><path class="cls-6" d="M300,243c-1.4,8.82-3.38,20.84-4.18,27.08-16.93,1.69-24.43-6.8-32.82-6.19-2.34-3.65,2.45-27,3.75-27.72C276.36,238.63,293.89,242.31,300,243ZM287.5,264.55l.44-2-2-.51,3.71-16.14-2.86-.7-6.34,6.65,1.35,2.46,3.8-3.62-2.35,10.77-2.86-.37-.32,2.08Zm-9.44-7.89a5.65,5.65,0,0,0-1.17-5,5.86,5.86,0,0,0,2.3-4.32,4.2,4.2,0,0,0-3.27-4.66c-1.49-.25-3.29.26-4.87,3.23l1.69,1.07c.67-2.15,3.53-2.89,3.9-.16s-2.61,4.41-4,5c1.58.79,2.75,2,2.75,3.56a3.16,3.16,0,0,1-3.67,3.35c-1.26-.18-1.77-1.77-1.71-2.56l-2,.12a5,5,0,0,0,4,5.06C275,261.86,277.46,260.27,278.06,256.66Z"/><path class="cls-6" d="M301.36,234.84c-.19,1.23-1,5.85-1.21,7.33-6-.61-25-4.79-33.18-6.9.58-1.65.65-5,1.5-7.28C271.12,228,297.74,233.58,301.36,234.84Z"/><path class="cls-6" d="M296.06,271.17a5.11,5.11,0,0,1-2,1.22c-8.22.87-16.81-3.15-32.16-6.7l.18-.77C268.45,262.67,278.31,272.25,296.06,271.17Z"/><path class="cls-6" d="M293.26,273.13a9.16,9.16,0,0,1-1.38.78c-14-.1-23.14-5.23-34.95-7.51.5-6,3.89-22.38,5.23-29.09l1-.27c-1.36,6.86-4.6,22.71-4.94,28.61C275,269.24,284.7,273.74,293.26,273.13Z"/><path class="cls-6" d="M291,274.37c-.43.25-.87.46-1.17.6-11.07-.76-25.43-5.38-34.55-7.58.34-6.35,3.92-22.9,5.27-29.74.3-.05.61-.12.92-.19-1.37,6.89-4.83,23.14-5.21,29.35C268,269.07,277.24,274.19,291,274.37Z"/><path class="cls-6" d="M288.86,275.42a2.81,2.81,0,0,1-.63.77c-11.08-.77-22.56-4.62-33.57-7.13a8.53,8.53,0,0,0,.69-1C264.43,270.25,279.78,274.85,288.86,275.42Z"/><path class="cls-6" d="M287.42,276.55l-1.25.91c-10.29-1.12-23-4.62-33.26-7.19.38-5.23,3.79-21.46,6.18-32.38l.94-.14c-1.68,7.55-4.65,23.42-5.27,29.87-.25.59-.52,1.18-.82,1.74C264.72,271.82,276.55,275.66,287.42,276.55Z"/><polygon class="cls-6" points="287.07 262.85 286.94 263.86 280.69 262.68 280.96 261.67 283.75 262.08 287.04 247.93 282.02 253.13 281.23 252.15 286.8 245.98 288.8 246.21 285.06 262.38 287.07 262.85"/><path class="cls-6" d="M278.62,247.67a6,6,0,0,1-2.54,4,6.35,6.35,0,0,1,1.2,4.84c-.54,3.32-2.42,4.56-5.15,4.11a4.19,4.19,0,0,1-3.56-3.42l.95-.11c-.15,1.3,1.17,2.29,2.82,2.43,1.9.15,3.11-1.07,3.7-2.73a4.15,4.15,0,0,0-1.82-5c.76-.78,2.73-1.48,3.25-4,.69-3.45-3-4.83-4.93-1.81l-.68-.51c1.26-2,2.52-2.32,3.89-2.09C277.53,243.69,278.84,245.33,278.62,247.67Z"/><path class="cls-6" d="M262.1,264.92l-.18.77c-1-.23-2-.45-3-.67.34-5.78,3.51-21.24,4.89-28.18.52-.17,1-.35,1.54-.54C262.81,246.87,259.75,261.24,262.1,264.92Z"/><path class="cls-6" d="M267.2,228s-.94,5.72-1.39,7c-.88.27-6.6,1.74-6.6,1.74l1.55-6.91Z"/><path d="M119.37,36.67a69.84,69.84,0,0,1-12.71,1.94,32,32,0,0,1-4.89.08,21.92,21.92,0,0,1-5.12-.76,34.53,34.53,0,0,0-.72,3.6c-2.6-.6-5.17-.36-7.78-.65a61.21,61.21,0,0,0,.59,12.54,82.76,82.76,0,0,0,2.35,12.29,20.35,20.35,0,0,0,1.25,3.92Q90.2,70.58,88,71.4l.55,1q2.16,4,4.66,7.82a97.73,97.73,0,0,0,11.57,14.7,65.87,65.87,0,0,0,7.69,6.87,51.39,51.39,0,0,0,4.28,2.93q1.11.67,2.25,1.29a14.41,14.41,0,0,1,1.84,1,.29.29,0,0,0,.22,0,.28.28,0,0,0,.09-.07c.29-.32.59-.63.88-.94,2.72-2.91,5.51-5.78,8.27-8.66a94.74,94.74,0,0,1,9.6-9l1.08-.85-1.13-.78a36.33,36.33,0,0,1-7.8-7.43,23.44,23.44,0,0,1,2.74-.84c.25-.06,2.45-.25,2.46-.22a93.41,93.41,0,0,1-4.33-9.89,49.59,49.59,0,0,1-2.23-10.65,57.79,57.79,0,0,1,.15-12c.26-2.28.57-4.56,1-6.81a47.94,47.94,0,0,1,1.79-6.52.26.26,0,0,0-.34-.33C128.52,33.9,122.65,35.79,119.37,36.67Z"/><path class="cls-6" d="M90,55.09c-.12-1-.23-2-.34-2.94A65.39,65.39,0,0,1,89,43a5.28,5.28,0,0,1,.08-1,28,28,0,0,1,6.64.56C94.64,46.21,93.47,54,94.06,63a44.14,44.14,0,0,0,.66,5.5c-.52.2-1,.38-1.51.54-.22.07-2.2-7.61-2.36-8.34C90.46,58.87,90.19,57,90,55.09Z"/><path class="cls-6" d="M95.41,68.23c1.36-.49,6.32-2.73,8.5-3.8a80.29,80.29,0,0,0,7.63-4.3c-1,0-9.08.67-9.61.65l0-.27c.66,0,9-.68,10.12-.69.42-.27.82-.55,1.23-.83-1.13,0-10.57.62-11.18.59l0-.27c.74,0,10.36-.61,11.67-.63,1.23-.87,2.41-1.77,3.46-2.62-2.45.18-10.55.48-11.39.47l.13-.26c.93-.05,9.18-.4,11.75-.62l.74-.62c-1.43.13-2.85.25-4.28.34-1.23.07-2.45.13-3.68.16s-2.38,0-3.57,0l-2.72,0-2.45,0h-.54l0-.28.57,0,2.47,0,2.71-.06c1.21,0,2.42-.06,3.63-.11s2.62-.06,3.93-.15c1.47-.1,3-.22,4.42-.36.38-.33.72-.65,1-.94q-2.13.2-4.29.36c-1.07.08-2.15.17-3.23.21-1.53.07-3.07.21-4.6.27-1,0-2,0-3,.06l-2.61,0c-.43,0-.87,0-1.31,0l0-.28,1.1,0,3,0,1.52,0,.65,0c.28,0,.56-.06.85-.08,1.49-.08,3-.09,4.49-.19q1.81-.12,3.63-.27c1.43-.11,2.86-.23,4.29-.37l.68-.7q-2,.16-4,.3c-1.19.09-2.37.16-3.56.23s-2.24.1-3.36.14c-1.37,0-2.74.14-4.1.16h-3.42c-.57,0-1.14,0-1.71,0l0-.31h1.55l3.37,0c1.34,0,2.68-.12,4-.13s2.51-.08,3.77-.17,2.53-.17,3.79-.27,2.72-.2,4.08-.32a2,2,0,0,0,.16-.22,1.34,1.34,0,0,0,0,.2c1.86-.16,3.51-.32,4.53-.48.09,0,.15.35,0,.34-.76.17-2.5.35-4.53.53,0,.2,0,.41,0,.63,1.78-.18,3.36-.37,4.36-.55a.35.35,0,0,1,.1.27.09.09,0,0,1-.09.07c-.76.16-2.41.36-4.35.56,0,.26,0,.53.08.81,1.81-.2,3.42-.41,4.43-.6.09.06.08.37-.06.36-.76.16-2.41.38-4.33.6,0,.19,0,.38.07.57,1.79-.18,3.39-.37,4.32-.54.09.06.1.42,0,.41-.74.16-2.33.35-4.21.53.16,1.12.39,2.32.68,3.56a38,38,0,0,0,4-.41c.09.06.1.42,0,.4a26.77,26.77,0,0,1-3.82.39c.07.26.13.52.2.78a34,34,0,0,0,3.88-.4c.09,0,.1.41,0,.4a26,26,0,0,1-3.74.38c.06.24.13.47.2.71,1.34-.09,2.63-.22,3.63-.39.09,0,.1.41,0,.4a26.11,26.11,0,0,1-3.48.37c.07.25.15.5.22.75,1.32-.13,2.58-.29,3.56-.49.09.05.11.41,0,.4a25.47,25.47,0,0,1-3.41.47c.07.2.13.41.2.62a19.94,19.94,0,0,0,3.33-.5c.09.06.15.42,0,.4a18.15,18.15,0,0,1-3.2.51c.32.93.67,1.88,1,2.84a20,20,0,0,0,3-.49c.1.06.17.44,0,.43a17.25,17.25,0,0,1-2.87.48c.1.25.2.49.31.73a17.55,17.55,0,0,0,2.58-.45c.08,0,.14.37,0,.36a15.53,15.53,0,0,1-2.46.41c.11.24.21.48.32.71a17.19,17.19,0,0,0,2.45-.42c.08,0,.13.36,0,.36a15.57,15.57,0,0,1-2.31.39l.33.71a17.87,17.87,0,0,0,2.23-.39c.08,0,.13.36,0,.35a12,12,0,0,1-2.07.36l.31.64a16.69,16.69,0,0,0,2.11-.39c.08,0,.13.36,0,.36a13.3,13.3,0,0,1-1.94.35,47,47,0,0,0,4.45,7.15,25.86,25.86,0,0,1,4.38-1.23c-.39.06-2-3.81-2.2-4.25a46.4,46.4,0,0,1-1.8-4.86,54.22,54.22,0,0,1-2.11-10.31A67.06,67.06,0,0,1,132.09,34a.17.17,0,0,0-.25-.2c-.73.37-2.23.81-2.55.94-1,.39-1.95.77-2.95,1.1-2.2.72-4.46,1.31-6.71,1.83a88.55,88.55,0,0,1-12.43,2,36.19,36.19,0,0,1-5.51.11c-.34,0-4.33-.47-4.28-.75-.63,4.09-1.74,8.15-2.25,12.26-.08.69-.15,1.38-.2,2.07A77,77,0,0,0,95.41,68.23ZM126.6,42.34a71.61,71.61,0,0,1-16.07,2,72.71,72.71,0,0,1-8.72-.57v-.35a84.45,84.45,0,0,0,15.07.12,95.11,95.11,0,0,0,9.8-1.55C126.76,42,126.75,42.35,126.6,42.34Zm-.06,1.49a77.84,77.84,0,0,1-8.83,1.25,91.85,91.85,0,0,1-16.09-.17v-.3c3.21.21,6,.38,8.91.4a78.11,78.11,0,0,0,16.08-1.57C126.7,43.5,126.69,43.84,126.54,43.83ZM126.4,45a97.93,97.93,0,0,1-24.49,1.23l-.41,0v-.35a109.09,109.09,0,0,0,16.28-.1,86.42,86.42,0,0,0,8.7-1.14C126.56,44.67,126.55,45,126.4,45Zm-.47,1.44A102,102,0,0,1,107.21,48v-.29A116.74,116.74,0,0,0,126,46.05C126.09,46.1,126.07,46.45,125.93,46.44Zm-17.42,2.7,0-.29a148.73,148.73,0,0,0,17.32-1.6c.1.06.09.4-.06.39A151.91,151.91,0,0,1,108.51,49.14Zm-7.59,3.07,0-.31c3.43.3,22.12-1,25-1.47.09.06.08.4-.07.39-2.12.45-13.72,1.12-14.55,1.18-.38,0-2.22.17-2.78.16s-1.94,0-2.25,0C104.1,52.27,102,52.26,100.92,52.21Z"/><path class="cls-6" d="M120.73,105.78c2.33-2,4.34-4.46,6.5-6.63,4-4,9.07-9.18,12-11.53-10.69-7.35-17.19-21.57-18.9-32.73.05.39-2.57,2.12-2.87,2.35a72.47,72.47,0,0,1-10.36,6.46c-1.84,1-3.72,1.86-5.61,2.71-1.17.53-8.27,4.07-12.1,5.53C93.34,79.14,104.66,97.84,120.73,105.78ZM105,86.11a1.18,1.18,0,0,1-.07-.2C109,84.2,120,77.05,122.49,75.46c.12,0,.36.39.19.45-1.86,1.18-13.29,8.49-17.5,10.28l-.08,0A.4.4,0,0,0,105,86.11ZM103.06,84c2.78-1.47,16.11-9,18.53-10.88.12,0,.36.38.21.44-1.92,1.28-15.25,9.26-18.35,10.76A.7.7,0,0,1,103.06,84Zm-2.68-6.43-.2-.33c2.17-1,16-8.6,18.61-10.29.12,0,.38.51.23.57C116.93,68.83,102.57,76.62,100.38,77.52Zm19.05-9.09c.12,0,.38.46.22.52-2.09,1.36-15.43,8.54-17.63,9.44l-.19-.32C104,77.06,116.8,70.37,119.43,68.43Zm.77,1.66c-2.07,1.39-14.29,8.31-16.47,9.25l-.2-.33c2.1-1.15,13.84-7.45,16.44-9.43C120.09,69.59,120.36,70,120.2,70.09Zm-2.37-5.41C115.73,66,101.76,74,97.18,75.93L97,75.6c2.15-1.15,17.91-9.73,20.61-11.44C117.72,64.18,118,64.62,117.83,64.68Zm.8,1.41c-2.09,1.36-17.65,9.64-19.84,10.53l-.2-.32c2.17-1,17.19-8.78,19.81-10.73C118.52,65.59,118.79,66,118.63,66.09Zm3.66,8.33c-1.91,1.28-14.87,9.3-18,10.87-.14-.1-.25-.18-.23-.38,3.45-1.75,15.57-9.13,18-10.93C122.21,74,122.45,74.36,122.29,74.42Zm1.25,2.52c-1.91,1.21-13.55,8.84-17.71,10.58a.19.19,0,0,1-.1,0,.39.39,0,0,1-.09-.28c4.1-1.74,15.21-9.08,17.71-10.7C123.47,76.51,123.7,76.88,123.54,76.94Zm.67,1.19c-1.9,1.21-13.44,8.87-17.75,10.73l0,0a.81.81,0,0,1-.09-.37c4-1.93,15.23-9.2,17.68-10.78C124.14,77.7,124.37,78.08,124.21,78.13Zm1.19,2.4C123.06,82,114.74,88,111.58,90.22l-.12-.36c3.22-2.17,10.19-7.51,13.71-9.75C125.29,80.11,125.56,80.46,125.4,80.53Zm.67,1.13c-2.58,1.75-11.44,8-14.62,10.22l-.1-.33c2.72-1.92,11.26-8.12,14.48-10.31C126,81.24,126.22,81.6,126.07,81.66Zm.65,1c-2.87,2.35-12.51,8.73-15.75,10.79l-.12-.38c3.39-2.19,12.44-8.24,15.64-10.84C126.61,82.28,126.88,82.63,126.72,82.7Zm.66.78c-3,2.47-12.82,9.27-16.1,11.25l-.12-.38c3.39-2.19,12-8,16-11.31C127.26,83.05,127.53,83.41,127.38,83.48Zm.45,1c-4.6,3.95-13.59,10.27-16.81,12.38l-.21-.3c3.39-2.19,12.86-9.22,16.89-12.56C127.82,84,128,84.36,127.83,84.43ZM130,86.3c-4.53,4-11.57,9-15.34,12.19l-.23-.31c3-2.4,11.45-9.27,15.31-12.26C129.84,85.92,130.12,86.23,130,86.3Zm.87.79c-4.54,4-10.6,8.2-14.37,11.44l-.22-.28c2.9-2.58,11.23-8.69,14.32-11.55C130.7,86.7,131,87,130.84,87.09Zm.66.85c-4.69,4.32-10.19,8-13.86,11.09l-.3-.18c2.87-2.38,9.91-7.59,13.91-11.29C131.36,87.56,131.64,87.86,131.5,87.94ZM119.87,99.85c2.87-2.38,8.64-7,12.64-10.7.12,0,.4.3.25.37-4.68,4.33-8.89,7.42-12.56,10.56Zm-1.31-.2-.29-.17c2.87-2.39,9.53-7.33,13.53-11,.12,0,.4.3.25.37C127.37,93.15,122.23,96.5,118.56,99.65Z"/><path class="cls-7" d="M211.73,89.78c2.05-4.83,4.72-11,5.78-13.49a17.55,17.55,0,0,1,31.14-14.71c3.57,4.82,5.24,12.51,3.79,18.28A17.66,17.66,0,0,1,241.59,92.2a18.22,18.22,0,0,1-17.79-2.42c-3.31.26-8.87.09-12.07,0Z"/><path class="cls-6" d="M251.72,72.87c1,7.9-3.07,15.44-10.76,18.34-6,2.27-13.36.88-16.9-2.42,0-.59.05-1.23,0-1.86a17.44,17.44,0,0,0,17.85,1.14C247.6,85.22,251.14,79,251.72,72.87Z"/><path class="cls-6" d="M249.1,64.67c3.67,7.2.6,17.87-8,22.3a16.49,16.49,0,0,1-17.54-1.51c-3.12,1.08-7.65,2.55-10.15,3.09,1.88-4,4.58-9.43,5.57-11.75-1.64-7.74,1-15.7,8.49-19.31C236.25,53.23,244.9,56.43,249.1,64.67Zm-4.92,11c1.07-.68,1.67-1.6.61-3.67-1.48-2.87-3.22-5.94-4.46-8-.61-1-1.29-1.1-2.54-.61a113.43,113.43,0,0,0-12.59,6.38c-.9.53-1.56,1.26-.83,2.94a66.71,66.71,0,0,0,4.52,8.65c.81,1.18,1.72,1.77,2.92,1.21C235,81,242,77.06,244.18,75.62Z"/><path class="cls-6" d="M243.87,72a4,4,0,0,1,.46,1.15c-2.23-.78-5-1.74-7-2.41,1.15-2.2,2.06-4.3,2.66-5.69C241.09,66.94,242.51,69.65,243.87,72Z"/><path class="cls-6" d="M244.23,74.31a2.79,2.79,0,0,1-1.36,1.23c-2.46,1.24-6.66,3.77-10.35,5.73a3.08,3.08,0,0,1-1.65.44c.39-2.54.9-5.68,1.34-7.91l1.25.14c1.82.19,2.23-.23,2.94-1.46.19-.34.39-.68.57-1Z"/><path class="cls-6" d="M239,64c.25.32.14.75-.06,1.21-.62,1.43-1.78,4-3.12,6.65-.57,1.1-.87,1.28-2.45,1.11-1.35-.14-5.1-.64-6.83-1-.89-.18-1.31-.38-1.36-.83a1.86,1.86,0,0,1,1-.89c3.49-1.71,9.67-5,11.65-5.91A2.38,2.38,0,0,1,239,64Z"/><path class="cls-6" d="M225.29,72.55a45.69,45.69,0,0,0,6.15,1.16c-.58,2.37-1.16,5.09-1.63,7.5a3.49,3.49,0,0,1-.7-1c-.77-1.53-2.87-5.45-3.77-7.5A1.21,1.21,0,0,1,225.29,72.55Z"/><path class="cls-6" d="M223,86.7q0,.92-.09,1.89c-2.17.19-5.79.4-8.62.54C217,88.46,220.57,87.51,223,86.7Z"/><path d="M165.59,243.82a63.54,63.54,0,0,0,12.13-1.62,60,60,0,0,0,10.11-3.29,41.07,41.07,0,0,0,12.1-7.61l.41-.37a53.24,53.24,0,0,1-12.59,7.12,65.77,65.77,0,0,1-22.09,4.7,67.05,67.05,0,0,1-11.81-.61,56.12,56.12,0,0,1-9.74-2.29,40.61,40.61,0,0,1-7.14-3.12,12.89,12.89,0,0,1-4-3.33,10,10,0,0,0,3.48,3.66,34.7,34.7,0,0,0,7,3.48,51.2,51.2,0,0,0,9.92,2.57A64.08,64.08,0,0,0,165.59,243.82Z"/><path d="M167.93,108.76a30.39,30.39,0,0,0-7.19.31,29.52,29.52,0,0,0-6.08,1.65,22.65,22.65,0,0,0-7.49,4.61l-.26.24a28.48,28.48,0,0,1,7.75-4.23,32,32,0,0,1,20.05-.54,29.55,29.55,0,0,1,5.59,2.33,23.83,23.83,0,0,1,4,2.74,8.77,8.77,0,0,1,2.16,2.68,7.18,7.18,0,0,0-1.84-2.88,20.67,20.67,0,0,0-3.9-3,27.09,27.09,0,0,0-5.67-2.54A31.3,31.3,0,0,0,167.93,108.76Z"/><path d="M140.27,232.21a57.31,57.31,0,0,0,10.3,2.71,66,66,0,0,0,9.83.88,54.5,54.5,0,0,0,14.13-1.54l.56-.13a67.89,67.89,0,0,1-14.19,1A63.6,63.6,0,0,1,141,231.47a47.2,47.2,0,0,1-8.63-4.17,33.59,33.59,0,0,1-6-4.71,21.15,21.15,0,0,1-3.45-4.47,6.59,6.59,0,0,1-.92-3.62,5.44,5.44,0,0,0,.32,3.69,17.28,17.28,0,0,0,3.09,4.67,29.61,29.61,0,0,0,5.93,5A45.56,45.56,0,0,0,140.27,232.21Z"/><path d="M172.42,96.36a30.21,30.21,0,0,0-8.77.1,38.26,38.26,0,0,0-7.37,2,63,63,0,0,0-9.75,4.76l-.4.21c2.47-.89,6-2.42,10.34-3.84a35.23,35.23,0,0,1,15.63-1.73,46.17,46.17,0,0,1,8.06,1.85,45.27,45.27,0,0,1,6.7,2.74,36,36,0,0,1,8.43,5.84,23.49,23.49,0,0,0-7.61-6.72,38.3,38.3,0,0,0-6.79-3.13A41.19,41.19,0,0,0,172.42,96.36Z"/><path d="M187.11,94.17A36.53,36.53,0,0,0,176.82,92a29.39,29.39,0,0,0-7.52.47l-.31,0a69.43,69.43,0,0,1,7.37.55,47.34,47.34,0,0,1,9.9,2.46,41.25,41.25,0,0,1,8.56,4.43,49.9,49.9,0,0,1,5.09,4.12,17.36,17.36,0,0,0-4.09-4.89A29.77,29.77,0,0,0,187.11,94.17Z"/><path class="cls-7" d="M170,70.21a5,5,0,0,1,3.65-6,4.74,4.74,0,0,1,5.82,3.58,5.06,5.06,0,0,1-3.65,6A4.74,4.74,0,0,1,170,70.21Z"/><path class="cls-8" d="M170.77,70a4.21,4.21,0,0,1,3-5,4,4,0,0,1,4.85,3,4.21,4.21,0,0,1-3,5,4,4,0,0,1-4.85-3Zm2.29-1.1a2.07,2.07,0,0,1,1.27-2.36,1.53,1.53,0,0,1,2,1.29A2.09,2.09,0,0,1,175,70.2a1.53,1.53,0,0,1-2-1.29Z"/><path class="cls-8" d="M174.65,67.54a1,1,0,0,1,.93.93.75.75,0,0,1-.88.74,1,1,0,0,1-.93-.93.75.75,0,0,1,.88-.74Z"/><path class="cls-7" d="M81.23,228.15a2.53,2.53,0,0,1,2.63-2.21,2.2,2.2,0,0,1,2,2.58,2.54,2.54,0,0,1-2.63,2.22,2.19,2.19,0,0,1-2-2.59Z"/><path class="cls-8" d="M82.24,228.25A1.47,1.47,0,0,1,83.87,227a1.39,1.39,0,0,1,1.27,1.55,1.47,1.47,0,0,1-1.62,1.26,1.39,1.39,0,0,1-1.28-1.55Z"/><polygon points="248.11 111.94 252.31 109.79 256.62 113.01 256.43 107.93 260.85 105.4 255.41 103.64 254.05 98.56 251.34 102.72 246.63 101.63 249.1 106.56 248.11 111.94"/><polygon class="cls-6" points="254.7 104.32 253.91 100.31 251.69 103.71 247.79 102.55 249.96 106.47 248.9 110.63 252.4 108.83 256.01 111.75 255.57 107.51 259.13 105.47 254.7 104.32"/><path d="M249.7,209.84l-14,1.79-1.32-3.43-3.88,2.6-2-2.48-9.42,7.8,2,2.12-1.13.84L217.34,221l16.45,24.47.84-.24a90.07,90.07,0,0,0,8.79-2.85c2.23-.9,4.34-2.07,6.5-3.13,1.16-.57,3.67-2.08,4.72-2.52.17-1.7-1-24.8-1-24.8l-4,.55Z"/><polygon class="cls-6" points="220.44 216.06 221.76 217.53 229.72 211.69 227.99 209.81 220.44 216.06"/><path class="cls-6" d="M243,241.06l.05.1c.72-.33,1.84-.83,2.58-1.08l0-.11-1.11.49Z"/><path class="cls-6" d="M231.37,230.06l-.9-1.32L228,230.45l-2.23-3.32,4-2.88-1-1.48-4.22,2.71-2.89-4.26-1.09-1.46-1.94,1.45,15.62,22.85c1.35-.38,2.7-.81,4.06-1.27l-5.34-9,.22-.14-.84-1.33Z"/><path class="cls-6" d="M220.61,219.76l1.09,1.46,11.08-7.7,2.14,5.32-6.11,3.93,1,1.48,2.52,3.24-1.82,1.25.9,1.32,4.2-2.8,1,2.18-4.22,2.85.84,1.33,4.18-2.63,5.6,10.07,1.48-.6,1.11-.49-11.68-30.19Zm16.54,4.71-3.38,2.24-2.32-3.26,4.22-2.8Z"/><path class="cls-6" d="M225.68,223.56c-.57-.82-1.13-1.66-1.68-2.48l-.64.46,1.49,2.55Z"/><path class="cls-6" d="M226.72,222.89c-.58-.84-1.15-1.7-1.71-2.55l-.68.5c.56.86,1.13,1.7,1.69,2.5Z"/><path class="cls-6" d="M227.68,222.28c-.6-.86-1.18-1.74-1.75-2.6l-.6.43c.58.88,1.16,1.73,1.73,2.56Z"/><path class="cls-6" d="M228.58,221.7c-.61-.88-1.21-1.78-1.78-2.66l-.55.4c.59.9,1.18,1.78,1.76,2.62Z"/><path class="cls-6" d="M229.62,221c-.61-.9-1.23-1.82-1.81-2.72l-.69.49c.6.92,1.2,1.82,1.79,2.68Z"/><path class="cls-6" d="M230.61,220.4c-.63-.92-1.26-1.86-1.86-2.78l-.62.46c.61.93,1.22,1.85,1.83,2.73Z"/><path class="cls-6" d="M231.65,219.73c-.65-.93-1.3-1.89-1.91-2.83l-.67.49c.63,1,1.26,1.89,1.88,2.79Z"/><path class="cls-6" d="M232.76,219c-.67-1-1.32-1.93-2-2.89l-.74.54c.64,1,1.29,1.93,1.92,2.85Z"/><path class="cls-6" d="M233.77,218.37,232.3,215l-1.17.85c.65,1,1.32,2,2,2.91Z"/><polygon class="cls-6" points="248.58 210.98 236.18 212.45 236.67 213.82 248.55 212.31 248.58 210.98"/><polygon class="cls-6" points="237.72 216.72 252.44 214.54 252.62 213.13 237.1 214.99 237.72 216.72"/><polygon class="cls-6" points="230.76 227.07 229.33 225.48 227.15 227.02 228.45 228.87 230.76 227.07"/><path class="cls-6" d="M238.11,217.79l3.8,10.49,4.42-.77L249,238.44c1.68-.82,3.29-1.67,4.86-2.56-.4-6.9-1.4-20.37-1.4-20.37Zm8,4.82L241.43,225l-1.05-4.93,4.73-1.52Zm2.05.21-.54-4.1,3.57-1.05.33,3.51Z"/><polygon class="cls-6" points="236.04 224 235.27 221.86 232.87 223.65 234.14 225.45 236.04 224"/><polygon class="cls-6" points="244.29 219.71 241.35 220.61 242.01 223.63 245.22 222.13 244.29 219.71"/><polygon class="cls-6" points="235.59 229.21 235.16 228.34 232.34 230.37 232.88 231.01 235.59 229.21"/><polygon class="cls-6" points="248.42 219.23 248.91 221.64 250.69 220.67 250.5 218.62 248.42 219.23"/><path class="cls-6" d="M234.34,234l5,8.48c1-.36,2-.73,3.06-1.13l-5.4-9Z"/><path class="cls-6" d="M242.3,229.38l4.21,10.2,1.42-.66-2.53-10.1Z"/><path d="M77.53,241.77a2.24,2.24,0,0,0-.29-2A11.44,11.44,0,0,0,76,238.13c-.36-.4-.69-.72-.42-1.29s.79-1.05,1.08-1.62a8.46,8.46,0,0,0,.94-2.18,9.63,9.63,0,0,0,.38-3.23,7.39,7.39,0,0,0-1.27-3.17A6.25,6.25,0,0,0,69,224.76a14.31,14.31,0,0,0-4.77,4c-1,1.19-1.88.41-3.14.08a3,3,0,0,0-3.35,1.29,27.84,27.84,0,0,0-2.3,3.8,29.8,29.8,0,0,0-2.62,7.31,8.87,8.87,0,0,0,.43,5.3,11,11,0,0,0,6.44,6.56,9.67,9.67,0,0,0,5.78.56,12.67,12.67,0,0,0,5.92-3.29,25.83,25.83,0,0,0,4-4.76A12.9,12.9,0,0,0,77.53,241.77Zm-9.8,10a8.64,8.64,0,0,1-6,.76,9.89,9.89,0,0,1-6.38-4.14A9,9,0,0,1,54,239.85a36.75,36.75,0,0,1,1.8-4.68,19.48,19.48,0,0,1,3.11-4.7,2.45,2.45,0,0,1,2.94-.5,4.33,4.33,0,0,0,2,.49c.79-.12,1.13-1,1.56-1.54a10.18,10.18,0,0,1,4.07-3.43,5.47,5.47,0,0,1,5.38.34,4.41,4.41,0,0,1,2.09,3.35,10.45,10.45,0,0,1-.23,3.57,12.66,12.66,0,0,1-2.15,4c-.84,1.25.54,1.77,1.33,2.54,2.17,2.11-.41,4.64-1.64,6.39A17.34,17.34,0,0,1,67.73,251.75Z"/><path d="M65.07,244c.3-.42.78-.4,1.24-.56a2.84,2.84,0,0,0,1.49-1.17,3.93,3.93,0,0,0,.52-2.55,3.2,3.2,0,0,0-4.46-2.42,3.14,3.14,0,0,0-2,3.1c0,.69.27,1.05-.22,1.65A4.76,4.76,0,0,1,60,243.12c-.52.25-1.42.83-1.17,1.52s1.41,1.11,1.9,1.45a28.65,28.65,0,0,0,2.42,1.58c.73.43,1.18,0,1.26-.79A5.4,5.4,0,0,1,65.07,244Z"/><path d="M68.6,234c.57.45,2.52,2,3.29,1.39a3.13,3.13,0,0,0,.71-1c.92-1.63,1.83-3.3,1.05-5.23-1.07-2.65-3.94-.38-5.14.83-.27.29-.6.57-.89.89a3.12,3.12,0,0,0-.68,1C66.53,233.1,67.85,233.4,68.6,234Zm.34-3.08a4.59,4.59,0,0,1,2.43-1.9c2.46-.39,1.68,2.6,1,3.81-.23.44-.49,1-.75,1.36-.59.89-1.65-.29-2.26-.72l0,0c-.53-.38-1.62-.92-1.19-1.62A11.6,11.6,0,0,1,68.94,230.91Z"/><path class="cls-6" d="M75.86,239.26c-.79-.77-2.17-1.29-1.33-2.54a12.66,12.66,0,0,0,2.15-4,10.45,10.45,0,0,0,.23-3.57,4.41,4.41,0,0,0-2.09-3.35,5.47,5.47,0,0,0-5.38-.34,10.18,10.18,0,0,0-4.07,3.43c-.43.59-.77,1.42-1.56,1.54a4.33,4.33,0,0,1-2-.49,2.45,2.45,0,0,0-2.94.5,19.48,19.48,0,0,0-3.11,4.7,36.75,36.75,0,0,0-1.8,4.68,9,9,0,0,0,1.38,8.52,9.89,9.89,0,0,0,6.38,4.14,8.64,8.64,0,0,0,6-.76,17.34,17.34,0,0,0,6.49-6.1C75.45,243.9,78,241.37,75.86,239.26Zm-8.92-7.36a3.12,3.12,0,0,1,.68-1c.29-.32.62-.6.89-.89,1.2-1.21,4.07-3.48,5.14-.83.78,1.93-.13,3.6-1.05,5.23a3.13,3.13,0,0,1-.71,1c-.77.63-2.72-.94-3.29-1.39C67.85,233.4,66.53,233.1,66.94,231.9Zm-3.75,15.77a28.65,28.65,0,0,1-2.42-1.58c-.49-.34-1.7-.91-1.9-1.45s.65-1.27,1.17-1.52A4.76,4.76,0,0,0,61.68,242c.49-.6.21-1,.22-1.65a3.14,3.14,0,0,1,2-3.1,3.2,3.2,0,0,1,4.46,2.42,3.93,3.93,0,0,1-.52,2.55,2.84,2.84,0,0,1-1.49,1.17c-.46.16-.94.14-1.24.56a5.4,5.4,0,0,0-.62,2.9C64.37,247.62,63.92,248.1,63.19,247.67Z"/><path class="cls-6" d="M67.38,240.87a2.69,2.69,0,0,1-1.2,1.65c-.46.24-1,.12-1.45.26-.8.25-.73,1.27-.9,1.95-.11.42-.23.84-.34,1.25s-.12.88-.73.58a9.91,9.91,0,0,1-1.68-1.16l-.53-.46c-.46-.43-.45-.49,0-.91s.67-.55,1-.85c.67-.58,1.63-.87,1.45-1.83s-.35-2,.62-2.71a2.8,2.8,0,0,1,2.84-.09A2.5,2.5,0,0,1,67.38,240.87Z"/><path d="M80.86,262.47c0-1.51,0-3,0-4.54a10.35,10.35,0,0,1,.77-3.48,4.88,4.88,0,0,1,2.59-2.58c.33-.14.69-.24,1-.37.74-.28.82-.45.47-1.14a7.42,7.42,0,0,1-.78-2.2,7,7,0,0,1,5-7.68,7.13,7.13,0,0,1,3.67-.26c.25.06.52,0,.78.06a1.31,1.31,0,0,0,1.45-.61,6.83,6.83,0,0,1,3.8-2.59,8.13,8.13,0,0,1,3.7-.12c.49.08.79,0,1-.38a6.81,6.81,0,0,1,3.71-2.93,5.37,5.37,0,0,1,2.46-.27c2.34.29,4.49,1,5.7,3.27a5.66,5.66,0,0,1,.42,5.21c-.07.14-.15.28-.21.42-.28.78-.21.95.55,1.31a10.25,10.25,0,0,1,3.17,2.23,9.29,9.29,0,0,1,2.1,4,29.75,29.75,0,0,1,1.27,9.23c0,1,0,1-1.08,1.09a54.62,54.62,0,0,1-6.4.27c-1.19,0-1.35.17-1.29,1.37,0,.46.15.92.21,1.38a3.05,3.05,0,0,1-.1,1.69,1.29,1.29,0,0,1-1.28.92c-2,.06-4,.2-5.93.29-1.15.06-1.29.2-1.19,1.42a2.85,2.85,0,0,1-.09.92.87.87,0,0,1-.92.82c-2.91.26-5.82.41-8.72.65a26,26,0,0,0-4.64.51,1.8,1.8,0,0,1-.46.05c-2.66-.05-5.3.46-8,.34a5.17,5.17,0,0,0-1.56.12c-.73.19-.91,0-1-.73A62.88,62.88,0,0,1,80.86,262.47Z"/><path class="cls-6" d="M122,255.35c0,1,.34,2,.3,3,0,.47-.09.82-.67.8-1.51-.05-3,.48-4.51.33h-1.72c-.65,0-.88-.29-1-.93-.27-1.79-.54-3.58-1-5.34a9.27,9.27,0,0,0-2.39-4.31,4.38,4.38,0,0,0-2.39-1.38c-.76-.15-.92-.41-.84-1s.34-.87,1.19-.85,1.56.06,2.35.06a3.75,3.75,0,0,0,2.34-.68,2.75,2.75,0,0,1,2.54-.15,7,7,0,0,1,5,5.61A27.12,27.12,0,0,1,122,255.35Z"/><path class="cls-6" d="M116,238.41a4.69,4.69,0,0,1-1,4.53,5.21,5.21,0,0,1-4.06,1.74c-2.55,0-2.57,0-2.66-2.52a5.44,5.44,0,0,0-2-3.92c-.82-.78-.84-1.44,0-2.15a6.94,6.94,0,0,1,5.42-1.38,11,11,0,0,1,1.5.38C114.86,235.58,115.46,237,116,238.41Z"/><path class="cls-6" d="M113.75,263.31c.08.78-.08,1-.85,1.26a2.62,2.62,0,0,1-.91.17,37.59,37.59,0,0,0-4.86.16c-.41.07-.87-.1-.84-.68.09-1.53-.5-3-.69-4.44a36.06,36.06,0,0,0-.9-4.25,5.74,5.74,0,0,0-4-4.24c-.54-.18-1.09-.3-1.68-.47.23-1.18.82-1.56,1.83-1.45a7.75,7.75,0,0,0,4.82-.93c1-.53,1.92,0,2.84.22a5,5,0,0,1,2.79,2.37,12,12,0,0,1,1.52,4.4C113.38,258,113.47,260.68,113.75,263.31Z"/><path class="cls-6" d="M104.46,238.23a5.22,5.22,0,0,1,2.8,5c-.05.62-.12,1.22-.23,1.84-.54,3.19-4.1,4-6.33,3.65-.59-.08-.69-.51-.7-1a8,8,0,0,0-1.29-4.42,7.78,7.78,0,0,0-1.6-1.69c-.65-.53-.64-.75,0-1.39a6.85,6.85,0,0,1,3.13-2A5.59,5.59,0,0,1,104.46,238.23Z"/><path class="cls-6" d="M105.29,266.44c.24,1.09-.12,1.56-1.26,1.7-1.55.2-3.1.32-4.66.41-.76.05-1-.11-.91-.9a22.39,22.39,0,0,0-.65-4.11,9.81,9.81,0,0,0-.16,4.31c.1.73,0,1-.61.95-2.41-.08-4.78.49-7.19.38-.57,0-.76-.18-.88-.77a12.89,12.89,0,0,1-.28-2.47c0-.46.15-.95-.19-1.41-.89.17-.81.87-.64,1.43a8,8,0,0,1,.24,2.32c0,1-.13,1.11-1.06,1.14-1.3.05-2.61.06-3.91.06-.72,0-.91-.19-1-.91a55.58,55.58,0,0,1-.24-10,14.77,14.77,0,0,1,.5-2.43c.47-2.24,3.38-3.62,5.36-3.87.27,0,.57.18.86.29a8.45,8.45,0,0,0,4.68.67,11.65,11.65,0,0,0,4-1.13,2.52,2.52,0,0,1,1.52-.2,7,7,0,0,1,.76.18c2.49.32,3.59,2,4.23,4.2.51,1.75.55,3.57.93,5.35C105.05,263.22,104.94,264.85,105.29,266.44Z"/><path class="cls-6" d="M98.66,245.78a5.36,5.36,0,0,1-2.07,5.36,6.78,6.78,0,0,1-3.74,1.43c-2.69-.1-4.53-.6-5.88-2.3a2.87,2.87,0,0,1-.63-1.24c-.67-3.3.15-6.09,3.65-7.58A6.2,6.2,0,0,1,98.66,245.78Z"/><path d="M81.51,62.62a1.29,1.29,0,0,0-.33-.28c-1.67-1-4.22-.42-6.05-.42-.72,0-1.46,0-2.22,0,.32,0,1.6-6.6,1.73-7.15.26-1.08,1.29-3.31.39-4.08-1.28-1.1-3.61-1-5.17-1.43l-7.39-1.87Q56.56,46,50.65,44.5c-1.18-.29-3.48-1.5-4.25-.29-.87,1.37-.91,3.2-1.29,4.74-.65,2.61-1.23,5.23-1.9,7.84L42.13,61c-.13.5-.64,3.87-1,4-2.35.85-4.69,1.72-7,2.64-1.13.45-2.25.91-3.37,1.38-.84.36-1.95.57-2.05,1.69-.13,1.38,1,3.57,1.46,4.89,1.05,3.31,2.17,6.59,3.33,9.86q1.42,4.07,3,8.09c.49,1.27,1,2.54,1.51,3.81.4,1,.72,2.48,1.51,3.18,1.26,1.09,2.7-.13,4-.59,1.8-.66,3.58-1.34,5.37-2,3.56-1.4,7.1-2.86,10.66-4.27l3.91-1.56a8.17,8.17,0,0,0,2.23-.88c.42-.35.41-.35.43-.82a13.46,13.46,0,0,0-.43-1.31l7.68-.75,4.65-.46c1.67-.16,3.37.12,3.35-1.94,0-1.88.13-3.77.2-5.65.26-6.75.44-11.64.29-12.81S82.4,63.67,81.51,62.62Z"/><path class="cls-6" d="M81,67.58a69.39,69.39,0,0,1-.18,9.67l-.24,6.14c-.06,1.72.27,3.46-1.91,3.65l-2,.2-5,.48-6.45.64s-.6-1.85-.77-2.47c2-.29,4-.48,6.06-.7l4.24-.49c.78-.09,2.21.15,2.83-.45.45-.43.32-1.23.34-1.83.06-1.77.12-3.53.19-5.3q.15-4.44.31-8.86v-.08l0-3.9c-5.45-.72-15.66,1-19.82,2.16l-.5-1.59A74,74,0,0,1,70,62.9a60.48,60.48,0,0,1,6.32-.21c1.3,0,3.2-.33,4.26.67.89.82.4,3,.4,4.16A.35.35,0,0,0,81,67.58Z"/><path class="cls-6" d="M77.52,65.72c.36.66,0,1.91,0,2.66,0,0,0,1.62-.09,3.81-.26.66-2.16.46-2.33-1-1.11,1.13-3.83-.59-2.85-2.52a2.33,2.33,0,0,1-1.92-3.41c1.52-.16,3-.27,4.57-.28C75.75,64.93,77.06,64.85,77.52,65.72Z"/><path class="cls-6" d="M77.47,73.06c0,1,0,2.13-.07,3.23A8.79,8.79,0,0,0,74,77.1c-.4.14-3.31.63-3.4.06A5.55,5.55,0,0,0,65,72.75a6,6,0,0,0-3.89,1.4c-.39-1.31-.79-2.61-1.19-3.91-.27-.84-1-2.13-.43-2.89.78-.94,2.83-.83,3.92-1,2-.41,4.1-.76,6.16-1-.41,1.66.1,3.66,1.86,3.9a2.61,2.61,0,0,0,3.43,2.9A2.38,2.38,0,0,0,77.47,73.06Z"/><path class="cls-6" d="M77.38,77.06a34.3,34.3,0,0,1-.11,5.37c-.31,1.55-1.9,1.32-3.19,1.46l-4,.47c-1.92.22-3.84.41-5.75.69-.11-.69-1.07-3.5-1.87-6,1.3-.91,2.5-.46,3.92-.3a5.86,5.86,0,0,0,3-.74c1.17-.5,2.51.23,3.73.27C74.68,78.3,75.77,77,77.38,77.06Z"/><path class="cls-6" d="M74.7,51.35,72.14,61.92c-.79,0-1.58.08-2.36.14.39-1.59.79-3.2,1.19-4.8.25-1,.72-2,1-3,.28-1.28-.55-1.2-1.48-1.45l-3-.83c-2.15-.61-4.29-1.24-6.43-1.87-3-.89-6-1.81-9.06-2.62l-.41-.1L52,45.63C58.85,47.3,68.52,49.72,74.7,51.35Z"/><path class="cls-6" d="M70.56,54.17c.67,1.33-.47,3.67-.82,5a4.49,4.49,0,0,0-5,1.72,2.74,2.74,0,0,0-3.42-.53,2.87,2.87,0,0,0-3.43-3.22c-.4-3-4.33-3.64-5.65-.25A4.16,4.16,0,0,0,48,56.22l1-3.32c.25-.87.5-1.73.74-2.59.2-.67.47-1.88,1.29-2.06a7.82,7.82,0,0,1,2.39.62q3,.75,5.93,1.55c2.3.61,4.6,1.23,6.89,1.88,1.39.39,3.57.36,4.36,1.8C70.54,54.12,70.54,54.14,70.56,54.17Zm-5.27,3.72a1.81,1.81,0,0,0,1.3-2.24,1.86,1.86,0,0,0-2.22-1.36,1.8,1.8,0,0,0-1.3,2.23A1.87,1.87,0,0,0,65.29,57.89Z"/><path class="cls-6" d="M69.55,59.85A5.23,5.23,0,0,1,69,61.56a2.86,2.86,0,0,1-1.46.83,30.75,30.75,0,0,1-3.95.41A57.85,57.85,0,0,0,57.92,64c-.09,0-1-3.9-1.65-4.14-1.26-.44-3.26,1-4.4,1.41L48,62.59c-1,.34-1.77.77-1.69-.56.11-1.66,1-3.21,1.52-4.78,1.33-.78,3.2-.82,4.91,1.22.65-4.11,4.06-3.63,4.45-.64,2.46-.31,3.74,1.16,3.4,4.17,1.38-1.8,2.86-1.5,4.27-.08C65.76,59.9,68.32,59.13,69.55,59.85Z"/><path class="cls-6" d="M67.76,74.67c.15.12,2.08,2.39,1.57,2.52l-.13,0c-.35.1-1.08.47-1.34.57-1,.42-2,0-3-.2a4,4,0,0,0-2.68.65c-.34-1.14-.64-2.17-.76-2.85l0-.1A4.53,4.53,0,0,1,65,73.68,4.74,4.74,0,0,1,67.76,74.67Z"/><path class="cls-6" d="M66,55.79a1.09,1.09,0,0,1-.78,1.35,1.12,1.12,0,0,1-1.35-.82A1.11,1.11,0,0,1,64.68,55,1.14,1.14,0,0,1,66,55.79Z"/><path class="cls-6" d="M64.64,88.61c.38,1.09.67,1.61-.34,2.33-1.42,1-3.27,1.27-4.86,1.9-4,1.59-8,3.27-12,4.83-2,.78-4,1.49-6.06,2.23-1.82.66-2-.9-2.54-2.33-.52-1.25-1-2.5-1.51-3.77-1-2.69-2-5.39-3-8.11-1.58-4.45-2.84-9.15-4.71-13.45-1.13-2.61,3.41-3.35,5.06-4,2.77-1.1,5.57-2.14,8.38-3.13,2.28-.82,4.56-1.61,6.83-2.41l3.42-1.19A8.86,8.86,0,0,1,55,60.9c1.55-.19,1.86,2.69,2.22,3.79.67,2.06,1.34,4.12,2,6.19,1.35,4.21,2.67,8.42,3.85,12.68l.12.47c.06.21.11.4.16.59C63.7,86,64.18,87.29,64.64,88.61Zm-4.86-1.22c2.14-.87,1.55-2.28.92-4.13-1.48-4.29-2.91-8.6-4.21-13-.33-1.12-.66-2.24-1-3.36-.18-.64-.34-2.51-.88-2.9-1.12-.82-4,.87-5.13,1.22-2,.62-3.93,1.27-5.87,2-1.76.63-3.52,1.25-5.27,1.91-1.33.5-5.51,1.4-5.82,3a5.55,5.55,0,0,0,.47,2.2c.26,1,.54,2,.83,3,.6,2,1.26,4.06,2,6.07.79,2.25,1.61,4.48,2.44,6.71.48,1.3,1,4.77,2.86,5,.63.07,1.64-.65,2.24-.9l2.43-1,7.24-3,3.81-1.55Z"/><path class="cls-6" d="M46.2,83.62c.21-.81.41-1.63.61-2.43a15.62,15.62,0,0,1,.54-2.48c.46-1,.78-.65,1.52-.09l3,2.29c.29-1.08.43-2.77,1.16-3.66s1.39,0,2.17.52c.57.37,3.14,1.48,3.34,2.12L60,84.78c.46,2-1.2,2.17-2.7,2.76l-4.13,1.62c-2.28.91-4.57,1.8-6.82,2.75-1.5.64-3,1.44-4.57,1.94-1.91.6-2.24-2.56-2.76-3.93-.41-1.09-.82-2.19-1.24-3.28.32-1.47.53-3,.84-4.43C38.87,81,39.12,79,40,78.06a28.09,28.09,0,0,1,3.62,3.21C43.84,81.49,46.2,83.29,46.2,83.62Z"/><path class="cls-6" d="M58.25,78.85c-1.21-.73-2.41-1.48-3.62-2.22-.91-.55-1.55-1.12-2.32-.08a10.57,10.57,0,0,0-1.08,2.94,29,29,0,0,0-3.46-2.39c-1.42-.28-1.78,4.16-2.07,5.24.12-.48-4-3.75-4.45-4.17-.94-.88-1.55-1.8-2.26-.25a24.66,24.66,0,0,0-.91,3.37l-1,3.23c-.67-2.06-1.35-4.12-2-6.18-.46-1.38-.86-2.78-1.36-4.14-.64-1.73,0-2.26,1.61-2.93,1.08-.45,2.17-.89,3.26-1.32,1.67-.66,3.34-1.31,5-1.92,1.85-.69,3.73-1.33,5.61-1.93,1.51-.49,4.46-2.34,5.13-.16.52,1.67,1,3.37,1.5,5s1.09,3.6,1.63,5.4C57.63,76.77,57.89,78.63,58.25,78.85Zm-10-5.7a2.43,2.43,0,0,0,4.39-1.89,2.29,2.29,0,0,0-2.74-1.68C48.6,69.88,47.45,72,48.2,73.15Z"/><path class="cls-6" d="M52,45.63l-.45,1.77a2.14,2.14,0,0,0-1.57,0,1.92,1.92,0,0,0-.74,1,27,27,0,0,0-.7,2.82q-.73,2.72-1.5,5.43c-.29,1.06-.86,2-1.17,3-.36,1.22-.55,2.48-.92,3.69a7.93,7.93,0,0,1-1.57.79c-.34.13-1.32.09-1.45.51l5.19-20.21Z"/><path class="cls-6" d="M51.9,71.48a1.47,1.47,0,0,1-1.06,1.8,1.5,1.5,0,0,1-1.8-1.1,1.48,1.48,0,0,1,1.05-1.81A1.52,1.52,0,0,1,51.9,71.48Z"/><path d="M105.26,115.16a3.9,3.9,0,0,0-2.88-4.31,3.53,3.53,0,0,0,.13-2,3.83,3.83,0,0,0-2.8-2.9,3.29,3.29,0,0,0-.2-1.54,4.68,4.68,0,0,0-3.5-2.8,4.34,4.34,0,0,0-2.56.26,4.1,4.1,0,0,0-.49-1.14,5.71,5.71,0,0,0-3.83-2.48,6.42,6.42,0,0,0-5,1,5.29,5.29,0,0,0-1.69,2,7.15,7.15,0,0,0-3.34-1.72,5.64,5.64,0,0,0-5.18,1.57,5.87,5.87,0,0,0-1.54,4.14,4.56,4.56,0,0,0-4.41.88c-1.67,1.55-2,4.44-1.73,6.62l.1.8.79.13c4.25.7,8.78,1.5,13.16,2.27l2.93.52-.91,3.81,6.34.94.17-3.78,4,.64,9,1.47H102C103.9,119.44,105.15,117.22,105.26,115.16Z"/><polygon class="cls-6" points="91.14 113.19 86.95 108.13 81.53 111.67 85.26 112.58 83.63 119.42 87.64 120.02 87.99 112.67 91.14 113.19"/><path class="cls-6" d="M101.93,118.52c2.51-.2,4.07-7.39-1.6-6.72a2.66,2.66,0,0,0-2.2-4.76c2.25-2.9-3.32-6.58-5.77-2.86,1.61-5.54-8.59-7.34-9.43-.75-3.84-5.39-10.76-2.68-9.26,3.44-5.94-2.71-6.7,2.87-6.36,5.79,5.24.85,10.84,1.86,16.19,2.8l.5-2.06-4.86-1.15,8.23-5.56,5.39,7.45-4-.25-.08,2.46C89.78,116.54,99.82,118.16,101.93,118.52Z"/></svg>