<svg id="Calque_1" data-name="Calque 1" xmlns="http://www.w3.org/2000/svg" viewBox="0 0 90 90"><defs><style>.cls-1{fill:#fff;}.cls-2{opacity:0.13;}.cls-3{fill:#3bb260;}</style></defs><path class="cls-1" d="M47.7,7.7c3.5,3.4,6.3,6.8,9.8,10.2V82.2H1.6V7.7Z"/><path d="M57.5,82.7H1.6a.5.5,0,0,1-.5-.5V7.7a.5.5,0,0,1,.5-.5H47.7l.4.2c1.7,1.6,3.2,3.3,4.7,4.9s3.2,3.5,5.1,5.3a.4.4,0,0,1,.1.3V82.2A.5.5,0,0,1,57.5,82.7Zm-55.4-1H57V18.1c-1.8-1.7-3.4-3.4-4.9-5.1s-2.9-3.2-4.6-4.8H2.1Z"/><path d="M2.5,71.6v6.7a6.6,6.6,0,0,0-.1,1.4V72h0v8.7c0-1.8,0,1.4-.1.7v-.6c0,.9-.1.4-.1-.9V78.2H2a7.6,7.6,0,0,0-.1-1.5c0,1.8,0,1.7-.1-.4v.9c0,1.1-.1,1.4-.1.7V71.3c0-.1-.1-.7-.1-1.2V22.8h0V18.4c.1,1.9.1,4,.1,5.9v6.2h0V7.7h46l.6.6.4.5,1,1,1.8,1.9,3.4,3.6h0l-.3-.4.7.8.8.8.6.6.7.7v20h.1V43c-.1,1-.1,4.3-.1,6.4V82.2H50.7c-.5.1,1.3.1,1.9.1H7.7a25.4,25.4,0,0,1-3.9-.1H18.6c0-.1.2-.1.7-.1H43.8c-.4.1.2.1,1.5.1H56.6V54.6c0-3.5,0-6.9.1-10.4V28.4c0-2.2,0-4.4-.1-6.7h0c.1.1.1-.9.1-1.6V18.2l-.8-.7-.8-.8-1.5-1.6,1.5,1.6.8.8.7.8v.9h0v-.9l-.5-.6-.6-.6-1.2-1.2L52,13.4l-2.4-2.5L48.5,9.7l-.6-.6-.5-.6H2.4V55c.1,1,.1,2.1.1,3.1V71.8c0-1.2-.1-3.1-.1-4.5v4.3Zm54.9-2.4V62.5c0-1.2,0-2.3-.1-3.5V69.2ZM57.5,57v6.5h0ZM39.7,7.8Zm-15.8.8ZM12.5,8.5ZM2.5,60.3V58.6h0Z"/><path d="M55.3,15.9l-.7-.8.3.4-.3-.4Z"/><path d="M57.5,18.3v-.4l-.6-.6-.5-.5-1-.9h0l.9.9.5.5.7.6V21h0Z"/><path d="M49.3,10.5,48.2,9.4l-.5-.5-.3-.4h0l.8.7Z"/><polygon points="24.7 7.8 29.5 7.8 29.5 7.7 24.7 7.8 24.7 7.8"/><path d="M52.9,14.4l-2.7-2.9Z"/><path d="M52.8,13.1l-2.4-2.5h0l2.3,2.6Z"/><path d="M52.2,13.5l-1.1-1.1-.6-.6L52,13.4Z"/><polygon points="56.7 38.4 56.6 38.4 56.6 40.8 56.7 40.8 56.7 38.4"/><polygon points="56.7 21.6 56.8 21.6 56.8 21.6 56.7 21.6"/><path d="M50.9,11.1,49.5,9.6h-.1l1.5,1.6Z"/><path d="M1.3,83.2h0Z"/><path d="M58.5,66.3c.1-1.3,0-2.5,0-3.9v-11c0-5.1-.1-10.3-.1-15.5V17.7c0-.2-.1-.3-.2-.5A23.9,23.9,0,0,1,55.9,15c-2-2.1-3.8-4.2-5.8-6.2L48.6,7.3l-.2-.2L48,6.8h.4l.2.2.6.6,1.2,1.2,4.7,5.1L56.9,16c-1-.9-1.9-1.9-2.8-2.8s-2.5-2.8-3.8-4.1l-2-2-.5-.2H1.3L1,7.2c-.2.1-.2.4-.2.6V18.2h0v2.6h0V36.4C.7,42.2.7,48.1.7,54v.6C.7,59.8.7,65,.6,70.2V82h0a.4.4,0,0,0,.1.3.5.5,0,0,0,.2.4c.1.2.2.3.4.3H55.8a28.1,28.1,0,0,0-4.1-.1H1.6v-27c0-3.1,0-6.2-.1-9.9.1,2.2,0,3.8.1,5.1s-.1,3-.1,4.6v.8c0-2.3,0-4.7.1-6.4v-12h0V33.3c0,1,0,2.1-.1,3.1V34.8c.1-2.4.1-5.1.1-8V24.3c0-1.6,0-3-.1-4.3V14.3a4.9,4.9,0,0,0-.1-1.2v.6h0V7.8l.2-.2H48l-.3-.3h.1L48,8l.4.4,1.7,1.7,1.1,1.2a15.4,15.4,0,0,1,1.7,1.9c1.5,1.6,3,3.2,4.6,4.7h0V30.4h0v-8h0V72.3a6.6,6.6,0,0,0,.1-1.4v8.3c0,.8,0,.4.1-.7v-1c0,2.2.1,2.3.1.4a8.6,8.6,0,0,0,.1,1.6h0v2.8h0c-.1.1-.1.1,0,.1v-.3a.6.6,0,0,1-.6.6.6.6,0,0,0,.6-.5h0l-.2.3H58c0-.1.1-.2.1-.3s0-.3.1-.4h0c0-1,0-2,.1-3V73h0v4.3c0,1.4,0,2.6.1,3.6V79.5a16.2,16.2,0,0,0,.1-2.2Zm-57-4.4V57c.1,2,.1,3.3,0,6.8h0Zm-.1,2.4V62a26.2,26.2,0,0,1-.1-2.8c.1,1.2.1,2.3.1,3.5v1.6ZM10.9,7.6Zm14.2-.7Zm9.8,0ZM58.5,61h0V59.1h0Z"/><path d="M1.5,14.3a4.9,4.9,0,0,0-.1-1.2h0A4.9,4.9,0,0,1,1.5,14.3Z"/><path d="M52.7,83.1H43.2C47.2,83.2,51.6,83.1,52.7,83.1Z"/><path d="M.7,11.5V7.4L1,7.1c-.2.1-.2.3-.3.4v.3h0v3.6Z"/><path d="M1.5,10.4V7.8h.1c0,.1,0,.1-.1.1h0v2.4Z"/><polygon points="0.7 20.8 0.8 20.8 0.8 20.8 0.7 20.8"/><path class="cls-1" d="M57.5,17.9c-5,.1-9,.4-11.7.5C46,15,47.1,11,47.7,7.7,48,8.3,54.5,14.6,57.5,17.9Z"/><path d="M45.8,18.9l-.4-.2c-.1-.1-.1-.2-.1-.4.2-2.5.8-5.2,1.3-7.9a14,14,0,0,0,.6-2.8.7.7,0,0,1,.5-.4.5.5,0,0,1,.5.3c.1.3,1.9,2,3.5,3.7s4.6,4.6,6.2,6.4a.4.4,0,0,1,.1.5.5.5,0,0,1-.5.3l-7.6.3ZM48,8.8a11.6,11.6,0,0,1-.4,1.8,58.6,58.6,0,0,0-1.3,7.3l3.6-.2,6.5-.3L51,11.9Z"/><path d="M48.6,10.1l-.4-.5L48,9.4V9.2l.4.3.4.4h0L48,9.1l.3.2L48,9c.2.2-.1-.1,0-.1l.2.3L48,8.9h.2l.3.3L48.3,9h.2c-.1-.2-.1-.2.1,0l-.2-.3.2.2c-.1-.2-.1-.2,0-.2l.7.7h0l.3.3-.2-.2h.1l.6.6,2.6,2.7.5.5.7.7-.3-.3h0l.4.4-.5-.5-.6-.6h0l.5.6,1.1,1.1.3.3h.1l.4.4h.2l-.3-.3h0l.3.3h0l.3.3.4.4.5.5-.7-.7-.5-.5.2.3.3.3,1,1.5.2.2.2.2H45.9c-.1,0-.2,0-.1-.1v-2l.3-1.6c-.1-.1-.1.1-.1.2v-.4c0-.1.1-.4.1-.6v.2h0l.2-.8h0l.2-.6v-.5c0-.1.1-.3.1-.4V11c.1-.2.1-.4.2-.6v.5l.3-1.2h0l-.2.7.3-1.3c0-.3.1-.3.1-.4l.2-.2v.3h.1v.3l.2-.5v.8h0l.2-1v.3h0V9c-.1.1-.1.1-.1.3h0v.2h0v.2h0v.6c0-.2.1-.4.1-.6a1.4,1.4,0,0,1,.2-.6L48,10.5h0v.4c.1,0,.1.1,0,.5v.8h0v-.4c0,.2-.1.5-.1.7h-.1L47.3,14v-.2L47,15.6c0-.2.1-.4.1-.6a.9.9,0,0,1,.1-.5V14s-.1,0-.1.2h0a18.5,18.5,0,0,0-.4,2.3v.3h-.1V17h8.8l-.9-.9-.9-.9-.4-.4.2.3,1.2,1.2.5.4h0l-.4-.3-1.4-1.5L51.5,13l-1.3-1.3-.6-.6.2.2-.3-.2-.3-.3c-.1-.1-.3-.2-.3-.4h-.2l-.4-.4.4.4.5.4ZM46,17v1.2h0V18a1.3,1.3,0,0,0,.1-.6v-.2h0Zm1.1,1.3h-1c-.1,0-.3.1-.3-.1h0c0-.1.1-.1.1-.2V16.3c-.1.1-.1.1-.1.2v.4c0,.1-.1.1-.1.2v.4a1.7,1.7,0,0,1-.1.7h0v.2h1.5Zm7.5-.4Zm.5-1.4c0,.1.1.1.1.2h.2Zm-5.6-5.4Z"/><path d="M47.9,9.7h0c0-.2,0-.2.1-.3S47.9,9.5,47.9,9.7Z"/><path d="M55,18.1h2.6l-.2-.2-.4-.4-.6-.6.7.7.3.3.2.2Z"/><path d="M48.3,9.5a4.3,4.3,0,0,0-.2,1.1Z"/><path d="M46.8,12.1h-.1v.5A1.1,1.1,0,0,1,46.8,12.1Z"/><polygon points="49.1 17.4 49.4 17.4 49.4 17.4 49.1 17.4"/><polygon points="47 16.3 47 16.1 47 16.1 47 16.3"/><polygon points="51.8 17.4 51.8 17.4 51.5 17.3 51.5 17.4 51.5 17.4 51.5 17.4 51.5 17.4 51.8 17.4 51.8 17.4"/><rect x="51.7" y="17.3" height="0.01"/><polygon points="50 11.6 49.8 11.5 49.8 11.5 50 11.7 50 11.6"/><path d="M47.4,19.3h-.8c-.3,0-.3,0,0-.1h-.1c-.2,0-.2-.1-.1-.1h2.3l4.8-.2h3.8v-.2l-.3-.3-.4-.4.5.5.2.2.3.3h-.1l-.2-.2-.2-.3-1.5-1.5-1.2-1.2-.4-.5-.4-.4h.1a2.3,2.3,0,0,1-.7-.7l-.6-.5h-.2l-.4-.5-.5-.5-.3-.3L50,10h-.1l.3.3-.5-.4h0l.3.3-.8-.9h-.1l-.6-.8-.4-.3-.2-.4h0c0,.1,0,.1.1.2l.3.3L48,8h0l.3.3.5.6-.5-.6L48,8.1V7.9h-.1c0-.1-.1-.1-.1,0h0l-.4,1.7L47,11.5v-.2l-.2.8v-.4c-.1.2-.1.6-.2.8v-.2h0l-.3,1h0V14a.4.4,0,0,0-.1.3c0,.2,0,.3-.1.4a.7.7,0,0,1-.1.5v.2c0,.3-.1.6-.1.8v-.6c-.1.6-.1,1.1-.2,1.6h0c.1-.3.1-.7.2-1a9.9,9.9,0,0,0-.2,1.7v.2h0a.2.2,0,0,1-.2-.2h-.1v.2h.1c-.1,0-.2-.2-.2-.3v.2h0c-.1-.1-.1-.4-.1-.6h0v.6a.7.7,0,0,0,.5.4h-.4l-.2-.3v-.4h0v-.3h0c0,.1-.1.2-.1.3h0a.9.9,0,0,1,.1-.5.9.9,0,0,0-.1.5v-.4a.9.9,0,0,1-.1.5V17a2.2,2.2,0,0,0-.1.8v.4c-.1.2,0,.4.2.6a.9.9,0,0,1-.3-.7V17h.1V14.9h0v.5c.1-.3.1-.6.2-.9h0a11.6,11.6,0,0,1,.4-1.8l-.2.2c.2-.8.4-1.6.5-2.3s-.1.5-.1.8a1.3,1.3,0,0,0-.1.6l-.2.6c0,.1.1,0,.1-.2v-.2c.2-.9.5-1.9.7-2.9a.6.6,0,0,1,.1-.4V8.6l.2-1a.8.8,0,0,1,.8-.7c.2-.1.3,0,.5,0l.2.2.2.2,1.1,1.2-.7-.7H49c-.1,0-.2-.2-.3-.3l-.2-.2h-.2l.2.2.9,1,.9,1,.3.2.4.5.3.3.7.7h0l.2.2.7.7-.6-.6h0L54,13.1l1,.9-.5-.4-.3-.4h.1l.5.5h0l.9,1-.2-.2h0l.4.4c.2.1.4.4.6.6l.8.8.4.5.4.4c.1.1.2.2.2.3a.9.9,0,0,1,0,.7.7.7,0,0,1-.5.4h0a.9.9,0,0,0,.6-.6.8.8,0,0,0-.2-.8h0l-.7-.8c-.1,0-.1-.1-.2-.2h0l.7.8.2.2a1,1,0,0,1,.2.9.7.7,0,0,1-.7.6H47.4Zm0-10.6.2-.8h0A2.4,2.4,0,0,0,47.4,8.7Zm.4-.9h-.2l-.3,1.7h0l.3-1.1V7.9h.2Zm6.5,6.6h-.1v-.2h0Zm2.3,1.3-.5-.5A1.2,1.2,0,0,0,56.6,15.7Zm1.2,1.4-.6-.8h0Zm-8.6,2.1Z"/><path d="M54.6,14.9l-.8-.8L56.6,17l-1.7-1.7Z"/><path d="M51.9,12l-.6-.6a1,1,0,0,0-.6-.5l1.5,1.4h0l-.6-.6h0Z"/><path d="M44.9,18.4h0V16.9c0,.3-.1.7-.1.9v.4h0Z"/><path d="M51.1,10.1h0l-.9-.9Z"/><path d="M46.3,14.9h0v-.7C46.4,14.4,46.3,14.6,46.3,14.9Z"/><path d="M52.4,11.5h0L52,11h.1Z"/><polygon points="52.1 11.1 52.4 11.5 52.1 11.1 52.1 11.1"/><path d="M53.7,12.7c.2.2.3.4.5.5H54Z"/><polygon points="55.9 16.2 55.4 15.6 55.4 15.6 55.9 16.2 55.9 16.2"/><path d="M53.1,12.1l.5.4Z"/><polygon points="49.4 8.4 49.7 8.7 49.7 8.7 49.4 8.4 49.4 8.4"/><polygon points="52.7 12.7 53.1 13.1 53.1 13.1 52.7 12.7 52.7 12.7"/><path d="M53.2,12.2l.2.2h.1Z"/><path d="M54.2,13.2l.4.5Z"/><rect x="50" y="8.9" height="0.37"/><polygon points="57 16 57 16 56.8 15.8 56.8 15.9 57 16"/><polygon points="46.2 9.9 46.3 9.6 46.3 9.6 46.2 9.9"/><polygon points="52.3 11.4 52.3 11.4 52.1 11.1 52 11.1 52 11.1 52 11.1 52 11.1 52.3 11.4 52.3 11.4"/><path d="M52.3,11.4l-.2-.3Z"/><polygon points="53 13.1 53.2 13.3 53.2 13.3 53 13.1 53 13.1"/><path d="M6.2,19.5c-.1,0-.1-.1-.1-.2a88.9,88.9,0,0,1-.7-8.9h.4a65.4,65.4,0,0,0,.6,8.9Z"/><path d="M6.8,18.8v.5l-.2.3a.4.4,0,0,0,.1-.3h0V19h0v.3h0v.2c0,.1-.1.2-.2.3s.2-.3.2-.5H6.4c.1-.1,0-.1,0,0H6.3c0-.1.1-.1.2-.3s-.2.2-.3.2h.1c0,.1,0,.1-.1.1H6V19H5.9c0-.2-.1-.3-.1-.5s-.1-1.6-.2-2.3a.6.6,0,0,0-.1-.4v-.4h0v-.3a.6.6,0,0,1,.1.4V16h0V14.2h0v-.4h.1V14h0v-.2h0a.7.7,0,0,0-.1-.5V13a.4.4,0,0,0,.1.3V10.7h.1v-.2h.4v.8a.6.6,0,0,1,0,.6h.1v.3h0v.9h0a.9.9,0,0,0,.1.5h0V16a.6.6,0,0,0,.1.4v-.2h0v.5h0v.9h0v.8h0V19H6.3v-.2H6.1V19H6v.3H5.9V19H5.8v.2h0V19h0v.2h0V19H5.6c.1.1.1.2.1.4h0v-.6h0v-.2c-.1,0-.1-.1-.1-.3v-.5h0V18c-.1-.1-.1-.2-.1-.4h0v-.9h0a4.1,4.1,0,0,1-.1-1.1v1h0c0-.5-.1-.9-.1-1.4V15h0V13.1h0v.4h0V12.1h0V11h0v-.3h0v.2h0v-.3h.1c0-.2.1-.2.2-.3H6l.2.3H6v.2c0,.2.1.4.1.6v-.5h0v.3h0v.6h0V12c0,.1.1.2.1.4v1.2c0,.2.1.5.1.8v-.9a.9.9,0,0,1-.1-.5h0v1.7c.1.5.1,1,.2,1.5a4.1,4.1,0,0,0,.1,1.1.7.7,0,0,0,.1.5V18a.4.4,0,0,1,.1.3h0V18C6.7,18.3,6.8,18.5,6.8,18.8ZM6,14.5V14c0-.2,0-.2-.1-.3V14h0A2,2,0,0,0,6,14.5Zm0-.9v.5H6v.8H6a.9.9,0,0,0-.1-.5v-.2H6Zm-.6-2.3Zm.7,1.1Zm.1.9a.9.9,0,0,0-.1-.5h0Zm.5,4.6Z"/><path d="M5.2,11.5V11a6.1,6.1,0,0,0,.1,1.9c0-.4-.1-.8-.1-1.1Z"/><path d="M5.7,19.3c-.1-.2-.1-.5-.2-.7S5.6,19.2,5.7,19.3Z"/><path d="M6.4,17.4h0v-.3a.2.2,0,0,0,0,.3Z"/><path d="M5.3,10h.4l.4.3a.5.5,0,0,0-.5-.3Z"/><polygon points="5.2 12.8 5.1 12.6 5.1 12.6 5.1 12.8 5.2 12.8"/><rect x="5.1" y="12.2" height="0.18"/><rect x="5.2" y="15.1" height="0.15"/><polygon points="5.1 10.8 5.1 10.8 5.1 11 5.2 11 5.2 11 5.2 11 5.2 11 5.2 10.8 5.1 10.8"/><polygon points="6.7 17.5 6.8 17.6 6.8 17.6 6.7 17.5 6.7 17.5"/><path d="M8.3,14.3a.2.2,0,0,1-.2-.2V10.7h.3v3.4C8.4,14.2,8.4,14.3,8.3,14.3Z"/><path d="M8.9,14h0v.3l-.2.2H8.4l.3-.3h0c0,.1,0,.1-.1.1h0c0,.1-.1.2-.3.2H7.9v-.2a2.8,2.8,0,0,0-.1-.9V13h.1v.2h0v-.6H7.8v-.2h0v-.2h.1v-.9h.6v.2h0v.2h0v.4h0v-.2h.1v.7h0v.2h0v.2H8.5V14H8.1a.2.2,0,0,0,.2.2H8v-.2H7.8v.2h0l.2.4-.3-.4h0v-.2h0c-.1,0-.1-.1,0-.1h0v-.4h0V13h0v-.6h0v-.6h.1V12h0v-.5h0v-.2h0a.4.4,0,0,1,.1-.3H8c-.1,0-.2.1-.2.3h0a.4.4,0,0,1,.4-.4c.2,0,.4.1.4.3h.1v.2h.1c0,.1,0,.2-.1.2h0c.1,0,.1.1.1.2v.8h.1c-.1-.1,0-.2-.1-.4v-.2h0v2h0c0,.1.1.1,0,.1h.1Zm-.4-1.7V12h0Zm0-.4h0v.3h0V12h0Zm.1-.5Zm0,.3c.1,0,0-.1,0-.1h0Zm.3,2Z"/><path d="M8,14.2H8c.1,0,.1,0,.1.1S8.1,14.2,8,14.2Z"/><path d="M7.7,11.1v-.3c0,.6,0,.7.1.8A.9.9,0,0,0,7.7,11.1Z"/><path d="M7.8,14.4v-.2h0Z"/><path d="M7.7,10.6H7.6v.3h0C7.6,10.7,7.6,10.7,7.7,10.6Z"/><path d="M7.7,10.8H7.6c0-.1,0-.1.1-.2s-.1.1-.1.2Z"/><path d="M8.4,10.4l.2.3h0Z"/><polygon points="7.7 11.6 7.7 11.5 7.6 11.5 7.6 11.6 7.7 11.6"/><path d="M8.6,10.7h0Z"/><rect x="7.6" y="11.3" height="0.07"/><rect x="7.6" y="12.5" height="0.06"/><g class="cls-2"><path d="M45.9,18.8c.9-.4,3.1-.2,4.8-.3h4.5a8.1,8.1,0,0,1,2.2,0,1.1,1.1,0,0,1,.8,1,1,1,0,0,1-1.1.8h0l-10.2.2h-.1c-.3.1-.6.2-.8,0a.8.8,0,0,1-.6-1.1A.6.6,0,0,1,45.9,18.8Z"/></g><polygon class="cls-3" points="12.4 25.3 9.4 28.1 18.2 38.4 26.7 25.3 23.6 22.7 17.6 31.5 12.4 25.3"/><path class="cls-3" d="M18.2,39l-.4-.2L9.1,28.4c-.2-.2-.2-.5,0-.6l3-2.8.3-.2.4.2,4.8,5.7,5.5-8.3.4-.2c.1-.1.3,0,.4.1L27,24.9a.5.5,0,0,1,.1.7h0L18.6,38.7C18.6,38.9,18.4,38.9,18.2,39ZM10.1,28.2l8.1,9.4L26,25.4l-2.3-2-5.6,8.4-.4.2h-.5l-4.8-5.8Z"/><path class="cls-1" d="M65.7,48.1c1.6.7,2.3,2,3,3.5A18.6,18.6,0,0,1,70,56.2c.9,5.2,1.6,10.6-.3,15.4-1.1,2.7-4.2,5.3-4.6,5.2s-1.6-2.5-2.1-4.7.2-6.5.2-9.8-.5-4.9-.4-7.4S63.7,48.3,65.7,48.1Z"/><path d="M65.1,77.3H65c-1.1-.3-2.2-3.6-2.5-5.1a20.8,20.8,0,0,1,0-6.1c.1-1.3.2-2.5.2-3.8s-.2-2-.2-3a21.6,21.6,0,0,1-.2-4.4c0-2.4.8-7,3.3-7.3h.3a6.8,6.8,0,0,1,3.3,3.8,15.5,15.5,0,0,1,1.3,4.8c.9,5.4,1.6,10.8-.3,15.6C69.2,74.3,66,77.3,65.1,77.3Zm.5-28.7c-1.5.4-2.3,3.9-2.3,6.3a31,31,0,0,0,.2,4.3c.1,1,.1,2.1.2,3.1a27.5,27.5,0,0,1-.2,3.9,18.8,18.8,0,0,0,0,5.8,11,11,0,0,0,1.7,4.2,12.4,12.4,0,0,0,4-4.8c1.8-4.6,1.2-9.7.3-15.1a16.6,16.6,0,0,0-1.2-4.5C67.6,50.3,67,49.2,65.6,48.6Z"/><path d="M67,50.4l-.6-.7-.3-.3-.2-.3.6.5c.2.2.5.4.6.7h0a3.2,3.2,0,0,0-1.4-1.4l.6.4-.5-.4c.2.1.1,0,0-.1s-.2-.1-.1-.1l.5.4-.6-.4H66l.7.5c-.2-.2-.3-.2-.3-.3h0l.3.2c-.2-.2-.2-.3-.2-.3l.3.3c-.1-.2-.3-.3-.5-.5l.4.3c-.2-.2-.3-.3-.1-.2a8.6,8.6,0,0,1,1.3,1.4h0l.4.7-.3-.6-.2-.3a.2.2,0,0,1,.2.2,10.9,10.9,0,0,1,.8,1.5,14,14,0,0,1,1,3.5,22.5,22.5,0,0,1,.6,3.6,5.9,5.9,0,0,1,.2,1.3,12.3,12.3,0,0,1,.2,1.9v-.8h0v1a6.6,6.6,0,0,1-.1-1.4l-.2-1.4h0c0,.4.1.9.1,1.3l.3,3.2v2.4h-.1a2.2,2.2,0,0,0,.1-.8h0a2.2,2.2,0,0,0-.1.8h0c0,.6-.1,1.1-.1,1.6a2,2,0,0,1-.2.9v-.9a5.9,5.9,0,0,0,.2-1.3c-.1.5-.1.9-.2,1.4a11.6,11.6,0,0,1-.8,3.2,1.4,1.4,0,0,1-.2.6l-.3.6-.7,1.1-.6.8-.6.6h.1l-1.1,1-.4.3-.4.3-.4.3h.1l-.2.2c0-.1-.1-.1-.1-.2l-.3-.3-.2-.4h-.1l-.3-.5a4.2,4.2,0,0,0-.4-1l-.2-.5a12.9,12.9,0,0,1-.4-1.9v-.2h0a1.7,1.7,0,0,0,.1.7c-.1-.3-.1-.6-.2-.9h0c0,.2.1.5.1.7a12.3,12.3,0,0,1-.2-1.9h0a8.6,8.6,0,0,1,.1-1.6,7.6,7.6,0,0,1,.1-1.5h0a5.7,5.7,0,0,0-.1,1.3v-1a4.1,4.1,0,0,0-.1,1.1c0,.3-.1.7-.1,1.2a19.4,19.4,0,0,1,.2-2.4V64.9a21.1,21.1,0,0,0,.2-2.5l-.2-3c-.1-.1,0,.3-.1.5v-.8a4.9,4.9,0,0,0-.1-1.2v.4h0a8.6,8.6,0,0,0-.1-1.6h.1V54.3c0-.2.1-.5.1-.7v-.4l.3-1.2c-.1.3-.1.6-.2.9a9.8,9.8,0,0,1,.6-2.3h0a5.7,5.7,0,0,0-.4,1.4,10.4,10.4,0,0,1,.8-2.5l.6-.7.4-.2.4-.2a1.8,1.8,0,0,0-.8.7.2.2,0,0,1,.2-.2l-.4.4c.2-.1.3-.4.5-.5s.3-.2.3-.1a1.7,1.7,0,0,0-.6.6l.3-.3H65a1.6,1.6,0,0,0-.6.8h0l.5-.7a1.8,1.8,0,0,1,.7-.5l-.4.2h0l-.4.3-.2.5h0c0-.1.1-.2.2-.3l-.4.6.4-.6-.4.7h0c.1-.1.1-.3.2-.4h0l-.3.7.3-.6-.2.4.3-.5V50a.9.9,0,0,0-.3.6c-.1.1-.1.2-.1.4a3.6,3.6,0,0,1,.4-1.1l.6-.7-.6.9a3.6,3.6,0,0,0-.4,1.1h-.1a2.4,2.4,0,0,1-.2.8c.1,0,0,.1-.1.9a6.9,6.9,0,0,0-.1.7,1.7,1.7,0,0,1-.1.7h0a1.7,1.7,0,0,0,.1-.7c0,.5-.1.9-.1,1.3h0a24.4,24.4,0,0,0,.1,2.7v2a2.8,2.8,0,0,1-.1-.9v-.4c.1.7.1,1.5.2,2.2v1.1a4.9,4.9,0,0,1,.1,1.2v.9c-.1,1.2-.3,2.4-.4,3.6a22.7,22.7,0,0,0-.1,2.4V68.5c0-.4.1-.9.1-1.4v.3a17.9,17.9,0,0,0,.1,4,.6.6,0,0,0,.1.4l.2,1c0,.2.1.3.1.5l.6,1.4h0c-.1,0,0,.2.1.4v.4H65v.2h0c-.2-.2-.2-.3-.4-.7h0l.2.4.2.2.2-.2.3-.2H66l.9-.9a6.1,6.1,0,0,0,1.2-1.6,1.8,1.8,0,0,1-.5.7l-.5.6h.1l.6-.8v0l1-1.7V72h0l.3-.7a1.4,1.4,0,0,1,.2-.6c0-.1.1-.4.1-.6a15.3,15.3,0,0,0,.7-3.6V63.7a2.8,2.8,0,0,0-.1-.9c0,.2.1.4.1.6s0,2.1-.1,3.1v.8a1.7,1.7,0,0,1-.1.7v.4h0a1.7,1.7,0,0,1,.1-.7V67a24.1,24.1,0,0,0,0-3.8c-.1-1.7-.3-3.3-.5-4.9l-.3-1.8-.3-1.7a7.5,7.5,0,0,0-.5-1.6,1.9,1.9,0,0,1,.2.7,1.9,1.9,0,0,0-.2-.7l-.3-.7a.5.5,0,0,0-.2-.4c0-.2-.1-.3-.1-.4l-.2-.3-.6-1,.6.9.5,1A11.4,11.4,0,0,0,67,50.4ZM63.2,63.8c0,.5-.1,1-.1,1.5s-.1.6,0,.9V63.8ZM63,66.6V65.1h0v-.2a20.9,20.9,0,0,0,.1-2.5v2.7h0A3.8,3.8,0,0,0,63,66.6Zm5.6,6.8-.2.2-.2.3h0Zm.8-3.7-.3,1c.1-.2.2-.3.2-.5A.9.9,0,0,0,69.4,69.7Zm.5-2.6a2.2,2.2,0,0,1-.1.8v.7h0l.2-.7ZM68.1,52.7c.1.1.1.3.2.4h0c0-.1-.1-.2-.1-.4Z"/><path d="M65,76.6c0,.1.1.1.1.2l.2-.2h0l-.2.2C65.1,76.7,65,76.7,65,76.6Z"/><path d="M64.6,49.7h0l.2-.5Z"/><path d="M69.2,72.8l-.6.8-.5.7a10.7,10.7,0,0,0,1.5-2.2.8.8,0,0,1,.2-.5v-.5l.2-.3c0-.2,0-.3.1-.4v-.6a.6.6,0,0,0,.1-.4v-.5a.6.6,0,0,0,.1-.4c-.1.3-.1.7-.2,1l-.3.9a2.9,2.9,0,0,1-.2.9l-.2.4-.2.4Z"/><path d="M64.4,75.8l-.6-1.3a4.2,4.2,0,0,0-.4-1L64,75l.3.7v.2l.2.3.2.2.2.3h0l-.2-.2-.2-.3V76h-.1l-.3-.6h0Z"/><path d="M65.1,49.5a4.1,4.1,0,0,0-.5.9,3,3,0,0,0-.4,1,6.1,6.1,0,0,1,.5-1.2Z"/><path d="M64,72.7h0l-.3-1.6Z"/><path d="M62.8,54.4h0a4.1,4.1,0,0,0-.1,1.1C62.7,55.2,62.8,54.8,62.8,54.4Z"/><path d="M65,75.4h0l-.4-.9v.2Z"/><path d="M64.7,74.7l.3.7Z"/><path d="M66.4,74.9l.7-.8-.2.2Z"/><path d="M66.9,74.3l.2-.2h0Z"/><polygon points="70.2 70.1 70 70.7 69.8 71.2 69.8 71.2 70 70.7 70.2 70.1 70.2 70.1"/><path d="M65.5,75.6l.3-.2.3-.4a.8.8,0,0,1-.4.4Z"/><path d="M66.1,76.1l.6-.6h0Z"/><path d="M65.7,75.5l.2-.2.2-.2Z"/><path d="M67,74.1l.7-.7A2.3,2.3,0,0,1,67,74.1Z"/><path d="M63.6,70.5a.9.9,0,0,1,.1.5h0A.7.7,0,0,0,63.6,70.5Z"/><rect x="64.2" y="61.6" height="0.47"/><path d="M64.9,75.2h0c-.1-.1-.1-.3-.2-.5h0c.1.2.1.4.2.6Z"/><path d="M64.9,75.2c-.1-.1-.1-.3-.2-.5S64.8,75.1,64.9,75.2Z"/><path d="M66.6,75.7l.4-.4h0Z"/><path d="M68.5,54c-.1-.2-.1-.3-.2-.4h0C68.4,53.7,68.4,53.9,68.5,54Z"/><path d="M67.6,76.2l-1,.8-.5.3h-.3l.7-.5.9-.8h0l-.9.7a1,1,0,0,1-.5.4l-.6.3.4-.2.4-.2-.8.3h-.2l.7-.3-.4.2h-.3l.4-.2.7-.5-.4.3h0l.3-.3-.3.2.3-.3-.6.3a.5.5,0,0,0,.4-.2h-.2a5.3,5.3,0,0,0,1.4-1.2h-.1l.6-.7-.5.5-.2.2.2-.2,1.1-1.3a8.6,8.6,0,0,0,1-1.6l.4-.8.3-.9a16.1,16.1,0,0,0,.8-3.8V65.4c.1-.3,0-.7.1-1.1s-.1-.6-.1-.9v.8h0a4.1,4.1,0,0,0-.1-1.1,1.7,1.7,0,0,1,.1.7v2.4h0V64.7c0-1.1-.1-2.3-.2-3.4s0-.5-.1-.6v-.4c-.1-.4-.1-.8-.2-1.2v-.5h0c0,.3.1.6.1.9h0c0-.3-.1-.6-.1-.9h0L70,56.9c-.1-.2-.1-.6-.2-.9l.3,1.1a6.8,6.8,0,0,0,.2,1.4c-.1-.5-.1-1-.2-1.5s-.4-2.3-.7-3.4a6.5,6.5,0,0,0-.4-1.3l-.3-.6a1.4,1.4,0,0,0-.2-.6,4.1,4.1,0,0,1-.5-.9l-.5-.7h.1a5.2,5.2,0,0,0-1.1-1l-.2-.2H66c-.1-.1-.2-.1-.2-.2h-.3c-.1,0-.2,0-.2.1a1,1,0,0,0-.8.5,1.6,1.6,0,0,0-.6.8l-.3.5a6,6,0,0,0-.6,1.9c-.1.1-.1.1-.1.2h0l.2-.7a3.6,3.6,0,0,0-.2,1h0c0-.2.1-.4.1-.6l-.3,1.9h0a9.7,9.7,0,0,0-.1,1.7,4.3,4.3,0,0,0,0,1.6h0V55.7a4.1,4.1,0,0,0,.1,1.1V55.6a2.9,2.9,0,0,1,0-1.3v2.5c0,.6.1,1.2.1,1.8v.6l.2,2.9c0,1.1-.1,2.2-.2,3.4v.3c0,.3-.1.8-.1,1.3v-.4h0c0,.6-.1,1.1-.1,1.7h0a2.9,2.9,0,0,0,0,1.3c0,.1-.1.3,0,.5v.6c0,.2.1.5.1.7a.6.6,0,0,0,.1.4l.3,1.3-.3-.9a22.5,22.5,0,0,0,.8,2.4h0a8.8,8.8,0,0,1-.5-1.5,10.9,10.9,0,0,0,1,2.5l.3.7.2.3.3.2-.4-.2-.3-.4.2.2c-.1-.1-.3-.2-.4-.4l.4.6.2.2a1.7,1.7,0,0,1-.6-.6l.3.5a3.6,3.6,0,0,1-.7-1h0l.5.8.3.4.5.2h-.6l-.3-.5-.4-.5h0l.3.4-.5-.7c.2.3.2.5.4.7l-.4-.7v-.2c0,.2.1.3.2.5h0l-.4-.8.3.7c-.1-.1-.1-.2-.2-.5l.3.8-.2-.3-.3-.7-.2-.4.5,1.2.3.6.5.5a4.7,4.7,0,0,1-.9-1.2,6.9,6.9,0,0,1-.5-1.3h0l-.3-.9a3.6,3.6,0,0,1-.4-.9,3.4,3.4,0,0,0-.1-1c0-.3-.1-.6-.1-.8h0c0,.2.1.5.1.8a7.6,7.6,0,0,1-.1-1.5h0a16.1,16.1,0,0,1,0-3.1v.3c.1-1.3.3-2.6.4-3.8a5.7,5.7,0,0,0-.1,1.3c-.1.4,0,.5-.1,1a4.5,4.5,0,0,0-.1,1.1c0,.4,0-.1.1-.4v-.3a19.4,19.4,0,0,0,.2-2.4,10.5,10.5,0,0,0,0-2.5v-.9c0-1.3-.1-2.7-.2-4a26.2,26.2,0,0,1,.1-2.8,8.6,8.6,0,0,0-.1,1.6v-.2c.1.5,0,1.1.1,1.6v-.4a8.1,8.1,0,0,1,0-2.2l.3-2.3v-.5c.1-.4.3-.8.4-1.1a1.4,1.4,0,0,1,.2-.6,6,6,0,0,1,.9-1.5h0l.3-.2a1.6,1.6,0,0,1,.8-.6h.1l-.8.4h0l1-.5h.7l.4.2A6.5,6.5,0,0,1,68.1,49a8.2,8.2,0,0,1,1.2,2l-.4-.9-.5-.7v.2l.6.9h0a3.7,3.7,0,0,1,.5,1.1,3.6,3.6,0,0,1,.4,1.1.8.8,0,0,0-.2-.5h.1l.3.9.3,1.3a15.5,15.5,0,0,1,.4,2.1l.3,2.1c.2,1,.3,1.9.4,2.8v.4c-.1-1.2-.3-2.4-.5-3.5V56.6a.6.6,0,0,1-.1-.4h0l.3,1.6c.2,1.4.4,2.8.5,4.3a26.2,26.2,0,0,1,.1,2.8v1.4c-.1.4-.1.9-.2,1.4a13,13,0,0,1-.9,3.9,3.6,3.6,0,0,1-.4.9l-.4.8a2.5,2.5,0,0,0,.4-.7,2,2,0,0,1-.4.8,3.5,3.5,0,0,0-.5.8l-.7.8-.2.3-.9,1,.8-.9.8-1.1A14.6,14.6,0,0,1,67.6,76.2ZM63,60.5a10.9,10.9,0,0,1-.1-1.8,2.9,2.9,0,0,0-.2-.9v1.3A12.1,12.1,0,0,1,63,60.5Zm-.2-3.2a4.9,4.9,0,0,0,.1,1.2V59h0v.2l.2,2.8v-.4c0-.6-.1-1.1-.1-1.8a2.2,2.2,0,0,1-.1-.8h0C62.9,58.1,62.8,57.8,62.8,57.3ZM68.6,51c-.1-.1-.1-.1-.1-.2s-.2-.2-.2-.3h0Zm2,3.7-.3-1.2Zm.4,2.9a8.8,8.8,0,0,0-.2-1.6h0ZM69.6,73.9l.2-.4h0A.5.5,0,0,1,69.6,73.9Z"/><path d="M63.8,76.1h0l.4.5Z"/><path d="M68.8,51.9a1.4,1.4,0,0,1-.2-.6c-.1-.1-.2-.2-.2-.3a2.2,2.2,0,0,0-.5-.8l.7,1.3a6.1,6.1,0,0,1,.5,1.2l.5,1.6.4,2.1a23.4,23.4,0,0,0-.9-3.8Z"/><path d="M65,48.3a3,3,0,0,0-.8.8l-.4.7c-.1.1-.1.2-.1.4a2.9,2.9,0,0,1,.8-1.4,1.9,1.9,0,0,1,1.1-.7h0a1.2,1.2,0,0,0-1,.5h0Z"/><path d="M63.9,76.7l-.7-1.1a3.6,3.6,0,0,1-.4-1.1,5.8,5.8,0,0,0,.5,1.4Z"/><path d="M62.7,50.4h0a13.3,13.3,0,0,0-.5,1.9C62.4,51.6,62.5,51,62.7,50.4Z"/><path d="M62.8,70.8h.1a4.1,4.1,0,0,1-.1-1.1Z"/><path d="M64.6,47.6h0a3.8,3.8,0,0,0-.9.9l.2-.3Z"/><path d="M63.7,48.5l.2-.3h0Z"/><path d="M63.9,48.2l.7-.6Z"/><path d="M67.6,48.3l.8.9a.2.2,0,0,1-.2-.2Z"/><path d="M68.2,49a.2.2,0,0,0,.2.2h0A.2.2,0,0,1,68.2,49Z"/><path d="M69.7,54.6l-.3-1.2h0Z"/><path d="M66.4,47.5a2.4,2.4,0,0,1,.9.6Z"/><path d="M66.2,48.3a1.8,1.8,0,0,1,.7.5h0l-.6-.5Z"/><path d="M66.6,47.6l.4.3h.2l-.3-.2h-.3Z"/><path d="M68.3,49.2a3.6,3.6,0,0,1,.7,1A3.6,3.6,0,0,0,68.3,49.2Z"/><path d="M62.1,53a1.3,1.3,0,0,1,.1-.6h0A1.3,1.3,0,0,0,62.1,53Z"/><polygon points="70.8 55.5 70.8 55.5 70.7 55.1 70.7 55.1 70.8 55.5"/><path d="M64.4,47.8h0l-.5.4h0l.6-.5Z"/><rect x="64" y="48.2" height="0.02"/><path d="M64.4,47.8l-.5.4Z"/><path d="M66.8,48.7l.3.3h.1c-.1-.1-.2-.1-.2-.2Z"/><path d="M70.4,72.6a.8.8,0,0,1-.2.4h0l.3-.5Z"/><path class="cls-1" d="M52.4,74.6c-14,3.5-25.1,1.3-30.3-2-1.9-1.2-1.1-4.4,1.3-4.7A4.9,4.9,0,0,1,19.2,64c-.1-1.3.5-2.1,1.8-2.9-1.4-.9-3-2-3.1-3.6s1.4-3.2,2.9-3.9c-6.5-1-4.9-5.8-3.3-7s4.7-.1,5.7-.1,7.8.2,10.2.4a12.2,12.2,0,0,0,3.3-.2c1.2-.5,1.2-2.3,1.1-3.6s-3.7-6.8-4-11.1c-.2-2.7,1.6-6.3,3-7.1s3,4.7,3.4,5.9C41.4,35,48.3,43.9,50,46.2c10.8,9.4,18.1,7.3,28.8,7.3,3.6,0,3.2,23.3.2,21.5S57.2,73.4,52.4,74.6Z"/><path d="M38.6,76.9c-7.7,0-13.5-1.8-16.8-3.9a2.7,2.7,0,0,1-1.2-3,3,3,0,0,1,1.3-2,5.1,5.1,0,0,1-3.2-3.9,3,3,0,0,1,1.4-3c-1.2-.8-2.6-2-2.7-3.5a4.9,4.9,0,0,1,2-3.7c-2.5-.7-3.4-2.1-3.7-3.2a4.7,4.7,0,0,1,1.5-4.5c.6-.5,2.3-.4,4.6-.3h1.3c2.5-.1,8.4.3,10.3.4a16.2,16.2,0,0,0,3.1-.2c.9-.4.9-1.9.8-3A12.7,12.7,0,0,0,36,39.9c-1.1-2.3-2.5-5.2-2.7-7.9s1.7-6.7,3.2-7.6h.8c1.5.6,3.3,6.2,3.3,6.3,1.1,3.5,6.7,11.2,9.8,15.1,8.8,7.8,15.3,7.6,23.5,7.3h4.9c.8,0,1.5.7,2,2.1,1.6,4.7,1.5,18.4-.8,20.2a.9.9,0,0,1-1.2.1c-1.5-.9-21.2-1.6-26.3-.3h0A58.8,58.8,0,0,1,38.6,76.9ZM19.4,46.8a4.4,4.4,0,0,0-1.6.2,3.4,3.4,0,0,0-1.1,3.4c.3,1.4,1.8,2.4,4.1,2.7a1.2,1.2,0,0,1,.5.5.5.5,0,0,1-.3.5c-1.3.6-2.6,2-2.5,3.4s1.3,2.2,2.7,3.2.3.2.3.4-.1.3-.3.4S19.6,63,19.7,64a4.5,4.5,0,0,0,3.8,3.4c.2,0,.4.3.4.5s-.1.5-.4.5a2.3,2.3,0,0,0-1.9,1.8,2,2,0,0,0,.7,2c5.3,3.4,16.7,5.3,30,1.9h0c4.5-1.1,25-.8,27,.4h.1s.8-.4,1.2-4.7a50.3,50.3,0,0,0,.1-9.5c-.4-5.1-1.4-6.4-1.9-6.4H73.9c-8.4.3-15.1.5-24.2-7.5,0-.1,0-.1-.1-.1S41.1,35.6,39.7,31c-.5-1.7-2.1-5.2-2.8-5.6s-2.8,4-2.6,6.6,1.5,5.3,2.6,7.5a9.3,9.3,0,0,1,1.4,3.6c.1.9.2,3.3-1.4,4a10.2,10.2,0,0,1-3.5.3c-2-.1-7.8-.5-10.2-.4H19.4Z"/><path d="M27.9,47.5H22.8L20.3,47c1.5.1-1.2-.1-.6-.1h.5c-.8-.1-.4-.1.8,0h2a1.7,1.7,0,0,0,1,0,4.9,4.9,0,0,1-1.7,0h.8c-.9,0-1.2-.1-.5-.1h3.1l3.4.2h-.3l2.9.2L29.4,47h-.1l2.8.2h2.8l1.5-.2h.2c0-.1,0-.1.1-.1H37l.4-.5a5,5,0,0,0,.4-1.3V43.2a5.7,5.7,0,0,0-.4-1.4,6.1,6.1,0,0,0-.7-1.4c-.4-1-.9-2-1.4-3a28.3,28.3,0,0,1-1.1-3.1,9.4,9.4,0,0,1-.4-1.6,5.4,5.4,0,0,1,0-1.8,9,9,0,0,1,.9-3.2,10.9,10.9,0,0,1,.8-1.5c.1-.1.1-.3.2-.4l.3-.3h.1v-.2l.3-.2.3-.2H37l.4.3.2.2v.2l.3.5.6,1.1.9,2.1a3.6,3.6,0,0,0,.4.9v.4l.2.5.3.8.3.7c.5,1.1,1,2,1.5,2.9l-.2-.5-.3-.5-.4-.7-.4-.7h0l.4.8.4.7.5.8.5.9A25.5,25.5,0,0,1,40.3,32l-.3-.6a1.4,1.4,0,0,0-.2-.6c-.1-.4-.3-.8-.4-1.2L38.3,27h-.1l1.1,2.3.4,1.2c.1.1.1.4.2.5l.2.6a1.4,1.4,0,0,1,.2.6l.3.6a5.4,5.4,0,0,0,.7,1.3A18.4,18.4,0,0,0,43,36.3c1,1.6,2,3.2,3.1,4.7l1.3,1.7.8,1,.9,1.3.5.6.5.6.5.5.8.6.5.4h-.1L50,46.2h-.1l-.2-.3h0l.2.2c0,.1,0,.1.1.2l1.7,1.4h.2a28.5,28.5,0,0,0,4.6,3.1l1.1.5.7.3.8.4-.9-.4h-.4l-.3-.2-1.6-.8-1-.6-.9-.6L52,48l2,1.5,1,.7,1.1.6A29.1,29.1,0,0,0,61.2,53a48.5,48.5,0,0,0,5.5.9H79.2c0,.1,0,.1.1.1l.2.2.6.9.3.9c0,.2.1.4.1.6a.9.9,0,0,1,.1.5c0-.2-.1-.4-.1-.7v.5a23.4,23.4,0,0,1,.4,2.6,22.8,22.8,0,0,1,.2,2.6c0,1.1.1,2.8.1,4.2h0v.5a3.4,3.4,0,0,0-.1,1c-.1,1.2-.2,2.4-.4,3.8a4.7,4.7,0,0,1-.3,1.7l-.3.9a.4.4,0,0,1-.1.3v.2c-.2.3-.3.5-.6.6H77.3l-3.4-.4-3.2-.2H64.2a50.5,50.5,0,0,0-5.5,0,30.4,30.4,0,0,0-5.2.4h-.4l2.2-.3h2.2l-3.3.3,3.7-.3h4.2l-4.3.2-3.8.2-1.4.3-1.4.3-1.4.3-1.4.3-1,.2h-1a49.5,49.5,0,0,1-9.4.6H34.3L32.9,76h-.7l-.6-.2H30.2l-1.3-.3-1.4-.4-.6-.2-.7-.2.4.2.7.2.5.2-.5-.2h-.5l-1.1-.4L24.6,74l-.6-.3-.6-.3,1.1.5.8.3-.9-.4-1-.5-.6-.3-.5-.3H22l-.3-.3-.5-.6c.2.2.3.5.6.7h.3l.3.2-.3-.3a1.3,1.3,0,0,1-.7-.6A2,2,0,0,1,21,71a2.5,2.5,0,0,1,.3-1.7A2.8,2.8,0,0,1,22.4,68l.5-.2h-.5l-.4-.2-.4-.2a4.1,4.1,0,0,1-1.3-1,8.6,8.6,0,0,1-1-1.6V63.4a6.1,6.1,0,0,1,.5-1.2l1-.9h.2l-.5-.3-.5-.4-.9-.8a3.9,3.9,0,0,1-.8-1,2,2,0,0,1-.2-1.3,2.7,2.7,0,0,1,.3-1.2,2.9,2.9,0,0,0,.7,3.5l-.7-.9a2,2,0,0,1-.3-1.1,5,5,0,0,1,.2-1.2,4.1,4.1,0,0,1,.5-.9A6.5,6.5,0,0,1,20.3,54h.2c0-.1,0-.1.1-.1h.1c.1-.1,0-.2-.1-.2h0c.1,0,.2.2.1.2h-.1c-.1,0-.1,0-.1.1l-.5.3A4.6,4.6,0,0,0,18.3,56a5.5,5.5,0,0,1,1.6-1.8l.6-.4h-.4l-.6-.2-1.1-.4a3.8,3.8,0,0,1-1.8-1.5,5.8,5.8,0,0,1-.5-1.4c0-.4.1-.7.1-.9l.3-1a4,4,0,0,1,1-1.2l.2-.2h-.1l-.4.4a4.2,4.2,0,0,0-.8,1.8,3,3,0,0,1,.4-1,3.1,3.1,0,0,0-.4,1.9,3.2,3.2,0,0,1,.7-2.3l.6-.7c0-.1.1-.1.2-.1h-.2c0,.1,0,.1-.1.1l-.2.3a.8.8,0,0,0-.4.6,5.8,5.8,0,0,0-.5,1.4,2.4,2.4,0,0,0,.2-.8L17,48v-.2a3.7,3.7,0,0,0-.5,1.8,2.4,2.4,0,0,0,.5,1.8c.1,0,.1,0,.1.1a1.6,1.6,0,0,1-.4-.7.4.4,0,0,1-.1-.3.6.6,0,0,1-.1-.4,3,3,0,0,1,.2-1.6,4.2,4.2,0,0,1,.9-1.4h.1c.1,0,.2,0,.2-.1h1.4l-1.6.2-.2.3-.6.8a1.9,1.9,0,0,0-.2.7,2.2,2.2,0,0,0-.1.8,2,2,0,0,0,.2,1.1h0a2.2,2.2,0,0,1-.2-1.4,4.9,4.9,0,0,0,.1,1.2,2.4,2.4,0,0,0,.7,1.2,2.4,2.4,0,0,1-.6-1.1,2,2,0,0,1-.2-1.1,3.2,3.2,0,0,0,.3,1.4l.7.9.4.2a2.6,2.6,0,0,1-1-1.3h0a3.9,3.9,0,0,0,2.1,1.7,3.1,3.1,0,0,1-1-.5,3,3,0,0,1-.8-.8l.4.5.8.5-1-.7a3.1,3.1,0,0,1-.5-1,1.6,1.6,0,0,0,.4.7,2.4,2.4,0,0,0,.9.8l1.1.5h1.3a6,6,0,0,1-1.9-.6,3.3,3.3,0,0,1-1.5-1.1,2.5,2.5,0,0,1-.3-1.7,3.6,3.6,0,0,1,.7-1.8,3,3,0,0,0-.3,3.5A3.3,3.3,0,0,0,18.9,52a1.6,1.6,0,0,0,.9.3l.5.2h.6a1.1,1.1,0,0,1,.7.6c-.1-.2-.1-.3-.2-.4a.9.9,0,0,1,.1,1.1,1,1,0,0,1-.5.4h-.3a3.1,3.1,0,0,0-1.1.9l-.3.5a2,2,0,0,0-.4.8.6.6,0,0,0,0,.6,1.9,1.9,0,0,0,.2.7l.8,1L21,60l.4.3a1.8,1.8,0,0,1,.5.7,1.1,1.1,0,0,1-.3.8h-.5l-.4.3h.1l.3-.3h.3l.2-.2a.9.9,0,0,0,.3-.7,1.8,1.8,0,0,0-.5-.7L21,60l.5.3a1,1,0,0,1,.4.7,1.1,1.1,0,0,1-.3.8h-.5l-.3.3a1.7,1.7,0,0,0-.6.6,2.2,2.2,0,0,0-.1.8v.4a3.1,3.1,0,0,0,.5,1l.8.8a2.4,2.4,0,0,0,.9.6l.5.3h.7l.4.2.4.3a1,1,0,0,1-.1.9l-.3.3h-.8l-.2.2a1.9,1.9,0,0,0-1,1.7c0-.2.1-.3.1-.5l.2-.5a1.3,1.3,0,0,0-.1,1.2.8.8,0,0,0,.2.5l.3.2h.3l.6.4.7.3.7.4.7.3A30,30,0,0,0,31.5,74a25.9,25.9,0,0,1-4-.9l-1.5.3-.7-.2-.8-.4-.8-.4L23,72l-.4-.2-.3-.2-.3-.7h0a2.2,2.2,0,0,0,.5.8h.7l.4.3.4.2.9.4,1.9.7a16.4,16.4,0,0,0,3.8,1,41.5,41.5,0,0,0,7.9.8h3.1l3.2-.3,1.6-.2h.8l.8-.2,1.6-.3,1.6-.3,1.6-.4,1.6-.2,4.4-.3h.1a30.4,30.4,0,0,0-5.2.4l1.2-.2c2.4-.2,4.9-.3,7.3-.3h9.1l3.5.2,1.9.2,1.2.2h1.4c.1,0,.1-.1.1-.2h.1c0-.1.1-.1.1-.2v-.3a8.3,8.3,0,0,0,.4-1.5h0l.2-1.3c.1-.6.3-4,.3-5.4a37,37,0,0,1-.2,4.7h0c.2-2.1.2-4.2.2-6.3s-.3-4.1-.6-6.2a10.5,10.5,0,0,0-.4-1.7,2,2,0,0,0-.4-.8.5.5,0,0,0-.2-.4h-.1c.1,0,.1,0,.1.1h.1v.2l.5,1.1-.3-.6-.3-.7h-.2c0-.1,0-.1-.1-.1h-11a21.8,21.8,0,0,1-4.4-.4,25.6,25.6,0,0,1-6.6-2.2A39.1,39.1,0,0,1,51,48.1l-1.5-1.3h-.2l-.2-.2-.2-.3-.6-.8-1.1-1.4-2.2-3-.9-1.3-.9-1.4A6.1,6.1,0,0,0,44.4,40l2.4,3.4,1.3,1.7.6.9.4.4v.2h.2l1.2.9.6.5.6.4,1.1.9,1.1.8,1.2.7.6.3.7.4,1.2.6h-.1l-1.1-.6-.6-.3-.6-.3-.6-.4-.5-.3L53,49.5l-.9-.7-1-.7-1.8-1.5-.2-.3-.2-.2-.4-.5-.7-.9a13.3,13.3,0,0,0-1.4-1.9l-2.7-3.9c-.8-1.2-1.7-2.5-2.4-3.8l-1.1-1.9-.5-1.1a3.6,3.6,0,0,1-.4-1.1v-.5l-.2-.5-.4-1-.9-2-.5-1-.2-.2h-.3l-.3.4a4.1,4.1,0,0,0-.5.9l-.7,1.4c-.1.5-.3,1-.4,1.5a7.6,7.6,0,0,0-.1,1.5,7.7,7.7,0,0,0,.2,1.5A32.8,32.8,0,0,0,37.3,39c.4.9.9,1.7,1.3,2.7a1.9,1.9,0,0,0,.2.7v.8a8.6,8.6,0,0,1-.1,1.6,5.7,5.7,0,0,0,.1-1.3v-.6c0-.3-.1-.5-.1-.8a1.3,1.3,0,0,0,.1.6v.7a4.3,4.3,0,0,1-.1,1.6,4.4,4.4,0,0,1-.6,1.6l-.4.4-.4.3-.4.2h-5l-4.2-.2,3.9.2H27.9ZM42.2,76.2h1.5l1.4-.2,1.4-.2,1.4-.2,1.9-.4,1-.2-2.3.4-1,.2-.9.2-1.4.2H44.1Zm10.3-1.7a28.8,28.8,0,0,1-4,.9l-1.4.3h-.7a58,58,0,0,1-9.3.5h5.8l1.5-.2,2.5-.3H47l1-.2h.9l1.4-.3ZM75.9,53.6a1.4,1.4,0,0,0,.9,0Zm-13.4.3,3.8.5-1.8-.2h-.8ZM53.6,50l.6.4h.3l.3.2,1.1.7,1.2.6,1.2.5h0l-2.3-1ZM37.7,47.2a2.6,2.6,0,0,0,.9-1.6h0a2.8,2.8,0,0,1-.8,1.5Z"/><path d="M51.9,47.7l-.5-.4Z"/><path d="M79.7,55.9h0l-.3-.6Z"/><path d="M16.9,50.7h0a2,2,0,0,1-.2-1.1,2.2,2.2,0,0,1,.1-.8,2.2,2.2,0,0,0-.1.8A2,2,0,0,0,16.9,50.7Z"/><path d="M73,53.6h6.1c.1,0,.2,0,.2.1h.2l.3.3h-.3c-.1,0-.1,0-.1-.1H70.2a58.3,58.3,0,0,1-5.9-.3l-2-.4-.9-.2-.8-.2L59.2,52l-1.3-.6a23.6,23.6,0,0,0,6.4,1.9,31.2,31.2,0,0,0,6.1.3Z"/><path d="M81.1,69.1a17.9,17.9,0,0,1-.2,2.3l-.6,2.3c0,.2-.1.3-.1.4a.4.4,0,0,0-.1.3l-.2.2-.4.4h-3l1.2.2h1.7l.4-.2c.1-.1.1-.1.1-.2l.2-.2h0v-.2a3.6,3.6,0,0,0,.4-1.1,15.5,15.5,0,0,0,.4-2.1,31.1,31.1,0,0,0,.3-4.3h0a40.5,40.5,0,0,1-.4,4.9h0A12.4,12.4,0,0,0,81.1,69.1Z"/><path d="M17,49.2a2.6,2.6,0,0,0,.2,1.5c0,.2.2.4.3.6l.6.5,1.3.6h1.5a1,1,0,0,1,.8.7.8.8,0,0,1-.3.9.8.8,0,0,0,.3-.9,1,1,0,0,0-.8-.7H19.8l-1-.4a3.2,3.2,0,0,1-1.3-1l-.4-.6c0-.1-.1-.3-.1-.4Z"/><path d="M74.7,73.4h0l-6.3-.3Z"/><path d="M19.1,64.3A.4.4,0,0,0,19,64v-.3a2.1,2.1,0,0,1,.5-1.3h0a1.7,1.7,0,0,0-.4,1.2v.6a.4.4,0,0,1,.1.3v.3a4.1,4.1,0,0,0,.5.9l.7.9a9.9,9.9,0,0,1-1.1-1.7"/><path d="M80.4,69h0c-.1,1.2-.3,2.3-.5,3.5a2.4,2.4,0,0,1,.2-.8Z"/><path d="M79.9,72.6a2.4,2.4,0,0,1,.2-.8h0A2.4,2.4,0,0,0,79.9,72.6Z"/><path d="M80.1,71.8l.3-2.8Z"/><path d="M80.3,59.7a14.9,14.9,0,0,0-.2-2.1c-.1-.5-.3-1.1-.4-1.5a2.9,2.9,0,0,1,.2.9A25.1,25.1,0,0,1,80.3,59.7Z"/><path d="M79.9,57a2.9,2.9,0,0,0-.2-.9h0A2.9,2.9,0,0,1,79.9,57Z"/><path d="M63.3,53.2a27.3,27.3,0,0,0,4,.5h0Z"/><path d="M80.5,64.2c0-1,0-2.2-.1-3.4C80.5,62.2,80.5,63.2,80.5,64.2Z"/><path d="M81.3,63.3c0-1-.1-2-.2-3h0c.1,1,.2,2,.2,2.9Z"/><path d="M80.6,63.2a5.7,5.7,0,0,1-.1-1.3v1.2Z"/><path d="M79.7,56.3a4.4,4.4,0,0,0-.6-1.6v-.2H79c0,.1.1.1.1.2a2,2,0,0,1,.4.8Z"/><path d="M59.8,53.2h0l.7.2.6.2h0l-.6-.2Z"/><rect x="35.2" y="74.4" height="1.66"/><path d="M80.4,69.8h0l-.3,2h0l.3-2.1Z"/><rect x="80.1" y="71.8" height="0.06"/><path d="M80.4,69.8l-.3,2Z"/><path d="M81.2,60.9a9.9,9.9,0,0,0-.2-1.7h0a11,11,0,0,1,.2,1.8Z"/><path d="M38.6,42l.3.9v.2h0v.6h0v-.9l-.3-1Z"/><path d="M47.3,76.7l-3.9.4H40.3l3.1-.2,3.6-.5h0a64.8,64.8,0,0,1-7.7.7h.2c.8-.1.4-.1,0-.1h.7l3-.2H41.5l1.3-.2H41.7l1.5-.2H41.8c2-.2,4.1-.4,6.4-.8H48l2.8-.6-2.3.4-1.1.2,1.1-.2,2.7-.6,1.3-.4h1.6a48.7,48.7,0,0,1,6.6-.4c2.2-.1,4.4,0,6.6,0s4.4.1,6.5.3,2.2.1,3.3.3H78l.9.3h.5l.4-.2a1.6,1.6,0,0,0,.4-.7l.3-1.1a17.4,17.4,0,0,0,.5-2.2,51.7,51.7,0,0,0,.4-6.8c0,.5,0,1.6-.1,2.7h0a22.9,22.9,0,0,0,0-3.7,41.7,41.7,0,0,1,0,5c-.1.8-.1,1.7-.2,2.6a20,20,0,0,1-.5,2.6h0a18.5,18.5,0,0,0,.4-2.3l.3-2.4c.1-1.9.1-3.8.1-5.7a50.5,50.5,0,0,0-.6-5.6,14.6,14.6,0,0,0-.5-2l-.2-.4-.3-.7-.6-.5H69.8l4.9-.2H69.6a37.7,37.7,0,0,1-5.8-.4,22.6,22.6,0,0,1-5.6-1.7,23.8,23.8,0,0,1-4.1-2.3l-.5-.3-.5-.3-.9-.7-.4-.4-.5-.3-.9-.8H50l-.2-.4-.6-.7-1-1.4c-.9-1.1-1.5-2-1.8-2.4l.4.6-.3-.4c-1-1.5-2-2.9-2.9-4.4l-2.2-3.6h0l.2.4-.5-.8-.2-.5-.2-.5c-.1-.1-.1-.3-.2-.4V31l-.3-.8-.7-1.8-.8-1.6a6,6,0,0,0-.9-1.5c-.2-.2-.4-.5-.6-.5a.2.2,0,0,0-.3,0h-.1l-.2.2a4.3,4.3,0,0,0-1.1,1.2l-.8,1.4a11.1,11.1,0,0,0-.8,3v.3c.1-.4.2-1,.3-1.6L33.7,31a8.6,8.6,0,0,0,.1,1.6h0a6.7,6.7,0,0,1,0-2,3.8,3.8,0,0,0,0,1.5,7.7,7.7,0,0,0,.2,1.5,17.6,17.6,0,0,0,1,3v.2c.2.4.5,1.2,1,2.2s1,2,1.3,2.8a1.4,1.4,0,0,1,.2.6,1.9,1.9,0,0,1,.2.7v1.4a2.8,2.8,0,0,1-.4,1.5c-.1.1-.1.2-.2.2l-.2.2h-.2c.1,0,.2,0,.2-.1h.3a.9.9,0,0,0,.3-.7l.3-1.2a4.9,4.9,0,0,0-.1-1.2,6.5,6.5,0,0,1-.1,2.4,4.1,4.1,0,0,1-.5.9h-.4c0,.1-.2.1-.2.1h.3l.3-.2a2.1,2.1,0,0,0,.4-.6l.3-1V43.2h0V43c0-.1-.1-.2-.1-.3A12.2,12.2,0,0,0,37,41l-1.1-2.2,1,2c.2.3.3.7.5,1l.3,1c.1.1.1.2.1.4h0v1.6a5.6,5.6,0,0,1-.4,1.2l-.5.5H33.2l-2.9-.2H17.5c0,.1,0,.1-.1.1h-.1c-.1.1-.2.3-.4.4a6.3,6.3,0,0,0-.8,2.3,4.9,4.9,0,0,0,.1,1.2,2.1,2.1,0,0,0,.6,1,3,3,0,0,0,.8.8l.3.2.3.2h.2l-.9-.5,1,.5.2.2.7.2,1.2.3-.9.7-.4.4c0,.1-.1.1-.1.2h-.1l-.6.7.6-.8.4-.3.3-.3.7-.6-.8.6-.4.3c0,.1,0,.1-.1.2h-.1l-.7.8a3.4,3.4,0,0,0-.4,2,2.1,2.1,0,0,1,.1-1.1.4.4,0,0,1-.1.3,4.1,4.1,0,0,0,.1,1.1,3.1,3.1,0,0,0,.5,1l.8.9c.1,0,.1.1.2.2h.3l1.1.8-.8.6.2-.2L20,61h-.1c0,.1,0,.1-.1.1a.8.8,0,0,0-.2.4,2,2,0,0,0-.4.8v.9a1.9,1.9,0,0,0,.2.8l.4.8.5.6.8.7.4.2.9.5.4.2-.8.7-.5.5-.4.8a4.9,4.9,0,0,0-.1,1.2,2.1,2.1,0,0,0,1.1,1.5l1.8,1-.6-.3-.7-.3-.4-.3h-.3a1.2,1.2,0,0,1-.5-.5l.6.7a3.1,3.1,0,0,1,1,.5l1.9.9,3.9,1.3h0l-2.5-.8-2.4-1a15,15,0,0,0,4.2,1.5,29.8,29.8,0,0,0,4.3.9l2.1.3h.9l1.4.2H35.6l-1.9-.2,2.3.3c.8,0,1.3,0,1.1.1H34.2l1.7.2-3.8-.4H32a48.9,48.9,0,0,0,6.6.5H34.3L31.6,76l2.5.3H30.8l1.7.3H31.2l-1.5-.3,2.5.5h-.8l-1-.2,2.5.5-.8-.2-1.4-.2-1.3-.2-.6-.2-.8-.2,4.2.9,4.2.4A35.2,35.2,0,0,1,27.3,76h.2l-3-1-.6-.2-2.4-1.3A3.3,3.3,0,0,1,20.4,72a4.5,4.5,0,0,1-.3-1.6,7.4,7.4,0,0,1,.4-1.4,2.1,2.1,0,0,1,.4-.6c0-.1,0-.1.1-.1h.1c-.1,0,0,0-.2.2l-.4.6a5.7,5.7,0,0,0-.4,1.4,4.2,4.2,0,0,1,.4-1.5l.5-.7h-.1l-.8-.6c0-.1-.2-.3-.3-.4a7.6,7.6,0,0,1-1.1-1.4l-.3-.8v-.9a3.9,3.9,0,0,1,.4-1.8l.6-.7h-.1a2.3,2.3,0,0,1-.7-.7,3.6,3.6,0,0,1-1.1-1.6,2.7,2.7,0,0,0,.6,1.2,3,3,0,0,1-.8-1.6,2.8,2.8,0,0,1-.1-.9,3.4,3.4,0,0,1,.1-1,10.9,10.9,0,0,1,.8-1.5l.3-.4V55h.1c0-.1,0-.1.1-.1h-.7a7.1,7.1,0,0,1-1.4-1,4.5,4.5,0,0,1-1-1.4,4.7,4.7,0,0,1-.3-1.7,5,5,0,0,0,.2,1.2,4.9,4.9,0,0,0,.4,1.1,6.1,6.1,0,0,0,1.7,1.5l.5.3h.7c-.1,0-.1,0-.1.1h-.1l-.3.3a5.6,5.6,0,0,0-.9,1.7,4.3,4.3,0,0,0-.2,1.1,4.1,4.1,0,0,0,.1,1.1c.1.1.1.1,0-.2a2.9,2.9,0,0,1,0-1.3,2.9,2.9,0,0,1,.2-.9,6.4,6.4,0,0,1,.8-1.4c0-.1.1-.2.2-.3h.2c0-.1,0-.1.1-.1s-.1-.1-.2-.1h-.7l-1.4-1.1a3.4,3.4,0,0,1-1-1.6c0-.3-.1-.6-.1-.9v-1a10.9,10.9,0,0,1,.5-1.7l.5-.8.7-.6h6.7c2.2,0,4.4.2,6.6.3l3.2.2A8,8,0,0,0,35,46h1.4c0,.1-.1-.1-.1,0h.1a.8.8,0,0,0,.4-.7c.1-.3.1-.7.2-1a1.3,1.3,0,0,0-.1-.6V43l-.3-.9c-.6-1.4-1.3-2.7-1.9-4.1a15.1,15.1,0,0,0,1.1,2.2c.3.8.7,1.6,1,2.3l-.2-.5.4,1v.2h0v1a5,5,0,0,1-.2,1.2l-.3.4h-.1l.3-.3.3-.7V43.3h0l-.3-.8c-.4-1.1-1-2.2-1.5-3.4a34.5,34.5,0,0,1-1.4-3.4,15.5,15.5,0,0,1-.8-3.6,12.3,12.3,0,0,1,.2-1.9,11.2,11.2,0,0,1,1.2-3.5,6.1,6.1,0,0,1,1.2-1.6l.5-.5.3-.2h.5a1.1,1.1,0,0,1,.8.3l.5.5a3.5,3.5,0,0,1,.8,1.3,5.4,5.4,0,0,1,.7,1.3h0a6.9,6.9,0,0,0,.5,1.3l.6,1.5v1l.2.3,1.1,2.2-.5-.8-.5-1.1-.2-.5c-.1-.2-.1-.4-.2-.6s-.3-.9-.5-1.3h0l.3.7v.4l.2.4a.9.9,0,0,0,.3.7v.4l.2.3a15.1,15.1,0,0,0,1.5,2.8c1.1,1.8,2.3,3.5,3.5,5.2L49,43.5,50.1,45l.3.4h.2c0,.1,0,.1.1.2l.7.6-.6-.5-.2-.2h-.1l-.2-.3a6.4,6.4,0,0,1-1-1.3l-1.6-2.2.4.5c.6.9,1.7,2.3,2.2,2.9l-.6-.7c0-.1,0,0,.6.7l.3.4h.3l.7.6.7.6.7.6.8.5.7.6.8.5.7.4-.7-.4-.6-.4.2.2.4.2.3.2.7.4,1.3.7a15.6,15.6,0,0,0,4.1,1.5,25.2,25.2,0,0,0,6.7.9H78.9l.7.2.6.4.7,1.1c.1.4.3.7.4,1.1s.4,1.6.5,2.3.3,2.3.4,3.4c-.1-.7-.1-1.4-.2-2.2s-.3-1.9-.5-2.9a7.8,7.8,0,0,0-.5-1.4,6.4,6.4,0,0,0-.8-1.4,1.8,1.8,0,0,0-.7-.5h-.1l.5.2a2.7,2.7,0,0,1,.7.8,3.6,3.6,0,0,1,.4.9,4.9,4.9,0,0,1,.6,1.7c.2,1.2.4,2.4.5,3.6s.2,3,.2,4.6a33.9,33.9,0,0,1-.2,4.5,17.9,17.9,0,0,1-.2,2.3c-.1.7-.3,1.5-.5,2.3a4.9,4.9,0,0,1-.4,1.1l-.3.5v.2h-.1l-.3.2a1.1,1.1,0,0,1-.8.3l-.7-.2h-.5l-.5-.2-3.2-.3L71.3,75l-6.5-.2H58.7l-3,.2-3.2.4-1.2.3-4.2.8L51,76l1.2-.3h.9a6.3,6.3,0,0,1,1.9-.3l-1.9.2h-.5l-.4.2-1,.2ZM24.1,46.4l5.7.2,3,.2-2.3-.2h-2A32.4,32.4,0,0,0,24.1,46.4Zm10.6.5H28.3l-4.6-.2H29l3.3.2Zm15.7-.6-.2-.2H50l-.3-.4-.7-.9h-.1l.7.8.3.5.2.2Zm12,5.9-1.1-.3h-.9l-.8-.3-.8-.4,1,.5.7.2Zm9.7.6a46.9,46.9,0,0,1-5.3,0h-.1A48.6,48.6,0,0,0,72.1,52.8ZM56.8,75.1Z"/><path d="M41.1,32.9l.5.8-.2-.4.2.4Z"/><path d="M47.7,41.7h0l.4.5Z"/><path d="M52.5,48.3l-.9-.7-.7-.6-.5-.5-.3-.2-.2-.2h-.1l-1.9-2.5,1.7,2.2.2.3H50l.5.4,1,.8,1.8,1.3L55,50a22.7,22.7,0,0,0,5.5,2.5h.6l.5.2,1,.2,1,.2h3.9a27,27,0,0,1-6.9-1.2,21.1,21.1,0,0,1-5.9-2.7Z"/><path d="M40.1,30.5a31.2,31.2,0,0,0-1.8-4.2,3.8,3.8,0,0,0-.9-1.3l-.3-.2h-.7l-.2.2h0l-.2.3.2-.2.3-.3h.7l.4.4.8,1.1.6,1.3a18.6,18.6,0,0,1,1,2.5l.5,1.4.6,1.3h0l-.3-.6-.2-.6-.3-.5-.2-.6a20.9,20.9,0,0,0-.8-2.3h0A15.5,15.5,0,0,1,40.1,30.5Z"/><path d="M34.5,77.1l-4.2-.5-3.7-1a20.7,20.7,0,0,0,4.9,1.2h3Z"/><path d="M34.3,26.6h0a23.3,23.3,0,0,0-1.1,2.8,9.9,9.9,0,0,0-.2,1.7c0,.2-.1.3-.1.5V32a3.4,3.4,0,0,0,.1,1,3.4,3.4,0,0,1-.1-1v-.9a9.9,9.9,0,0,1,.2-1.7A13.9,13.9,0,0,1,34.3,26.6Z"/><path d="M22,67.4h-.7l-.4-.3-.6-.6a6,6,0,0,1-.9-1.5,2.9,2.9,0,0,0,.8,1.4l.7.7.3.2.3.2H22Z"/><path d="M40.8,30.2h0a34.5,34.5,0,0,0-1.4-3.4l.3.8A20.3,20.3,0,0,1,40.8,30.2Z"/><path d="M39.4,26.7l.3.8h0Z"/><path d="M39.7,27.5c.4.9.8,1.8,1.1,2.7C40.5,29.3,40.1,28.4,39.7,27.5Z"/><path d="M45.4,38.4a34.6,34.6,0,0,0,2.2,3.1l-.6-.8C46.5,40.1,46.1,39.4,45.4,38.4Z"/><path d="M47,40.7l.6.8h0Z"/><path d="M61.6,52.8l-.5-.2h-.5l-1-.4-1-.4-1-.4h0l1,.4.5.2.5.2,1,.4h.5Z"/><path d="M42.9,34.5c.6.9,1.2,2,1.9,3C44,36.3,43.4,35.4,42.9,34.5Z"/><path d="M35.2,39.1l-1-2.2h0C34.5,37.7,34.9,38.4,35.2,39.1Z"/><path d="M42.7,35.7l1.7,2.6h0c-.6-.8-1.1-1.7-1.6-2.5Z"/><path d="M43.4,35.4l.7,1.2c.1,0,.2.3.4.6l-1-1.6Z"/><path d="M47.4,41.3l2.3,3.1Z"/><path d="M33.6,35.2a14.6,14.6,0,0,1-.5-2h0A14.6,14.6,0,0,0,33.6,35.2Z"/><polygon points="65.1 52.5 65.1 52.5 63.8 52.3 63.8 52.4 65.1 52.5"/><path d="M16.2,46.6l.6-.7h0Z"/><path d="M40.5,29.5h0a11.9,11.9,0,0,0-.8-2h0a18,18,0,0,1,.8,2.1Z"/><polygon points="39.7 27.5 39.8 27.4 39.8 27.4 39.7 27.5"/><path d="M40.5,29.5a11.9,11.9,0,0,0-.8-2A11.9,11.9,0,0,1,40.5,29.5Z"/><path d="M44,37.8l1,1.5h.1Z"/><path d="M24.8,54.5h0L19.9,54a.6.6,0,0,1-.5-.6A.7.7,0,0,1,20,53l4.9.5c.3.1.5.3.4.6S25.1,54.5,24.8,54.5Z"/><path d="M23.6,61.9a8,8,0,0,1-3.4-.7.5.5,0,0,1,.5-.9,8.1,8.1,0,0,0,3.1.6.5.5,0,1,1,0,1Z"/><path class="cls-3" d="M65.7,48.2a99.3,99.3,0,0,1,12.2.1c2.8.1,6.1.6,7.7,2.7s4.9,7.2,1.5,22.8a5.8,5.8,0,0,1-2.4,4c-1.9,1.2-16.6.8-19.6-1,.9-.6,5.2-2.5,5.5-10.9a35.3,35.3,0,0,0-.2-8.6C69.8,53.8,68.5,50.1,65.7,48.2Z"/><path d="M78.3,79c-5.1,0-11.5-.6-13.4-1.8-.2-.1-.3-.2-.3-.4s.1-.3.3-.4l.2-.2c.1-.1,4.7-2.7,5-10.4v-.4a35.5,35.5,0,0,0-.3-8c-.7-4.4-2.3-7.3-4.5-8.8a.4.4,0,0,1-.2-.5h0a.5.5,0,0,1,.5-.3,99.3,99.3,0,0,1,12.2.1c2.9.1,6.4.6,8.1,2.9,3.3,4.6,3.9,12.7,1.6,23.3a6.4,6.4,0,0,1-2.7,4.3C84.1,78.8,81.5,79,78.3,79ZM66.2,76.7c4.2,1.5,16.7,1.6,18.2.7a5.3,5.3,0,0,0,2.2-3.7c2.3-10.3,1.8-18-1.4-22.4-1.5-2-4.7-2.4-7.4-2.5s-7.2-.3-10.7-.2c1.8,1.8,3.1,4.7,3.8,8.6a37.5,37.5,0,0,1,.3,8.2v.5C70.9,73,67.8,75.7,66.2,76.7Z"/><path d="M69.3,74.3l-1.2,1.4-.2.2v.2h-.3l-.5.3a2.8,2.8,0,0,0,1-.9l1.1-1.3h0l-.5.6-.6.7a8.1,8.1,0,0,1-1.4,1.2l1-.8-1,.6h-.2l.4-.3.4-.3-1,.7.5-.4h-.3l.4-.3,1-.9-.4.3-.2.2h0l.4-.4-.4.3.4-.5-.3.3-.2.2H67a.8.8,0,0,0,.4-.4c-.3.3-.4.3-.2.1A9.2,9.2,0,0,0,68.9,73h-.1l.3-.4v-.3l.2-.4a4.1,4.1,0,0,0-.5.9l-.3.4c0-.1.2-.3.3-.4l.9-2.2a28.6,28.6,0,0,0,.7-2.8,1.7,1.7,0,0,1,.1-.7v-.7a6.6,6.6,0,0,0,.1-1.4,54.2,54.2,0,0,0,.1-5.7c-.1-.6-.1-1.3-.2-1.9s-.4-2.2-.6-3l.3,1.2h0c-.1-.5-.3-1-.4-1.6s.3,1.4.5,2.1a9.1,9.1,0,0,1,.3,2.3h.1l-.3-2.1a19,19,0,0,0-1.5-4.6,3.6,3.6,0,0,0-.4-.9l-.3-.4L68,50l-.3-.3c0-.1-.1-.1-.1-.2l-.2-.2-.6-.6-.6-.7-.3-.3h0l.9.9.5.5c0,.1.1.1.1.2h.2v-.2l-.2-.2-.4-.4-.9-.9h8.5l4,.2h1.6l1.3.3h-.1a8.8,8.8,0,0,1,2.3.7L85.3,50h-.1l.3.3.2.4.5.7.4.8.2.3.2.4.3.8.3.9c.1.5.3,1,.4,1.5v.7c0,.3.1.5.1.7v.6c0-.1-.1-.6-.2-1.2l.3,1.6h0c-.1-.3-.1-.7-.2-1l.2.7V61h0v2.5c0,.3-.1.7-.1,1.1a5.7,5.7,0,0,1-.1,1.3v.2a14.9,14.9,0,0,0,.2-2.1,3.8,3.8,0,0,0,0,1.5h0l-.3,2.6v.9c-.1.4-.1.7-.2,1.1v1a14.2,14.2,0,0,0-.4,2c-.1.2-.1.4-.2.6a1.3,1.3,0,0,0-.1.6,5,5,0,0,1-.5,1.3,5.5,5.5,0,0,1-1.7,2H85l.4-.4-.4.4H83.3a1.7,1.7,0,0,0,1-.3l-1,.2-1.1.2H74.8l-2-.2h1.5l-3.8.4h0l2.3.3-4-.5-1.3-.3-.6-.2-.6-.2,1.6.3h-.5l.9.2c-.6-.2-1.6-.4-1.5-.5l1.3.3-.8-.2,1.7.3h.1l-2.9-.7.7.2h.2l.7.2h.3l1.2.2-1.1-.2,1.1.2h.3l-.8-.2h0l1.3.2L69,77.1h0l-1.8-.4,4,.7H82.7l1.2-.2h.3l.2-.2.5-.4a6.1,6.1,0,0,0,.7-1,6.4,6.4,0,0,1-1,1.3l-.3.2h-.8l-1.6.2h.9l.9-.2h.5v-.2l1.1-1.1a7.7,7.7,0,0,0,.7-1.6,10.5,10.5,0,0,0,.4-1.7,3.6,3.6,0,0,1,.2-1V71a37.2,37.2,0,0,0,.8-5.7,12.1,12.1,0,0,0,.1-1.9h0c0,.3-.1.7-.1,1.1a4.1,4.1,0,0,1-.1,1.1v-.5a45.6,45.6,0,0,0-.1-6.4c0-.2-.1-.5-.1-.8a.6.6,0,0,0-.1-.4v-.4c0-.3-.1-.5-.1-.7a1.9,1.9,0,0,0-.2-.8,15.5,15.5,0,0,0-.8-2.3H86c.1.1,0,0,0-.1l-.2-.4-.3-.6-.4-.5v-.3l-.2-.2-.4-.3.3.3.2.2h0l.3.4.2.3c0,.1.1.1.1.2h0l-.3-.5a2.1,2.1,0,0,1-.4-.6,2.8,2.8,0,0,0-1-.9,7.7,7.7,0,0,0-2.5-1,17.5,17.5,0,0,0-3.2-.4h1.4l1.2.2H67.9c0,.1.1.1.1.2h.2l.3.4.3.4a11.4,11.4,0,0,1,1,1.9l.6,1.4a4.2,4.2,0,0,0-.4-1,15.1,15.1,0,0,0-1.1-2.2,3.6,3.6,0,0,0-.7-1h-.1c-.1-.1-.1-.1-.1-.2h0c0,.1.1.1.1.2h.1v.2l.4.5.4.6a25.6,25.6,0,0,1,1.1,2.4,26.2,26.2,0,0,1,1.1,4c.2,1.3.3,2.6.4,4V68a5.9,5.9,0,0,1-.2,1.3,4.3,4.3,0,0,0,.2-1.1,5,5,0,0,1-.2,1.2c0,.2-.1.4-.1.7a1.1,1.1,0,0,1-.2.6l-.2.8-.3.7v.2l-.2.3-.2.4-.2.4-.5.9.8-1.6.3-.5v-.8l.2-.5A16.6,16.6,0,0,1,69.3,74.3Zm18.3-3.2c.2-.9.3-1.8.4-2.6a5.7,5.7,0,0,0,.1-1.3v1.9A6.4,6.4,0,0,0,87.6,71.1Zm.7-4.7a11,11,0,0,0-.2,1.8v.7h0v.2c0,.3-.1.7-.1,1l-.2,1c-.1.7-.3,1.4-.4,2.1s.1-.4.1-.6a23.8,23.8,0,0,0,.5-2.6,3.4,3.4,0,0,1,.1-1h0c.1-.6.1-1.1.2-1.5A4.1,4.1,0,0,0,88.3,66.4Zm-9.7-18Zm-6,.5Zm-4.3,0ZM71,70.2l.2-.6h0l-.2.7Z"/><path d="M85.4,50.9l-.3-.3h0Z"/><path d="M65.9,48.2h0l.3.3Z"/><path d="M77.3,48.2h2.9L77.9,48h-.6Z"/><path d="M86.1,51.9a4.1,4.1,0,0,0,.5.9l.4,1c.4,1.1.5,1.3.6,1.7a5.6,5.6,0,0,0-.4-1.2V54c0-.1-.1-.2-.1-.3l-.3-.6a1.4,1.4,0,0,0-.2-.6l-.3-.5-.4-.6-.2-.2c0-.1,0-.1-.1-.2h-.1c.2.1.2.3.4.5l.3.4c.2.3.3.7.5,1h0Z"/><path d="M68,76.8a20.9,20.9,0,0,0,3.5.4L69.3,77Z"/><path d="M87.1,56.5h0a5.9,5.9,0,0,0,.2,1.3v.7c0,.2.1.5.1.8s-.1-.5-.1-.8v-.7A5.9,5.9,0,0,1,87.1,56.5Z"/><path d="M85.4,52.3h0a6.4,6.4,0,0,1,.8,1.4l-.2-.3-.3-.6Z"/><path d="M86.2,53.7l-.2-.3h0Z"/><path d="M86,53.4l-.3-.6-.3-.5.3.5Z"/><path d="M82.4,49.8l-1.6-.4h.5Z"/><path d="M84.1,50.7,82.9,50Z"/><path d="M87.7,62.1c0-.4-.1-.7-.1-1.1h0C87.6,61.4,87.7,61.7,87.7,62.1Z"/><path d="M84.2,49.9,83,49.2h0l.6.3Z"/><path d="M83.8,50.5l-.5-.3H83l.4.2h.4Z"/><path d="M80.9,49.5l-1.6-.3Z"/><rect x="87.6" y="59.4" height="0.87"/><path d="M86,74.3c.1-.2.1-.5.2-.7h0C86.1,73.8,86.1,74.1,86,74.3Z"/><path d="M85.6,52.5h0a3,3,0,0,1,.4.8h0A3,3,0,0,0,85.6,52.5Z"/><path d="M85.6,52.5a3,3,0,0,1,.4.8A3,3,0,0,0,85.6,52.5Z"/><polygon points="86 53.3 86 53.4 86.1 53.4 86 53.3"/><polygon points="86.1 53.4 86.1 53.4 86 53.3 86.1 53.4"/><polygon points="86.1 53.4 86 53.3 86 53.3 86.1 53.4"/><path d="M83.2,49.3h-.3l-.4-.2h-.1l.4.2Z"/><polygon points="71.5 68.1 71.5 68.4 71.4 68.8 71.4 68.8 71.5 68.4 71.5 68 71.5 68.1"/><path d="M82.5,79.3H80.4c-.8,0-.7,0,.1-.1h-.4c-.4,0-.5,0-.2-.1l3.1-.2h-.2l1.4-.3-1.1.2h0l1.2-.2h.5l.5-.4a5.5,5.5,0,0,0,1.5-2.4,1.9,1.9,0,0,0,.2-.7v-.7l.3-1.6a40.7,40.7,0,0,0,.8-6.1V61.9c0-.6-.1-1.1-.1-1.6v1.3h0v3.2h0a19.3,19.3,0,0,0,.1-2.4,31.5,31.5,0,0,0-.4-5.3l-.3-1c-.1-.2-.1-.4-.2-.6a2.9,2.9,0,0,0-.2-.9,3.6,3.6,0,0,0-.4-.9.8.8,0,0,0-.2-.4V53h0l.3.7c.1.2.1.5.2.7h0c-.1-.2-.1-.4-.2-.6l-.3-.6h0l-.3-.6-.3-.5-.4-.6-.2-.3c-.1,0-.1-.1-.2-.2l-.9-.9a6,6,0,0,1,1.5.9l.6.9.6,1-.6-1-.3-.5-.3-.5a4.3,4.3,0,0,0-2-1.5,7.9,7.9,0,0,0-2.6-.8,31.5,31.5,0,0,0-4.3-.5H71.2a6.7,6.7,0,0,0-2,0H65.9c-.1,0-.2,0-.2.1v.2H66A7.5,7.5,0,0,1,68.1,51l.2.3.2.2-.7-1.1.9,1.5h0c-.2-.3-.3-.7-.5-1A29.2,29.2,0,0,1,69.6,54h0c0,.2.1.3.1.5s.1.5.2.7.1.5.2.8a2,2,0,0,1,.1.7c0,.2.3,1.7.4,2.6v.2a16.4,16.4,0,0,0-.2-2.2c.1.8.2,1.4.2,1.6a11,11,0,0,0-.2-1.8,16,16,0,0,0-.5-2.1,16,16,0,0,1,.5,2.1l.3,1.9c0,1,.1,1.9.1,2.9v1c-.1,1.5-.1,3-.3,4.5v2a1.9,1.9,0,0,1-.2.7,11.4,11.4,0,0,1-.9,2.6v-.2l.2-.6-.2.5L69,73l-.2.3v.2l-.4.6c.2-.2.2-.4.3-.5l.2-.4-.2.4-.3.5-.4.5a1,1,0,0,0-.4.5l.5-.6-.2.2a7.9,7.9,0,0,1-2.2,1.9h0l-.3.2h-.1l.3.2.7.2,1,.3,1.1.2.7.2,2.1.2H69.5l4.1.4h0L71,78.1l4.4.4h1.9a32.4,32.4,0,0,1-4.4-.2h-3l-1.4-.2-1.3-.2h0l1.3.2-2.2-.5H65l-.3-.2a.7.7,0,0,1-.4-.6.6.6,0,0,1,.1-.7l.2-.3h.3l.3-.2,1.4-1.1-.5.4A10.2,10.2,0,0,0,69,70a.7.7,0,0,1-.1.5V71l-.4.9v.7l-.4.6-.3.3-.2.4-.6.6h.1c.1-.1.1-.1.1-.2l.2-.2.3-.3A12,12,0,0,0,69,70.5a15.9,15.9,0,0,0,.7-3.8V65.2c.1-2.1.1-4.2,0-6.2a15.5,15.5,0,0,0-.4-2.1,15.5,15.5,0,0,0-.4-2.1,18.9,18.9,0,0,1,.5,2.3v-.2a20,20,0,0,1,.4,2.4,1.3,1.3,0,0,1-.1-.6L69.4,57l-.3-1.7A17.3,17.3,0,0,0,68,52.1a3.5,3.5,0,0,0-.5-.8,6.4,6.4,0,0,0-1-1.3c0-.2-.1-.3-.3-.4l-.3-.3-.3-.2-.3-.2a2.1,2.1,0,0,1-.4-.6,1.4,1.4,0,0,1,.2-.6.9.9,0,0,1,.6-.3H76.2c1.3.1,2.5.1,3.6.3h-.6l1.5.2,2.1.5,1.6.7a4.2,4.2,0,0,1,1.4.9l.3.3.3.3.4.8.5.7a.8.8,0,0,0,.2.4v.4A16.9,16.9,0,0,1,89,57.2a9.9,9.9,0,0,0,.2,1.7c0-.4-.1-.7-.1-1.1a19.8,19.8,0,0,0-1.6-5.4l-.4-.6-.3-.6-.4-.6-.2-.3-.3-.3-.5-.5h.1l.5.4.4.6.3.5.2.3.2.2.4.8.3.8a3,3,0,0,1,.4.8v.5c.1.1.1.2.1.4l.3.8c.1.3.1.6.2.9a2.2,2.2,0,0,1,.1.8l.2.9a4.1,4.1,0,0,0,.1,1.1c0,.3.1.7.1,1.1V67c-.1.5-.1,1-.2,1.5l-.2,1.6-.6,3.1V74c-.1.2-.1.5-.2.7a5.8,5.8,0,0,1-.5,1.4l.5-1.2a6.9,6.9,0,0,1-.5,1.3,4.2,4.2,0,0,1-.9,1.4,6.9,6.9,0,0,1-1.3,1.1H85l-.4.2-1.1.2h-1a6.3,6.3,0,0,0,1.9-.3l.6-.2h.5l.7-.7-.7.7H85l-.5.2ZM70.6,65c0-1,.1-1.9.1-2.8a7.6,7.6,0,0,0-.1-1.5,4.9,4.9,0,0,1,.1,1.2c0,.3-.1.6-.1.9Zm.1-5.1v2.7h0V63c0,1.5-.1,2.9-.2,4.5v-.6c.1-1,.2-2,.2-3V62.7h0A13.1,13.1,0,0,0,70.7,59.9Zm6-11.8Zm6.5.3-1.8-.6.5.2h.4Zm3.7,3.1-.4-.6-.4-.6-.2-.2-.3-.3-.5-.4h0l.5.4.3.3.2.2a2.1,2.1,0,0,0,.4.6Zm0,25.6a2.5,2.5,0,0,1,.4-.7h0A2.5,2.5,0,0,1,86.9,77.1Z"/><path d="M78,48.3h1.4l2.7.5a10.5,10.5,0,0,1,2.8,1.4,8.7,8.7,0,0,0-2.7-1.4l-2.9-.5Z"/><path d="M67.7,48H65.8v.2H66c.1.1.2.1.2.2l.3.2-.3-.3-.3-.2c-.1,0-.1-.1,0-.1s0-.1.1-.1h1.7Z"/><path d="M76.4,79.3H72.5A25.4,25.4,0,0,0,76.4,79.3Z"/><path d="M66.5,50h0a8.2,8.2,0,0,1,1.6,2.5A8.2,8.2,0,0,0,66.5,50Z"/><path d="M67.1,77.4h0l-1.7-.5A4.8,4.8,0,0,0,67.1,77.4Z"/><polygon points="66.3 47.4 67.7 47.3 66.3 47.4 66.3 47.4"/><path d="M82.6,49l-1.8-.5h0l1.8.4Z"/><path d="M69.2,55.4c-.1-.2-.1-.4-.2-.6l-.2-.5h0l.2.5c0,.2.1.4.1.6Z"/><path d="M68.5,53.5l-.3-.9h0Z"/><path d="M84.5,48.9h0l-.6-.4h0Z"/><path d="M69.4,68.7a2.2,2.2,0,0,1,.1-.8h0A2.2,2.2,0,0,0,69.4,68.7Z"/><polygon points="67.3 47.3 67.3 47.3 66.3 47.4 66.3 47.4 66.3 47.4 66.3 47.4 66.3 47.4 67.3 47.3 67.3 47.3"/><rect x="66.2" y="47.5" height="0.03"/><path d="M88,74.8l-.3.8h0Z"/><path class="cls-1" d="M78.2,52.4a2.3,2.3,0,0,0-2.7,1.7A2,2,0,0,0,77,56.6h.3A2.2,2.2,0,0,0,80,55.1a2.1,2.1,0,0,0-1.6-2.6C78.4,52.4,78.3,52.4,78.2,52.4Z"/><path d="M77.7,57.3h-.5A2.9,2.9,0,0,1,75,54a2.9,2.9,0,0,1,3.3-2.1h0a3.2,3.2,0,0,1,1.8,1.2,2.8,2.8,0,0,1,.4,2A2.9,2.9,0,0,1,77.7,57.3Zm0-4.4A1.7,1.7,0,0,0,76,54.2a2,2,0,0,0,.2,1.3,1.9,1.9,0,0,0,1.2.7,1.8,1.8,0,0,0,2.1-1.3,1.7,1.7,0,0,0-.2-1.2,2,2,0,0,0-1.2-.8Z"/><path d="M78.1,53.4h-.3c0-.1,0-.1-.1-.1h.2s-.1-.1,0-.1H78c-.1,0-.1-.1,0-.1h.7a1.8,1.8,0,0,1,1.2,1.2.4.4,0,0,1,.1.3.6.6,0,0,1,.1.4v-.2H80a.4.4,0,0,1,.1.3.4.4,0,0,1-.1-.3.6.6,0,0,0-.1-.4h0a.4.4,0,0,1,.1.3V55s-.1.1,0,.1h0a.4.4,0,0,0-.1.3h-.1c0-.1,0-.1.1-.2h-.1l-.2.3h-.1c0-.1,0-.1.1-.2l.2-.2-.2.2-.6.5-.5.3H76.9a.5.5,0,0,1-.4-.2h-.1c.1,0,.1,0,.1.1l-.3-.3h0c0-.1-.2-.2-.2-.3s-.2-.2-.2-.3h-.1l.2.3-.2-.2v.2l.2.2-.3-.4-.2-.3v-.2a1.3,1.3,0,0,1-.1-.6,1.9,1.9,0,0,1,.2-.7c0-.1-.1,0-.1.1s.1-.2.1-.3h0c0-.1.1-.2.1-.3h0c0-.1.1-.2.2-.3h0l.2-.2c.1,0,.1,0,.1-.1h1.3c.1,0,.1,0,.1.1h-.1c.1,0,.1,0,.1.1h.1c-.1,0-.1,0-.1.1h-.4c0,.1,0,.1-.1.2h0c-.1,0-.1,0-.1.1h0c0-.1,0-.1.1-.1h-.2l-.3.3h.1c-.1.2-.1.3-.2.4h.1c0-.1,0-.1.1-.1s-.1-.1-.1,0h0a1.4,1.4,0,0,0-.2.6h0l.2.5.2.3-.2-.2h0v-.2h0l.4.5H77c.1,0,.1,0,.1.1h.3a.6.6,0,0,0,.6,0h.6c0-.1,0-.1.1-.1s.3-.3.3-.5l.2-.3h-.1a.9.9,0,0,1-.1.5h-.2v-.2c.1-.2.2-.3.2-.5a1.3,1.3,0,0,0-.1-.6l-.3-.4H78c.1-.1.2-.1.2,0h-.1Zm-2.6,1.4c0,.2.1.3.1.4v.2c0-.1,0-.1-.1-.2h0A.3.3,0,0,0,75.5,54.8Zm.2.7c0-.1-.1-.2-.1-.3h-.1v-.6h0v.6h0Zm2.8,1h0Zm.2-.9Zm.3-.3h0Zm-.6-1.8Z"/><path d="M78.7,56.6h-.4l.9-.5q.3-.1.3-.3l-.6.5Z"/><path d="M77.4,56.7h-.6l.7.2h-.1Z"/><path d="M77.1,55.8h0l-.3-.2Z"/><path d="M76.3,52.8h0c-.1.1-.2.1-.2.2S76.2,52.9,76.3,52.8Z"/><path d="M79.2,56.2l-.2.2h0Z"/><polygon points="78.8 55.4 78.8 55.4 78.7 55.5 78.7 55.5 78.8 55.4"/><path d="M77.4,55.9h-.1c.1,0,.1,0,.1.1Z"/><path d="M78.5,57.6H78c0-.1,0-.1-.1-.1h-.1c.1,0-.1,0,0-.1H78c0-.1,0-.1.1-.1s-.2,0,0-.1H78c-.1,0-.1-.1,0-.1h.4l.3-.2a2.3,2.3,0,0,0,1.2-1.2h0v-.4h0V55c.1.2,0,.3,0,.4v.3h0v-.3a.9.9,0,0,0,0-.7V54h-.1a.4.4,0,0,0-.1-.3h0c0,.1.1.1.1.2h0v-.2h0c0-.1-.1-.2-.2-.3h.1c0,.1.1.2.1.3s-.1-.2-.1-.3l-.6-.5c-.1-.2-.3-.2-.5-.3h-.3c-.1,0-.1,0-.1-.1h-.8c-.1,0-.2,0-.2.1h-.4l-.4.2h0l-.2.2h-.1l-.3.3c-.1,0-.1,0-.1.1s-.1.1-.1.2h0c0-.1.1-.2.1-.3v.3c0-.1,0-.1.1-.2s.1-.2.2-.3l-.2.3c-.1.1-.1.1-.1.2v.2h-.1V54c0,.2-.1.4-.1.6a1.4,1.4,0,0,0,.2.6h0a.4.4,0,0,0,.1.3c0-.1,0-.1-.1-.1a.2.2,0,0,0,.2.2h-.1c.1.1.2.2.2.3h0l.2.2c0,.1,0,.1.1.1h.3c.1.1.2.1.2.2h-.2l.6.2h-.4l.6.2h.2c0,.1.1.1.1.2H76c-.1-.1-.2-.1-.2-.2h0c0,.1.1.1.2.2l-.4-.3h0l-.6-.7h0a3.7,3.7,0,0,1-.5-1.1.6.6,0,0,1,.1.4l.2.3c0,.1.1.2.1.3h0a2.6,2.6,0,0,1-.4-1.5v-.2h0a5.6,5.6,0,0,1,.4-1.2l.5-.6-.3.3h.1c0,.1-.1.1-.1.2s-.1.1-.1.2h0a2,2,0,0,1,.9-.9H76l.3-.2h1.9l.7.2h-.3c-.1,0-.2,0-.2-.1h.4a.9.9,0,0,1,.6.3h-.2l.3.2.3.2a3.9,3.9,0,0,1,.8,1l.3.8h0a1.7,1.7,0,0,0-.3-1l-.3-.5h-.1c.2.1.2.3.3.4a6.1,6.1,0,0,1,.5,1.2,4.7,4.7,0,0,1-.3,1.7l-.7.9-.5.4h0a.2.2,0,0,1-.2.2h-.4l.3-.2Zm-3.1-3.3a.6.6,0,0,1,.1-.4h0C75.3,54.2,75.3,54.2,75.4,54.3Zm.2-.6c-.1,0-.1.1-.1.2h0a1.3,1.3,0,0,0-.1.6h0v-.4c0-.1.1-.1.1-.2h0C75.5,53.8,75.5,53.8,75.6,53.7Zm3-1.3Zm1.3,0-.3-.3Zm.5.6-.3-.4h0Zm-1,4.3Z"/><path d="M78.7,52.7l-.4-.2.9.5.3.2-.6-.5Z"/><path d="M77.3,52.4H77c-.2.1-.2.1-.2.2l.7-.2Z"/><path d="M77.4,57.6h-.7C76.9,57.6,77.3,57.7,77.4,57.6Z"/><path d="M76.3,51.9h0l-.5.3Z"/><path d="M77.6,51.5c.1,0,.2.1.3,0Z"/><polygon points="75.4 52.6 75.5 52.4 75.5 52.4 75.4 52.6 75.4 52.6"/><path d="M80.1,52.5h0c0-.1,0-.1-.1-.1h0C80.1,52.4,80.1,52.4,80.1,52.5Z"/><rect x="76.9" y="51.8" height="0.01"/><polygon points="79.8 57.1 79.7 57.2 79.7 57.2 79.8 57.1 79.8 57.1"/><g class="cls-2"><path d="M63.8,76.4a1.5,1.5,0,0,1-.1-2.1A6.9,6.9,0,0,0,64.8,73c.5-.5.3-.3.9-1.3a8.9,8.9,0,0,0,.8-1.7,37.4,37.4,0,0,0,1.2-4.5c.1-1.2.1-2.4.1-3.6a18.9,18.9,0,0,0-1.3-7.8,8.1,8.1,0,0,0-1.7-2.4c0-.1-.2-.3-.3-.4a1.5,1.5,0,0,1-.4-.9c-.2-1.1,1.4-1.8,2.3-1,3.4,2.9,4.3,7.5,4.4,11.7,0,1.5.1,3,0,4.5a16.3,16.3,0,0,1-4.1,9.8C66,76.4,65,77.3,63.8,76.4Z"/></g><g class="cls-2"><path d="M16.3,49.7l2,.8c1.5.8,3.9,1,6.3,1.3a1.1,1.1,0,0,1-.4,2.2c-2.5-.3-5.2-.5-7.4-1.9h-.2a6.6,6.6,0,0,1-.9-1.9A1,1,0,0,1,16.3,49.7Z"/></g><g class="cls-2"><path d="M18.4,57.8l1.4.6.8.4.6.2a17.1,17.1,0,0,0,3,.9c.1.1.2,0,.3,0a1.1,1.1,0,0,1,.2,1.4,1,1,0,0,1-.9.4,9.3,9.3,0,0,1-2.9-.5,9.1,9.1,0,0,1-2.2-1.1.6.6,0,0,0-.1-.4,8.3,8.3,0,0,1-.8-1.2A1.1,1.1,0,0,1,18.4,57.8Z"/></g><g class="cls-2"><path d="M20.1,64.7a19.2,19.2,0,0,0,4.6,2.7h.1c0,.7-.7,1.3-1.7,1l-1.4-.6c0-.2,0-.4-.2-.5A6.9,6.9,0,0,1,19.3,65l-.4-.8.3-.2Z"/></g><g class="cls-2"><path d="M23.7,72l2.6.7,2.6.6a32.1,32.1,0,0,0,7.6.7l3.5.5a15.3,15.3,0,0,1,3.6.7,1.1,1.1,0,0,1,.3,1.5,1,1,0,0,1-1.1.5,38.1,38.1,0,0,0-5.9-.7l-6-.9c-1.8-.3-3.5-.8-5.2-1.2a14.1,14.1,0,0,1-4.4-1.8l.3.2-.4-.3-.2-.3a4.7,4.7,0,0,1-.4-1.7A17.7,17.7,0,0,0,23.7,72Z"/></g><path d="M83.1,76.3H83a.4.4,0,0,1-.1-.3,26.1,26.1,0,0,0,1.8-7.7h.1a.2.2,0,0,1,.2.2,26.1,26.1,0,0,1-1.8,7.8Z"/><path d="M83.8,75.9a.4.4,0,0,0-.1.3h-.3c-.1,0,.1,0,.1-.1h0v-.3h0v.3h-.3l.2-.2h-.2c.1-.1,0-.1,0,0h0c0-.1,0-.1.1-.2h-.1c-.1.1-.1.1-.1-.1h-.2l.2-.5H83v-.2h-.2l.2-.4a13.3,13.3,0,0,0,.5-1.9.6.6,0,0,0,.1-.4l.2-.5V72h0v-.3c0,.2,0,.3-.1.4s0,.3-.1.4h0l.2-.3c0-.3.1-.6.1-.9v-.2c-.1,0,0,0,0-.1v-.3h0V71h-.1a.6.6,0,0,0,.1-.4v-.2h0V71c0-.1.1-.3.1-.4s.1-.6.1-.9.1-.4.1-.7v-.5h.1v-.2H85v.6h0a1.3,1.3,0,0,1-.1.6h0v0h0c0,.2-.1.3-.1.5h0a.6.6,0,0,0-.1.4.7.7,0,0,0-.1.5h0v-.7a1.3,1.3,0,0,1-.1.6.9.9,0,0,1-.1.5v.2a1.9,1.9,0,0,1-.2.7,2.9,2.9,0,0,1-.2.9c.1,0,.1-.1.1-.2v.2a.6.6,0,0,1-.1.4h.1L84,74h0c0,.1-.1.3-.1.4h-.1v.2c0,.1,0,.1-.1.1h0a.6.6,0,0,0-.1.4v-.3a1.9,1.9,0,0,0-.2.7h0l.2-.4-.3.6H83v.2c0,.1,0,.2.2.2H83c-.1,0-.1-.1-.1-.2h0v-.2h-.1c0-.1,0-.2.1-.2v-.2a.6.6,0,0,0-.1.4h-.2c0,.1.1.2.1.3s-.1-.2-.1-.3h.1v-.2l.2-.3h0v-.2q-.2,0,0-.3v-.4h0v.2l.2-.3h0c.1-.2.1-.5.2-.7h-.1l.3-1v.8h0a5.6,5.6,0,0,0,.4-1.2V72h0a3.6,3.6,0,0,0,.2-1l.2-.6v.4h.1c0,.1-.1.3-.1.4h0c.1-.4.1-.7.2-1.1v-1h.1v-.3h.1V69h0v.2h0V69h0v-.2l.3-.2h0c.1.1.2.2.2.3h.1v.3h0V69h0a1.3,1.3,0,0,1-.1.6h0v.6c-.1.4-.1.7-.2,1.1a1.7,1.7,0,0,0-.1.7.4.4,0,0,0-.1.3c0-.1.1-.1.1-.2s.1-.6.1-.9v-.4h.1V71c-.1.4-.1.7-.2,1.1a5.7,5.7,0,0,1-.4,1.4l-.3,1a.9.9,0,0,1-.1.5v.2a.4.4,0,0,1-.1.3h0a.4.4,0,0,0-.1.3v-.3a.4.4,0,0,0,.1-.3A6.4,6.4,0,0,1,83.8,75.9Zm.8-3.8v-.5h0C84.5,71.9,84.5,72,84.6,72.1Zm.1-.9v.4h0a2.4,2.4,0,0,0-.2.8h0a.9.9,0,0,0,.1-.5v-.2h0C84.7,71.5,84.8,71.4,84.7,71.2Zm.4-1v0Zm-.1.7a.6.6,0,0,1,.1-.4h0Zm-.9,4.2Z"/><polygon points="85.1 68.4 85.1 68.4 85.1 68.4 85.1 68.4 85.1 68.4 85.1 68.4 84.8 68.3 84.8 68.3 84.8 68.3 84.8 68.3 84.8 68.3 84.8 68.3 84.8 68.3 84.8 68.3 84.8 68.3 84.8 68.3 84.8 68.3 84.8 68.3 84.8 68.3 84.8 68.3 85.1 68.4 85.1 68.4 85.1 68.4 85.1 68.4 85.1 68.4 85.1 68.4 85.1 68.4"/><path d="M84.3,69.2a.7.7,0,0,0,.1-.5c-.1,1.2-.2,1.4-.2,1.7a3.4,3.4,0,0,0,.1-1Z"/><path d="M85.1,68.6v.7a2.8,2.8,0,0,0,.1-.9h0v.4h0Z"/><path d="M82.5,75.9v-.2h0a.4.4,0,0,0,.1-.3v.4h0Z"/><path d="M83.9,74.7H84v0Z"/><polygon points="84.3 70 84.4 69.7 84.4 69.7 84.3 70 84.3 70"/><path d="M84.5,67.9h.4c.1.1.3.1.4.3s-.2-.3-.4-.3Z"/><polygon points="84.2 70 84.2 69.8 84.2 69.8 84.2 70"/><polygon points="83.6 72.6 83.6 72.5 83.6 72.5 83.6 72.6"/><polygon points="84.4 68.6 84.4 68.6 84.3 68.8 84.3 68.8 84.3 68.8 84.3 68.8 84.3 68.8 84.4 68.6 84.4 68.6"/><polygon points="84.8 68.3 84.8 68.3 84.8 68.3 84.5 68.3 84.5 68.3 84.5 68.4 84.5 68.3 84.5 68.3 84.8 68.3 84.8 68.3 84.8 68.3 84.8 68.3 84.8 68.3"/><path d="M80.7,76.4h-.1c-.1,0-.1-.1,0-.2a8.2,8.2,0,0,0,1-2.6l.2-.2.2.2a13.6,13.6,0,0,1-1.1,2.8Z"/><path d="M81.3,76.5h-.1l-.2.2h0a.2.2,0,0,1-.2.2h0c0-.1,0-.1-.1-.1h-.2v-.2l.3-.7H81v-.2h0v.2h0v-.2l.2-.3h0v-.2h0a.4.4,0,0,0,.1-.3v-.3H82v.2h0V75h0c0,.1-.1.1-.1.2h0c-.1,0-.1.1-.1.2h0v-.2h.1a.4.4,0,0,1-.1.3h0l-.2.3v.3h.1v.2h0v.2h-.8c.1.1,0,.1,0,.1h0c0,.1,0,.1.1.2h-.2v-.2c0,.1.1.1.1.2s-.1-.1-.1-.2h0v.2h0c-.1,0-.1-.1,0-.2s-.1-.1,0-.1-.1.2,0,.4l.2.3c-.1-.1-.3-.2-.3-.4s0-.3.1-.4h.1l.2-.3H81l.2-.3h-.1c.1-.2.2-.3.2-.5h.1v-.4h0v.2h0c0-.2.1-.3.1-.5h.4c-.1,0-.2.1-.2.3h0c0-.2.2-.3.3-.4a.5.5,0,0,1,.5.3.2.2,0,0,1,0,.3h.1v.2h0l-.2.4v.3h0c0-.1.1-.2.1-.4v-.2h.1v.2c0,.1-.1.3-.1.4l-.3.6V76c-.1,0-.1.1-.1.2h-.1c.1.2-.1.4-.3.5S81.4,76.7,81.3,76.5Zm.3-1.5v-.2h-.1Zm.2-.3h-.1V75h.1Zm-.3-1.1Zm.6.6Zm-.1.3Z"/><path d="M81.4,73.7h0v.2h0v.2a.6.6,0,0,1,.1-.4Z"/><path d="M81.8,73.6H82v-.2h-.3Z"/><path d="M80.3,76.7a.6.6,0,0,1-.1-.4h-.1c0-.1,0-.1.1-.1h0v.5Z"/><path d="M82.1,73.2l.2.3h-.1C82.2,73.3,82.2,73.3,82.1,73.2Z"/><polygon points="81.2 74 81.2 73.9 81.2 73.9 81.2 74"/><polygon points="80.8 74.9 80.8 74.8 80.8 74.8 80.8 74.9"/><polygon points="81.3 73.5 81.3 73.5 81.4 73.6 81.3 73.5"/></svg>