<svg id="Calque_1" data-name="Calque 1" xmlns="http://www.w3.org/2000/svg" viewBox="0 0 90 90"><defs><style>.cls-1{fill:#fff;}.cls-2,.cls-3{fill:#3bb260;}.cls-2{stroke:#3bb260;stroke-miterlimit:10;stroke-width:0.35px;}.cls-4{opacity:0.13;}</style></defs><path class="cls-1" d="M76.2,12.6c-.8,25.1-.6,50.3.7,75.4-21.3-.7-42.3-.9-63.3-.3-.5-25.5-.3-50.6-.4-75.9C33.7,11.8,54.1,11.8,76.2,12.6Z"/><path d="M76.9,88.6h-.1c-23-.8-43.7-.9-63.2-.4h-.4l-.2-.4c-.4-20.3-.3-40.7-.3-60.4V11.8c0-.2,0-.3.1-.4l.4-.2c20.2,0,41,0,63,.8a.6.6,0,0,1,.5.6c-.7,25-.5,50.4.7,75.4a.6.6,0,0,1-.1.4ZM38.3,86.8c12.1,0,24.6.2,38,.6-1.2-24.6-1.5-49.6-.7-74.3-21.6-.8-42-.8-61.8-.8v15c0,19.6,0,39.7.3,59.8C22,86.9,30,86.8,38.3,86.8Z"/><path d="M27.4,86.4h9.8c-1.9.1,1.5.1.8.1H34.6c.8,0,1,.1.1.1H33c2,.1,1.9.1-.5.1h1.1c1.1,0,1.5,0,.7.1H25.7l-7.3.2H13.5V47.3h0V42.6c.1,2,0,4.3.1,6.3v6.8h0V32.4c0-.1-.1-1.1-.1-1.7V24.3c0-.3.1-.5.1-.7h0v0h0V11.9H72.5l3.5.2v4.2a7.5,7.5,0,0,1,.1-1.2v2.2h0V15.2l-.2,8.2v.3c0,.5-.1,1.7-.1,3V38c0-2.1,0-3.9.1-5.8v-.5c0-1.4.1-3.1.1-5.4,0,4-.1,7.2-.1,10.5v9.9c.1,4,.1,7.9.2,11.9l.3,13.9c.1.6,0-1.4,0-2.1.1,1.8.1,3.5.2,5.9V73.7c0,1.5.1,3.7.2,5.7V78.1c.1,2.4.1,4.8.3,7.4v-.2l.2,2.7H61.8L51,87.3h0l6.7.2-11.5-.2H44.5a35.9,35.9,0,0,1-4.3-.1H70.6l5.2.2-.3-6.7v1.6c-.2-5.5-.4-10.8-.5-16v5.3l.2,4.2c0,1.4.1,3,.1,4.6s.1-.2,0-1.7v-1c-.3-6.8-.4-13.6-.6-20.6v-4c-.1-5.5-.1-11,0-16.6,0-3.7,0-7.4.1-11.2V35.6c.1-6.3.2-12.5.4-18.7V13.4H70.1L62.9,13H61.1l-7-.2,6.1.2h0l-16.1-.3H14.2V14h.1v6.6c0,6-.1,12-.1,18,0,7.6,0,15.2.1,22.8,0,5.5.1,11,.1,16.4.1,2.5.1,5,.2,7.5V82.2c.1.8.1,2.2.1,3.5v.8H27.4ZM75.7,52.1c-.1-2.6-.1-5-.1-7.3v1.6C75.6,49.3,75.6,50.3,75.7,52.1Zm-.1-13.4c0,1.7,0,3.5.1,5.2v1.9h0v.7c0,3.9,0,7.9.1,11.8V56.9c0-2.5-.1-4.9-.1-7.7V46h0C75.7,42.2,75.7,40.8,75.6,38.7Zm-40-26.8h0Zm-17.1.8h0Zm-4.4,7.4c.1-2.4.1-4.6,0-6.8h0Zm1,66.5h-.5v-.4h0v.5h.5Z"/><path d="M75.7,45.9h0Z"/><path d="M13.3,23.5Z"/><path d="M13.3,23.6Z"/><path d="M56,12.2h0Z"/><path d="M13.3,23.6c0,.2-.1.4-.1.7s.1-.5.1-.7Z"/><path d="M42.2,12.8h0Z"/><polygon points="37.9 12.8 37.8 12.8 37.9 12.8 37.9 12.8"/><path d="M42.2,12.8Z"/><path d="M45.7,86.7h0Z"/><path d="M31.9,11.8H13.2v0H31.9Z"/><path d="M59.2,12.2H70.3L56,12.1h3.2Z"/><path d="M43.5,86.4h0Z"/><path d="M72.7,13.3h2.5v-.1Z"/><path d="M68.4,87.8h0Z"/><path d="M59.3,13Z"/><rect x="62.9" y="13.1" transform="translate(46.4 75.1) rotate(-86.8)"/><path d="M64,13.1h0Z"/><path d="M62.9,13.1Z"/><path d="M62.9,13.1h0Z"/><path d="M47.2,12.8h0Z"/><path d="M43.7,12.8h0Z"/><path d="M42.3,12.8h0Z"/><polygon points="19.3 11.8 24.5 11.8 24.5 11.8 19.3 11.8 19.3 11.8"/><path d="M53,12.9h0Z"/><polygon points="74.9 26.4 75 23.3 75 23.4 74.9 26.4 74.9 26.4"/><polygon points="51.9 12.1 48.1 12 48.1 12 51.8 12.1 51.9 12.1"/><path d="M51.8,12.9h0Z"/><path d="M42.7,12.8h0Z"/><path d="M37.9,12.8Z"/><path d="M37.9,12.8Z"/><polygon points="75 21.1 75 18.6 75 18.6 75 21.1 75 21.1"/><polygon points="15 12.8 15 12.8 16.7 12.8 16.7 12.8 15 12.8"/><rect x="74.8" y="59.9" height="2.15" transform="translate(-1.3 1.6) rotate(-1.2)"/><path d="M60.2,13Z"/><polygon points="62.8 13.1 62.9 13.1 62.9 13.1 62.8 13.1"/><rect x="62.9" y="13" width="0.1" transform="translate(49.5 75.8) rotate(-89.6)"/><polygon points="62.9 13.1 62.9 13.1 62.9 13.1 62.9 13.1 62.9 13.1 62.9 13.1"/><path d="M60.2,13h0Z"/><path d="M62.8,13.1h0Z"/><path d="M60.2,13Z"/><path d="M62.9,13Z"/><polygon points="60.2 13 60.2 13 60.2 13 60.2 13"/><polygon points="62.9 13 62.9 13 62.9 13 62.9 13"/><path d="M60.1,13h0Z"/><polygon points="60.1 13 60.2 13 60.2 13 60.1 13"/><path d="M62.9,13Z"/><path d="M62.9,13Z"/><path d="M62.9,13.1Z"/><polygon points="48.9 12 46.6 12 46.6 12 48.9 12 48.9 12"/><polygon points="14.6 81.9 14.7 84 14.7 83.9 14.6 81.8 14.6 81.9"/><path d="M77.5,77.6c0,1.3.1,2.8.2,5.1v3.9l-.2-3.9L77.3,78h0l.2,4.7.2,5.3-.2-3.6v3.3c-.1-1-.1-.6-.1,0v.2h-.1c0,.2-.1.3-.1.4h-.1l.2-.3v-.1a.6.6,0,0,1-.6.5.6.6,0,0,0,.6-.6c0-.2-.1-.5-.1-.9v1c0,.1,0,.2-.1.2s0,0,.1,0V86.8l-.2-3.9V85c0,.9,0,1-.1.1s-.1-1.2-.1-1.7c0,2,0,1.9-.2-.5l.2,3V84c0,1.2,0,1.6-.1.7l-.2-4c0-1.5-.1-2.9-.2-4.5v.4l-.2-3.8v3.1c-.1-2.4-.2-4.7-.3-7.5-.3-11.3-.4-22.7-.4-34.1V28.4c0-3.3.1-6.5.2-9.1v3.6h0V18.1c0,2.1-.1,4.4-.1,6.6v6.9h0V25.2c0-2.5.1-4.9.2-7.4V12.7H70.4l-5.2-.2H63L55.6,12h.6l-15-.2h-28a.1.1,0,0,0-.1.1v3.6h0V41.2h0V38.5c.1,2.8.1,5.5.1,8.3v.3c-.1,1.1-.1,4.9-.1,7.2V70.9c.1,4.1.1,8.2.2,12.2v4.5H52.8l11.1.3h0L57,87.6l11.8.2,3.9.2,1.8.2h1.9l-4.7-.2H70.5a29.7,29.7,0,0,1,4.5.2H68.3l8.6.3H66.3l3.2.2H63.1l5.5.2,5.4.2-11.9-.3h-30l-16.5.3H30.2c.4-.1-.3-.1-1.8-.1H13.6a1,1,0,0,1-1-1V77c-.1-5.6-.1-11.3-.1-17V54.1c.1,2,0,4.6.1,6.8V59.4c-.1-6.4-.1-12.9,0-19.2v-17h0V20.4h0V11.8a1.1,1.1,0,0,1,.3-.7h14c-.1-.1,0-.1,1.2-.1H45.6l18.1.3,12.1.4h.7a1.7,1.7,0,0,1,.6.6v.3h0v-.5l-.5-.6H69.8l-7.5-.2L55,11h5.1l9.2.2,4.7.2h2.4a.9.9,0,0,1,.7.6c0,.1.1.1.1.2v.2h0v1.4c-.2,7.8-.3,15.7-.4,23.5,0,5.7,0,11.3.1,16.9.1,2.6.1,5.1.2,7.7V59c0,.7,0,2.2.1,3.5s0,2.7.1,4,.1,2.8.1,4.2v1.6l.2,5.5c0-1.3-.1-3.4-.2-5l-.2-5.4C77.2,70.8,77.3,74,77.5,77.6ZM13.3,76.4V68.9a31.6,31.6,0,0,0-.1-3.9v5.6C13.2,73.5,13.2,74.6,13.3,76.4Zm-.1-13.7V70h0v.7c0,4,0,8.1.1,12.1V81.4c0-2.6,0-5.1-.1-8V70.2h0C13.3,66.2,13.3,64.8,13.2,62.7Zm15.9-51h0ZM46.7,11h0Zm12.7.2h0ZM77.1,65V63h0V65Z"/><path d="M13.3,70.1h0Z"/><path d="M63,12.2Z"/><path d="M63,12.2h0Z"/><path d="M13.1,16.1v0Z"/><path d="M63,12.2h0Z"/><path d="M22.3,10.9h0Z"/><polygon points="26.7 10.9 26.7 10.9 26.7 10.9 26.7 10.9"/><path d="M22.3,10.9Z"/><path d="M69.3,88.5Z"/><path d="M32.8,11.8h0Z"/><path d="M13.1,19.4v6.1c0,3.4,0,4,.1,5.3V16.1h0v6.4h-.1Z"/><path d="M71.6,88.8l-10.4-.2Z"/><path d="M12.3,33.3h0v.1Z"/><path d="M45.9,87.4Z"/><path d="M12.3,19.5h0v0Z"/><rect x="12.4" y="23.2" transform="translate(-11.2 34.8) rotate(-88.3)"/><path d="M12.3,24.3V23.2h0Z"/><path d="M12.4,23.2Z"/><path d="M12.4,23.2v0Z"/><path d="M17.1,10.9h0Z"/><path d="M20.7,10.9h0Z"/><path d="M22.2,10.9h0Z"/><polygon points="45.8 11.8 40.4 11.8 40.4 11.8 45.8 11.8 45.8 11.8"/><path d="M12.3,13.1V11.8a1,1,0,0,1,.7-.9h.1a.8.8,0,0,0-.8.9Z"/><path d="M12.3,50V46.8h0V50Z"/><path d="M13.1,11.9h0c0-.1.1-.1.2-.1h-.2Z"/><path d="M12.4,11.7a.8.8,0,0,1,.8-.8H13a1.3,1.3,0,0,0-.6.5Z"/><path d="M21.7,10.8h0Z"/><path d="M26.7,10.9Z"/><path d="M26.7,10.9Z"/><path d="M12.3,44.5V41.9h0v2.6Z"/><path d="M50.2,11h0Z"/><rect x="12.4" y="84.5" height="2.21" transform="translate(-1.4 0.2) rotate(-0.9)"/><path d="M12.4,20.5h0v2.8h0V20.5Z"/><polygon points="12.4 23.2 12.4 23.2 12.4 23.2 12.4 23.2"/><rect x="12.3" y="23.2" width="0.1" transform="translate(-0.3 0.2) rotate(-0.8)"/><polygon points="12.4 23.2 12.4 23.2 12.4 23.2 12.4 23.2 12.4 23.2 12.4 23.2"/><path d="M12.4,20.4v0Z"/><path d="M12.4,23.2Z"/><path d="M12.4,20.4Z"/><path d="M12.4,23.2h0Z"/><path d="M12.4,20.4Z"/><polygon points="12.4 23.2 12.4 23.3 12.4 23.2 12.4 23.2"/><path d="M12.4,20.3h0Z"/><path d="M12.4,20.3h0Z"/><path d="M12.4,23.3h0Z"/><path d="M12.4,23.2h0Z"/><path d="M12.4,23.2Z"/><polygon points="15.4 11.7 17.7 11.7 17.8 11.7 15.4 11.7 15.4 11.7"/><path d="M77,58.6v2.1h0V58.5Z"/><path class="cls-1" d="M70.1,16.4c-1.3,22-.6,43.7.9,65.7-17.3-.3-34.5-.6-51.6.1-.2-22.2-.7-44-1-65.8C36.3,16.5,53.6,16.6,70.1,16.4Z"/><path d="M19.4,82.7H19c-.1-.1-.1-.3-.2-.4-.1-16.4-.4-32.8-.7-48.6l-.3-17.2A.5.5,0,0,1,18,16l.4-.2h0c19.4.2,36.3.2,51.7.1h.4c.1.2.2.3.2.5-1.1,19.1-.9,39.3.8,65.6a.6.6,0,0,1-.1.4l-.5.2h-.2c-16.8-.3-34.2-.6-51.3,0Zm-.5-65.8.3,16.7c.3,15.6.6,31.8.8,48,16.7-.6,33.8-.3,50.3-.1-1.6-25.7-1.9-45.7-.8-64.5C54.4,17.1,37.8,17.1,18.9,16.9Z"/><path d="M28.2,17.5H19.9c1.6,0-1.3,0-.7-.1h.6c-.8-.1-.4-.1.8-.1h2.9c-1.7,0-1.6,0,.3-.1h-.9c-.9,0-1.2-.1-.5-.1H70.1l-.2,3.8v.3h0l-.2,3.9c.1-1.7.2-3.6.2-5.3l.2-2.6H70v2.1c-.2,4-.3,8.1-.4,12.1v9.7h0V37.1h0v3.2h0c0,2.1,0,4,.1,6.1v3.1c0-1.3-.1-2.5-.1-3.8V46q0,6.2.3,12.3l.2,4.9.2,4.8.2,3.8c0,1.5.1,2.6.1,3.2v-.3l.3,5.6V82H33.9l-3.7.2H19.4v-9l-.2-11.7v-1c0-1.2-.1-3.2-.1-4.9v-5h0V44.4a20.9,20.9,0,0,1-.1-2.4V27.6h0v-4a14.4,14.4,0,0,1,0-3.2v1.2c0-1.6,0-1.8.1-1.9v4.2h0v-.9h0v.3h.1v-.4a3.4,3.4,0,0,1,.1,1V19.2c0,3.3.1,6.5.1,9.8v3.7a19.5,19.5,0,0,1,.1,2.9v5.8h0v2.7L20,54.9V53.6l.3,13.5V62.6c0-1.4-.1-2-.1-3.5V55.2c-.1-.4-.1.2-.1,1.4v.8c0,5.8.1,11.6.2,17.4v6.4H70l-.3-5.8-.5-8,.2,3.4c.1,1,.1,2.3.2,3v-.7c-.1-1.2-.2-3-.2-3.9v0c-.1-1.4-.2-2.7-.2-4s-.1-2.6-.2-3.9v1.4c0-1.2-.1-2.3-.1-3.3s-.2-2.9-.2-4.7c-.1-4.9-.2-9.9-.2-14.8v-5c0-1.6.1-3.3.1-4.9V26.4c0,.8-.1,1.5-.1,2.3-.1,4.1-.2,8.2-.1,12.3v7.4h0c0-1.9,0-3.7-.1-5.6,0-5,0-10.1.2-15.1.1-1.8.1-3.6.2-5.4s.1-1.8.1-2.7V17.5H28a28,28,0,0,1,4.1,0H28.2ZM19.5,78.7v3.4h3.8l3.2-.2H19.6V78.7Zm8.9,3.2H19.5v0h8.9ZM70,68.2c0,.3.1.7.1,1v1.3h.1ZM68.7,53.8c.1,1.8.1,3,.1,4.1C68.8,56,68.8,56,68.7,53.8Zm-.1-10.4c-.1,2,0,3.9,0,5.7h0V43.4ZM38.5,17.6h0Z"/><path d="M22.3,82h0Z"/><path d="M69.4,40.4Z"/><path d="M69.4,40.4Z"/><path d="M66.5,81.9h0Z"/><path d="M69.4,40.4v0Z"/><path d="M69.6,73.8h0Z"/><polygon points="69.3 70.2 69.3 70.1 69.3 70.2 69.3 70.2"/><path d="M69.6,73.8h0v0Z"/><path d="M19.1,23.1h0v0Z"/><path d="M70.1,65.1c.1,3.5.1,3.8.3,6.9-.4-8.1-.6-13-.7-16.4l-.2-7.4c.1,5.3.2,9.7.4,14.1Z"/><path d="M63.8,81.9H54.4l12,.2H63.8Z"/><path d="M19.4,21.3c.1,3.1.1,5.8.2,8.4C19.6,26.1,19.5,22.2,19.4,21.3Z"/><path d="M52.4,80.9Z"/><path d="M18.8,42.3h0v0Z"/><path d="M63.7,81.1Z"/><rect x="60.7" y="81.1" transform="translate(-23.1 137.9) rotate(-87.3)"/><path d="M59.8,81h0Z"/><polygon points="60.7 81.1 60.7 81.1 60.7 81.1 60.7 81.1"/><path d="M60.7,81.1h0Z"/><path d="M69.8,78c-.1-1.7-.2-2.9-.2-4v1.1Z"/><path d="M69.6,75.1V74h0Z"/><path d="M69.6,73.9h0Z"/><polygon points="69.6 54.5 69.7 58.9 69.7 58.9 69.6 54.5 69.6 54.5"/><path d="M69,81.1h1v-.8a4.9,4.9,0,0,0-.1-1.2v2Z"/><polygon points="38.7 80.9 41.3 80.9 41.3 80.9 38.7 80.9 38.7 80.9"/><polygon points="70.1 82 70.8 82 70.6 78.7 70.6 78.7 70.8 82 70.3 82 70.1 82"/><path d="M69.9,81.2H70v0Z"/><path d="M69.5,74.3c0-1.4-.1-2.7-.2-4.1C69.4,71.3,69.4,72.8,69.5,74.3Z"/><path d="M69.3,70.2Z"/><path d="M69.3,70.2Z"/><polygon points="43.2 80.8 45.3 80.8 45.3 80.8 43.2 80.8 43.2 80.8"/><polygon points="68.6 50.9 68.5 50.9 68.6 52.3 68.6 52.3 68.6 50.9"/><rect x="20.3" y="70.3" height="1.81" transform="translate(-1.1 0.3) rotate(-0.9)"/><path d="M62.9,81.1Z"/><path d="M60.6,81.1Z"/><polygon points="60.7 81.1 60.7 81.1 60.7 81.1 60.7 81.1"/><rect x="60.7" y="81.1" height="0.06" transform="translate(-0.4 0.3) rotate(-0.2)"/><polygon points="60.7 81.1 60.7 81.1 60.7 81.1 60.7 81.1 60.7 81.1 60.7 81.1"/><path d="M62.9,81.1h0Z"/><path d="M60.7,81.1Z"/><path d="M63,81.1h0Z"/><path d="M60.6,81.1Z"/><polygon points="63 81.1 62.9 81.1 62.9 81.1 63 81.1"/><polygon points="60.6 81.1 60.6 81.1 60.7 81.1 60.6 81.1"/><path d="M63,81.1Z"/><polygon points="63 81.1 63 81.1 62.9 81.1 63 81.1"/><path d="M60.6,81.1h0Z"/><path d="M60.7,81.1h0Z"/><polygon points="60.7 81.1 60.7 81.1 60.7 81.1 60.7 81.1"/><polygon points="70.7 79.4 70.6 77.5 70.6 77.4 70.7 79.4 70.7 79.4"/><polygon points="43.8 17.7 42 17.7 42 17.7 43.9 17.7 43.8 17.7"/><path d="M29,83h-.3l-8.5.2h.2c1.7-.1-1.3,0-.7-.1h4.4c-1.7,0-1.7-.1.4-.2h-1c-1,0-1.3,0-.6-.1H36.8c9.6-.1,19.3.1,28.9.2h5.2l-.2-3.3v-.2h0l-.2-4.1c.1,1.8.2,3.8.4,5.6v2h-.1a.1.1,0,0,0,.1-.1V80.6c-.3-4.2-.5-8.4-.7-12.5,0-1-.1-2.1-.1-2.4s-.1-1-.1-1.5l-.2-4.4V58h0c0,1.1.1,2.3.1,3.4h0V58h0V54.8c0-1-.1-2.1-.1-3.2s-.1-2-.1-3.2v3.8c-.1-4.3-.2-8.6-.2-12.8s.1-6.7.2-10.1V25.4c0-1.6.1-2.7.1-3.3v.2l.3-5.7h0c.1,0,.1,0,0-.1H46.9c-2.3.1-4.7,0-7.1,0H32.6c1.1-.1,2.6,0,4.6,0H18.4v8.4l.2,12.1c.1.5,0-1.2,0-1.8V38c-.1,1.2,0,3.2,0,5v5.2h0V72h.1V66.2l.2,10a19.6,19.6,0,0,1-.1,3.3v2.9h0V78.3c0,1.6,0,1.8-.1,1.8V75.9h0v6.5c.1.1.1.2.2.2s.2.3.4.3a.7.7,0,0,1-.5-.4.4.4,0,0,1-.1-.3V76.7h0v-.3h0v.4c0-.4-.1-.7-.1-1v4.8c0-3.4-.1-6.7-.1-10.1V67.4c-.1,0-.1-.2-.1-.7s0-1.4-.1-3v-6h0v2.8c-.1-1.7-.1-3.4-.1-5.1v-.5l-.2-11.1v1.3l-.2-14v4.7c.1,1.5.1,2.1.1,3.6v1.7l-.3-17.9V16.1c0-.1.1-.2.2-.3a.7.7,0,0,1,.6-.4H59.9c-.1.1.9.1,1.5.1h8.7c.4-.1.7.2.8.6a.4.4,0,0,1,.1.3v2.1c-.1,1-.1,2.1-.2,3.1v4.2c-.1,1.4-.1,2.7-.2,4.1.1-1.2.1-2.4.1-3.5s.1-2.4.2-3.1v.7c0,1.3-.1,3.2-.1,4v0l-.2,8.2v6.9c0,5.1.1,10.2.3,15.2.1,1.8.1,3.5.2,5.2l.3,5.1.2,3.7L71.2,70c-.2-4.2-.3-8.4-.5-12.7-.1-2-.1-4.1-.2-6.2V49.6h0c.1,1.9.1,3.8.2,5.7.1,5.2.4,10.5.6,15.7l.3,5.5L72,82a1.1,1.1,0,0,1-.3.8,1.1,1.1,0,0,1-.7.3H62.9l-14.3-.2H29ZM18.3,19.1V16.4h0V17C18.2,17.7,18.3,18.3,18.3,19.1Zm8.1-2.7H18.3v6.9c0-2.2,0-4.3-.1-6.7v-.2h8.1ZM69.7,29.2V26.8h0A20.1,20.1,0,0,0,69.7,29.2Zm.7,14.9c-.1-1.9,0-3.1,0-4.3A30.8,30.8,0,0,0,70.4,44.1Zm.1,10.8c0-2.1,0-4-.1-5.9h0C70.4,50.8,70.5,52.7,70.5,54.9Zm-30.8,28h0Z"/><path d="M20.1,16.3h0Z"/><path d="M69.8,57.9Z"/><path d="M69.8,58Z"/><path d="M65.9,16.3h0Z"/><path d="M69.8,58v0Z"/><path d="M70.7,23.4h0Z"/><polygon points="70.6 27.2 70.6 27.2 70.6 27.2 70.6 27.2"/><path d="M70.7,23.4h0v.7C70.6,23.9,70.7,23.6,70.7,23.4Z"/><path d="M18.7,76.7h0v0Z"/><path d="M69.5,32.3a35.6,35.6,0,0,1,.1-3.7c0-.9,0-1.8.1-3.5-.1,2.2-.2,4.1-.2,5.8s-.1,3.3-.1,4.6V49.9c-.1-5.5-.1-10.1-.1-14.6C69.4,34.3,69.5,33.3,69.5,32.3Z"/><path d="M63.1,16.4h0Z"/><path d="M18.4,78.6c-.1-3.3-.1-6-.2-8.8C18.2,73.6,18.3,77.6,18.4,78.6Z"/><path d="M51.3,15.6h0Z"/><path d="M19,56.8h.1v0Z"/><path d="M63,15.6Z"/><rect x="59.9" y="15.6" transform="translate(42.2 74.9) rotate(-88)"/><path d="M58.9,15.6h0Z"/><polygon points="59.9 15.6 59.9 15.6 59.9 15.6 59.9 15.6"/><path d="M59.9,15.6h0Z"/><path d="M70.9,19c-.1,1.8-.2,3-.2,4.2V22.1C70.8,21.2,70.8,20.4,70.9,19Z"/><path d="M70.7,22.1v1.1h0Z"/><path d="M70.7,23.3h0Z"/><path d="M69.5,43.3V38.8h0v4.6Z"/><path d="M68.5,15.5h1.6a.7.7,0,0,1,.7.4.5.5,0,0,1,.2.4v.2h0v-.1c.1-.1.1-.2,0-.2s0-.3-.1-.4a.9.9,0,0,0-.8-.4Z"/><polygon points="37.1 15.6 39.8 15.6 39.8 15.6 37.2 15.6 37.1 15.6"/><path d="M69.5,16.3h.7v1.7h0V16.5h-.7Z"/><path d="M69.6,15.5h.5a1,1,0,0,1,.9,1v.1h0a.9.9,0,0,0-.9-.9h-.5Z"/><path d="M70.7,22.9c0,1.4-.1,2.8-.1,4.2C70.6,26,70.7,24.4,70.7,22.9Z"/><path d="M70.6,27.2h0Z"/><path d="M70.6,27.2h0Z"/><polygon points="41.8 15.6 44 15.6 44 15.6 41.8 15.6 41.8 15.6"/><polygon points="70.5 47.1 70.5 47.1 70.5 45.6 70.5 45.6 70.5 47.1"/><rect x="17.5" y="25.9" height="1.88" transform="translate(-0.5 0.3) rotate(-1)"/><path d="M62.2,15.6Z"/><polygon points="59.9 15.6 59.9 15.6 59.9 15.6 59.9 15.6"/><rect x="59.9" y="15.6" height="0.07" transform="translate(-0.3 1.3) rotate(-1.3)"/><polygon points="59.9 15.6 59.9 15.6 59.9 15.6 59.9 15.6 59.9 15.6 59.9 15.6"/><path d="M62.2,15.6h0Z"/><path d="M59.9,15.6Z"/><path d="M62.2,15.6Z"/><path d="M59.8,15.6Z"/><polygon points="62.2 15.6 62.2 15.6 62.2 15.6 62.2 15.6"/><polygon points="59.8 15.6 59.8 15.6 59.9 15.6 59.8 15.6"/><path d="M62.3,15.6h0Z"/><polygon points="62.3 15.6 62.2 15.6 62.2 15.6 62.3 15.6"/><path d="M59.8,15.6h0Z"/><path d="M59.9,15.6h0Z"/><polygon points="59.9 15.6 59.9 15.6 59.9 15.6 59.9 15.6"/><polygon points="70.1 17.5 70 19.5 70 19.5 70.1 17.5 70.1 17.5"/><polygon points="45.1 83 43.3 83 43.3 83 45.2 83 45.1 83"/><path class="cls-2" d="M60.8,10.8l-10.6-.2c-.9-1,.1-5.6-1.6-7.3A5.1,5.1,0,0,0,45,2.1a5.1,5.1,0,0,0-3.7,1.1c-1.8,1.7-1.3,7-1.7,7.3l-11.2.2c0,6.9,2.7,8.1,9.4,8.3,10.4.3,16.8.3,19.4-.8S61.4,14,60.8,10.8Zm-18.5-.3c0-1.5-.3-4.8,2.8-4.8s1.7,4.5,1.9,4.8Z"/><path class="cls-3" d="M46.9,19.8l-9.1-.2c-6.9-.2-10-1.6-10-8.9a.6.6,0,0,1,.5-.6H39.1a3.4,3.4,0,0,0,.1-1c.1-2,.3-4.9,1.7-6.2A6,6,0,0,1,45,1.5a5.7,5.7,0,0,1,4,1.4C50.2,4,50.2,6,50.3,7.8a11.8,11.8,0,0,0,.2,2.2h2.3l8,.2a.5.5,0,0,1,.5.5c.7,3.9-.6,6.7-3.9,8C55.6,19.5,52.1,19.8,46.9,19.8Zm-18-8.6c.2,6,2.4,7,8.9,7.2,10.2.4,16.6.3,19.2-.7s3.7-3.2,3.3-6.4H49.8a5.2,5.2,0,0,1-.6-3.1c-.1-1.5-.2-3.4-1-4.2A4.7,4.7,0,0,0,45,2.6c-1.1.1-2.4.1-3.3,1S40.4,7.4,40.3,9a3.8,3.8,0,0,1-.3,2H28.9ZM47,11.1H42.3l-.3-.2c-.2-.1-.2-.2-.2-.4v-.4c0-1.2-.1-3,1-4.1a3.2,3.2,0,0,1,2.3-.8c2.2,0,2.3,3.1,2.4,4.5v.6a.4.4,0,0,1,0,.5A.5.5,0,0,1,47,11.1Zm-4.1-.6Zm4.6-.3Zm-3-.3h1.9V9.8c0-1.2-.1-3.5-1.2-3.5a2.1,2.1,0,0,0-1.5.5c-.7.7-.7,2.2-.7,3.2Z"/><path class="cls-3" d="M44,9.5h.5c-.1,0,0,0,0,.1h-.2c.1,0,.1,0,0,.1h0c.1.1.1.1,0,.1h-2V8.8c0-.1.1-.3.1-.4v.2h0V9h0V8.7c0-.2.1-.5.1-.7V7.8h0V7.5h0v.2h0V7.4h0a.5.5,0,0,0,.2-.4v.1c0,.1-.1.2-.1.3s.1-.2.1-.3a1.8,1.8,0,0,1,.5-.7l.6-.4h1.5l.3.2h.2l.3.4h0c.1-.1,0-.1,0-.2s.1.1.1.2h0a.1.1,0,0,0-.1-.1.5.5,0,0,1,.2.4h0v.3a.6.6,0,0,0,.1.4h0V7.4c0,.1,0,.2.1.2V7.4a.4.4,0,0,0-.1-.3l.2.5a.6.6,0,0,0,.1.4h0V9.8h0v.6H45.8v0h.1V9.1a.6.6,0,0,0-.1-.4V8.5h0a1.7,1.7,0,0,0-.1-.7.9.9,0,0,0-.1-.5.4.4,0,0,1,.1.3h0a.4.4,0,0,1,.1.3h0a1.9,1.9,0,0,0-.2-.7h0a.1.1,0,0,1-.1-.1H43.9v.2l-.3.5a.9.9,0,0,0-.1.5v.2h0a1.4,1.4,0,0,1,.2-.6.4.4,0,0,1,.1-.3h0v.2c-.1.2-.1.5-.2.7v1H44Zm2.7-1.1V8h0Zm-.1-.7V8h0c0,.2.1.4.1.6h0a.8.8,0,0,0-.1-.4h0C46.7,7.9,46.7,7.8,46.6,7.7ZM43.9,6.1h0Zm-.1,1.1c0-.1,0-.1.1-.2S43.8,7.1,43.8,7.2Zm-.3.4a.4.4,0,0,0,.1-.3h0C43.6,7.4,43.5,7.5,43.5,7.6Zm0,1.8Z"/><polygon class="cls-3" points="46.7 8.1 46.7 8.1 46.7 8.1 46.7 8.1 46.7 8.1 46.7 8.1 46.7 8.1 46.7 8.1 46.7 8.1"/><rect class="cls-3" x="42.6" y="7.4" transform="translate(14.1 39.9) rotate(-58.5)"/><polygon class="cls-3" points="42.6 7.4 42.6 7.4 42.6 7.4 42.6 7.4"/><path class="cls-3" d="M45,5.9Z"/><path class="cls-3" d="M42.6,7.4Z"/><polygon class="cls-3" points="44.5 6.7 44.5 6.7 44.5 6.7 44.5 6.7"/><polygon class="cls-3" points="44.3 6.8 44.3 6.8 44.3 6.8 44.3 6.8"/><path class="cls-3" d="M44.5,6.7Z"/><path class="cls-3" d="M44.9,9.8Z"/><path class="cls-3" d="M43.7,6l.4-.2a2.9,2.9,0,0,0-1,.7l-.2.2c0,.1-.1.1-.1.2a2.7,2.7,0,0,1,.7-.8Z"/><path class="cls-3" d="M45.2,5.8l.4.2.4.2c-.2-.2-.3-.3-.5-.3h-.3Z"/><path class="cls-3" d="M44.8,9.5h0Z"/><path class="cls-3" d="M45.4,6.8h0l.2.3Z"/><path class="cls-3" d="M46.1,10.5Z"/><path class="cls-3" d="M45.1,6.6h.1C45.2,6.6,45.2,6.6,45.1,6.6Z"/><rect class="cls-3" x="45.2" y="6.7" transform="translate(0.5 16.3) rotate(-20.6)"/><path class="cls-3" d="M45.2,6.7Z"/><polygon class="cls-3" points="45.2 6.7 45.2 6.7 45.2 6.7 45.2 6.7"/><path class="cls-3" d="M45.2,6.7c0-.1,0-.1-.1-.1s.1,0,.1.1Z"/><path class="cls-3" d="M44.7,6.7h0Z"/><path class="cls-3" d="M44.5,6.7Z"/><polygon class="cls-3" points="44.5 6.7 44.5 6.7 44.5 6.7 44.5 6.7"/><path class="cls-3" d="M43.1,6.6l.2-.2h0c0,.1-.1.2-.2.3Z"/><path class="cls-3" d="M44.9,6.7h0Z"/><path class="cls-3" d="M45.7,7.4h-.1c.1,0,.1,0,.1.1Z"/><path class="cls-3" d="M44.8,5.9h0Z"/><path class="cls-3" d="M44.9,6.6h0Z"/><path class="cls-3" d="M44.5,6.7h0Z"/><polygon class="cls-3" points="44.3 6.8 44.3 6.8 44.3 6.8 44.3 6.8"/><polygon class="cls-3" points="44.3 6.8 44.3 6.8 44.3 6.8 44.3 6.8 44.3 6.8 44.3 6.8 44.3 6.8"/><path class="cls-3" d="M45.6,7.2a.1.1,0,0,0-.1-.1h0a.1.1,0,0,1,.1.1Z"/><polygon class="cls-3" points="43.8 7.3 43.8 7.3 43.8 7.3 43.8 7.3 43.8 7.3"/><rect class="cls-3" x="45.8" y="8.8" height="0.09" transform="translate(-0.5 3.6) rotate(-4.4)"/><path class="cls-3" d="M45.2,6.6Z"/><path class="cls-3" d="M45.2,6.6Z"/><polygon class="cls-3" points="45.2 6.7 45.2 6.7 45.2 6.7 45.2 6.7"/><rect class="cls-3" x="45.2" y="6.6" transform="translate(-0.4 8.9) rotate(-11.2)"/><polygon class="cls-3" points="45.2 6.7 45.2 6.7 45.2 6.7 45.2 6.7 45.2 6.7 45.2 6.7"/><path class="cls-3" d="M45.2,6.6Z"/><polygon class="cls-3" points="45.2 6.7 45.2 6.7 45.2 6.6 45.2 6.7"/><path class="cls-3" d="M45.2,6.6Z"/><path class="cls-3" d="M45.2,6.6Z"/><polygon class="cls-3" points="45.2 6.6 45.2 6.6 45.2 6.6 45.2 6.6"/><polygon class="cls-3" points="45.2 6.6 45.2 6.6 45.2 6.6 45.2 6.6"/><path class="cls-3" d="M45.2,6.6Z"/><polygon class="cls-3" points="45.2 6.6 45.2 6.6 45.2 6.6 45.2 6.6"/><polygon class="cls-3" points="45.2 6.6 45.2 6.6 45.2 6.6 45.2 6.6"/><path class="cls-3" d="M45.2,6.6Z"/><polygon class="cls-3" points="45.2 6.7 45.2 6.7 45.2 6.7 45.2 6.7"/><path class="cls-3" d="M44.6,5.8c0,.1,0,.1-.1.1h.1Z"/><rect class="cls-3" x="43.5" y="9.3" height="0.01" transform="translate(9.5 38) rotate(-52.3)"/><path class="cls-3" d="M47,10.5h.5v.9h0v.6H47Zm.2.1h0Zm.1.1Zm.2-.9Zm-.1.8Zm0-.1h0Zm-.4,0Z"/><polygon class="cls-3" points="47.2 10.7 47.2 10.7 47.2 10.7 47.2 10.7 47.2 10.7 47.2 10.7 47.2 10.7 47.2 10.7 47.2 10.7"/><rect class="cls-3" x="47.7" y="9.7" transform="translate(7.7 37.4) rotate(-46.2)"/><polygon class="cls-3" points="47.7 9.7 47.7 9.7 47.7 9.7 47.7 9.7"/><path class="cls-3" d="M47.5,10.7Z"/><path class="cls-3" d="M47.7,9.7Z"/><polygon class="cls-3" points="47.4 10.6 47.4 10.6 47.4 10.6 47.4 10.6"/><polygon class="cls-3" points="47.4 10.6 47.4 10.6 47.4 10.6 47.4 10.6"/><polygon class="cls-3" points="47.4 10.6 47.4 10.6 47.4 10.6 47.4 10.6"/><path class="cls-3" d="M47.6,10.2h0Z"/><path class="cls-3" d="M47.6,9.6h0Z"/><path class="cls-3" d="M47.4,10.7Z"/><path class="cls-3" d="M47.8,10.1h0Z"/><path class="cls-3" d="M47.5,9.9Z"/><path class="cls-3" d="M47,10.6Z"/><polygon class="cls-3" points="47.5 9.9 47.5 9.9 47.5 9.9 47.5 9.9 47.5 9.9"/><rect class="cls-3" x="47.5" y="9.9" transform="translate(30.6 55.4) rotate(-81.5)"/><polygon class="cls-3" points="47.5 9.9 47.5 9.9 47.5 9.9 47.5 9.9"/><polygon class="cls-3" points="47.5 9.9 47.5 9.9 47.5 9.9 47.5 9.9"/><polygon class="cls-3" points="47.5 9.9 47.5 9.9 47.5 9.9 47.5 9.9"/><path class="cls-3" d="M47.5,10.6h0Z"/><path class="cls-3" d="M47.5,10.6h0Z"/><polygon class="cls-3" points="47.4 10.6 47.4 10.6 47.4 10.6 47.4 10.6"/><polygon class="cls-3" points="47.6 9.7 47.6 9.7 47.6 9.7 47.6 9.7 47.6 9.7"/><path class="cls-3" d="M47.5,9.9v0Z"/><polygon class="cls-3" points="47.6 9.9 47.6 9.9 47.6 9.9 47.6 9.9 47.6 9.9"/><polygon class="cls-3" points="47.5 10.7 47.5 9.8 47.5 9.8 47.5 10.7 47.5 10.7"/><path class="cls-3" d="M47.5,9.9v.7h0V9.9Z"/><path class="cls-3" d="M47.4,10.6Z"/><polygon class="cls-3" points="47.4 10.6 47.4 10.6 47.4 10.6 47.4 10.6"/><polygon class="cls-3" points="47.4 10.6 47.4 10.6 47.4 10.6 47.4 10.6 47.4 10.6 47.4 10.6 47.4 10.6"/><rect class="cls-3" x="47.6" y="9.9" height="0.01" transform="translate(17.6 48) rotate(-63.6)"/><rect class="cls-3" x="47.3" y="10.7" height="0.01" transform="translate(23.7 53.1) rotate(-73.5)"/><rect class="cls-3" x="47.8" y="9.8" height="0.01" transform="translate(12.6 43.7) rotate(-55.6)"/><polygon class="cls-3" points="47.5 9.9 47.5 9.9 47.5 9.9 47.5 10 47.5 10 47.5 10 47.5 10 47.5 9.9 47.5 9.9"/><path class="cls-3" d="M47.5,10Z"/><polygon class="cls-3" points="47.5 9.9 47.5 9.9 47.5 9.9 47.5 9.9"/><rect class="cls-3" x="47.5" y="10" transform="translate(-0.5 3) rotate(-3.6)"/><polygon class="cls-3" points="47.5 9.9 47.5 9.9 47.5 9.9 47.5 9.9 47.5 9.9 47.5 9.9"/><path class="cls-3" d="M47.5,9.9Z"/><polygon class="cls-3" points="47.5 9.9 47.5 9.9 47.5 10 47.5 9.9"/><path class="cls-3" d="M47.5,9.9Z"/><path class="cls-3" d="M47.5,10Z"/><polygon class="cls-3" points="47.5 9.9 47.5 9.9 47.5 9.9 47.5 9.9"/><polygon class="cls-3" points="47.5 10 47.5 10 47.5 10 47.5 10"/><path class="cls-3" d="M47.5,9.9Z"/><polygon class="cls-3" points="47.5 9.9 47.5 9.9 47.5 9.9 47.5 9.9"/><polygon class="cls-3" points="47.5 10 47.5 10 47.5 10 47.5 10"/><path class="cls-3" d="M47.5,10Z"/><polygon class="cls-3" points="47.5 9.9 47.5 9.9 47.5 9.9 47.5 9.9"/><rect class="cls-3" x="47.5" y="9.8" height="0.01" transform="translate(36.7 57) rotate(-88.7)"/><polygon class="cls-3" points="47 10.6 47 10.6 47 10.6 47 10.6 47 10.6"/><path class="cls-3" d="M42.9,11h0v.8h0v-.2h0v.6h0Zm0,0Zm0,0Zm0-.9Zm0,.8Zm0-.1h0Zm0,.2Z"/><polygon class="cls-3" points="42.9 11 42.9 11 42.9 11 42.9 11 42.9 11 42.9 11 42.9 11 42.9 11 42.9 11"/><polygon class="cls-3" points="42.9 10 42.9 10 42.9 10 42.9 10"/><polygon class="cls-3" points="42.9 10 42.9 10 42.9 10 42.9 10"/><path class="cls-3" d="M42.9,11h0Z"/><path class="cls-3" d="M42.9,10Z"/><polygon class="cls-3" points="42.9 10.9 42.9 10.9 42.9 10.9 42.9 10.9"/><polygon class="cls-3" points="42.9 10.9 42.9 10.9 42.9 10.9 42.9 10.9"/><polygon class="cls-3" points="42.9 10.9 42.9 10.9 42.9 10.9 42.9 10.9"/><path class="cls-3" d="M42.9,10.4h0Z"/><path class="cls-3" d="M42.9,9.9Z"/><path class="cls-3" d="M42.9,11Z"/><path class="cls-3" d="M42.9,10.1Z"/><path class="cls-3" d="M42.9,10.2Z"/><path class="cls-3" d="M42.9,11.1Z"/><rect class="cls-3" x="42.9" y="10.2" height="0.02"/><polygon class="cls-3" points="42.9 10.2 42.9 10.2 42.9 10.2 42.9 10.2"/><polygon class="cls-3" points="42.9 10.2 42.9 10.2 42.9 10.2 42.9 10.2"/><polygon class="cls-3" points="42.9 10.2 42.9 10.2 42.9 10.2 42.9 10.2"/><path class="cls-3" d="M42.9,10.9Z"/><path class="cls-3" d="M42.9,10.9Z"/><polygon class="cls-3" points="42.9 10.9 42.9 10.9 42.9 10.9 42.9 10.9"/><rect class="cls-3" x="42.9" y="10" height="0.01"/><path class="cls-3" d="M42.9,10.1v.8h0Z"/><rect class="cls-3" x="42.9" y="10.2" height="0.01" transform="translate(31.4 52.7) rotate(-88.2)"/><polygon class="cls-3" points="42.9 11 42.9 10.1 42.9 10.1 42.9 10.1 42.9 11 42.9 11"/><path class="cls-3" d="M42.9,10.2v.6h0v-.7Z"/><path class="cls-3" d="M42.9,10.9Z"/><polygon class="cls-3" points="42.9 10.9 42.9 10.9 42.9 10.9 42.9 10.9"/><polygon class="cls-3" points="42.9 10.9 42.9 10.9 42.9 10.9 42.9 10.9 42.9 10.9 42.9 10.9 42.9 10.9"/><rect class="cls-3" x="42.9" y="10.1" transform="translate(31.3 52.7) rotate(-88)"/><rect class="cls-3" x="42.9" y="10.9" height="0.01"/><rect class="cls-3" x="42.9" y="10"/><polygon class="cls-3" points="42.9 10.2 42.9 10.2 42.9 10.2 42.9 10.2 42.9 10.2 42.9 10.2 42.9 10.2 42.9 10.2 42.9 10.2"/><rect class="cls-3" x="42.9" y="10.2"/><polygon class="cls-3" points="42.9 10.2 42.9 10.2 42.9 10.2 42.9 10.2 42.9 10.2 42.9 10.2"/><path class="cls-3" d="M42.9,10.2Z"/><polygon class="cls-3" points="42.9 10.2 42.9 10.2 42.9 10.2 42.9 10.2"/><path class="cls-3" d="M42.9,10.2Z"/><polygon class="cls-3" points="42.9 10.2 42.9 10.2 42.9 10.2 42.9 10.2"/><polygon class="cls-3" points="42.9 10.2 42.9 10.2 42.9 10.2 42.9 10.2"/><path class="cls-3" d="M42.9,10.2Z"/><polygon class="cls-3" points="42.9 10.2 42.9 10.2 42.9 10.2 42.9 10.2"/><polygon class="cls-3" points="42.9 10.2 42.9 10.2 42.9 10.2 42.9 10.2"/><path class="cls-3" d="M42.9,10.2Z"/><polygon class="cls-3" points="42.9 10.2 42.9 10.2 42.9 10.2 42.9 10.2"/><rect class="cls-3" x="42.9" y="10" height="0.01"/><rect class="cls-3" x="42.9" y="11.1" height="0.01" transform="translate(31.4 53.9) rotate(-89.4)"/><path class="cls-3" d="M48,10.7a.9.9,0,0,1-.3.5l-.2.2h-.3c.2-.1.3-.1.4-.3a.5.5,0,0,0,.2-.4h0a.7.7,0,0,1-.7.6h.3c-.1,0-.2.1-.3,0h0c-.1,0-.1,0,0-.1h.2c-.2,0-.1-.1-.1-.1h0a.1.1,0,0,1-.1-.1v-.2h-.3V8.8c-.1-.4-.1-.8-.2-1.2a.4.4,0,0,1-.1-.3V6.7c0,.1.1.1.1.2h0c0-.1-.1-.2-.1-.3s.1.3.2.4.1.3.1.4h0c0-.1-.1-.2-.1-.4l-.4-.8H46l-.2-.2H44.5l-.7.2h-.4l-.3.3-.3.2h.1a.1.1,0,0,0-.1.1h0l-.2.3a.4.4,0,0,1-.1.3h0c-.1.2-.1.4-.2.6h0v.1h0V8a4.3,4.3,0,0,1-.1.5h0c-.1,0-.1.3-.1.5v.4h0V9.2c0,.1.1.2.1.3v1h4.4c0,.1.1.1.1.2H45.6c.1.1,0,.1-.3.1H42.4a1.1,1.1,0,0,1-.8-.3l-.2-.3h0v-.3h0V9.1h0v.5h0A5.9,5.9,0,0,1,41.6,8V7.3a1.4,1.4,0,0,1,.2-.6h0l.3-.5v.2l-.2.2h0a4.1,4.1,0,0,1,.9-1l.6-.4-.3.2H43l.4-.2h0l.7-.2h1.4a.1.1,0,0,1,.1.1h.2l.4.2.4.3c.1,0,.1.1.2.2l.2.2.2.3a.4.4,0,0,1-.1-.3l-.4-.5-.3-.2h-.5a2,2,0,0,1,1.2,1,4.3,4.3,0,0,1,.6,1.8,5,5,0,0,1,.2,1.2,1.3,1.3,0,0,0,.1.6v.3c0,.1.1.2,0,.2v.2h0a1.3,1.3,0,0,1,.1.6,1.3,1.3,0,0,0-.1-.6h0v0h0C48,10.3,48.1,10.5,48,10.7Zm-5.7-.2h-.1v-.1h.1Zm0-.9v.6h0v.4h0v-.2h0Zm1.5-3.7h0Zm1-1.1h0Zm1,.2h0ZM48,9.7V9.5h0v.2Z"/><polygon class="cls-3" points="42.3 10.2 42.3 10.2 42.3 10.2 42.3 10.2 42.3 10.2 42.3 10.2 42.3 10.2 42.3 10.2 42.3 10.2"/><rect class="cls-3" x="45.7" y="5.9" transform="translate(11.6 36.8) rotate(-49.5)"/><polygon class="cls-3" points="45.7 5.9 45.7 5.9 45.7 5.9 45.7 5.9"/><path class="cls-3" d="M42.8,6.7a.1.1,0,0,1,.1-.1h0A.1.1,0,0,0,42.8,6.7Z"/><path class="cls-3" d="M45.7,5.9Z"/><polygon class="cls-3" points="43 5.4 43 5.4 43 5.4 43 5.4"/><polygon class="cls-3" points="43.3 5.2 43.3 5.2 43.3 5.2 43.3 5.2"/><path class="cls-3" d="M43,5.4Z"/><path class="cls-3" d="M46.4,11.2Z"/><path class="cls-3" d="M44.1,5.9l-.5.2,1.1-.3h-.6Z"/><path class="cls-3" d="M42.8,6.9c-.1.1-.2.2-.2.3v.3a2,2,0,0,1,.4-.8h0l-.2.3h.1Z"/><path class="cls-3" d="M46.6,11.5h0Z"/><path class="cls-3" d="M41.6,7.5h0a3.5,3.5,0,0,0-.1.6A3.5,3.5,0,0,1,41.6,7.5Z"/><path class="cls-3" d="M44.8,10.5Z"/><path class="cls-3" d="M42.1,6.5H42v.3h0Z"/><rect class="cls-3" x="41.9" y="6.7" transform="translate(7.4 31.4) rotate(-44.6)"/><path class="cls-3" d="M41.9,6.8h0Z"/><polygon class="cls-3" points="41.9 6.7 41.9 6.7 41.9 6.7 41.9 6.7"/><path class="cls-3" d="M41.9,6.7l.2-.2-.2.2Z"/><path class="cls-3" d="M42.7,5.7l.3-.3h-.1C42.8,5.5,42.8,5.6,42.7,5.7Z"/><path class="cls-3" d="M42.9,5.5h0Z"/><polygon class="cls-3" points="43 5.4 43 5.4 43 5.4 43 5.4"/><path class="cls-3" d="M44.8,5.7h0Z"/><path class="cls-3" d="M42.3,6l.2-.3Z"/><path class="cls-3" d="M41.4,8.7V8.5h0c-.1,0-.1.1-.1.2Z"/><path class="cls-3" d="M43,6.5l.2-.2h0l-.2.2Z"/><path class="cls-3" d="M42.4,6h0Z"/><path class="cls-3" d="M42.9,5.4l.4-.2Z"/><polygon class="cls-3" points="43.3 5.2 43.3 5.2 43.3 5.2 43.3 5.2"/><polygon class="cls-3" points="43.3 5.2 43.3 5.2 43.3 5.2 43.3 5.2 43.3 5.2 43.3 5.2 43.3 5.2"/><path class="cls-3" d="M41.4,8.3c0-.1.1-.1.1-.2h0c0,.1-.1.1-.1.2Z"/><polygon class="cls-3" points="45.1 4.7 45.1 4.7 44.9 4.7 44.9 4.7 45.1 4.7"/><path class="cls-3" d="M42.3,11.6h0Z"/><path class="cls-3" d="M42,6.5h0c0,.1,0,.2-.1.2H42a.3.3,0,0,1,.1-.2Z"/><path class="cls-3" d="M42,6.7Z"/><polygon class="cls-3" points="41.9 6.7 41.9 6.7 41.9 6.7 41.9 6.7"/><rect class="cls-3" x="42" y="6.7" height="0.01" transform="matrix(0.25, -0.97, 0.97, 0.25, 24.82, 45.63)"/><polygon class="cls-3" points="41.9 6.7 41.9 6.7 41.9 6.7 41.9 6.7 41.9 6.7 41.9 6.7"/><path class="cls-3" d="M42,6.5c0,.1,0,.2-.1.2S42,6.6,42,6.5Z"/><polygon class="cls-3" points="41.9 6.7 41.9 6.7 42 6.7 41.9 6.7"/><path class="cls-3" d="M42,6.5Z"/><path class="cls-3" d="M42,6.7Z"/><polygon class="cls-3" points="42 6.5 42 6.5 42 6.5 42 6.5"/><polygon class="cls-3" points="42 6.7 42 6.7 42 6.7 42 6.7"/><path class="cls-3" d="M42.1,6.5h0Z"/><polygon class="cls-3" points="42.1 6.5 42 6.5 42 6.5 42.1 6.5"/><polygon class="cls-3" points="42 6.7 42 6.7 42 6.7 42 6.7"/><path class="cls-3" d="M42,6.7Z"/><polygon class="cls-3" points="41.9 6.7 41.9 6.7 41.9 6.7 41.9 6.7"/><path class="cls-3" d="M43.1,6.4h0Z"/><polygon class="cls-3" points="48 9.2 48.1 9.4 48.1 9.4 48.1 9.2 48 9.2"/><path class="cls-3" d="M32.3,11.7h-3c.6,0-.5,0-.3-.1h1.1c-.3,0-.3,0,0-.1h.5c-.6-.1-.6-.1.1-.1h-.3c-.4,0-.5,0-.2-.1h9.4V8.3l.3-2.7a13.4,13.4,0,0,1,.7-1.8l.3-.4.3-.3.7-.5a4.3,4.3,0,0,1,1.4-.4l-1.2.3h0l1.6-.4a5.2,5.2,0,0,0-2.1.7l-.5.4-.2.2-.2.3a5.4,5.4,0,0,0-.5,1.1h0l.5-1a2.7,2.7,0,0,1,.7-.8,3.4,3.4,0,0,1,1.2-.6L44,2.2h2.3l.9.3.6.2a1.8,1.8,0,0,1,.7.5h.2l.2.2c.1.1.1.3.2.4s.2.3.2.5,0,.2.1.2h0a8.3,8.3,0,0,0-.7-1.3h0a2.4,2.4,0,0,1,.6,1.1c0,.1,0,.1.1.1h0A20.8,20.8,0,0,1,49.7,7V6.8a7.5,7.5,0,0,0-.3-2,7.6,7.6,0,0,1,.3,2.1,16.2,16.2,0,0,1,.1,2.2c.1.4.1.7.2,1a.5.5,0,0,0,.2.4H60.7v.8h0v.8a7.7,7.7,0,0,1-.2,1.5l-.3.9a5,5,0,0,1-.8,1.2l-.3.3a.2.2,0,0,0-.2.2l-.6.4h-.3c0,.1-.1.1-.1.2l.3-.2.3-.2.3-.2-1.2.8h0l.8-.5-.3.2-.3.2-.6.3-.7.2-.6.2h-.1l-2.2.3h-.3l1.7-.2-3.3.4H36.7l-1.6-.2H33.5l-.9-.3-.6-.2a4.4,4.4,0,0,1-1.6-1l1.2.8a5.8,5.8,0,0,1-1.5-1.1,3.9,3.9,0,0,1-1-1.6h0a5,5,0,0,0,1.3,1.9,5.7,5.7,0,0,1-1.2-1.5,6.7,6.7,0,0,1-.5-1.9c-.2-.7-.2-1-.1-1.2V11.4c0,.5.1.9.1,1.4v-.4c0,.3.1.5.1.8s-.1-1.5,0-1.4a5.2,5.2,0,0,0,.2,1.1c-.1-.5-.1-.6,0-.6s.1,1,.1,1.5h.1a18.6,18.6,0,0,1-.3-2.6,2.6,2.6,0,0,1,.1.7h0c0,.3.1.5.1.7a2.8,2.8,0,0,0,.1.8h0v-.6a3.4,3.4,0,0,0,.1,1v-.5a.6.6,0,0,1-.1-.4,3,3,0,0,0,.2,1v.2a6.4,6.4,0,0,1-.2-.7h0l.3,1.1c-.1-.3-.1-.6-.2-.9l.2.6a.9.9,0,0,1-.1-.5.6.6,0,0,1-.1-.4v.3a3.6,3.6,0,0,0,.2,1l.3.4a3.8,3.8,0,0,1-.5-1.5,8.1,8.1,0,0,1-.1-1.6,9.4,9.4,0,0,0,.7,3.4h0a2.4,2.4,0,0,0,.6.9h.2l.7.6,1,.4.9.3h0l-.9-.3,1.7.4h.2a23.4,23.4,0,0,0,3.8.3h-.5l5,.2H41.2a5.6,5.6,0,0,1-1.3,0h-.6l6.3.2H52l3.4-.4a12.5,12.5,0,0,1-1.9.3h.2l-2,.2h.4l2.9-.3.7-.2h.6a5.2,5.2,0,0,0,1.3-.6l.6-.3.9-.9.2-.3.2-.3a4.7,4.7,0,0,0,.6-2h0V11.9H60v.3h0v.3h0v-.5H49.7a.2.2,0,0,0-.2-.2,2.2,2.2,0,0,1-.5-1.1,5.9,5.9,0,0,1-.2-1.4V7.4a10.9,10.9,0,0,0-.4-2.6l-.3-.7H48l-.2-.2-.3-.2a4.3,4.3,0,0,0-1.6-.5h-.4a3.8,3.8,0,0,1,1.9.5l.4.3H48v.2a1.9,1.9,0,0,1,.4.9,13.6,13.6,0,0,1,.2,2.1v.5h0a12.7,12.7,0,0,0-.1-2l-.3-1.2L48,4.1l-.5-.4a4.4,4.4,0,0,0-2.3-.6H43.5a3.5,3.5,0,0,0-1.4.6l-.2.3c-.1.1-.2.2-.2.3a1.1,1.1,0,0,0-.3.7A10.5,10.5,0,0,0,41,6.8a14.9,14.9,0,0,0-.2,2.1,4.5,4.5,0,0,1-.1,1.1,1.3,1.3,0,0,1-.1.6,1.3,1.3,0,0,1-.3.7l-.6.3H32.3Zm14.8,7.4h0Zm4.1-.1h0Zm2.5-8.3h0ZM49,9.8a2.9,2.9,0,0,0,.2.9l.3.4h.1l.2.2-.3-.3v-.2l-.2-.3A1.5,1.5,0,0,1,49,9.8ZM48.7,6a14.1,14.1,0,0,1,.1,2h0A14.8,14.8,0,0,0,48.7,6ZM36.1,11.7h0Z"/><path class="cls-3" d="M49,19.1h0Z"/><polygon class="cls-3" points="49.4 4.7 49.4 4.7 49.4 4.7 49.4 4.7 49.4 4.7"/><polygon class="cls-3" points="49.4 4.7 49.4 4.7 49.4 4.7 49.4 4.7"/><path class="cls-3" d="M60.2,10.9h0Z"/><path class="cls-3" d="M49.4,4.7c-.1,0-.1-.1-.1-.2s0,.2.1.2Z"/><path class="cls-3" d="M55.8,11.6Z"/><polygon class="cls-3" points="54.4 11.6 54.4 11.6 54.4 11.6 54.4 11.6"/><path class="cls-3" d="M55.8,11.6Z"/><path class="cls-3" d="M29.2,13.5h0a2.8,2.8,0,0,1-.1-.8A2.8,2.8,0,0,0,29.2,13.5Z"/><path class="cls-3" d="M52.6,10.6H50.2l-.2-.2c0-.2-.1-.5-.1-.7a1.3,1.3,0,0,1-.1-.6,4.9,4.9,0,0,0-.1-1.2A6.2,6.2,0,0,1,49.8,9a3.7,3.7,0,0,0,.2,1.2l.2.3h2.4Z"/><path class="cls-3" d="M60.8,12a4.5,4.5,0,0,1-.1,2c0,.2-.1.4-.1.6l-.2.4-.2.6a6.2,6.2,0,0,0,.7-2.3V10.9h-.1c.1,0,0,.1,0,.1h.1v2h0v-.5C60.9,12.3,60.8,12.2,60.8,12Z"/><path class="cls-3" d="M29.4,12.8a6.6,6.6,0,0,0,.9,2.7A10.2,10.2,0,0,1,29.4,12.8Z"/><path class="cls-3" d="M59.1,15.8h0a6,6,0,0,1-.8.8l-1.1.7a4.1,4.1,0,0,0,1.1-.7Z"/><path class="cls-3" d="M33.6,18.6h0l1.6.2Z"/><path class="cls-3" d="M60,12.1h0a6.5,6.5,0,0,1,0,1.4v-.4A1.7,1.7,0,0,0,60,12.1Z"/><rect class="cls-3" x="60" y="13.1" transform="translate(36.1 69.7) rotate(-79.4)"/><path class="cls-3" d="M60,13.5v-.3h0Z"/><polygon class="cls-3" points="60 13.2 60 13.2 60 13.1 60 13.2"/><path class="cls-3" d="M60,13.1a1.7,1.7,0,0,0,0-1,1.7,1.7,0,0,1,0,1Z"/><path class="cls-3" d="M57.3,11.6h0Z"/><path class="cls-3" d="M56.2,11.6h0Z"/><path class="cls-3" d="M55.8,11.6Z"/><path class="cls-3" d="M49.9,9.9a1.4,1.4,0,0,0,.2.6h0a1.4,1.4,0,0,1-.2-.6Z"/><path class="cls-3" d="M59.1,11.7h0Z"/><path class="cls-3" d="M54.9,17.9l.9-.2h-.9Z"/><polygon class="cls-3" points="58.8 10.8 57.6 10.8 57.6 10.8 58.8 10.8 58.8 10.8"/><path class="cls-3" d="M58.7,11.6h0Z"/><path class="cls-3" d="M55.9,11.6h0Z"/><polygon class="cls-3" points="54.4 11.6 54.4 11.6 54.4 11.6 54.4 11.6"/><path class="cls-3" d="M54.4,11.6Z"/><path class="cls-3" d="M56.4,17.5l.4-.2h0l-.4.2Z"/><path class="cls-3" d="M48.8,8.7h0v.5h0Z"/><rect class="cls-3" x="44.3" y="17.8" height="0.66" transform="translate(25.5 62.1) rotate(-89.1)"/><path class="cls-3" d="M60.1,12.4h0v.4a.4.4,0,0,1-.1.3h.1v-.9Z"/><path class="cls-3" d="M60.1,13.2Z"/><polygon class="cls-3" points="60 13.1 60 13.1 60 13.1 60 13.1"/><rect class="cls-3" x="60.1" y="13.2" height="0.02" transform="matrix(0.04, -1, 1, 0.04, 44.69, 72.71)"/><polygon class="cls-3" points="60 13.1 60 13.1 60 13.2 60 13.1 60 13.1 60 13.1"/><path class="cls-3" d="M60.1,12.4v.4a.4.4,0,0,1-.1.3.4.4,0,0,0,.1-.3Z"/><polygon class="cls-3" points="60 13.1 60 13.1 60.1 13.2 60 13.1"/><path class="cls-3" d="M60.1,12.4Z"/><path class="cls-3" d="M60.1,13.2Z"/><polygon class="cls-3" points="60.1 12.4 60.1 12.4 60.1 12.4 60.1 12.4"/><polygon class="cls-3" points="60.1 13.2 60.1 13.2 60.1 13.2 60.1 13.2"/><path class="cls-3" d="M60.1,12.3h0Z"/><polygon class="cls-3" points="60.1 12.3 60.1 12.4 60.1 12.4 60.1 12.3"/><polygon class="cls-3" points="60.1 13.2 60.1 13.2 60.1 13.2 60.1 13.2"/><path class="cls-3" d="M60.1,13.2Z"/><polygon class="cls-3" points="60 13.1 60 13.2 60 13.1 60 13.1"/><polygon class="cls-3" points="57.9 10.8 57.2 10.8 57.1 10.8 57.9 10.8 57.9 10.8"/><polygon class="cls-3" points="38 11.7 37.4 11.7 37.4 11.7 38.1 11.7 38 11.7"/><path class="cls-3" d="M50.6,20.2H47.2c.7,0-.5,0-.2-.1h.2c-.3-.1-.2-.1.3-.1h1.2c-.7,0-.7,0,.1-.1h-.4c-.3-.1-.5-.1-.2-.1h2.9l2.4-.2,2.6-.4,1.3-.4.5-.3h.3l.3-.2a5.8,5.8,0,0,0,1.7-1.8,7.3,7.3,0,0,0,.7-2.4V10.8h-.1a.1.1,0,0,1,.1.1h0v1.1a1.1,1.1,0,0,1,.1.5h0a3.1,3.1,0,0,0-.1-1v-.7H50.5c-.5.1-.5-.4-.6-.7a1.7,1.7,0,0,1-.1-.7v.3h0c0,.1.1.2.1.4s.1.2.1.3v.2h-.1v-.2l-.2-.5h0V9.2a1.3,1.3,0,0,0-.1-.6V7.4A9.9,9.9,0,0,0,49.5,5a3.4,3.4,0,0,0-.6-1.5l-.6-.6-.8-.4a3.3,3.3,0,0,0-1.3-.4H45.1L43,2.1l-1.5.7h.2l-.3.2-.2.2h-.1a3.5,3.5,0,0,0-.7,1.2A5.7,5.7,0,0,0,40,5.8a2.8,2.8,0,0,0-.1.9c-.1.5-.1,1-.2,1.4v2h0v0h0v.1H28.4V11a13.4,13.4,0,0,0,.1,2,8,8,0,0,0,.5,2.1,3,3,0,0,0,.4,1l.6.8c.2.1-.2-.3-.3-.5l.2.3.2.2h.1l.7.6-.3-.3-.3-.2a4.4,4.4,0,0,0,1.5,1l-.5-.3h.1l2.2.7h0l1.7.3h9.5c.6,0,1.5,0,1.4.1H40.8c0,.1-.2.1-1.4,0H36l-2.1-.2a7.9,7.9,0,0,1-2.2-.6l.5.3A7.2,7.2,0,0,1,29.6,18,6.3,6.3,0,0,1,28,15.6a5.9,5.9,0,0,0,1,1.7l.5.5.2.2.4.3,1.4.8c.2,0,0,0-.5-.3h-.3a5.7,5.7,0,0,1-1.5-1.2,8.6,8.6,0,0,1-1-1.6,10.5,10.5,0,0,1-.8-3.5V10.7a1.3,1.3,0,0,1,.1-.6.9.9,0,0,1,.5-.3H38.9V9.2c0-.5.1-1.1.1-1.5V6.9a10.3,10.3,0,0,1,.5-2.4h0c0,.1.1-.3.3-.5a3.7,3.7,0,0,1,.7-1.2l.9-.7a2.1,2.1,0,0,0-.8.6,3.6,3.6,0,0,0-.7,1h0a2.7,2.7,0,0,1,.9-1.2,2.4,2.4,0,0,1,1.2-.7,6.5,6.5,0,0,1,2.7-.5,7.5,7.5,0,0,1,3.3.6l-1.3-.4-1.3-.2h1.2l.7.2h0a3.6,3.6,0,0,1,1.5.8,1.7,1.7,0,0,1,.6.6,2.2,2.2,0,0,1,.5.8c-.1-.2-.2-.3-.2-.4s-.2-.2-.2-.3h0a5.6,5.6,0,0,1,.7,1.3,9.5,9.5,0,0,1,.3,1.9c.1,1,.1,2,.2,3h0V8.8h0v.6H61.1a.9.9,0,0,1,.6.6.5.5,0,0,1,.1.3V11a.7.7,0,0,1,.1.5c0,.3.1.6.1,1a7.5,7.5,0,0,1-.3,2,1.9,1.9,0,0,1-.2.7c0,.2-.2.4-.3.7a4.2,4.2,0,0,1-.8,1.2,5.8,5.8,0,0,1-2.3,1.8l-.6.3h-.6l-1.3.3,1.1-.2-1.2.3-1.3.2H50.5l1.6-.2h1.8ZM28.3,10.8h0Zm3.5-.2H28.3V11a11.5,11.5,0,0,0,.1,1.9v-.5a4.9,4.9,0,0,1-.1-1.2v-.5h3.5ZM47.5,2.4l-.4-.2h-.4Zm3.1,4.3c-.1-.7-.1-1.2-.2-1.7a2.8,2.8,0,0,1,.1.8C50.5,6,50.6,6.3,50.6,6.7Zm.8,3h-.7V8.6h0V9.7h.6Zm3.3,10.2h0Z"/><path class="cls-3" d="M29.4,10.6h0Z"/><polygon class="cls-3" points="52.5 10.6 52.5 10.6 52.5 10.6 52.5 10.6 52.5 10.6"/><polygon class="cls-3" points="52.5 10.6 52.6 10.6 52.5 10.6 52.5 10.6"/><path class="cls-3" d="M41.4,2.9l.3-.2h0Z"/><path class="cls-3" d="M52.5,10.6h0Z"/><path class="cls-3" d="M45.5,1.2Z"/><polygon class="cls-3" points="47 1.4 47 1.4 47 1.4 47 1.4"/><path class="cls-3" d="M45.5,1.2Z"/><path class="cls-3" d="M44.4,19.8Z"/><path class="cls-3" d="M48.3,3.1a2.4,2.4,0,0,0-1.1-.6l-1.1-.3a4.8,4.8,0,0,1,1.8.6l.7.5.4.6A3.6,3.6,0,0,1,49.4,5c.1.4.1.7.2,1.1s.1,2,.2,2.9c-.1-1.1-.1-2.1-.2-2.9a5.2,5.2,0,0,0-.7-2.3A1.3,1.3,0,0,0,48.3,3.1Z"/><path class="cls-3" d="M40.8,3.7a8.7,8.7,0,0,0-.7,1.7,5.6,5.6,0,0,1-.2,1V7a14.3,14.3,0,0,1,.4-2.2l.5-1,.3-.5.3-.3h0l-.6.6-.4.9h0l.2-.4A.5.5,0,0,1,40.8,3.7Z"/><path class="cls-3" d="M45.1,20.1h0Z"/><path class="cls-3" d="M39,7.7h-.1A6.2,6.2,0,0,1,38.8,9v.5h0V9A5.7,5.7,0,0,1,39,7.7Z"/><path class="cls-3" d="M36.8,19H35.1Z"/><path class="cls-3" d="M40.1,3.3h0a10.1,10.1,0,0,0-.7,1.5c.1-.1.1-.2.2-.4A3.7,3.7,0,0,1,40.1,3.3Z"/><rect class="cls-3" x="39.6" y="4.4" transform="translate(20 39.1) rotate(-66.9)"/><path class="cls-3" d="M39.4,4.8c.1-.1.1-.3.2-.4h0C39.5,4.6,39.5,4.7,39.4,4.8Z"/><polygon class="cls-3" points="39.6 4.4 39.6 4.4 39.6 4.4 39.6 4.4"/><path class="cls-3" d="M39.6,4.4a3.7,3.7,0,0,1,.5-1.1,3.7,3.7,0,0,0-.5,1.1Z"/><path class="cls-3" d="M43.8,1.2h0Z"/><path class="cls-3" d="M45,1.1h0Z"/><path class="cls-3" d="M45.5,1.2h0Z"/><path class="cls-3" d="M49.7,6.5a8.8,8.8,0,0,0-.2-1.7h0a9.9,9.9,0,0,1,.2,1.7Z"/><path class="cls-3" d="M41.8,1.7l1.5-.4Z"/><polygon class="cls-3" points="35.9 9.7 36.9 9.7 36.9 9.6 35.9 9.7 35.9 9.7"/><path class="cls-3" d="M42.4,2.3l1.2-.2h0l-1.1.2Z"/><path class="cls-3" d="M42.2,1.6l.6-.2h.3l-.8.3Z"/><path class="cls-3" d="M45.3,1.1a4.7,4.7,0,0,1,1.7.3A4.3,4.3,0,0,0,45.3,1.1Z"/><polygon class="cls-3" points="47 1.4 47 1.4 47 1.4 47 1.4"/><path class="cls-3" d="M47,1.4Z"/><rect class="cls-3" x="37.7" y="9.6" width="0.9" height="0.01" transform="translate(-0.1 0.5) rotate(-0.7)"/><polygon class="cls-3" points="50.7 7.9 50.7 7.9 50.7 7.3 50.7 7.3 50.7 7.9"/><path class="cls-3" d="M27.6,14.3c0-.3-.1-.5-.1-.8h0c0,.3.1.5.1.8Z"/><path class="cls-3" d="M40,3.6h0a2,2,0,0,0-.4.8h0a3.6,3.6,0,0,1,.4-.9Z"/><path class="cls-3" d="M39.6,4.5Z"/><polygon class="cls-3" points="39.6 4.4 39.6 4.4 39.6 4.4 39.6 4.4"/><rect class="cls-3" x="39.6" y="4.4" height="0.03" transform="translate(24.6 41.4) rotate(-74.2)"/><polygon class="cls-3" points="39.6 4.4 39.6 4.4 39.6 4.4 39.6 4.4 39.6 4.4 39.6 4.4"/><path class="cls-3" d="M40,3.6a2,2,0,0,0-.4.8A2,2,0,0,1,40,3.6Z"/><polygon class="cls-3" points="39.6 4.4 39.6 4.4 39.6 4.5 39.6 4.4"/><path class="cls-3" d="M40,3.6Z"/><path class="cls-3" d="M39.6,4.5Z"/><polygon class="cls-3" points="40 3.6 40 3.6 40 3.6 40 3.6"/><polygon class="cls-3" points="39.6 4.5 39.6 4.5 39.6 4.4 39.6 4.5"/><path class="cls-3" d="M40,3.5h0Z"/><polygon class="cls-3" points="40 3.5 40 3.6 40 3.6 40 3.5"/><polygon class="cls-3" points="39.6 4.5 39.6 4.4 39.6 4.4 39.6 4.5"/><path class="cls-3" d="M39.6,4.4h0Z"/><polygon class="cls-3" points="39.6 4.4 39.6 4.4 39.6 4.4 39.6 4.4"/><path class="cls-3" d="M43.4,2.1h0Z"/><path class="cls-3" d="M56.8,19.5l-.7.2h.1l.7-.2Z"/><path d="M28.5,35.3h0A.9.9,0,0,1,28,35a17.6,17.6,0,0,0-2.3-3.7.6.6,0,0,1,.1-.8.5.5,0,0,1,.8.1,18.1,18.1,0,0,1,1.9,2.9l2.6-4.7a.4.4,0,0,1,.7-.2.5.5,0,0,1,.3.7L29,35A.5.5,0,0,1,28.5,35.3Z"/><path d="M29.6,34.9a.1.1,0,0,1-.1.1h-.1a.4.4,0,0,1-.3.2h-.3a.8.8,0,0,0,.4-.4.1.1,0,0,0,.1-.1h.1v-.2h0V35l-.2.2a.5.5,0,0,1-.5.3l.4-.2h-.4c.1,0,.2,0,.3-.2h-.3l.2-.3h0V34l-.2.3h0l.3-.6c.5-.9.9-1.8,1.4-2.6s.1-.3.2-.5l.4-.7v.3h0l.2-.4-.3.5-.3.6h0l.3-.5.6-1.1v-.2h-.1v.3l-.3.6-.5.9c-.1.1-.2.2-.2.3l-.2.3h0l-.3.5-.2.4h0c-.1,0-.1,0-.1.1a.1.1,0,0,0-.1.1h-.1v.2c0,.2-.2.4-.3.6a.8.8,0,0,1-.2.4,1.7,1.7,0,0,0-.2.5,2.1,2.1,0,0,1-.4-.6v-.2h0l.2.5-.3-.6h0l.2.5-.6-1.1h-.1a1.4,1.4,0,0,0-.2-.6l-.4-.5h0l.3.4-.3-.3.2.4.3.4a3.5,3.5,0,0,1-.5-.8,1,1,0,0,1-.4-.5l-.2-.2v-.2h0v.2c.1.1,0-.1-.1-.1l.4.4-.2-.2.3.4h0l.3.6h0l.3.4c0,.1,0,.1.1.2s.1.1.1.2a.3.3,0,0,0,.1.2v.2l.3.4-.3-.3a4.1,4.1,0,0,1,.5.9h0c-.1-.2-.1-.4-.2-.6l.4,1h.1c-.1,0-.1.1,0,.1h-.2c.1,0,.1,0,.1.1h-.1a.1.1,0,0,0,.1.1h-.2c.1.1.1.1.1.2s-.2-.2-.3-.4h0c0,.1.1.3.2.3l.3.2h-.4c0-.1-.1-.1-.2-.2h0a.3.3,0,0,1,.1.2c0-.1-.1-.1-.1-.2h0a.1.1,0,0,0,.1.1c-.1-.1-.1-.2-.2-.2h0V35h0v.1a.1.1,0,0,1-.1-.1c0-.1-.1-.2-.1-.3s-.1,0-.1-.1a.8.8,0,0,0,.2.4h.1l.3.3-.3-.3c-.1,0-.1-.1-.1-.2h-.1c-.1-.1-.1-.3-.2-.4h0v-.3c-.1,0-.1-.1-.3-.3v-.3l-.2-.2h0l.2.2a.5.5,0,0,1-.3-.4h0l-.7-.9H26l-.5-.5-.2-.3a1.4,1.4,0,0,1-.2-.6c0,.1.1.3.1.4h.2c.1.1.2.1.3.3l.2.3h-.1l-.3-.4v-.2c-.1-.1-.2-.2-.2-.3a1.1,1.1,0,0,1,.1-.8,1.8,1.8,0,0,1,.7-.5h.6l.3.2H27l.2.3.5.6.5.9-.3-.5h0l-.3-.5h0l.5.7v.2h.1a.3.3,0,0,0,.1.2h0c.1.1.1.1.1.2h0a.1.1,0,0,0,.1-.1l.2-.3h0l.3-.5-.3.4h0c.2-.5.5-.9.7-1.3s.3-.5.4-.8l-.2.3v.3h0l.2-.3h-.1l.5-.8v.2h0l.2-.3c0-.2.1-.3.2-.5l.2-.3v-.2c0-.1.1-.2.2-.3l.6-.2.6.2a1.1,1.1,0,0,1,.3.8v.2h-.1v.3l-.2.3c.1-.1.1-.1.1-.2l.2-.3h0c.1,0,.1,0,.1-.1v-.3a1.1,1.1,0,0,0-.6-.9.8.8,0,0,0-1,.1h-.2a.8.8,0,0,1,.9-.3.6.6,0,0,1,.6.3.9.9,0,0,1,.3.7.4.4,0,0,1-.1.3h-.1l-.2.3-1,1.8-.6,1.3-.3.6v-.2a.3.3,0,0,1-.1.2l-.2.4a.4.4,0,0,1-.1.3h-.1l-.2.4a.8.8,0,0,1,.2-.4l.2-.4Zm-3.4-4.1h.1l.2.2c.2.2.2.2.2.3v-.4l-.2-.2Zm.6.9-.3-.4a.1.1,0,0,0-.1-.1h0l-.2-.2h0l.2.3h0Zm3.7-.9h0V31h0Zm0-1.8-.2.4C30.5,29.2,30.5,29.2,30.5,29Zm1.1-.8a.7.7,0,0,0-.8.4h0A.9.9,0,0,1,31.6,28.2Zm-1.4,5.7h0Z"/><polygon points="26.4 31.2 26.4 31.2 26.4 31.2 26.4 31.2 26.4 31.2 26.4 31.2 26.4 31.2 26.4 31.2 26.4 31.2"/><rect x="31.6" y="29" transform="translate(-7.4 46.9) rotate(-67.2)"/><polygon points="31.6 29 31.6 29 31.6 29 31.6 29"/><path d="M29.7,32.4h0Z"/><path d="M31.6,29h0Z"/><polygon points="29.6 30.9 29.5 30.9 29.5 30.9 29.6 30.9"/><polygon points="29.7 30.6 29.7 30.6 29.7 30.6 29.7 30.6"/><path d="M29.6,30.9Z"/><path d="M27.9,35h0c.1.1.2.1.2.2S28,35.1,27.9,35Z"/><path d="M30.8,30.6l-.3.6.8-1.5c.1-.2.1-.3.2-.4v-.2h-.1v.2l-.2.3-.3.7Z"/><path d="M29.5,32.6l-.3.8a2.7,2.7,0,0,0-.4.7l.9-1.7h0l-.3.6h0Z"/><path d="M27.8,35.4l-.2-.3v-.2c-.1-.1-.1-.3-.2-.4a1.7,1.7,0,0,1,.2.5h.2Z"/><path d="M28.5,32.8h0a.4.4,0,0,0-.1-.3v.3Z"/><path d="M27.5,32.8h0l-.2-.4C27.4,32.6,27.4,32.7,27.5,32.8Z"/><path d="M28.8,32.3h0v.2h.1Z"/><rect x="28.7" y="32.5" transform="translate(-9.4 11.8) rotate(-20)"/><path d="M28.7,32.5Z"/><polygon points="28.7 32.5 28.7 32.5 28.7 32.5 28.7 32.5"/><polygon points="28.7 32.5 28.8 32.4 28.8 32.3 28.8 32.4 28.7 32.5 28.7 32.5"/><path d="M29.3,31.3a.8.8,0,0,0,.2-.4h0Z"/><path d="M29.5,31h0Z"/><polygon points="29.5 30.9 29.5 30.9 29.5 30.9 29.5 30.9"/><polygon points="31.3 29.5 31 29.9 31.1 29.9 31.3 29.5 31.3 29.5"/><path d="M29.1,31.7c0-.1.1-.2.1-.3Z"/><polygon points="28.1 32.1 28.3 32.3 28.3 32.3 28.1 32.1 28.1 32.1"/><polygon points="29.8 32.1 30 31.8 30 31.7 29.8 32 29.8 32.1"/><path d="M29.2,31.7v-.2h0Z"/><path d="M29.5,30.9l.2-.3Z"/><polygon points="29.7 30.6 29.7 30.6 29.7 30.6 29.7 30.6"/><polygon points="29.7 30.6 29.7 30.6 29.7 30.6 29.7 30.6 29.7 30.6 29.7 30.6 29.7 30.6"/><rect x="28.4" y="32.4" height="0.08" transform="translate(-13 20.3) rotate(-32.4)"/><polygon points="30.6 28.7 30.6 28.7 30.5 28.9 30.5 28.9 30.6 28.7"/><path d="M25.2,30.4l.3-.3h0l-.3.3Z"/><polygon points="28.8 32.4 28.8 32.4 28.8 32.4 28.8 32.4 28.7 32.5 28.8 32.5 28.8 32.5 28.8 32.5 28.8 32.5 28.8 32.3 28.8 32.4"/><path d="M28.8,32.5Z"/><polygon points="28.7 32.5 28.7 32.5 28.7 32.5 28.7 32.5"/><rect x="28.8" y="32.5" transform="translate(-9 53.9) rotate(-78)"/><polygon points="28.7 32.5 28.7 32.5 28.7 32.5 28.7 32.5 28.7 32.5 28.7 32.5"/><polygon points="28.8 32.4 28.8 32.4 28.8 32.4 28.7 32.5 28.8 32.4 28.8 32.4 28.8 32.4"/><polygon points="28.7 32.5 28.7 32.5 28.8 32.5 28.7 32.5"/><path d="M28.8,32.3h0Z"/><path d="M28.8,32.5Z"/><polygon points="28.8 32.3 28.8 32.4 28.8 32.4 28.8 32.3"/><polygon points="28.8 32.5 28.8 32.5 28.8 32.5 28.8 32.5"/><path d="M28.8,32.3Z"/><polygon points="28.8 32.3 28.8 32.3 28.8 32.4 28.8 32.3"/><polygon points="28.8 32.5 28.8 32.5 28.8 32.5 28.8 32.5"/><path d="M28.8,32.5Z"/><polygon points="28.7 32.5 28.7 32.5 28.7 32.5 28.7 32.5"/><polygon points="30 31.8 30.1 31.6 30.1 31.6 30 31.8 30 31.8"/><polygon points="30.5 33.5 30.4 33.6 30.4 33.6 30.5 33.5 30.5 33.5"/><path d="M28.5,50.1h0a.5.5,0,0,1-.5-.3,20.6,20.6,0,0,0-2.3-3.7.6.6,0,0,1,.1-.8.6.6,0,0,1,.8.1,15.3,15.3,0,0,1,1.9,3l2.6-4.8a.6.6,0,0,1,.7-.2.7.7,0,0,1,.3.8L29,49.8A.5.5,0,0,1,28.5,50.1Z"/><path d="M29.6,49.7v.2h-.1v.2l-.3.2h-.3c.2,0,.3-.2.4-.3h.2v-.2h-.1l-.2.3a.9.9,0,0,1-.5.3l.4-.2h-.4c.1-.1,0-.1,0-.1h0l.3-.2h-.2c0-.1.1-.1.1-.2h-.2l.2-.3h0v-.3l-.2.2h0l.3-.6c.5-.8.9-1.7,1.4-2.6a.8.8,0,0,1,.2-.4l.4-.7v.3h0l.2-.4-.3.5-.3.5h0l.3-.5.6-1.1h.1c0-.1,0-.1-.1-.1h0v.2l-.3.6-.5.9a.8.8,0,0,0-.2.4l-.2.3h0l-.3.5a.8.8,0,0,0-.2.5h-.1c-.1.1-.1.1-.1.2h-.2a2.1,2.1,0,0,1-.3.7c0,.1-.1.2-.2.3a1.4,1.4,0,0,0-.2.6,2.5,2.5,0,0,1-.4-.7.1.1,0,0,0-.1-.1h0a1.7,1.7,0,0,0,.2.5l-.3-.6h0l.2.4-.6-1.1h-.1a1.1,1.1,0,0,0-.2-.5l-.4-.5h0l.3.5-.3-.3.2.3.3.4-.5-.7-.4-.5-.2-.2v-.2h0V46c.1,0,0-.1-.1-.2s.2.3.4.4h-.2l.3.4h0l.3.5h0l.3.5a.1.1,0,0,0,.1.1c0,.1.1.2.1.3a.3.3,0,0,1,.1.2h.1l.3.5-.3-.3a4.1,4.1,0,0,1,.5.9h0c-.1-.1-.1-.3-.2-.5l.4.9h.1c-.1,0-.1,0,0,.1h-.2v.2h-.1c-.2,0-.2-.2-.3-.3h0l.2.3h-.1l-.2-.2h0c0,.1.1.1.1.2h-.1v0H28l-.2-.3h0v-.1h-.1v.2h-.1c0-.1-.1-.2-.1-.3h-.1c0,.1.1.2.2.4h0c.1.1.1.1.1.2l.3.2-.3-.2a.3.3,0,0,1-.1-.2h-.1l-.2-.5h0v-.3c-.1,0-.1,0-.3-.3v-.2l-.2-.3h0l.2.3c-.2-.2-.3-.3-.3-.5h0l-.7-1v.2l-.5-.6-.2-.2c0-.1-.1-.2-.1-.3s-.1-.2-.1-.4.1.3.1.5.1,0,.1.1h.1c.1.2.2.2.3.3l.2.4a.3.3,0,0,0-.1-.2h0l-.3-.3v-.2a.5.5,0,0,1-.2-.4,1.2,1.2,0,0,1,.1-.8,1,1,0,0,1,.7-.4h.6l.3.2H27l.2.3.5.6.5.8-.3-.4h0l-.3-.4h0a1.8,1.8,0,0,1,.5.7v.2h.1c0,.1.1.1.1.2h0a.1.1,0,0,1,.1.1h.1c.1-.1.1-.3.2-.4h0l.3-.6-.3.5h0c.2-.4.5-.8.7-1.3l.4-.7-.2.3c0,.1-.1.2-.1.3h0l.2-.4h-.1l.5-.7v.2h0l.2-.3a.8.8,0,0,1,.2-.4l.2-.4v-.2a.2.2,0,0,1,.2-.2c.1-.2.4-.2.6-.2a.7.7,0,0,1,.6.2,1.1,1.1,0,0,1,.3.8v.2h-.1v.2l-.2.4a.4.4,0,0,0,.1-.3l.2-.2h0a.1.1,0,0,0,.1-.1c0-.1.1-.2.1-.3a1.1,1.1,0,0,0-.6-1,1.2,1.2,0,0,0-1,.1l-.2.2h0a1.1,1.1,0,0,1,.9-.4.9.9,0,0,1,.6.3,1.1,1.1,0,0,1,.3.7.6.6,0,0,1-.1.4h-.1l-.2.4-1,1.8-.6,1.2-.3.7v-.3a.4.4,0,0,1-.1.3l-.2.3a.4.4,0,0,1-.1.3.3.3,0,0,0-.1.2l-.2.4.2-.4.2-.5A5.6,5.6,0,0,1,29.6,49.7Zm-3.4-4h.1l.2.3.2.2v-.4l-.2-.2Zm.6.8-.3-.4h-.1l-.2-.3h0a.2.2,0,0,1,.2.2h0Zm3.7-.9h-.1Zm0-1.7-.2.4C30.5,44.1,30.5,44.1,30.5,43.9Zm1.1-.9a1.2,1.2,0,0,0-.8.4h0A1,1,0,0,1,31.6,43Zm-1.4,5.8v-.2h0v.2Z"/><polygon points="26.4 46 26.4 46 26.4 46 26.4 46 26.4 46 26.4 46 26.4 46 26.4 46 26.4 46"/><rect x="31.6" y="43.9" transform="translate(-21.1 56) rotate(-67.2)"/><polygon points="31.6 43.9 31.6 43.9 31.6 43.9 31.6 43.9"/><path d="M29.7,47.2h0Z"/><path d="M31.6,43.9Z"/><polygon points="29.6 45.8 29.5 45.8 29.5 45.8 29.6 45.8"/><polygon points="29.7 45.4 29.7 45.4 29.7 45.4 29.7 45.4"/><path d="M29.6,45.8Z"/><path d="M27.9,49.8h0l.2.2Z"/><path d="M30.8,45.4a2.1,2.1,0,0,0-.3.7l.8-1.6c.1-.1.1-.3.2-.4h0v.2l-.2.3-.3.6Z"/><path d="M29.5,47.5l-.3.7a2.8,2.8,0,0,0-.4.8l.9-1.7h0l-.3.6h0Z"/><path d="M27.8,50.2c-.1-.1-.2-.2-.2-.3v-.2l-.2-.3a.8.8,0,0,1,.2.5h.2A.1.1,0,0,0,27.8,50.2Z"/><path d="M28.5,47.6h0c0-.1,0-.2-.1-.2v.2Z"/><path d="M27.5,47.7h0l-.2-.4C27.4,47.4,27.4,47.6,27.5,47.7Z"/><path d="M28.8,47.1h0v.2h.1Z"/><rect x="28.7" y="47.3" transform="translate(-13.3 11.3) rotate(-18.1)"/><path d="M28.7,47.3Z"/><polygon points="28.7 47.3 28.7 47.3 28.7 47.3 28.7 47.3"/><polygon points="28.7 47.3 28.8 47.2 28.8 47.1 28.8 47.2 28.7 47.3 28.7 47.3"/><path d="M29.3,46.2c.1-.2.2-.3.2-.4h0Z"/><path d="M29.5,45.9h0Z"/><polygon points="29.5 45.8 29.5 45.8 29.5 45.8 29.5 45.8"/><polygon points="31.3 44.4 31 44.8 31.1 44.8 31.3 44.4 31.3 44.4"/><path d="M29.1,46.6c0-.1.1-.2.1-.4Z"/><polygon points="28.1 46.9 28.3 47.2 28.3 47.2 28.1 46.9 28.1 46.9"/><polygon points="29.8 46.9 30 46.6 30 46.6 29.8 46.9 29.8 46.9"/><path d="M29.2,46.5h.1v.2Z"/><path d="M29.5,45.8l.2-.4Z"/><polygon points="29.7 45.4 29.7 45.4 29.7 45.4 29.7 45.4"/><polygon points="29.7 45.4 29.7 45.4 29.7 45.4 29.7 45.4 29.7 45.4 29.7 45.4 29.7 45.4"/><rect x="28.4" y="47.2" height="0.08" transform="translate(-20.9 22.6) rotate(-32.4)"/><rect x="30.5" y="43.6" width="0.2" height="0.01" transform="translate(-22.3 36.9) rotate(-47.7)"/><path d="M25.2,45.2l.3-.2h0l-.3.2Z"/><polygon points="28.8 47.2 28.8 47.2 28.8 47.2 28.8 47.3 28.7 47.3 28.8 47.3 28.8 47.3 28.8 47.3 28.8 47.3 28.8 47.2 28.8 47.2"/><path d="M28.8,47.3Z"/><polygon points="28.7 47.3 28.7 47.3 28.7 47.3 28.7 47.3"/><rect x="28.8" y="47.3" transform="translate(-23.5 65.7) rotate(-78.1)"/><polygon points="28.7 47.3 28.7 47.3 28.7 47.3 28.7 47.3 28.7 47.3 28.7 47.3"/><polygon points="28.8 47.2 28.8 47.2 28.8 47.3 28.7 47.3 28.8 47.3 28.8 47.2 28.8 47.2"/><polygon points="28.7 47.3 28.7 47.3 28.8 47.3 28.7 47.3"/><path d="M28.8,47.2Z"/><path d="M28.8,47.3Z"/><polygon points="28.8 47.2 28.8 47.2 28.8 47.2 28.8 47.2"/><polygon points="28.8 47.3 28.8 47.3 28.8 47.3 28.8 47.3"/><path d="M28.8,47.2Z"/><polygon points="28.8 47.2 28.8 47.2 28.8 47.2 28.8 47.2"/><polygon points="28.8 47.3 28.8 47.3 28.8 47.3 28.8 47.3"/><path d="M28.8,47.3Z"/><polygon points="28.7 47.3 28.7 47.3 28.7 47.3 28.7 47.3"/><polygon points="30 46.7 30.1 46.5 30.1 46.5 30 46.7 30 46.7"/><polygon points="30.5 48.3 30.4 48.5 30.4 48.5 30.5 48.3 30.5 48.3"/><path d="M41.9,35.5H37.5a.6.6,0,0,1-.6-.6.6.6,0,0,1,.6-.5h0c8.7,0,17.6-.1,26.3-.5.4,0,.6.2.6.5s-.2.6-.5.6C56.6,35.4,49.2,35.5,41.9,35.5Z"/><path d="M44.1,36h-2c.4,0-.3-.1-.1-.1h.7c-.2,0-.2,0-.1-.1H43c-.4-.1-.4-.1.1-.1h-.2c-.3,0-.4,0-.2-.1H63.9s.1,0,0-.1H42.3c-.2.1.2.1.4.1H42a4.8,4.8,0,0,0-1.2,0h-.5c.5,0,.7,0,.7.1h-.4c.4,0,1,0,.9.1H37.2a1,1,0,0,1-.5-.4,1,1,0,0,1-.2-.7.8.8,0,0,1,.7-.8h0a.8.8,0,0,0-.7.8,1,1,0,0,1,.6-.8h4.2c1.4,0,2.8.1,4.2,0H64a1.2,1.2,0,0,1,.7.5c-.2-.2-.4-.4-.6-.4h.1a1,1,0,0,1,.6,1.1,1.2,1.2,0,0,1-.6.6c0,.1-.1.1-.2.1h-.5l-3.6.2h-3l-4.7.2H46.4a1.4,1.4,0,0,1-.9,0H44.1Zm2.4-1.2h0Zm2.7,0h0Zm13.6-.4h0Zm.5,1h1.1l-.4.2h-.7Zm-2.6.1h0Zm-14,.5h0Z"/><path d="M47.7,34.9Z"/><polygon points="60 34.6 60 34.6 60 34.6 60 34.6 60 34.6"/><polygon points="60 34.6 59.9 34.6 60 34.6 60 34.6"/><path d="M58.6,34.5h0Z"/><path d="M60,34.6h0Z"/><path d="M61.4,33.7h0Z"/><polygon points="62.3 33.6 62.3 33.6 62.3 33.6 62.3 33.6"/><path d="M61.4,33.7Z"/><path d="M40.4,35.6Z"/><path d="M63.5,34.5h0Z"/><path d="M57.9,34.6h0Z"/><path d="M40.8,35.9h0Z"/><path d="M55.1,33.9Z"/><path d="M37.5,34.9h0Z"/><path d="M57.9,33.8h0Z"/><rect x="57.1" y="33.8" transform="translate(16.8 86.6) rotate(-83.3)"/><path d="M56.9,33.8h0Z"/><polygon points="57.1 33.8 57.1 33.8 57.1 33.8 57.1 33.8"/><polygon points="57.1 33.8 57.9 33.8 57.1 33.8 57.1 33.8"/><path d="M60.3,33.7h0Z"/><path d="M61.1,33.7h0Z"/><path d="M61.3,33.7Z"/><path d="M63.4,34.5h0Z"/><path d="M59.1,33.7h0Z"/><polygon points="51.7 33.9 52.4 33.9 52.4 33.9 51.7 33.9 51.7 33.9"/><polygon points="59.4 34.5 60.2 34.5 60.2 34.5 59.4 34.5 59.4 34.5"/><path d="M59.4,33.7h0Z"/><path d="M61.3,33.6h0Z"/><polygon points="62.3 33.6 62.3 33.6 62.3 33.6 62.3 33.6"/><polygon points="62.3 33.6 62.3 33.6 62.2 33.6 62.3 33.6 62.3 33.6 62.3 33.6 62.3 33.6"/><rect x="52.8" y="33.9" width="0.5" transform="translate(-0.9 1.4) rotate(-1.5)"/><polygon points="62.6 35.5 62.5 35.5 62.9 35.5 62.9 35.5 62.6 35.5"/><rect x="44.4" y="33.9" width="0.4" transform="translate(-0.2 0.3) rotate(-0.4)"/><polygon points="57.7 33.8 57.7 33.8 57.1 33.8 57.1 33.9 57.1 33.9 57.1 33.9 57.1 33.9 57.7 33.8 57.7 33.8"/><polygon points="57.1 33.8 57.1 33.8 57.1 33.8 57.1 33.8"/><rect x="57.1" y="33.9" height="0.02" transform="translate(-3.2 6.1) rotate(-5.9)"/><polygon points="57.1 33.8 57.1 33.8 57.1 33.8 57.1 33.8 57.1 33.8 57.1 33.8"/><path d="M57.7,33.8h0Z"/><polygon points="57.1 33.8 57.1 33.8 57.1 33.9 57.1 33.8"/><path d="M57.7,33.8Z"/><path d="M57.1,33.9Z"/><polygon points="57.7 33.8 57.7 33.8 57.7 33.8 57.7 33.8"/><polygon points="57.1 33.9 57.1 33.9 57.1 33.9 57.1 33.9"/><path d="M57.7,33.8Z"/><polygon points="57.7 33.8 57.7 33.8 57.7 33.8 57.7 33.8"/><polygon points="57.1 33.9 57.1 33.9 57.1 33.9 57.1 33.9"/><path d="M57.1,33.9Z"/><polygon points="57.1 33.8 57.1 33.8 57.1 33.8 57.1 33.8"/><polygon points="60 34.5 60.5 34.5 60.5 34.5 60 34.5 60 34.5"/><polygon points="48 36.1 47.5 36.1 47.5 36.1 48 36.1 48 36.1"/><path d="M41.9,50.1H37.5a.6.6,0,0,1,0-1.2h0c8.7.1,17.6,0,26.3-.4a.5.5,0,0,1,.6.5.6.6,0,0,1-.5.6C56.6,49.9,49.2,50.1,41.9,50.1Z"/><path d="M44.1,50.6h-1a.5.5,0,0,1-.4,0h-.6c.4-.1-.3-.1-.1-.1h1c-.4-.1-.4-.1.1-.2h-.2c-.3,0-.4-.1-.2-.1h1.8c-.1,0-.3,0-.3-.1H63.9s.1-.1,0-.1h-2c-.4.1-.7.1-.8,0H41l.4.2h-.7c.4,0,.5,0,.5.1h-3c0,.1-.1.1-.2.1h-.6c-.1,0-.2,0-.2-.1a.7.7,0,0,1-.5-.4.7.7,0,0,1-.2-.6,1,1,0,0,1,.7-.9h0a1,1,0,0,0-.7.9.9.9,0,0,1,.6-.8h20c0,.1.2,0,.4,0h4.8c-.1,0-.1-.1.2-.1H64a1,1,0,0,1,.7.4l-.6-.4h.1a1,1,0,0,1,.6,1.1,1.2,1.2,0,0,1-.6.6h-18A14.7,14.7,0,0,0,44.1,50.6Zm2.4-1.2h0Zm2.7,0H45.5a4.3,4.3,0,0,0,1.6,0h2.1Zm13.6-.5h0Zm.5,1.1h.8c.2,0,.3-.1.3-.2a.4.4,0,0,1-.4.2h-.7Zm-2.6.1h0Zm-14,.5h0Z"/><path d="M47.7,49.4Z"/><polygon points="60 49.2 60 49.2 60 49.2 60 49.2 60 49.2"/><polygon points="60 49.2 59.9 49.2 60 49.2 60 49.2"/><path d="M58.6,49.1h0Z"/><path d="M60,49.2h0Z"/><path d="M61.4,48.2Z"/><polygon points="62.3 48.2 62.3 48.2 62.3 48.2 62.3 48.2"/><path d="M61.4,48.2Z"/><path d="M40.4,50.2Z"/><path d="M63.5,49.1h0Z"/><path d="M57.9,49.2h0Z"/><path d="M40.8,50.5h0Z"/><path d="M55.1,48.4Z"/><path d="M37.5,49.5h0Z"/><path d="M57.9,48.4h0Z"/><rect x="57.1" y="48.4" transform="translate(2.5 99.6) rotate(-83.4)"/><path d="M56.9,48.4h0Z"/><polygon points="57.1 48.4 57.1 48.4 57.1 48.4 57.1 48.4"/><polygon points="57.1 48.4 57.9 48.4 57.1 48.4 57.1 48.4"/><path d="M60.3,48.3h0Z"/><path d="M61.1,48.2h0Z"/><path d="M61.4,48.2h0Z"/><path d="M63.4,49.1h0Z"/><path d="M59.1,48.3h0Z"/><polygon points="51.7 48.5 52.4 48.5 52.4 48.5 51.7 48.5 51.7 48.5"/><polygon points="59.4 49.1 60.2 49.1 60.2 49.1 59.4 49.1 59.4 49.1"/><path d="M59.4,48.3h0Z"/><path d="M61.3,48.2h0Z"/><polygon points="62.3 48.2 62.3 48.2 62.3 48.2 62.3 48.2"/><polygon points="62.3 48.2 62.3 48.2 62.2 48.2 62.3 48.2 62.3 48.2 62.3 48.2 62.3 48.2"/><rect x="52.8" y="48.4" width="0.5" transform="translate(-1.3 1.4) rotate(-1.5)"/><polygon points="62.6 50.1 62.5 50.1 62.9 50.1 62.9 50.1 62.6 50.1"/><rect x="44.4" y="48.4" width="0.4" transform="translate(-0.3 0.3) rotate(-0.4)"/><polygon points="57.7 48.4 57.7 48.4 57.1 48.4 57.1 48.4 57.1 48.4 57.1 48.4 57.1 48.4 57.7 48.4 57.7 48.4"/><polygon points="57.1 48.4 57.1 48.4 57.1 48.4 57.1 48.4"/><rect x="57.1" y="48.4" height="0.02" transform="translate(-4.6 6.1) rotate(-5.9)"/><polygon points="57.1 48.4 57.1 48.4 57.1 48.4 57.1 48.4 57.1 48.4 57.1 48.4"/><path d="M57.7,48.4h0Z"/><polygon points="57.1 48.4 57.1 48.4 57.1 48.4 57.1 48.4"/><path d="M57.7,48.4Z"/><path d="M57.1,48.4Z"/><polygon points="57.7 48.4 57.7 48.4 57.7 48.4 57.7 48.4"/><polygon points="57.1 48.4 57.1 48.4 57.1 48.4 57.1 48.4"/><path d="M57.7,48.4Z"/><polygon points="57.7 48.4 57.7 48.4 57.7 48.4 57.7 48.4"/><polygon points="57.1 48.4 57.1 48.4 57.1 48.4 57.1 48.4"/><path d="M57.1,48.4Z"/><polygon points="57.1 48.4 57.1 48.4 57.1 48.4 57.1 48.4"/><polygon points="60 49.1 60.5 49.1 60.5 49.1 60 49.1 60 49.1"/><polygon points="48 50.6 47.5 50.7 47.5 50.7 48 50.6 48 50.6"/><path d="M42.3,64.6H37.9a.6.6,0,0,1-.6-.5.6.6,0,0,1,.6-.6h0c8.7.1,17.6-.1,26.3-.5a.6.6,0,0,1,.6.6.6.6,0,0,1-.5.6C57,64.5,49.6,64.6,42.3,64.6Z"/><path d="M44.5,65.1h-2c.4,0-.3,0-.1-.1h.1c-.2-.1-.1-.1.2-.1h.7c-.4,0-.4,0,.1-.1h-.2c-.3-.1-.4-.1-.2-.1h3.3l6.8-.2h-.5a6.4,6.4,0,0,0-1.4,0H41c.4,0,1,0,.9.1H37.6a.8.8,0,0,1-.7-1,1,1,0,0,1,.7-.9h0a1,1,0,0,0-.7.9,1.1,1.1,0,0,1,.6-.9h5.4a2.2,2.2,0,0,1-.8,0h-1c-.1,0,0,.1.3.1H58.1l3.3-.2h2.8c.1-.1.1-.1.2,0a.7.7,0,0,1,.6.4,1,1,0,0,0-.5-.4h.1a1,1,0,0,1,.6,1,1.3,1.3,0,0,1-.6.7H61l-3.7.2H44.5ZM46.9,64h0Zm2.7,0h0Zm13.6-.5h0Zm.5,1h.8c.1-.1.3-.1.3-.2l-.4.2h-.7Zm-2.6.1h0Zm-14,.5h0Z"/><path d="M48.1,64Z"/><polygon points="60.4 63.8 60.4 63.8 60.3 63.8 60.3 63.8 60.4 63.8"/><polygon points="60.3 63.8 60.3 63.8 60.4 63.8 60.3 63.8"/><path d="M58.9,63.7h0Z"/><path d="M60.3,63.8h0Z"/><path d="M61.8,62.8h0Z"/><polygon points="62.7 62.7 62.7 62.7 62.7 62.7 62.7 62.7"/><path d="M61.8,62.8Z"/><path d="M40.8,64.7Z"/><path d="M63.9,63.7h0Z"/><path d="M58.3,63.7h0Z"/><path d="M41.2,65.1h0Z"/><path d="M55.5,63Z"/><path d="M37.9,64.1Z"/><path d="M58.2,62.9Z"/><rect x="57.5" y="63" transform="translate(-11.7 112.7) rotate(-83.3)"/><path d="M57.3,63h0Z"/><polygon points="57.5 63 57.5 63 57.5 63 57.5 63"/><polygon points="57.5 63 58.2 62.9 57.5 63 57.5 63"/><path d="M60.7,62.8h0Z"/><path d="M61.4,62.8h0Z"/><path d="M61.7,62.8Z"/><path d="M63.8,63.7h0Z"/><path d="M59.5,62.8h0Z"/><polygon points="52.1 63.1 52.8 63.1 52.8 63 52.1 63.1 52.1 63.1"/><polygon points="59.8 63.7 60.6 63.6 60.6 63.6 59.8 63.7 59.8 63.7"/><path d="M59.8,62.9h0Z"/><path d="M61.6,62.8h0Z"/><polygon points="62.6 62.7 62.6 62.7 62.6 62.7 62.6 62.7"/><polygon points="62.6 62.7 62.6 62.7 62.6 62.7 62.6 62.7 62.7 62.7 62.6 62.7 62.6 62.7"/><rect x="53.2" y="63" width="0.5" transform="translate(-1.6 1.4) rotate(-1.5)"/><polygon points="62.9 64.6 62.9 64.7 63.3 64.6 63.3 64.6 62.9 64.6"/><rect x="44.8" y="63" width="0.4" transform="translate(-0.4 0.3) rotate(-0.3)"/><polygon points="58 63 58.1 63 57.5 63 57.5 63 57.5 63 57.5 63 57.5 63 58.1 63 58 63"/><path d="M57.5,63Z"/><polygon points="57.5 63 57.5 63 57.5 63 57.5 63"/><rect x="57.5" y="63" height="0.02" transform="translate(-6.2 6.3) rotate(-5.9)"/><polygon points="57.5 63 57.5 63 57.5 63 57.5 63 57.5 63 57.5 63"/><path d="M58.1,63h0Z"/><polygon points="57.5 63 57.5 63 57.5 63 57.5 63"/><path d="M58.1,63Z"/><path d="M57.5,63Z"/><polygon points="58.1 63 58.1 63 58 63 58.1 63"/><polygon points="57.5 63 57.5 63 57.5 63 57.5 63"/><path d="M58.1,63Z"/><polygon points="58.1 63 58.1 63 58 63 58.1 63"/><polygon points="57.5 63 57.5 63 57.5 63 57.5 63"/><path d="M57.5,63Z"/><polygon points="57.5 63 57.5 63 57.5 63 57.5 63"/><polygon points="60.4 63.7 60.9 63.7 60.9 63.6 60.4 63.7 60.4 63.7"/><polygon points="48.4 65.2 47.9 65.2 47.9 65.2 48.4 65.2 48.4 65.2"/><g class="cls-4"><path d="M62,14.1a.8.8,0,0,0-.7-.8c-.7-.2-1.2.5-1.2,1.1s-.3.8-.2.8l-.3.5c0,.2-.4.7-.5.9l-.3.3-1.1.7-1.7.5a4.2,4.2,0,0,1-1.5.4l-2.2.3H49.6l-5.9.2-6-.3a13.8,13.8,0,0,1-4.5-.9h-.1a7.7,7.7,0,0,0-1.6-.7,1.1,1.1,0,0,0-.7,2,17.5,17.5,0,0,0,5.3,2.2,45.5,45.5,0,0,0,5.3.4h4.2a23.4,23.4,0,0,0,4.2-.3l3.2-.4,2.5-.4,3.2-1.1a3.8,3.8,0,0,0,1.3-.9l-.3.2a3.6,3.6,0,0,0,1.2-1.3,8.5,8.5,0,0,0,1-2.7C61.9,14.6,62.1,14.4,62,14.1Z"/></g><g class="cls-4"><path d="M33.2,17.9h0Z"/></g><g class="cls-4"><path d="M72.3,68.6c-.2-2.3-.1-4.6-.3-6.8s-.6-6.7-.7-10c0-1.8-.4-3.6-.4-5.4s.1-5.5.2-8.3,0-7.6.3-11.4c0-2.1.1-4.2.3-6.4a14.8,14.8,0,0,0,.1-2.1v-.3s.1-.2,0-.3a1,1,0,0,0-.7-.9c-2-.3-1.4,2.9-1.7,4.3s-.2,4.2-.3,6.3c-.4,3.9,0,7.8-.1,11.8s-.1,5.4-.1,8.1.3,2.7.3,4.1.3,5.4.3,8.1.3,7.2.4,10.8.3,6.6.2,9.9a4.1,4.1,0,0,1-.2,1.5,19.7,19.7,0,0,0-3.6-.1H57.2l-6.7.3H40.3a19.7,19.7,0,0,0-4.2-.1c-3.3.2-6.6,0-9.9-.1a25.7,25.7,0,0,0-4.8,0l-1.1-.2a1,1,0,0,0-.9.2,1.2,1.2,0,0,0,.3,2.3c2.1.5,4.3.2,6.4.4l8.5.2h5.7c6.1.1,12.1.1,18.2-.3,3.4-.2,6.8,0,10.2-.2a8.8,8.8,0,0,0,2.3,0,1.2,1.2,0,0,0,.9-.9.8.8,0,0,0,.2-.5,19.9,19.9,0,0,0,.6-4.9A88.3,88.3,0,0,0,72.3,68.6Z"/><path d="M72.1,78.1a9.7,9.7,0,0,0,.1-1.8V73.8a18.8,18.8,0,0,1-.1-1.9V70.5c0,1,.1,2,.2,3.3a26.6,26.6,0,0,1,0,4h.1c.1-2.6-.1-5.2-.3-8.5l.2,3.1V69.6c.1,1.6-.1-1.4,0-.7l.2,2.6-.2-2.9.2,1.4v-.5c0-.9,0-.5.1.8a26.8,26.8,0,0,1,.2,3.4V71.8h0V72c0,.1.1.6.2,1.6-.1-.8-.1-1.6-.2-2.5v1.6c0-1,0-1.3.1-.6s.2,2.3.2,3.5a10.9,10.9,0,0,1-.1,1.8v3.1c-.1.5-.2,1.1-.4,1.9a20,20,0,0,0,.5-2.7c0-.5,0-1.3.1-1.2a8.3,8.3,0,0,1-.1,1.2,11.1,11.1,0,0,1-.2,1.7c0,.3-.1.6-.1.8l-.2.5a.4.4,0,0,1-.1.3h-.1v.3l-.3.4-.4.3-.3.2H58.6l-3.6.2c-4.9.2-9.7.2-14.5.1H23.3a17.7,17.7,0,0,1-3.2-.2h-.8a2.4,2.4,0,0,1-.8-.6,2.6,2.6,0,0,1-.3-1.3,1.3,1.3,0,0,1,.3-.8l.2-.2.2-.2H19l.6-.2h6.3c-1.2-.1-2.3,0-3.5,0h.1c1.1,0,2.2-.1,3.2,0h9.8c-1.4,0-2.7.1-4,0H69.6V81a.9.9,0,0,0,.1-.5v-1h0V77.8c0-1.4,0-2.7-.1-4.2V67.2c-.1-2.6-.2-5.1-.3-7.3v-.5a11.5,11.5,0,0,1-.1-1.9h0v1.2a4.9,4.9,0,0,0,.1,1.2,10.9,10.9,0,0,1-.1-1.8V56.3c-.1-1.1-.1-2.3-.2-3.5V49.9a11,11,0,0,1-.2-1.8v-.6c0,.8.1,1.7.2,2.7a19.5,19.5,0,0,1-.2-2.5V45.4c0-1.5,0-3,.1-4.4V37.8c0-1,0-2.1-.1-3.2V29.7c0-.9.1-1.8.1-2.6s.1-3.4.2-5.2c.1-.3.1-.6.2-1v-.8a11.5,11.5,0,0,0,.1-1.9l.3-1.1.4-.5.6-.4h1l.4.2.4.5a.9.9,0,0,1,.3.7h0v.3h0a15.5,15.5,0,0,0-.1,2.2,1.3,1.3,0,0,1-.1.6v.5c0,.4-.1.7-.1,1.1s0,0,.1-.5.1-1,.1-1.3c-.2,1.6-.2,3-.3,5.1a12.8,12.8,0,0,1,.1-2.2,15.5,15.5,0,0,0-.1,2.3v.8h0v1.7a9.2,9.2,0,0,1,.1-1.6v.5c-.2,2-.2,4.1-.3,6.3h0v9c0,.8-.1,1.9-.1,2.6V46a2.5,2.5,0,0,1,.1.8c0,.8.1,1.6.1,2.5a21.1,21.1,0,0,1,.2,2.5c0-1.2-.2-2.4-.3-3.7a19.4,19.4,0,0,0,.2,2.4v1.2c0,.4.1.8.1,1.2l.3,4.6h0c-.1-1-.1-1.9-.2-2.9s-.1-2-.1-2.9a21.8,21.8,0,0,0,.1,2.5,19.4,19.4,0,0,0,.2,2.4c.1,1.7.2,3.4.4,5.1s.1,1.8.1,2.3v1a7.6,7.6,0,0,0-.1,1.6,10.6,10.6,0,0,0,.1,1.5c-.1-1.3-.2-2.5-.2-4v1.2c0-.7-.1-1.4-.1-2.1a20.1,20.1,0,0,0,.1,2.5c0,.8,0,1.4-.1,1.2V65.6c-.1-1.4-.1-2.8-.2-4.3h0c0,1.1.1,2.2.1,3.4s.1,2.5.2,3.9a17.4,17.4,0,0,1-.1-1.8V64.4a20.3,20.3,0,0,0-.1-2.2h0c0,.4.1.8.1,1.6-.1-1-.1-1.7-.2-3,0,1.2.1,1.8.1,2.8a9.1,9.1,0,0,0-.1-1.7v0h0c-.1-1-.2-2-.3-3.3a26.4,26.4,0,0,1,.2,2.8l-.2-1.9.2,2.8a3.1,3.1,0,0,0-.1-1,24.8,24.8,0,0,0-.2-2.9l-.2-1.6c.2,1.6.3,3.2.4,4.7s.1,2.9.2,4.6V63.6a22.9,22.9,0,0,0-.2-2.5c-.1-1.6-.2-3.3-.4-5v.3l-.3-3.5v-.7a4.3,4.3,0,0,1-.1-.5v-.6a14.2,14.2,0,0,0-.1-1.9c-.1-.5-.1-1-.2-1.6V43.2h0V46a43.4,43.4,0,0,1,.1-5.1v-.5c0-1,.1-1.9.1-2.8V34.9c0-1.9,0-3.8.1-5.7,0,.5-.1.9-.1,1.4,0-1.1.1-2.2.2-3.3v-.6h0v-.8a8.1,8.1,0,0,1,.1-1.6,16.7,16.7,0,0,1,.2-3.2v-.8a1.7,1.7,0,0,0,.1-.7V17.9h0a.3.3,0,0,0-.3-.3.3.3,0,0,1,.3.3h0v1.7a2.2,2.2,0,0,1-.1.8v.8a22.3,22.3,0,0,0-.2,3.7v1.7h0c0,.7-.1,1.4-.1,2.1s0-.2.1-1.5v-.6h0c0-1.5,0-2.9.1-4.4s.1-.7.1-1.1v-1c.1-.7,0-1.4.1-2.2h0c0-.1-.2-.3-.4-.4h-.6a.8.8,0,0,0-.3.7,4.1,4.1,0,0,0-.1,1.1v2.3c-.1.7-.1,1.4-.2,2.2V26a3.7,3.7,0,0,1-.1,1.1,57.7,57.7,0,0,0-.1,7.2c0,1.2.1,2.5,0,3.7v3.6c0,1.6-.1,3.3-.1,4.9v1.2c0,.4.1.8.1,1.2a21.1,21.1,0,0,1,.2,2.5,24.5,24.5,0,0,0-.2-2.7,6.6,6.6,0,0,1-.1-1.4v-.7c-.1-1.7,0-3.9,0-5.7v1.2c0,1.4-.1,2.7-.1,4.1v1c0,.3.1.7.1,1a14.9,14.9,0,0,0,.2,2.1v2a13.4,13.4,0,0,1,.1,2c.1,1.4.1,2.7.2,4v2.1c.1,1.4.1,3,.1,3.9v5.3c0,.5.1,1.1.1,1.6v1.6h0v1.6c.1,2.2.1,4.5.1,6.1V75.2h0v5.7c-.1,0-.1.1-.1.2v.8h-12a29.5,29.5,0,0,0-4.2.1h1.9l-4.2.2H40.7l-3.8-.2H19.5a.1.1,0,0,1-.1.1h-.1a1.1,1.1,0,0,0-.1.8c0,.3.3.5.5.6l1.2.2h1.3l-1.5-.2H19.4a1.2,1.2,0,0,1-.2-1,1.2,1.2,0,0,1,.9-.5h6.4l6.3.2H19.5c-.1.1-.2.2-.2.3s-.1.4-.1.6a1,1,0,0,0,.4.5H43.3c4.7.1,9.5,0,14.3-.3H71.3v-.2h.2v-.2c.1,0,.1-.1.1-.2s.1-.4.1-.6.1-.7.2-1.1.1-1.5.1-2.3A16.2,16.2,0,0,1,72,80a13.3,13.3,0,0,1-.3,2.1.4.4,0,0,0-.1.3l-.2.2v.2h-.1l-.3.2h-.1c.1,0,.1,0,.1-.1h.1c.1-.1.2-.1.2-.2v-.2h0v-.2h.3a4.3,4.3,0,0,1,.1-.5,5,5,0,0,0,.2-1.2A17.7,17.7,0,0,0,72.1,78.1ZM68.6,27.6c-.2,2.3-.1,4.4-.1,6.5s.1,2.3.1,3.3V29.8A16.2,16.2,0,0,0,68.6,27.6Zm-.1,11.7c.1-1.4,0-3,0-4.5V33.1h0v-.8a43.4,43.4,0,0,1,.1-5.1c.1-1.7,0-3.4.2-5.2,0,.5-.1,1-.1,1.4s0,2.2-.1,3.3-.1,1.1-.1,1.7a12.1,12.1,0,0,1-.1,1.8V33h0ZM54.7,81.1h0ZM39.8,82h0ZM29,81.9h0Zm37.5,1.5h0Z"/><path d="M68.4,33.1v-.2h0Z"/><path d="M26,80.9Z"/><path d="M26,80.9h0Z"/><path d="M69.7,78.9v0Z"/><path d="M26,80.9h0Z"/><path d="M60.6,81.8Z"/><polygon points="56.8 81.8 56.8 81.8 56.8 81.8 56.8 81.8"/><path d="M60.6,81.8Z"/><path d="M71.9,62.2h0a20.3,20.3,0,0,1,.1,2.2A20.3,20.3,0,0,0,71.9,62.2Z"/><path d="M51.6,81.1l3.7-.2H51.6Z"/><path d="M69.6,76.1c0-1.8-.1-3.5-.2-5.2v-3a8.1,8.1,0,0,1-.1-1.5v3.1c.1.3,0,.6.1.8v2.4c.1,2.1.1,4.1.1,6.1h0a48.7,48.7,0,0,0-.1-5.4h.1Z"/><path d="M71.7,64.1c0-.8-.1-1.6-.1-2.4a16.4,16.4,0,0,1-.2-2.2L71,55.3C71.3,59.1,71.7,63.2,71.7,64.1Z"/><path d="M70.1,64.3h0c0-1.1-.1-2.2-.1-3.3V59.2c0-.7-.1-1.3-.1-2s.1,1.3.1,2A10.9,10.9,0,0,0,70,61C70,62.1,70.1,63.2,70.1,64.3Z"/><path d="M71.5,42.3h.1c0-1.5.1-2.9.1-4.4C71.7,39.3,71.6,40.6,71.5,42.3Z"/><path d="M70.4,76h.1c-.1-1.4-.1-2.8-.2-4v.9C70.4,73.9,70.4,74.9,70.4,76Z"/><rect x="70.3" y="72.8" transform="translate(-0.5 0.5) rotate(-0.4)"/><path d="M70.3,71.9v.9h0Z"/><polygon points="70.3 72.8 70.3 72.8 70.3 72.8 70.3 72.8"/><path d="M70.3,72.8c.1,1.1.1,2.1.1,3.2,0-1.1,0-2.1-.1-3.2Z"/><path d="M64.9,81.8h0Z"/><path d="M61.9,81.8h0Z"/><path d="M60.6,81.8h0Z"/><polygon points="40.5 81.2 45.1 81.2 45.1 81.2 40.5 81.2 40.5 81.2"/><path d="M70.2,81.7V82h0Z"/><path d="M69.5,50v2.8h0V51.4a5.7,5.7,0,0,1-.1-1.3Z"/><path d="M69.1,81.1h0Z"/><path d="M68.9,81.8h0Z"/><path d="M61,81.8h0Z"/><path d="M56.8,81.8Z"/><path d="M56.8,81.8Z"/><polygon points="69.7 54.7 69.8 56.9 69.8 56.9 69.7 54.7 69.7 54.7"/><path d="M36.8,82Z"/><path d="M70,19a12.8,12.8,0,0,1-.1,1.9h0A12.8,12.8,0,0,0,70,19Z"/><path d="M70.4,75.1h0c0-.8-.1-1.6-.1-2.4h0c0,.8.1,1.6.1,2.5Z"/><path d="M70.3,72.8Z"/><polygon points="70.3 72.8 70.3 72.8 70.3 72.8 70.3 72.8"/><rect x="70.3" y="72.8" width="0.1" transform="translate(-4.5 4.7) rotate(-3.7)"/><polygon points="70.3 72.8 70.3 72.8 70.3 72.8 70.3 72.8 70.3 72.8 70.3 72.8"/><path d="M70.4,75.2c0-.8-.1-1.6-.1-2.4C70.3,73.6,70.4,74.4,70.4,75.2Z"/><path d="M70.3,72.8Z"/><path d="M70.4,75.2Z"/><path d="M70.3,72.8Z"/><polygon points="70.4 75.2 70.4 75.2 70.4 75.1 70.4 75.2"/><polygon points="70.3 72.8 70.3 72.8 70.3 72.8 70.3 72.8"/><path d="M70.4,75.3h0Z"/><polygon points="70.4 75.3 70.4 75.2 70.4 75.1 70.4 75.3"/><path d="M70.3,72.8Z"/><path d="M70.3,72.8Z"/><polygon points="70.3 72.8 70.3 72.8 70.3 72.8 70.3 72.8"/><path d="M66.4,81h0Z"/><path d="M61.1,83.3h0Z"/></g><path d="M31.9,65.3h-6a.6.6,0,0,1-.6-.5v-6a.6.6,0,0,1,.6-.6h6c.3,0,.5.2.5.6v6A.5.5,0,0,1,31.9,65.3Zm-5.5-1.1h4.9V59.3H26.4Z"/><path d="M26.9,63.4v.4h-.1v-.6h0v.7c0-.1,0,.1-.1.1v0h-.1v-.3h0c-.1,0-.1,0-.1-.1s-.1.2-.1,0V64h0c-.1,0-.1.1-.2,0v-.6h0v0h0v-.5a19.3,19.3,0,0,0-.1-2.4V59.3h0v-.5h0v1.4h0V58.8h5.8v.5h0v.2h0v.3h0v.5a.6.6,0,0,1,0,.6h0c.1,0,.1-.1.1-.2v.3h0v.4h0c-.1.1,0,.3-.1.5v.5h.1v-.4c-.1-.1-.1-.2-.1-.4a2.2,2.2,0,0,1,.1.8v2h-5c-.2,0-.4,0-.3-.1h4.3V62.4H31v.5h0V61.3h0v-.4h0v-.5h0v0h0v-.4H26.9v2.3a.4.4,0,0,1,.1.3v1c0-.1-.1-.2,0-.3s-.1-.3-.1-.4Zm4.9.6v-.7c0-.2,0-.2-.1-.3v.3h0v.2h0A.4.4,0,0,0,31.8,64Zm0-1.1v.4h0v1.2h0v-1h0Zm-1.6-4h0Zm-1.2.8h0Zm-.9,0h0Zm-1.2,2.8h0Z"/><polygon points="31.8 63.4 31.8 63.4 31.8 63.4 31.8 63.4 31.8 63.4 31.8 63.4 31.8 63.4 31.8 63.4 31.8 63.4"/><rect x="27.8" y="58.8" transform="translate(-34.6 77.1) rotate(-81)"/><polygon points="27.8 58.8 27.8 58.8 27.8 58.8 27.8 58.8"/><path d="M31.7,59.5v-.2h0Z"/><path d="M27.8,58.8Z"/><polygon points="30.7 59.7 30.7 59.7 30.7 59.7 30.7 59.7"/><polygon points="30.3 59.7 30.3 59.7 30.3 59.7 30.3 59.7"/><path d="M30.7,59.7Z"/><path d="M27,64.1Z"/><path d="M29.9,58.7h0Z"/><path d="M31.8,59.8v-.4h0v.7h0Z"/><path d="M26.8,63.8h0Z"/><path d="M31,60.8h-.1a1.3,1.3,0,0,0,.1.6Z"/><path d="M28.6,64.8Z"/><path d="M31,59.9h0v.3h0Z"/><rect x="31" y="60.1" transform="translate(-36.5 65.2) rotate(-67)"/><path d="M31,60.2h0Z"/><polygon points="31 60.1 31 60.1 31 60.1 31 60.1"/><polygon points="31 60.1 31 59.9 31 60.1 31 60.1"/><path d="M30.8,59.7h0a.1.1,0,0,0-.1.1h.1Z"/><path d="M30.7,59.7Z"/><polygon points="30.7 59.7 30.7 59.7 30.7 59.7 30.7 59.7"/><polygon points="29 58.8 29.4 58.8 29.4 58.8 29 58.8 29 58.8"/><path d="M30.9,59.7Z"/><polygon points="31 62 31 61.8 30.9 61.8 30.9 62 31 62"/><polygon points="31.8 58.9 31.8 58.9 31.4 58.9 31.4 58.9 31.8 58.9 31.8 58.9 31.8 58.9"/><path d="M31,59.7h0c0-.1,0-.1-.1-.1H31Z"/><path d="M30.7,59.7h0Z"/><polygon points="30.3 59.7 30.3 59.7 30.3 59.7 30.3 59.7"/><polygon points="30.3 59.7 30.3 59.7 30.4 59.7 30.3 59.7 30.3 59.7 30.3 59.7 30.3 59.7"/><rect x="30.9" y="61.4" height="0.18" transform="translate(-0.7 0.3) rotate(-0.6)"/><polygon points="28.7 59.8 28.7 59.8 28.8 59.8 28.8 59.8 28.7 59.8"/><rect x="30.7" y="63.7"/><polygon points="31 60 31 60 31 60.1 31 60.2 31 60.1 31 60.1 31 60.1 31 59.9 31 60"/><polygon points="31 60.1 31 60.1 31 60.1 31 60.1"/><rect x="31" y="60.1" transform="translate(-11.8 7.7) rotate(-12)"/><polygon points="31 60.1 31 60.1 31 60.1 31 60.1 31 60.1 31 60.1"/><path d="M31,60h0Z"/><polygon points="31 60.1 31 60.1 31 60.2 31 60.1"/><path d="M31,60Z"/><path d="M31,60.2Z"/><polygon points="31 60 31 60 31 60 31 60"/><polygon points="31 60.2 31 60.2 31 60.1 31 60.2"/><path d="M31,59.9h0Z"/><polygon points="31 59.9 31 60 31 60 31 59.9"/><polygon points="31 60.2 31 60.1 31 60.1 31 60.2"/><path d="M31,60.1h0Z"/><polygon points="31 60.1 31 60.1 31 60.1 31 60.1"/><polygon points="31.5 58.8 31.2 58.8 31.2 58.8 31.5 58.8 31.5 58.8"/><polygon points="27 62.1 27 62.2 27 62.2 27 62.1 27 62.1"/><path d="M32.9,64.5v.3a1.1,1.1,0,0,1-.1.5l-.3.2h-.3a.8.8,0,0,0,.4-.4.4.4,0,0,0,.1-.3h0a.6.6,0,0,1-.1.4.9.9,0,0,1-.6.4c.2-.1.3-.1.4-.3a.5.5,0,0,1-.4.2c.1-.1.1-.1,0-.1h.1c.1-.1.2-.1.3-.3l-.2.2c-.1,0-.1,0,0-.1h-.1v-.2H32a.1.1,0,0,1,.1-.1h0v-.2H32v0h0v-.8c0-1.1,0-2.2-.1-3.3a1.3,1.3,0,0,1,.1-.6v-.5h0V60h0V58.8h-6c-.1,0-.1,0-.1.1h-.1v.9a1.1,1.1,0,0,1,0,.8h0c.1,0,.1-.2.1-.3v.4h0v.6h0c-.1.1-.1.5-.1.7v.7h.1V61.7a1.7,1.7,0,0,1,0,1c0,.3.1.5.1.8v1.2h.6c.1-.1-.1-.1-.2-.1h5c.1,0,.4,0,.4.1H25.6l-.4-.2a1.1,1.1,0,0,1-.3-.8v-.3h0V62.2h0a1.3,1.3,0,0,1,.1.6h0V59h0v-.2h0a.3.3,0,0,0,.1-.2.8.8,0,0,1,.4-.4l-.3.3a.8.8,0,0,0-.2.4h0a.8.8,0,0,1,.7-.8h6.5l.5.5-.3-.4h-.5a.9.9,0,0,1,.7.3.8.8,0,0,1,.2.5c.1,0,.1.1.1.2h0v3.8c.1.1.1.2.1.4v.8h0v.1c0-.3-.1-.4-.1-.6Zm-7.1-.2v-.8c0-.3,0-.2-.1-.4v.6A1.1,1.1,0,0,0,25.8,64.3Zm0-1.4v.7h0v.9h0v-1h0Zm1.7-4.3h0Zm1.7-.8h-.5C28.9,57.9,28.9,57.9,29.2,57.8Zm1.2.1a.8.8,0,0,0-.7,0h.7ZM33,63.3v-.2h-.1v.2Z"/><polygon points="25.8 63.6 25.8 63.6 25.8 63.6 25.8 63.6 25.8 63.6 25.8 63.6 25.8 63.6 25.8 63.6 25.8 63.6"/><polygon points="30.8 58.7 30.8 58.7 30.8 58.7 30.8 58.7 30.8 58.7"/><polygon points="30.8 58.7 30.8 58.7 30.8 58.7 30.8 58.7"/><path d="M25.8,58.7h0Z"/><path d="M30.8,58.7h0Z"/><polygon points="26.8 57.9 26.8 57.9 26.8 57.9 26.8 57.9"/><polygon points="27.2 57.8 27.2 57.8 27.2 57.8 27.2 57.8"/><path d="M26.8,57.9Z"/><path d="M31.1,65.4Z"/><path d="M27.8,58.8h0Z"/><path d="M25.8,58.8h0v0h0V59h0Z"/><path d="M31.4,65.7h0Z"/><path d="M25,60h-.1v0Z"/><path d="M28.8,64.8h0Z"/><path d="M25,58.6h0v.2h0v.2h0v-.2Z"/><rect x="25" y="59" transform="translate(-38.8 65.8) rotate(-73.1)"/><path d="M25,59.1h0Z"/><polygon points="25 59 25 59 25 59 25 59"/><path d="M25,59h0v-.2h0v.2Z"/><path d="M26.3,57.9h0Z"/><path d="M26.6,57.8h0Z"/><polygon points="26.8 57.9 26.8 57.9 26.8 57.9 26.8 57.9"/><polygon points="29.1 58.7 28.6 58.7 28.6 58.7 29.1 58.7 29.1 58.7"/><path d="M25.6,57.9h0Z"/><polygon points="25 61.7 24.9 61.4 24.9 61.4 24.9 61.7 25 61.7"/><rect x="25.9" y="58.6" width="0.3" height="0.01" transform="translate(-0.1 0.1) rotate(-0.1)"/><path d="M25.8,57.9h0Z"/><path d="M26.7,57.8h0Z"/><polygon points="27.2 57.8 27.2 57.8 27.2 57.8 27.2 57.8"/><polygon points="27.2 57.8 27.2 57.8 27.2 57.8 27.2 57.8 27.2 57.8 27.2 57.8 27.2 57.8"/><rect x="24.9" y="60.9" height="0.26" transform="translate(-0.5 0.2) rotate(-0.4)"/><polygon points="29.5 57.8 29.5 57.8 29.4 57.8 29.4 57.8 29.5 57.8"/><path d="M25.2,65.6l-.3-.3h0l.3.3Z"/><polygon points="25 58.8 25 58.7 25 59 25 59 25 59 25 59 25 59 25 58.7 25 58.8"/><polygon points="25 59 25 59 25 59 25 59"/><rect x="25" y="59" transform="translate(-8.6 4.4) rotate(-8.6)"/><polygon points="25 59 25 59 25 59 25 59 25 59 25 59"/><path d="M25,58.7v0Z"/><polygon points="25 59 25 59 25 59 25 59"/><path d="M25,58.7Z"/><path d="M25,59Z"/><polygon points="25 58.7 25 58.7 25 58.8 25 58.7"/><polygon points="25 59 25 59 25 59 25 59"/><path d="M25,58.7Z"/><polygon points="25 58.7 25 58.7 25 58.8 25 58.7"/><polygon points="25 59 25 59 25 59 25 59"/><path d="M25,59Z"/><polygon points="25 59 25 59 25 59 25 59"/><polygon points="26.1 58.7 26.3 58.7 26.4 58.7 26.1 58.7 26.1 58.7"/><polygon points="33 62.7 33 62.9 33.1 62.9 33 62.7 33 62.7"/></svg>