<svg id="project" xmlns="http://www.w3.org/2000/svg" viewBox="0 0 340.1 319.9"><defs><style>.cls-1,.cls-3{fill:#fff;}.cls-2,.cls-3{fill-rule:evenodd;}.cls-4{fill:#0370c8;}.cls-5{fill:#33bff0;}.cls-6{fill:#0f5094;}.cls-7{fill:#0883d9;}</style></defs><path d="M303.4,29.3l-6.3-2.4s-3.5,6.3-5.3,9.7h-.4l-5.6-1.2c-4.4-.7-10.5-1.7-13.9,2.1s-4,11.6-4.7,17.3a34.3,34.3,0,0,0-.2,6.4c0,1.9-.1,4.1.6,5.8s5.2,3.7,7.5,4.3a120,120,0,0,0,13.4,1.9c2.6.2,5.4.7,8,.2,5.1-.8,6.4-5.6,7.5-10s1.6-6.5,2.3-9.8a49.1,49.1,0,0,0,.8-6.7c.1-1.9,0-3.8-1.4-5.3a11.1,11.1,0,0,0-4-2.2c-.4-.1-3.1-1.2-3.3-1C300.1,35.5,303.4,29.3,303.4,29.3Z"/><path class="cls-1" d="M301.6,45.1a34.9,34.9,0,0,0-5.7-2c-4.2,7.6-8.5,15.4-10.4,18.6-2.2,0-4.4,0-6.6-.2-.9-4.8-2.3-13.3-2.9-17l6.2-.2c.5,2,.8,4.3,1.7,7.4l5.4-10.3c-6.7-1.5-12.6-2-13.8.1s-4.3,18.8-3.5,23.2c.4,2.1,21,6.1,24.1,3.5S303.5,47.8,301.6,45.1Z"/><path class="cls-1" d="M297.7,28.6c-3.9,6.5-11.5,22.2-14.3,26.5-.8-2.9-1.8-7.5-2.3-9.4h-3.8c1,3.8,1.7,10.1,2.8,14.4h4.7c3.1-5,11.9-22.1,17-30.2C300.5,29.4,299.2,29.2,297.7,28.6Z"/><path class="cls-1" d="M305.5,43.7a3.4,3.4,0,0,0-2.7-2.5l-5-1.6L296.5,42l5.4,1.5c3,2,.9,9.9.2,12.8a46.6,46.6,0,0,1-3.6,10.3c-1.1,2.2-1.6,3.4-8,3.2s-14.9-2.5-17.3-3.3-2.3-1.8-2.3-2.6c.4-8.3.7-17.8,3.7-23.3,1.3-2.3,7.8-1.7,15.2-.2l1.3-2.6c-7.9-1.9-15.3-2.8-18.1.5-1.5,1.7-2.5,4.7-3.2,8.4h0c-.8,3.7-2.8,18,0,20.6s11.8,3.7,20.7,4.5,9.2-1.2,10.1-2.8,2.3-5.7,3.7-12.4S306.1,45.5,305.5,43.7Z"/><path class="cls-2" d="M277.5,158.2a5.1,5.1,0,0,1,3.6-6,4.9,4.9,0,0,1,5.8,3.5h0a5,5,0,0,1-3.6,6,4.7,4.7,0,0,1-5.8-3.4Z"/><path class="cls-3" d="M278.2,158a4.3,4.3,0,0,1,3-5,4.1,4.1,0,0,1,4.9,2.9h0a4.2,4.2,0,0,1-3,5,4.1,4.1,0,0,1-4.9-2.9Zm2.3-1.1a2.2,2.2,0,0,1,1.3-2.4,1.5,1.5,0,0,1,1.9,1,.4.4,0,0,1,.1.3,2.1,2.1,0,0,1-1.3,2.4,1.6,1.6,0,0,1-1.9-1v-.3Z"/><path class="cls-3" d="M282.1,155.6a.9.9,0,0,1,.9.9c.1.4-.3.7-.7.7h-.1a1.1,1.1,0,0,1-1-.9c0-.4.4-.7.8-.8Z"/><path class="cls-2" d="M248.5,107.1a2.5,2.5,0,0,1,2.6-2.2,2.1,2.1,0,0,1,2,2.3v.2a2.7,2.7,0,0,1-2.6,2.3,2.2,2.2,0,0,1-2-2.4Z"/><path class="cls-3" d="M249.5,107.2a1.5,1.5,0,0,1,1.6-1.3,1.4,1.4,0,0,1,1.3,1.5h0a1.4,1.4,0,0,1-1.6,1.2,1.3,1.3,0,0,1-1.3-1.5Z"/><path class="cls-4" d="M98.9,160c2.2,8.6,6.8,19.6,16,31.8,14.2,18.8,32.6,32.7,52.8,44.3a4.8,4.8,0,0,0,2.4.6V160Z"/><path class="cls-5" d="M97,146.5A52.4,52.4,0,0,0,98.9,160h71.2V83.2a35.3,35.3,0,0,0-19.2,5.5c-5.1,3.1-9.8,6.8-15.1,9.7-10.5,5.8-21.8,7.9-33.6,7.9-3.7,0-5.2,1.5-5.2,5.2,0,11.7.1,23.3,0,35Z"/><path class="cls-6" d="M241.3,160c-2.3,8.6-6.9,19.6-16.1,31.8-14.2,18.8-32.6,32.7-52.8,44.3a4.6,4.6,0,0,1-2.3.6V160Z"/><path class="cls-7" d="M243.1,146.5a56.2,56.2,0,0,1-1.8,13.5H170.1V83.2a35.2,35.2,0,0,1,19.1,5.5c5.1,3.1,9.8,6.8,15.1,9.7,10.5,5.8,21.8,7.9,33.6,7.9,3.8,0,5.2,1.5,5.2,5.2,0,11.7-.1,23.3,0,35Z"/><path d="M267.7,98.9,255.5,97c-3.6-.5-7.3-1-11-1.2l-4.7-.6-6.1-.8a27.5,27.5,0,0,1-5-.9l-2.1-.8a4.7,4.7,0,0,1-2.7-4.9,12.9,12.9,0,0,1,1.4-5.1,3.6,3.6,0,0,1,2.7-2.1,19.1,19.1,0,0,1,4.1-.2c4.4.3,8.7.9,13.1,1.5l12.6,1.6,9.3,1.1,16.2,1.7,12,1.3a89,89,0,0,1,11.5,1.9l1.5.4a3,3,0,0,1,2.1,2,6.5,6.5,0,0,1,.5,2.7,13.4,13.4,0,0,1-1,5.2,4.5,4.5,0,0,1-3.7,2.8,24.6,24.6,0,0,1-4.7,0c-5.2-.6-10.4-1.3-15.6-1.8Zm33.1-9.3h-.6l-4.3-.5-14.5-1.8c-4.7-.6-9.4-1-14.2-1.4l-11.8-1.5-8.6-1.1c-3.4-.3-6.9-.6-10.3-1.1a55.1,55.1,0,0,0-7.1-.6,4.5,4.5,0,0,0-2.8,1l-.3.3a13.3,13.3,0,0,0-.9,5.2,4.4,4.4,0,0,0,1.1,2.9c.6.6.7.6,1.4.1a3.4,3.4,0,0,1,.9-.8,1.1,1.1,0,0,1,.8-.3c.4,0,.6.3.4.6l-.6.8-.7.6a3.9,3.9,0,0,0,1.9.8,6,6,0,0,1,.8-.8,4.3,4.3,0,0,1,1-.9,1,1,0,0,1,1.3,0c0,.9-1,1.1-1.4,1.9l.9.2,22.1,2.7c3.5.4,6.9,1,10.4,1.5s6.7,1.1,10.1,1.4l3.2.3,8.6.8a99.1,99.1,0,0,1,10.8,1.2,33.6,33.6,0,0,0,6.3.6,8.1,8.1,0,0,0,3.1-.6.8.8,0,0,0,.7-.7,10.7,10.7,0,0,0,1-3.6,7.8,7.8,0,0,0-.3-3.7,4.5,4.5,0,0,0-4.7-2.8c-.6,2-1.3,2.8-2.5,2.7s.1-.5.2-.7l1-1.4.6-.8c-.9-.3-1.3-.2-1.8.4l-.5.7a1,1,0,0,1-1.1.5C300,90.8,300.8,90.3,300.8,89.6Z"/><path class="cls-1" d="M300.8,89.6c0,.7-.8,1.2-.4,2a1,1,0,0,0,1.1-.5l.5-.7c.5-.6.9-.7,1.8-.4l-.6.8-1,1.4c-.1.2-.1.5-.2.7s1.9-.7,2.5-2.7a4.5,4.5,0,0,1,4.7,2.8,7.8,7.8,0,0,1,.3,3.7,10.7,10.7,0,0,1-1,3.6.8.8,0,0,1-.7.7,8.1,8.1,0,0,1-3.1.6,33.6,33.6,0,0,1-6.3-.6,99.1,99.1,0,0,0-10.8-1.2L279,99l-3.2-.3c-3.4-.3-6.8-.9-10.1-1.4s-6.9-1.1-10.4-1.5l-22.1-2.7-.9-.2c.4-.8,1.4-1,1.4-1.9a1,1,0,0,0-1.3,0,4.3,4.3,0,0,0-1,.9,6,6,0,0,0-.8.8,3.9,3.9,0,0,1-1.9-.8l.7-.6.6-.8c.2-.3,0-.6-.4-.6a1.1,1.1,0,0,0-.8.3,3.4,3.4,0,0,0-.9.8c-.7.5-.8.5-1.4-.1a4.4,4.4,0,0,1-1.1-2.9,13.3,13.3,0,0,1,.9-5.2l.3-.3a4.5,4.5,0,0,1,2.8-1,55.1,55.1,0,0,1,7.1.6c3.4.5,6.9.8,10.3,1.1l8.6,1.1,11.8,1.5c4.8.4,9.5.8,14.2,1.4L295.9,89l4.3.5ZM291,95.9l1,.7,1,.4a.6.6,0,0,0,.7-.4.5.5,0,0,0-.3-.6l-.9-.7c-.3-.2-.6-.3-.7-.7l1.2-.5a1.4,1.4,0,0,0,.8-1c-1-.3-1.7.3-2.5.5s.4-1.7-.4-2.4a1.2,1.2,0,0,0-.7,1l-.3,1.2-.8-.6-.7-.3a.5.5,0,0,0-.6.2.4.4,0,0,0,.1.6l.6.7c.2.2.5.4.5.7s-1.8.3-2,1.4a1.5,1.5,0,0,0,1.3.1,1.9,1.9,0,0,1,1.3-.3,7.7,7.7,0,0,0-.2,1.5.5.5,0,0,0,.3.7.8.8,0,0,0,.8-.2.9.9,0,0,0,.3-.7A12.3,12.3,0,0,0,291,95.9Zm-34.5-7.2c-.9-.3-1.7.3-2.5.5s.4-1.7-.4-2.4-.8,1.3-1.1,2.1l-.7-.5a.9.9,0,0,0-.7-.3c-.2-.1-.4,0-.6.2s-.1.4.1.6l.6.6a2.7,2.7,0,0,1,.7.8c-.9.4-2,.2-2.1,1.4a1.3,1.3,0,0,0,1.2.1,1.9,1.9,0,0,1,1.3-.3,3.4,3.4,0,0,0-.1,1v1c1.4.1,1.3-1.1,1.5-2l.9.6,1.1.5a.7.7,0,0,0,.7-.4c.1-.3,0-.5-.3-.7l-.8-.6-.9-.6C255.2,89.8,256.2,89.7,256.5,88.7ZM271,91.1a1.8,1.8,0,0,0-.7-.5l-.7-.4a.9.9,0,0,0-.6.3c-.2.1-.1.4.1.6l.6.6.7.8c-.9.4-2,.2-2.1,1.4a1.3,1.3,0,0,0,1.2.1,1.9,1.9,0,0,1,1.3-.3c0,.3-.1.5-.1.8s-.1.5-.1.8.4.7.9.5.5-.5.6-.8.1-.8.1-1.3l1.1.7a1.7,1.7,0,0,0,1,.3c.2.1.5-.1.6-.3s0-.5-.2-.7l-.9-.6-.9-.6c.8-.6,1.8-.6,2.1-1.6s-1.7.3-2.5.5.4-1.7-.4-2.4S271.5,90.4,271,91.1Zm-11.9,1.7a1.4,1.4,0,0,0,1.4,0,2,2,0,0,1,1.1-.2c0,.8-.4,1.6,0,2.3a1,1,0,0,0,1.2-.9c.1-.4.1-.9.2-1.4l.9.6,1.1.5a.6.6,0,0,0,.7-.4c.2-.3,0-.5-.2-.7l-1-.6c-.3-.2-.6-.3-.7-.7s1.7-.5,2-1.5-1.7.4-2.5.5.4-1.7-.4-2.4-.6,1.4-1,2.1l-.8-.5a.9.9,0,0,0-.7-.3c-.2-.1-.4.1-.6.2a1.5,1.5,0,0,0,.1.6l.6.6.7.8C260.4,91.8,259.3,91.6,259.1,92.8Zm-14.8-2.4,1.1.7a1.6,1.6,0,0,0,.9.3c.3.1.5,0,.7-.3s-.1-.5-.3-.7l-1-.7c-.2-.1-.6-.3-.6-.6s1.7-.5,2-1.5-1.7.3-2.6.4.5-1.6-.3-2.3a1.2,1.2,0,0,0-.7,1,7.6,7.6,0,0,1-.4,1.1l-.7-.5-.7-.4c-.3-.1-.5,0-.7.3s0,.4.2.6l.7.7.5.7-1.4.5c-.6.2-.7.5-.5,1.2s1.4-.7,2.3-.5-.3,1.3,0,2S243.9,92.2,244.3,90.4Zm37.2,4.4,1.1.7,1,.4a.8.8,0,0,0,.6-.4c.1-.2-.1-.5-.2-.6l-1-.7c-.2-.2-.6-.3-.7-.7s1.7-.5,2-1.5-1.7.4-2.5.4.4-1.6-.3-2.3a1.2,1.2,0,0,0-.7,1,3.6,3.6,0,0,0-.4,1.1l-.8-.5-.7-.4-.6.3c-.2.2-.1.4.1.6l.6.6.7.8c-.9.3-2,.2-2.1,1.4s1.6-.4,2.5-.2-.1.5-.1.7-.1.7-.1,1,.4.7.8.4a1.3,1.3,0,0,0,.5-.7A4.9,4.9,0,0,0,281.5,94.8Z"/><path d="M291,95.9a12.3,12.3,0,0,1-.2,1.3.9.9,0,0,1-.3.7.8.8,0,0,1-.8.2.5.5,0,0,1-.3-.7,7.7,7.7,0,0,1,.2-1.5,1.9,1.9,0,0,0-1.3.3,1.5,1.5,0,0,1-1.3-.1c.2-1.1,1.2-1,2-1.4s-.3-.5-.5-.7l-.6-.7a.4.4,0,0,1-.1-.6.5.5,0,0,1,.6-.2l.7.3.8.6.3-1.2a1.2,1.2,0,0,1,.7-1c.8.7.3,1.6.4,2.4s1.5-.8,2.5-.5a1.4,1.4,0,0,1-.8,1l-1.2.5c.1.4.4.5.7.7l.9.7a.5.5,0,0,1,.3.6.6.6,0,0,1-.7.4l-1-.4Z"/><path d="M256.5,88.7c-.3,1-1.3,1.1-2.1,1.6l.9.6.8.6c.3.2.4.4.3.7a.7.7,0,0,1-.7.4l-1.1-.5-.9-.6c-.2.9-.1,2.1-1.5,2v-1a3.4,3.4,0,0,1,.1-1,1.9,1.9,0,0,0-1.3.3,1.3,1.3,0,0,1-1.2-.1c.1-1.2,1.2-1,2.1-1.4a2.7,2.7,0,0,0-.7-.8l-.6-.6c-.2-.2-.3-.4-.1-.6s.4-.3.6-.2a.9.9,0,0,1,.7.3l.7.5c.3-.8.2-1.7,1.1-2.1s.3,1.5.4,2.4S255.6,88.4,256.5,88.7Z"/><path d="M271,91.1c.5-.7.3-1.6,1.1-2.1s.2,1.5.4,2.4,1.5-.8,2.5-.5-1.3,1-2.1,1.6l.9.6.9.6c.2.2.4.5.2.7s-.4.4-.6.3a1.7,1.7,0,0,1-1-.3l-1.1-.7c0,.5-.1.9-.1,1.3s-.2.7-.6.8-.9,0-.9-.5.1-.6.1-.8.1-.5.1-.8a1.9,1.9,0,0,0-1.3.3,1.3,1.3,0,0,1-1.2-.1c.1-1.2,1.2-1,2.1-1.4l-.7-.8-.6-.6c-.2-.2-.3-.5-.1-.6a.9.9,0,0,1,.6-.3l.7.4A1.8,1.8,0,0,1,271,91.1Z"/><path d="M259.1,92.8c.2-1.2,1.3-1,2.1-1.4l-.7-.8-.6-.6a1.5,1.5,0,0,1-.1-.6c.2-.1.4-.3.6-.2a.9.9,0,0,1,.7.3l.8.5c.4-.7.3-1.6,1-2.1s.3,1.6.4,2.4,1.6-.8,2.5-.5-1.2,1.1-2,1.5.4.5.7.7l1,.6c.2.2.4.4.2.7a.6.6,0,0,1-.7.4l-1.1-.5-.9-.6c-.1.5-.1,1-.2,1.4a1,1,0,0,1-1.2.9c-.4-.7,0-1.5,0-2.3a2,2,0,0,0-1.1.2A1.4,1.4,0,0,1,259.1,92.8Z"/><path d="M244.3,90.4c-.4,1.8-.6,2-1.5,2s.1-1.3,0-2-1.5.6-2.3.5-.1-1,.5-1.2l1.4-.5-.5-.7-.7-.7c-.2-.2-.3-.4-.2-.6s.4-.4.7-.3l.7.4.7.5a7.6,7.6,0,0,0,.4-1.1,1.2,1.2,0,0,1,.7-1c.8.7.2,1.5.3,2.3s1.6-.8,2.6-.4-1.3,1-2,1.5.4.5.6.6l1,.7c.2.2.4.4.3.7s-.4.4-.7.3a1.6,1.6,0,0,1-.9-.3Z"/><path d="M281.5,94.8a4.9,4.9,0,0,1-.3,1.4,1.3,1.3,0,0,1-.5.7c-.4.3-.7.1-.8-.4s.1-.7.1-1,.1-.4.1-.7-1.6.8-2.5.2,1.2-1.1,2.1-1.4l-.7-.8-.6-.6c-.2-.2-.3-.4-.1-.6l.6-.3.7.4.8.5a3.6,3.6,0,0,1,.4-1.1,1.2,1.2,0,0,1,.7-1c.7.7.2,1.6.3,2.3s1.6-.8,2.5-.4-1.3,1.1-2,1.5.5.5.7.7l1,.7c.1.1.3.4.2.6a.8.8,0,0,1-.6.4l-1-.4Z"/><path d="M86.8,286.9l16.5,3.4L98.6,276l9.5-6.9-9.4-4.3,4.7-13.3-10.3,1.6-.4-10.5s-.9.4-13.8,7.8l-8.3-8.5.2,10.7-16.4-1.9,8.1,10.4-8.7,4.7,10.6,7.5-2.8,14.6,9.9-2.3.6,12.7Z"/><path class="cls-1" d="M84.6,275.7l8.1,3.3-2.3-7.2,5-1.8-5.7-1.5,4.3-8.3-7.9,4.4c-.4-3.6-.5-8.9-.5-8.9s-5.5,5.9-7.1,7.4l-8.4-3,5.2,5.1L68.2,267l6.7,3.4-4.3,7.9,8.6-3.3L78,283.6Z"/><path class="cls-1" d="M97.2,284.1,94,273.2l6.6-3.7-7-2.4,4.7-10.7-9.9,3.9.2-11.4s-9.9,8.4-9.6,7.8l-4.3-6.1.4,7.9-12.5-3.3,7.2,8.4-8.3,2.2,7.8,6-2.8,11.1,9-3.1-.3,11,10.2-9.6Zm-19.8.9.8-8.7-8.8,3.1,4.5-8.9-7.5-4L74,265l-5.6-6,9.9,2.9,8-8c-.1,2.2.4,9.3.4,9.3l8.5-4.2-4.3,9,5.8,1.9-5.4,2.2,2.3,8-8.8-3.3Z"/><path class="cls-1" d="M102.1,289.2l-4.4-13.4,8.9-6.5-8.8-4.1,4.5-12.7L92.4,254l-.5-10.1-13.1,7.5-7.4-7.6.2,9.7-15.5-1.8,7.6,9.6-8.4,4.6,9.9,7-2.6,14,9.6-2.2.6,12.1L86.6,286Zm-27.6,3.3V281l-9.2,3.2,2.9-12.1L60,265.3l8.3-2.2-7.2-8.9,13,2.9-.3-8,5.2,6.1,10.4-7.8h0c0,1.9-.2,11.7-.2,11.7l10.1-3.9-4.5,11.2,7.3,3c-.4.6-7.3,4.2-7.3,4.2l3.4,11.8-12.6-3.1Z"/><path d="M137,265c.6-2.8,1-5.6,1.4-8.4a115.4,115.4,0,0,0,1.6-11.8c.2-3.5,1.2-7.3-3-8.6a27,27,0,0,0-3.9-.8c-6.6-1.1-13.2-1.2-19.9-1.6l-5.2-.5c-4.4-.4-9.6-1.9-13.8.4a6.5,6.5,0,0,0-2.7,3.4,89.8,89.8,0,0,0-2.3,13.4c-.3,2.5-.7,5.1-.8,7.6s-.3,2.7.1,3.9,4.2,2.6,6.1,3.1c5.1,1.3,10.4,2.1,15.6,3,2.9.5,5.8.8,8.7,1.2a31.5,31.5,0,0,0,4.3.5h.1a80.9,80.9,0,0,0,8.6.7C135,270.4,136.4,267.6,137,265Z"/><path class="cls-1" d="M95,234.9c0,1.3,14.7,17.6,19.3,17.3s15.7-7.3,24.1-13.6c0-1.7-12.4-3.4-24.2-3.6C109,235,96.4,232.6,95,234.9Z"/><path class="cls-1" d="M120.8,251.3c3,3.8,9.1,9.4,14.2,15.6,1.3-.6,4.5-25.7,3.9-26.5C134.9,243.2,124.9,249.1,120.8,251.3Z"/><path class="cls-1" d="M134,268.7c.1-2-11.4-13.5-14.4-16.7-4.3,2-6.2,2.4-9.9-.2-4.9,1.7-15.6,7.6-20.1,9.9C88.3,264.2,134.5,271,134,268.7Z"/><path class="cls-1" d="M89.8,260.1c2-.3,15.4-7.4,19-9-3.2-2.9-10.7-9.7-15.4-15.2C92,235.7,89,259.7,89.8,260.1Z"/><path class="cls-2" d="M292.6,156.7a2.6,2.6,0,0,0-1.8.4c-.8.5-.7,1.4,0,1.6a1.7,1.7,0,0,0,1.4-.1c.5-.1.7,0,.5.5a3.8,3.8,0,0,0-.2,2.1c.1.7-.3.8-.8.4a2,2,0,0,0-1.4-.5,1.1,1.1,0,0,0-.8,1.4,2.5,2.5,0,0,0,1.3,1.2c.4.1.8.4.2.6a4.8,4.8,0,0,0-1.9,2.1c-.2.6-.4.5-.6,0s-1-1.7-1.6-1.8-1.7.3-1.5,1.8a6.2,6.2,0,0,0,.8,1.8c.2.3,0,.7-.5.6a4.6,4.6,0,0,0-3.1.2c-.6.3-.9.1-.7-.3a6.9,6.9,0,0,0,.4-2.2c-.1-1.5-1.6-2.2-2.2-1.1a8,8,0,0,0-.6,1.7c-.1.5-.5.7-.9.2a5.6,5.6,0,0,0-2.8-1.8c-.5-.1-.3-.3,0-.5a3.5,3.5,0,0,0,1-1.9c.1-1.1-.6-1.8-1.6-1.5a2.1,2.1,0,0,0-1.2.8c-.2.3-.6.2-.5-.2a2.9,2.9,0,0,0-.5-2.7c-.3-.3,0-.4.4-.3a5.3,5.3,0,0,0,1.9-.2c.8-.4.9-1.4,0-1.7a2.4,2.4,0,0,0-1.5-.1c-.3,0-.5-.1-.4-.4a4.9,4.9,0,0,0,.3-2c0-.3.2-.5.5-.3a2.2,2.2,0,0,0,2,.3c.8-.2,1.3-1.2.2-2.1a2.5,2.5,0,0,0-1.7-.8c-.5,0-.4-.3,0-.4a4.9,4.9,0,0,0,2.4-2.7c.1-.3.4-.3.5.1a7.6,7.6,0,0,0,1.4,2.4,1.7,1.7,0,0,0,2.9-1.2,6.7,6.7,0,0,0-.1-2.4q-.2-.4.3-.3a6,6,0,0,0,2.8.5c.5,0,.6.1.5.5a3.8,3.8,0,0,0-.3,1.7c.1,1.2,1.2,1.8,2,1.2a2.2,2.2,0,0,0,1-1.6c.2-.4.4-.3.6-.1a2.8,2.8,0,0,0,1.7,1.1c.2.1.5.2.1.5a3.7,3.7,0,0,0-1,1.4c-.2.8.2,1.5.9,1.5a1.7,1.7,0,0,0,1.2-.5c.4-.4.6-.2.6.3a3.4,3.4,0,0,0,.8,2.5c.4.3.2.4-.4.3Z"/><path class="cls-1" d="M291.6,159.2c.4,0,.5.1.4.3a1.2,1.2,0,0,0-.1,1c.1.3,0,.4-.4.2a3.7,3.7,0,0,0-1.6-.2,1.4,1.4,0,0,0-1,1.8,2.7,2.7,0,0,0,1.2,1.4c.2.2.2.4,0,.5a3.2,3.2,0,0,0-1.1,1.2c-.2.4-.3.3-.5-.1a3.8,3.8,0,0,0-1.7-1.4,1.7,1.7,0,0,0-2.1,1.3,3.8,3.8,0,0,0,.4,2.3c.2.3.1.4-.2.3a7.6,7.6,0,0,0-1.6.1c-.5.2-.5,0-.4-.3a3.5,3.5,0,0,0-.5-2.6,1.6,1.6,0,0,0-2.2-.6,2.2,2.2,0,0,0-1.1,1.7c-.1.4-.2.5-.5.2a5.7,5.7,0,0,0-1.8-1.2c-.3,0-.1-.2,0-.4a3,3,0,0,0,.7-1.5,2,2,0,0,0-.8-2,2.3,2.3,0,0,0-2-.1c-.3.2-.4.2-.4-.1a3.4,3.4,0,0,0-.1-1c-.1-.2-.1-.3.3-.3a2.5,2.5,0,0,0,1.8-.6,1.4,1.4,0,0,0-.2-2.1,3,3,0,0,0-1.6-.3c-.2,0-.4,0-.4-.3a3.1,3.1,0,0,0,.2-.8c.1-.3.1-.4.4-.3a2.7,2.7,0,0,0,1.5.2,1.6,1.6,0,0,0,1.4-2,2.9,2.9,0,0,0-1.3-1.7q-.4-.3,0-.6a2,2,0,0,0,.9-1c.2-.2.3-.2.4.1a4.5,4.5,0,0,0,1.9,2,1.9,1.9,0,0,0,2.7-.7,7.1,7.1,0,0,0,.3-3c-.1-.2,0-.3.2-.2a2.7,2.7,0,0,0,1.7.2c.3-.1.5,0,.3.3a3.7,3.7,0,0,0-.1,2.4c.2.9,1.3,1.3,2.4,1a2.5,2.5,0,0,0,1.3-1.5c.1-.4.2-.3.4-.1l.7.4c.2,0,.3.1.1.3a3.7,3.7,0,0,0-.7,1.4c-.1.7-.1,1.5.7,1.9a2.2,2.2,0,0,0,1.6-.1c.4-.2.5-.1.5.3a2.4,2.4,0,0,0,.2.8c.1.3.1.4-.2.4a2.7,2.7,0,0,0-1.6.8,1.2,1.2,0,0,0,0,2A2.5,2.5,0,0,0,291.6,159.2Zm-3.2,0c.1-1.1-.3-1.8-1.1-1.7a2.7,2.7,0,0,0-2,2.3c-.2,1.2.5,2,1.3,1.8A2.9,2.9,0,0,0,288.4,159.2Zm-2.5-2.5a1.6,1.6,0,0,0,1.2-1.7,2.3,2.3,0,0,0-2.3-1.6,1.4,1.4,0,0,0-1.2,1.8A2.2,2.2,0,0,0,285.9,156.7Zm-1.4,6.6a1.2,1.2,0,0,0,.4-1.7,1.1,1.1,0,0,0-1.6-.3c-.6.4-.9,1-.5,1.6A1.2,1.2,0,0,0,284.5,163.3Zm-.9-3a2.1,2.1,0,0,0,1.1-1.9,1,1,0,0,0-1.3-1,1.7,1.7,0,0,0-1.1,1.7C282.3,159.9,283,160.6,283.6,160.3Zm-.9-4.4A1.9,1.9,0,0,0,281,154a2.6,2.6,0,0,0-1.9,2.1c-.1,1,.5,1.7,1.4,1.6A2.2,2.2,0,0,0,282.7,155.9Zm-1.7,6.4a2,2,0,0,0,.6-2.7,1.7,1.7,0,0,0-2.5-.6,2.4,2.4,0,0,0-.3,2.7A1.3,1.3,0,0,0,281,162.3Z"/><path class="cls-1" d="M286.8,158.4a.8.8,0,0,1,.9.9,1.7,1.7,0,0,1-.9,1.4c-.4.1-.9-.1-.9-1.1A1.2,1.2,0,0,1,286.8,158.4Z"/><path class="cls-1" d="M286.7,155a.8.8,0,0,1-.8,1c-.7,0-1.5-.2-1.6-.8a1,1,0,0,1,.8-1.2A1.5,1.5,0,0,1,286.7,155Z"/><path class="cls-1" d="M284.5,161.9a.8.8,0,0,1-.1,1.1.8.8,0,0,1-1-.3.7.7,0,0,1,.1-1A.6.6,0,0,1,284.5,161.9Z"/><path class="cls-1" d="M283.7,157.9c.6-.1.8.3.7.8a1.3,1.3,0,0,1-1,1c-.7,0-.8-.3-.7-.8A1.4,1.4,0,0,1,283.7,157.9Z"/><path class="cls-1" d="M281,154.8a.9.9,0,0,1,1,1.2c-.3,1.1-.5,1.3-1.3,1.3a1,1,0,0,1-1.1-1.1A1.8,1.8,0,0,1,281,154.8Z"/><path class="cls-1" d="M281.2,159.9a1.4,1.4,0,0,1-.3,1.7,1,1,0,0,1-1.5-.3c-.3-.7-.3-1.3.2-1.7A1.1,1.1,0,0,1,281.2,159.9Z"/></svg>