<svg id="Calque_1" data-name="Calque 1" xmlns="http://www.w3.org/2000/svg" viewBox="0 0 340.1 319.9"><defs><style>.cls-1,.cls-3{fill:#fff;}.cls-2,.cls-3{fill-rule:evenodd;}.cls-4{fill:#00bef2;}</style></defs><g id="planner"><path d="M212.5,251.9l.9.2a46.6,46.6,0,0,0,11.8.2c6.6-.6,13-1.9,16.9-3.5l.9-.3v-1l-1.4-5.7,4.1-.3c3.7-.3,7.4-.9,12.9-1.8l1-.2v-1a58.1,58.1,0,0,0-.1-5.9,32.5,32.5,0,0,0-.8-4.3c-.2-1-.3-2.3-1.2-3s-3.1-.7-4.6-.5-3.2.4-4-1,1-2.8,1.9-4a9.5,9.5,0,0,0,1.8-5.1,8.5,8.5,0,0,0-.3-3.2,7.7,7.7,0,0,0-6.2-6.1,8.1,8.1,0,0,0-9.2,5.2,9.4,9.4,0,0,0,2.2,9.7c.9.9,2.4,2.6,1.6,4s-3.2,1.3-4.7,1.4l-2.2.2a9.6,9.6,0,0,0-1-5,7.7,7.7,0,0,0-6.6-4.2,7.3,7.3,0,0,0-7,5c-1.3,3.2-.3,6.4,2.2,9.3.9,1,1.4,3.1.6,4.2s-2.7,1.6-4.1,1.7l-2.4.2c-2.3.5-2.7,2.5-3,4.5s-.3,4.4-.3,6.7a24.6,24.6,0,0,0,.2,2.6Z"/><path class="cls-1" d="M256.6,226.2c1.5.5,2,8.3,1.9,12.2-7.7,1.3-11.5,1.9-17.3,2.1-.5-2.2-1.4-5.7-1.5-6.4a28.7,28.7,0,0,1-5,.7c-3.3.2-3.2-2.1-2.2-4a13.7,13.7,0,0,0,1.1-3.6c2-.3,5.9-.1,7.2-1.1s2.2-3.8-.7-6.7c-4.9-5-1.6-14.1,6-12.8s7.4,10.1,2.5,13.9c-1.7,1.2-1.1,5.6,2.5,5.6C251.9,226.1,255,225.6,256.6,226.2Z"/><path class="cls-1" d="M238.8,235.5c.1.6,2.8,10.5,3,12.1-6.7,2.7-21.4,4.6-28,3.2-.4-2.9-.2-10.4.9-12s5-.2,7.5-1.8.9-5.4-.2-6.7c-4.6-5.3-1.5-12.3,4.3-12.3s9,6.4,4.4,13.4c-1,1.5-.6,4.4,2.8,4.6A24.4,24.4,0,0,0,238.8,235.5Z"/><path class="cls-2" d="M225.4,288.1a5,5,0,0,1,3.6-6,4.8,4.8,0,0,1,5.8,3.4v.2a5.1,5.1,0,0,1-3.6,6,4.8,4.8,0,0,1-5.8-3.4v-.2Z"/><path class="cls-3" d="M226.1,287.9a4.3,4.3,0,0,1,3-5,4.1,4.1,0,0,1,4.9,2.9h0a4.2,4.2,0,0,1-3,5,4,4,0,0,1-4.8-2.9Zm2.3-1.1a2.2,2.2,0,0,1,1.3-2.4,1.5,1.5,0,0,1,1.9,1,.4.4,0,0,1,.1.3,2.1,2.1,0,0,1-1.3,2.4,1.6,1.6,0,0,1-1.9-1C228.5,287,228.4,286.9,228.4,286.8Z"/><path class="cls-3" d="M230,285.4c.5.1.9.4.9.9a.7.7,0,0,1-.7.8H230a1.1,1.1,0,0,1-.9-.9.8.8,0,0,1,.7-.8Z"/><path class="cls-2" d="M189.8,236.9a2.7,2.7,0,0,1,2.6-2.3,2.3,2.3,0,0,1,2,2.5h0a2.5,2.5,0,0,1-2.6,2.2,2.1,2.1,0,0,1-2-2.3Z"/><path class="cls-3" d="M190.8,237a1.5,1.5,0,0,1,1.6-1.3,1.4,1.4,0,0,1,1.3,1.5h0a1.5,1.5,0,0,1-1.6,1.3,1.5,1.5,0,0,1-1.3-1.6Z"/><polygon points="255.9 269.7 260.1 267.6 264.4 270.8 264.2 265.7 268.6 263.2 263.2 261.4 261.8 256.3 259.1 260.5 254.4 259.4 256.9 264.3 255.9 269.7"/><polygon class="cls-1" points="262.5 262.1 261.7 258.1 259.5 261.5 255.6 260.3 257.8 264.2 256.7 268.4 260.2 266.6 263.8 269.5 263.4 265.3 266.9 263.2 262.5 262.1"/><path d="M86.6,59.4c.1.1.2,0,.2-.1a17.4,17.4,0,0,0-3.6-5.6c0-.1-.2-.1-.2,0a.4.4,0,0,0-.1.3,25.6,25.6,0,0,1,2,2.6C85.6,57.5,86,58.5,86.6,59.4Z"/><path d="M86.8,62.3c-2.2-3.3-4.6-6.6-7-9.8-.2-.2-.5.1-.4.3,2.4,3.2,4.3,7,7.2,9.7.1,0,.2,0,.2-.1S86.9,62.3,86.8,62.3Z"/><path d="M58,32.3a3.5,3.5,0,0,1,1.8-.6,3.6,3.6,0,0,1,3.5,3.2,3,3,0,0,1-1.9,3.5,4.2,4.2,0,0,1-4-.9,2.9,2.9,0,0,1-.8-3.4A2.8,2.8,0,0,1,58,32.3Zm1.4,5.3c2.3-.2,3.2-1,2.9-3.4A2.2,2.2,0,0,0,59.9,33a2.7,2.7,0,0,0-2.2,2.1c-.3,1.4.8,1.8,1.7,2.5Z"/><path d="M58.1,31.3v.4h-.2c.1-.1.2-.2.2-.3Z"/><polygon points="60.6 30.8 60.5 30.8 60.6 30.9 60.6 30.8"/><polygon points="60.6 30.9 60.6 30.9 60.6 30.8 60.6 30.9"/><polygon points="61.8 35.1 61.7 35.1 61.8 35 61.8 35.1"/><path class="cls-1" d="M62.4,35.1c-.1,1.1-1.1,2.9-2.4,2.7s-2.6-1.6-2.3-2.7A2.7,2.7,0,0,1,59.9,33a2.2,2.2,0,0,1,2.5,1.6Zm-.7,0h0Z"/><g id="layer1"><g id="g1016"><g id="path1008"><path class="cls-4" d="M170,80.5q.1,0,.6.6c.2.3,18,21.7,39.7,47.5s39.2,47.1,39.2,47.3l-38.3,31.3-39.7,32.3c-1.4,1.2-1.4,1.2-2,.7l-39.7-32.5c-21.6-17.6-39.2-32.1-39.1-32.4s17.8-21.3,39.4-47,39.4-47,39.5-47.3S169.8,80.5,170,80.5Z"/></g><g id="path923"><path class="cls-1" d="M167,215a13.3,13.3,0,0,1-6.6-5.8c-1.5-2.9-1.4-7.5.3-11.1s1.3-2.8.4-3.5l-12.4-6.9-12.3-6.6c-.5-.3-1.4,0-2.9.9-5,3.2-10.1,2.8-14.2-.9s-3.8-4.7-3.8-8.6.8-5.7,3.2-8.1a11.2,11.2,0,0,1,11.8-3c2.3.8,2.4.8,3.8-.3s15.3-13.7,21.9-19.9l4.5-4.4-1.3-2.8a12.7,12.7,0,0,1,3.4-15.9c2.7-2.1,4.6-2.7,8.4-2.7a12.8,12.8,0,0,1,11.7,17.5c-.9,2.3-.9,2.3-.1,3.7s13,16.1,19.5,23.6c1.1,1.3,2.4,2.4,2.8,2.4a12.1,12.1,0,0,0,3.3-1,11.8,11.8,0,0,1,15.6,6.6c1.7,4,.2,9.5-3.4,12.7s-4.4,3.1-7.8,3.1-3.3-.3-5.8-1.7-3.3-1.5-3.9-1.3-16.7,11-20.2,13.8-2.2,2.3-1.1,4.9a13,13,0,0,1-.3,9.1,13.5,13.5,0,0,1-7.4,6.3,10.2,10.2,0,0,1-7.1-.1Zm.8-46.7V144.1l-1.4-1.8a10.1,10.1,0,0,0-1.6-1.9c-.6,0-28,24.9-28,25.4l1,2.8a13,13,0,0,1,.8,4.5v2.8c0,1,9.2,6.9,22.9,14.8,3.8,2.2,5.1,2.8,5.6,2.4s.7-5.2.7-24.8Zm11.6,21.4c18.1-11.4,21.5-13.7,21.7-14.6a27.5,27.5,0,0,0,.4-4.5v-3.5l-9.2-11c-10-11.8-13.6-15.7-14.5-15.7a16.6,16.6,0,0,0-3.3,1.8l-2.8,1.9.2,24.1c.1,21.7.3,25.3,1.1,25.3l6.3-3.8Z"/><path class="cls-1" d="M170.5,216a8.7,8.7,0,0,1-3.5-.7,13.6,13.6,0,0,1-6.8-5.9c-1.6-3-1.5-7.7.2-11.4a10.2,10.2,0,0,0,1.1-2.5c0-.2-.1-.3-.5-.6s-6-3.4-12.4-6.9l-12.4-6.7c-.4-.2-1.2.1-2.6,1a13.2,13.2,0,0,1-6.9,2.1,11.1,11.1,0,0,1-7.6-3.1c-3-2.8-3.9-4.8-3.9-8.8s.8-5.8,3.3-8.3a12.2,12.2,0,0,1,5.7-3.3,11.6,11.6,0,0,1,6.4.3,7,7,0,0,0,2.1.5c.4,0,.7-.3,1.4-.8S149.6,147.1,156,141l4.4-4.2-1.3-2.7a14.3,14.3,0,0,1-1.1-8.8,12.5,12.5,0,0,1,4.7-7.4,13.5,13.5,0,0,1,14.6-1.2,13.3,13.3,0,0,1,4.4,4.1,12.1,12.1,0,0,1,2.2,5.8,12.8,12.8,0,0,1-.8,6.4,7.7,7.7,0,0,0-.6,2.1c-.1.4.1.7.5,1.4s13.1,16.1,19.5,23.5a8.7,8.7,0,0,0,2.6,2.3,12.2,12.2,0,0,0,3.2-.9,12.5,12.5,0,0,1,9.3,0,12.1,12.1,0,0,1,6.6,6.7,10.5,10.5,0,0,1,.3,6.8,12.5,12.5,0,0,1-3.8,6.2,9.8,9.8,0,0,1-7.9,3.1,9.6,9.6,0,0,1-5.9-1.6c-2.2-1.2-3.3-1.5-3.7-1.4h0c-.4.1-3.4,2-9.1,5.9-4.2,2.9-9.2,6.4-11,7.9s-2.1,2.2-1.1,4.6a12.5,12.5,0,0,1-.3,9.3,13.7,13.7,0,0,1-7.5,6.5A14.1,14.1,0,0,1,170.5,216Zm-34.6-35.3h.6l12.3,6.7,12.5,6.9c.4.3.8.6.7,1.2a12.2,12.2,0,0,1-1.1,2.6c-1.6,3.6-1.8,8.1-.3,10.9a13.9,13.9,0,0,0,6.5,5.7h0c2.4.9,4,.9,6.9.1a13.9,13.9,0,0,0,7.3-6.2,12.4,12.4,0,0,0,.2-8.9,4.9,4.9,0,0,1-.6-2.9c.2-.8.8-1.4,1.9-2.3,3.3-2.7,19-13.6,20.2-13.9s3,.8,4.1,1.4,3.3,1.6,5.7,1.6a9.6,9.6,0,0,0,7.6-3,12,12,0,0,0,3.6-5.9,10.2,10.2,0,0,0-.3-6.5,11.6,11.6,0,0,0-6.3-6.4,11.5,11.5,0,0,0-8.9,0,14.3,14.3,0,0,1-3.4.9c-.6,0-2.1-1.4-3-2.4-6.4-7.5-18.8-22.4-19.5-23.6s-.9-1.6,0-4a12,12,0,0,0,.8-6.2,12.8,12.8,0,0,0-2.1-5.5,13.7,13.7,0,0,0-4.3-4,11.7,11.7,0,0,0-5.8-1.5,11.5,11.5,0,0,0-8.2,2.7,12.3,12.3,0,0,0-4.5,7.1,13.3,13.3,0,0,0,1.1,8.5l1.4,2.8a.4.4,0,0,1-.1.3l-4.5,4.3c-6.5,6.1-20.2,18.7-21.9,20s-1.7,1.2-4.1.4a10.6,10.6,0,0,0-6.1-.3,11.2,11.2,0,0,0-5.4,3.2c-2.4,2.4-3.1,4.2-3.1,7.9s.8,5.7,3.7,8.4,9,4,13.9.9A6.6,6.6,0,0,1,135.9,180.7Zm37.2,13.1H173c-.4-.1-.6-.6-.7-1.2s-.2-1.8-.3-3.6c-.2-3.8-.2-10.8-.3-20.8V144.1c0-.1,0-.2.1-.2l2.8-1.9a17.9,17.9,0,0,1,3.4-1.9c.9,0,3.2,2.3,14.7,15.8l9.2,11v.2l-.2,3.5a32.5,32.5,0,0,1-.3,4.6c-.2.9-2.4,2.5-21.9,14.7l-4.4,2.7Zm0-.6h0Zm-1-49v24c.1,9.6.1,16.3.3,20.2.1,1.8.2,3,.3,3.8s.2,1,.3,1,3-1.7,6.1-3.7h0c16.4-10.3,21.5-13.6,21.7-14.4a31.9,31.9,0,0,0,.3-4.5v-3.4l-9.1-10.9L181.6,144l-2.6-2.6c-.8-.7-1-.8-1.1-.8a18.4,18.4,0,0,0-3.1,1.8Zm-5.4,49.2c-.8,0-2.2-.7-5.3-2.5-6.8-3.9-12.6-7.4-16.6-10-6.4-4.1-6.5-4.7-6.5-4.9h0c0-.4,0-1.7.1-2.8a16.3,16.3,0,0,0-.9-4.5,27.5,27.5,0,0,1-.9-2.8c0-.1,0-.2,1.2-1.4l3.2-3,9.4-8.7,9.6-8.6c4.5-4,4.6-4,4.8-4s.3,0,1.8,2L168,144h0v24.2c0,21.5-.1,24.5-.7,25Zm-27.9-17.5c.1.2.7,1.1,6.4,4.7,4.1,2.6,9.7,6,16.5,9.9,2.4,1.4,4.8,2.7,5.2,2.4s.4-2,.5-5.1.1-9.1.1-19.5V144.2l-1.3-1.8-1.4-1.7c-.9.7-6.7,5.7-14,12.4s-13.1,12-13.7,12.8.5,1.3.9,2.6a13.8,13.8,0,0,1,.9,4.6C138.8,174.2,138.8,175.5,138.8,175.9Zm0,0Z"/></g></g></g></g><path d="M119.8,85.6c0-.2-.2-.3-.6-.6a25.1,25.1,0,0,0-2.9-2L101.1,72.5c-.5-1.8-1-3.6-1.4-5.5-1.1-3.8-2.2-7.7-3.2-11.6-.5-1.7-.9-3.4-1.4-5.1s-.5-3.5-2.8-2.8L88,48.6,79.4,51c-7.8,2.1-15.7,4.3-23.5,6.7-1,.3-1.9.5-2,1.8a11,11,0,0,0,.3,1.6c.4,1.8.7,3.7,1.1,5.6a125.4,125.4,0,0,0,4.9,16.9,5.9,5.9,0,0,0,.4.8A90.1,90.1,0,0,0,60.4,96c0,3.4,0,6.9.2,10.4.1,1.3.1,2.3,1.6,1.8l2-.7,7.5-3,21.4-8.3,20-7.7c1.9-.8,4.3-1.3,6.1-2.4S119.7,85.8,119.8,85.6Z"/><path class="cls-1" d="M116.3,84.3c1.3,1,1.5,1.2-.1,1.8l-2.1.8-5.4,2.2L98,93.3l-2.1.9L89.1,97l-.8-1.9h-.6c2.6-.4,5.3-2.1,7.7-3.1a32.4,32.4,0,0,1,3.1-1.3c.5-.2,2.2-.5,2.1-1.3s-1.5-1.3-1.8-1.6-2.6-2.7-4.4-2.1l-1.6.6-4,1.6-2,.8-1.7.5-.4-1,4.4-1.9,10.2-4.3c.9-.4,5.1-1.4,4.7-2.5a5.9,5.9,0,0,0-2.8-2.4c-.9-.1-2.6.9-3.5,1.3l-3.5,1.6-.3-.8-.7-.4h.5a1.2,1.2,0,0,0,.8-1.2,1.1,1.1,0,0,0-1.4-1.1h-.4l-.4-1.1V75l3.3-1c1.2-.4,2.6-1.3,3.9-1.1h.4c1.5.4,3.1,2.1,4.4,3l10.1,7Zm-4.8.2c0-.6-1.2-1.2-1.7-1.6s-3.3-2.4-5.1-1.6l-1.8.9a38.4,38.4,0,0,0-3.6,1.4c-.3.2-1,.6-1.1,1h0c0,.6,1.5,1.7,2,2.1s1.6,2,2.4,2,2.7-1.1,3.5-1.5l4-1.7C110.6,85.4,111.5,85.2,111.5,84.5Zm-13-8.3A1.1,1.1,0,0,0,97.4,75,1.2,1.2,0,0,0,96,76a1.2,1.2,0,0,0,1.1,1.3C97.8,77.3,98.5,76.8,98.5,76.2Z"/><path class="cls-1" d="M110.4,84.5c-.7-.1-1.3.6-1.9.8l-3.7,1.6c-1,.5-1.9,1.1-2.9.5s-2.5-1.9-1.8-2.9,2.5-1.3,3.4-1.7l1.7-.8h1C107.8,82.1,109.1,83.5,110.4,84.5Z"/><path class="cls-1" d="M101.3,78.2c.6.2,1.5,1,.9,1.7s-1.7.7-2.4,1l-10,4.2-5,2.1c-1.2.5-2.3,1.1-3-.1s-.3-.9.3-1.3,3.8-1.6,5.5-2.3l11-4.5a5.3,5.3,0,0,1,2.5-.8Z"/><path class="cls-1" d="M99.2,69.7c.3,1,.9,2.1-.4,2.6a22.7,22.7,0,0,0-2.5.6l-5.2,1.6-14,4.3-8.2,2.4-5.2,1.5c-1.9.5-2.8.3-3.4-1.7l-.7-2.5c-1.2-4.4-2.3-8.9-3.3-13.3-.3-1.5-1.5-4.3-.9-5.7h.1c.6-1.2,2.4-1.2,3.5-1.5l4.7-1.4,9.6-2.8L84,50.8l5.3-1.4a9,9,0,0,1,2.7-.7c2.1,0,2.1,2.4,2.6,3.9l1.5,5.7c1,3.4,1.9,6.8,2.8,10.3Zm-1.6-.4a8,8,0,0,0-.7-2L96.3,65c-.5-1.5-.9-3.1-1.4-4.7s-1.1-3.8-1.6-5.7-.6-3.9-1.8-4-2.9.7-3.9,1l-5.8,1.5-8.5,2.4-9.1,2.7-4.6,1.5c-.5.2-1.7.3-2,.6s.6,4.5.8,5.4.7,2.7,1.1,4l.3,1.1c.4,1.7.9,3.5,1.3,5.2a17.7,17.7,0,0,0,.8,3.3c.7,1.2,1.3,1,2.5.7s4.1-.9,6.1-1.5l16.1-5,6.6-2c1-.4,3.5-.5,4.2-1.7S97.5,69.5,97.6,69.3Z"/><path class="cls-1" d="M97.3,75.6a.6.6,0,0,1,.5.6c0,.2-.3.4-.6.4a.5.5,0,0,1-.5-.5A.6.6,0,0,1,97.3,75.6Z"/><path class="cls-1" d="M96.9,87.2c.7.6,2.8,1.6,1.8,2.6s-2.5,1-3.4,1.4-3.6,1.6-5.4,2.2-2.3-.5-3.4-1.7-1.1-.9-1-1.5.9-.7,1.3-.8l2.5-1L92.8,87a4.5,4.5,0,0,1,2.5-.5A3.3,3.3,0,0,1,96.9,87.2Z"/><path class="cls-1" d="M95,65c.3,1,1.4,3.2.9,4.1s-4.9,2.1-6.5,2.6L81,74.4,69.9,77.8l-4.2,1.1c-1.7.5-2.8.3-3.3-1.6l-.6-2.6c-.6-2-1.1-4-1.6-5.9L59,64.2c-.6-2.2-.1-3.2,2.1-3.9l5.4-1.7L75.2,56l8.6-2.5,4.4-1.1c1.2-.3,2.1-.5,2.8-.1A3.3,3.3,0,0,1,92.1,54Z"/><path class="cls-1" d="M93.9,79.1l.3.8-6,2.5-4.7,2c-.7.3-2.8.9-3.1,1.6h-.1c-.3.8.9,1.9,1.5,2.3s1.3.3,2.2,0l.7-.3.4,1a1.7,1.7,0,0,0-1,.8c-.5,1.2,2.9,4.2,3.7,5.2h.5l.8,1.9c-3,1.1-6,2.1-9,3.3l-11.4,4.3-4.2,1.6c-.6.2-1.9,1-2.5.6s-.2-2.6-.2-3.4c0-3.9-.2-7.8-.2-11.7,0-1.7-.4-4,.1-5.7s1.1-1.6,2.3-1.9l2.9-.8,3.8-1.1L92.2,75v.3l.4,1.1a1.4,1.4,0,0,0-.9,1.2,1.2,1.2,0,0,0,1.4,1.1Zm-4,.4a1.3,1.3,0,0,0-.8-1.6,1.3,1.3,0,0,0-1.6.9,1.2,1.2,0,0,0,.8,1.5A1.2,1.2,0,0,0,89.9,79.5Zm-5,2.3A1.4,1.4,0,0,0,86,80.2a1.2,1.2,0,0,0-1.6-.9,1.4,1.4,0,0,0-1.2,1.5A1.5,1.5,0,0,0,84.9,81.8Zm-3,.7a1.5,1.5,0,0,0-1-1.8,1.6,1.6,0,0,0-1.8.9,1.4,1.4,0,0,0,1,1.8A1.6,1.6,0,0,0,81.9,82.5Zm-6.7,3.2c.8-.2,3.8-.7,3.7-1.8a6.9,6.9,0,0,0-1.6-1.8c-1-.4-2.6.5-3.6.8l-4.1,1.4c-1.6.6-3.2.9-4.7,1.6l-.7.4a6.4,6.4,0,0,0-.2.9,8.6,8.6,0,0,0-.1,1.6c.1.8.2.7.9.5a39.9,39.9,0,0,0,5.5-1.9Zm.2,2.7a1.6,1.6,0,0,0,0-1c-1.7.2-3.5,1.2-5.1,1.7s-6.2,1.1-6.3,2.8.6.4,1.1.2l2.3-.8,4.5-1.5,2.6-.9Zm-2.7,3.5c.8-.5.8-1.2-.2-1A16.6,16.6,0,0,0,69,92.2c-1.3.5-2.7.7-4,1.3s-1.3.6-1.4,1.1,1,.1,1.4-.1l3.9-1.3C70,92.8,71.7,92.6,72.7,91.9Zm-1.5,3a1.9,1.9,0,0,0,.2-.7c-.1-.5-7.7,2.6-8.3,3s.7.4.7.4l1.2-.4,1.9-.5C67.8,96.4,70.4,95.9,71.2,94.9Zm-1.1,3.2a.4.4,0,0,0,0-.7c-.4-.3-.9.1-1.3.2l-2.2.8a12.2,12.2,0,0,0-2.3,1c-.5.4-.8.8,0,.9s2.3-.8,3-1.1a12.3,12.3,0,0,0,2.3-.8Zm-1.3,3c.3-.6-.4-.8-1-.6l-1.8.7c-.6.2-1.9.4-2.3,1s2.5-.1,3.1-.2a9.6,9.6,0,0,0,1.8-.7Z"/><path class="cls-1" d="M93.2,77a.6.6,0,0,1,.6.5.6.6,0,0,1-.6.5.5.5,0,0,1-.5-.4A.5.5,0,0,1,93.2,77Z"/><path class="cls-1" d="M89,78.6a.6.6,0,0,1,.3.7.6.6,0,0,1-.7.4.5.5,0,0,1-.3-.7A.6.6,0,0,1,89,78.6Z"/><path class="cls-1" d="M88.1,95h0Z"/><path class="cls-1" d="M85.2,80.4a.5.5,0,0,1-.5.6.6.6,0,0,1-.7-.3.8.8,0,0,1,.5-.7C84.9,79.9,85.2,80.1,85.2,80.4Z"/><path class="cls-1" d="M80.7,81.5a.5.5,0,0,1,.4.8.7.7,0,0,1-.8.4c-.4-.1-.5-.4-.4-.8A.7.7,0,0,1,80.7,81.5Z"/><path class="cls-1" d="M76.5,82.8c2.3,1.3-1.1,2.2-2.1,2.5l-3.8,1.4L66,88.4c-.6.2-1.1.6-1.4-.1s4.9-3.2,6.2-3.6L74,83.6c.6-.2,1.8-1,2.5-.8Z"/><path d="M279.6,223.9h.3v-.2c4.4-2.9,5.7-9.7,4.9-14.6s-1.9-9.5-8.4-14.1l3.1.2h3.8l-1.2-1.2c-1.9-2-12.3-5.2-17.4-5.5h-1.3l.6,1.1a48.3,48.3,0,0,1,3.7,11.1l.5,2.1.4,1.6,1-1.5a22.1,22.1,0,0,0,1.5-5,19.7,19.7,0,0,1,5.1,6.3c2,5.2.7,10.4-2.4,14.9-.9,1.3-1.9,2.5-2.9,3.7l-1.2,1.4h1.8Z"/><path class="cls-1" d="M270.7,196.7c5.5,4.1,6.9,7.4,7.4,13.2s-5.2,12-6.6,13.6c1.5-.2,6.2-.3,8.1-.4,6-4.1,8.2-20.3-5.2-28.6,1.5-.4,5.7.1,7.3.1-1.7-1.7-11.9-5-17-5.2,2.7,5.4,3.4,9.5,4.3,13.3C269.7,201.7,270.5,198,270.7,196.7Z"/><path d="M93,64.4l-6.4,1.8c-1.9.6-3.8,1.1-5.7,1.8l-2.5.8-3.1,1a12.2,12.2,0,0,1-2.6.6H71.4A2.6,2.6,0,0,1,69,68.7a8.7,8.7,0,0,1-.5-2.8,2.8,2.8,0,0,1,.9-1.7,12.4,12.4,0,0,1,2-1c2.2-.8,4.5-1.5,6.8-2.1l6.5-2,4.8-1.6,8.4-2.7,6.2-2.1a60.6,60.6,0,0,1,6.1-1.6h.8a1.7,1.7,0,0,1,1.5.5,3.6,3.6,0,0,1,.8,1.2,8.9,8.9,0,0,1,.7,2.8,2.5,2.5,0,0,1-1.2,2.2l-2.3,1-8.1,2.6Zm14.2-11.9h-.3l-2.2.7-7.6,2.3-7.2,2.5L83.7,60l-4.5,1.4-5.3,1.7a26,26,0,0,0-3.6,1.3,2.5,2.5,0,0,0-1.2,1.1v.2a6.8,6.8,0,0,0,.7,2.8A2.2,2.2,0,0,0,71,69.6c.4.2.5.2.7-.2a1.4,1.4,0,0,1,.2-.6c.1-.1.2-.3.4-.3s.3-.1.3.2a4.3,4.3,0,0,0-.1.5c-.1.1-.1.3-.2.4a1.4,1.4,0,0,0,1.1,0c.1-.2.1-.4.2-.6l.3-.6a.4.4,0,0,1,.6-.3c.2.4-.2.8-.2,1.2h.5l11.4-3.6,5.5-1.5,5.2-1.6,1.7-.6,4.4-1.5c1.8-.7,3.7-1.2,5.6-1.8a17.3,17.3,0,0,0,3.2-1.1,4.2,4.2,0,0,0,1.4-.9c.1-.2.2-.3.2-.5a6.4,6.4,0,0,0-.3-2,4,4,0,0,0-1-1.8,2.3,2.3,0,0,0-2.9-.3c.1,1.1,0,1.6-.6,1.9a.8.8,0,0,1-.1-.4,2.9,2.9,0,0,1,.2-.9,1.3,1.3,0,0,1,.1-.6c-.5.1-.7.2-.8.6s-.1.3-.1.5a1,1,0,0,1-.4.5C107.1,53.3,107.4,52.9,107.2,52.5Z"/><path class="cls-1" d="M107.2,52.5c.2.4-.1.8.3,1.1a1,1,0,0,0,.4-.5c0-.2.1-.3.1-.5s.3-.5.8-.6a1.3,1.3,0,0,0-.1.6,2.9,2.9,0,0,0-.2.9.8.8,0,0,0,.1.4c.6-.3.7-.8.6-1.9a2.3,2.3,0,0,1,2.9.3,4,4,0,0,1,1,1.8,6.4,6.4,0,0,1,.3,2c0,.2-.1.3-.2.5a4.2,4.2,0,0,1-1.4.9,17.3,17.3,0,0,1-3.2,1.1c-1.9.6-3.8,1.1-5.6,1.8l-4.4,1.5-1.7.6-5.2,1.6-5.5,1.5L74.8,69.2h-.5c0-.4.4-.8.2-1.2a.4.4,0,0,0-.6.3l-.3.6c-.1.2-.1.4-.2.6a1.4,1.4,0,0,1-1.1,0c.1-.1.1-.3.2-.4a4.3,4.3,0,0,1,.1-.5c0-.3-.1-.4-.3-.2s-.3.2-.4.3a1.4,1.4,0,0,0-.2.6c-.2.4-.3.4-.7.2a2.2,2.2,0,0,1-1.2-1.1,6.8,6.8,0,0,1-.7-2.8v-.2a2.5,2.5,0,0,1,1.2-1.1,26,26,0,0,1,3.6-1.3l5.3-1.7L83.7,60l6.2-1.9,7.2-2.5,7.6-2.3,2.2-.7Zm-3.4,5.3H105c.2-.1.3-.2.3-.4s-.2-.2-.3-.3h-1.1l.5-.6a.7.7,0,0,0,.1-.6c-.5,0-.7.5-1.1.8s-.2-.9-.7-1.1-.1.4-.1.6a2,2,0,0,0,.1.7h-.9q-.3.1-.3.3c0,.2.1.2.2.3l.4.2.5.2c-.3.4-.9.6-.7,1.2a.6.6,0,0,0,.6-.3l.6-.4a2.4,2.4,0,0,1,.2.8.5.5,0,0,0,.4.2c.1,0,.3-.1.3-.2v-.4A2.5,2.5,0,0,0,103.8,57.8ZM85.2,61.9c-.5,0-.7.5-1.1.8s-.2-.9-.7-1.1-.1.8-.1,1.2h-.8l-.3.2c-.1.1.1.2.2.3l.4.2.5.2c-.3.4-.9.6-.7,1.2a.6.6,0,0,0,.6-.3c.2-.1.3-.3.6-.4s.1.3.2.5.1.3.2.5.4-.8.3-1.3h1.2a.4.4,0,0,0,.3-.4c0-.1-.2-.2-.3-.3h-.6l-.5-.2C84.8,62.7,85.3,62.5,85.2,61.9Zm7.7-2.1H92c-.1.1-.2.2-.2.3s0,.2.1.3h.5l.5.3c-.3.3-.9.5-.7,1.2s.4-.2.6-.3.3-.4.6-.4.1.2.1.4.1.3.1.4.4.3.6.1.1-.4.1-.6-.1-.4-.2-.6h1.2c.1,0,.2-.2.2-.3s-.1-.2-.2-.3H94.1c.3-.4.8-.7.7-1.2s-.7.5-1.1.7-.2-.9-.7-1S93,59.4,92.9,59.8Zm-5.5,3.6a1,1,0,0,0,.7-.4.9.9,0,0,1,.5-.3c.2.4.2.8.5,1.1s.5-.3.4-.7a1.9,1.9,0,0,0-.2-.7h1.2c.2-.1.3-.2.3-.4s-.1-.2-.3-.3h-.6c-.2,0-.4,0-.5-.2s.8-.6.7-1.1-.8.5-1.2.8-.1-1-.7-1.1,0,.8,0,1.2h-.9l-.3.3c0,.1.1.2.2.3h.4l.5.3C87.8,62.5,87.3,62.7,87.4,63.4Zm-7.8,2h1.2a.3.3,0,0,0,0-.6h-.6c-.2,0-.4,0-.5-.2s.7-.6.6-1.2-.7.6-1.1.8-.2-.9-.7-1.1-.1.5-.1.7a1.3,1.3,0,0,0,.1.6h-.9a.3.3,0,0,0-.3.3c0,.1.1.2.2.3H78l.4.3-.6.5a.5.5,0,0,0,0,.7c.5-.1.6-.6,1.1-.7s.1.7.4.9S79.8,66.4,79.6,65.4Zm19.3-6.1h.7c.2.1.4,0,.6,0s.2-.2.2-.3a.5.5,0,0,0-.3-.3h-.6c-.2,0-.4,0-.5-.2s.7-.6.6-1.2-.7.6-1.1.8-.2-.9-.7-1.1-.1.5-.1.7a1.3,1.3,0,0,0,.1.6h-.9a.5.5,0,0,0-.3.3c-.1.1.1.2.2.2l.4.2.5.2c-.3.4-.9.6-.7,1.2s.7-.5,1.2-.6.1.2.1.3.1.4.2.5.3.3.5,0,.1-.3.1-.4S99,59.6,98.9,59.3Z"/><path d="M103.8,57.8a2.5,2.5,0,0,1,.2.7v.4c0,.1-.2.2-.3.2a.5.5,0,0,1-.4-.2,2.4,2.4,0,0,0-.2-.8l-.6.4a.6.6,0,0,1-.6.3c-.2-.6.4-.8.7-1.2l-.5-.2-.4-.2c-.1-.1-.2-.1-.2-.3s.1-.2.3-.3h.9a2,2,0,0,1-.1-.7c0-.2-.1-.4.1-.6s.5.7.7,1.1.6-.8,1.1-.8a.7.7,0,0,1-.1.6l-.5.6H105c.1.1.3.2.3.3s-.1.3-.3.4h-1.2Z"/><path d="M85.2,61.9c.1.6-.4.8-.6,1.2l.5.2h.6c.1.1.3.2.3.3a.4.4,0,0,1-.3.4H84.5c.1.5.4,1-.3,1.3s-.2-.3-.2-.5-.2-.3-.2-.5-.4.3-.6.4a.6.6,0,0,1-.6.3c-.2-.6.4-.8.7-1.2l-.5-.2-.4-.2c-.1-.1-.3-.2-.2-.3l.3-.2h.8c0-.4-.3-.8.1-1.2s.5.7.7,1.1S84.7,61.9,85.2,61.9Z"/><path d="M92.9,59.8c.1-.4-.2-.8.1-1.2s.4.7.7,1,.6-.7,1.1-.7-.4.8-.7,1.2h1.2c.1.1.3.2.2.3s-.1.3-.2.3H94.1c.1.2.1.4.2.6s.1.4-.1.6-.4.1-.6-.1-.1-.3-.1-.4-.1-.3-.1-.4-.4.2-.6.4-.3.3-.6.3.4-.9.7-1.2l-.5-.3h-.5c-.1-.1-.2-.2-.1-.3s.1-.2.2-.3h.9Z"/><path d="M87.4,63.4c-.1-.7.4-.9.7-1.2l-.5-.3h-.4c-.1-.1-.2-.2-.2-.3l.3-.3h.9c0-.4-.2-.8,0-1.2s.5.7.7,1.1.6-.8,1.2-.8-.4.8-.7,1.1.3.2.5.2h.6c.2.1.3.1.3.3s-.1.3-.3.4H89.3a1.9,1.9,0,0,1,.2.7c.1.4,0,.5-.4.7s-.3-.7-.5-1.1a.9.9,0,0,0-.5.3A1,1,0,0,1,87.4,63.4Z"/><path d="M79.6,65.4c.2,1,.2,1.2-.3,1.3s-.2-.6-.4-.9-.6.6-1.1.7a.5.5,0,0,1,0-.7l.6-.5L78,65h-.5c-.1-.1-.2-.2-.2-.3a.3.3,0,0,1,.3-.3h.9a1.3,1.3,0,0,1-.1-.6c0-.2-.1-.5.1-.7s.5.7.7,1.1.6-.7,1.1-.8-.4.8-.6,1.2.3.2.5.2h.6a.3.3,0,0,1,0,.6H79.6Z"/><path d="M98.9,59.3c.1.3.1.6.2.8s-.1.3-.1.4-.4.2-.5,0-.1-.3-.2-.5-.1-.2-.1-.3-.6.7-1.2.6.4-.8.7-1.2l-.5-.2-.4-.2c-.1,0-.3-.1-.2-.2a.5.5,0,0,1,.3-.3h.9a1.3,1.3,0,0,1-.1-.6c0-.2-.1-.5.1-.7s.5.8.7,1.1.6-.7,1.1-.8-.4.8-.6,1.2.3.2.5.2h.6a.5.5,0,0,1,.3.3c0,.1-.1.2-.2.3s-.4.1-.6,0Z"/></svg>