<svg id="teams" xmlns="http://www.w3.org/2000/svg" xmlns:xlink="http://www.w3.org/1999/xlink" viewBox="0 0 353.7 177.2"><defs><style>.cls-1{fill:none;}.cls-2,.cls-7{fill:#fff;}.cls-3{fill:#2475bb;}.cls-4{clip-path:url(#clip-path);}.cls-5{fill:#76cae7;}.cls-6,.cls-7{fill-rule:evenodd;}</style><clipPath id="clip-path"><rect class="cls-1" x="-10" y="14.6" width="160.5" height="160.54"/></clipPath></defs><path class="cls-2" d="M51.5,84.2c0,.4-.1.7-.1,1.1L47,84.6a2.2,2.2,0,0,1,.1-.8A21.8,21.8,0,0,1,51.5,84.2Z"/><path class="cls-2" d="M51.3,85.8l-.6,1.5-4.2-.6.3-1.5C48.3,85,49.6,85.8,51.3,85.8Z"/><path class="cls-2" d="M20,75.7l-.3.5a19,19,0,0,0-4.1,11.2,25.8,25.8,0,0,0,.8,6.8,15.9,15.9,0,0,0,1.2,2.7c0,.2.1.3.1.5a1.5,1.5,0,0,1-1-.9,13.9,13.9,0,0,1-2.2-4.6,15.5,15.5,0,0,1,.6-10A15.8,15.8,0,0,1,20,75.7Z"/><path class="cls-2" d="M17.8,97.4h0Z"/><path class="cls-3" d="M70.3,18.2,3.4,56.6v76.3l66.9,38.7,66.8-38.4V56.7Zm54.5,107.2L70.3,156.8,15.7,125.7V64.3h0L70.3,32.5l54.5,31.6Z"/><g class="cls-4"><path class="cls-5" d="M96.6,95.1l-3.1.3A49.6,49.6,0,0,0,61.3,76.7l55.2-31.9-13-7.2-50.3,29a16.3,16.3,0,0,0-9.3-3,15.8,15.8,0,0,0,0,31.5A16.2,16.2,0,0,0,56.3,89,37.6,37.6,0,0,1,83,102.8a15,15,0,0,0-2.1,8v1.6L24.4,145.2l12.8,7.4,50.1-29a16.3,16.3,0,0,0,9.3,2.9,15.7,15.7,0,1,0,0-31.4"/></g><path class="cls-6" d="M280.5,75a7.5,7.5,0,0,1,2.3-10,6.9,6.9,0,0,1,9.7,2.3,7.5,7.5,0,0,1-2.3,10,7,7,0,0,1-9.7-2.3Z"/><path class="cls-7" d="M281.5,74.3a6.2,6.2,0,0,1,1.9-8.3,5.8,5.8,0,0,1,8.1,1.9,6.1,6.1,0,0,1-1.9,8.3,5.8,5.8,0,0,1-8.1-1.9Zm2.7-2.5a3.1,3.1,0,0,1,.7-3.9,2.2,2.2,0,0,1,3.3.9,3,3,0,0,1-.7,3.8,2.2,2.2,0,0,1-3.3-.8Z"/><path class="cls-7" d="M285.8,69.1a1.7,1.7,0,0,1,1.7.9,1.1,1.1,0,0,1-.9,1.4,1.4,1.4,0,0,1-1.7-.8,1.1,1.1,0,0,1,.9-1.5Z"/><path class="cls-6" d="M188,25.7a7.4,7.4,0,0,1,2.3-10,6.8,6.8,0,0,1,9.6,2.3,7.4,7.4,0,0,1-2.2,10,6.9,6.9,0,0,1-9.7-2.3Z"/><path class="cls-7" d="M189,25a6.1,6.1,0,0,1,1.9-8.3,5.8,5.8,0,0,1,8,1.9,6.1,6.1,0,0,1-1.9,8.3,5.6,5.6,0,0,1-8-1.9Zm2.6-2.5a3.2,3.2,0,0,1,.7-3.9,2.2,2.2,0,0,1,3.3.9,3,3,0,0,1-.7,3.8,2.1,2.1,0,0,1-3.3-.8Z"/><path class="cls-7" d="M193.2,19.8a1.6,1.6,0,0,1,1.7.9,1.1,1.1,0,0,1-.9,1.4,1.4,1.4,0,0,1-1.7-.8,1.2,1.2,0,0,1,.9-1.5Z"/><path class="cls-6" d="M240.1,66.2a3.6,3.6,0,0,1,2.6-4.2,3.1,3.1,0,0,1,3.9,2.7,3.6,3.6,0,0,1-2.6,4.2,3.2,3.2,0,0,1-3.9-2.7Z"/><path class="cls-7" d="M241.5,65.9a2.3,2.3,0,0,1,1.7-2.5,2.1,2.1,0,0,1,2.5,1.6,2.1,2.1,0,0,1-4.2.9Z"/><path class="cls-6" d="M238.3,29.9a3.6,3.6,0,0,1,2.6-4.3,3.3,3.3,0,0,1,3.9,2.7,3.7,3.7,0,0,1-2.7,4.2,3,3,0,0,1-3.8-2.6Z"/><path class="cls-7" d="M239.7,29.5a2.2,2.2,0,0,1,1.7-2.5,2.1,2.1,0,0,1,2.4,1.6,2.1,2.1,0,0,1-1.6,2.5,2,2,0,0,1-2.5-1.6Z"/><path class="cls-6" d="M241.6,105.4c-2.4-2.6-1.3-6.7,1.3-8.4a5.6,5.6,0,0,1,8.6-.3,7,7,0,0,1-.5,9.4C248.4,108.5,244,108,241.6,105.4Z"/><path class="cls-2" d="M243.2,97.6a4.3,4.3,0,0,0,.8,5.5c1.5,1.3,3.3,1.5,4.6.4a3.2,3.2,0,0,0,.1-4.4c-1.2-1.3-2.9-1.5-3.9,0a2,2,0,0,0,.7,2.9,1.4,1.4,0,0,0,2.1-1c.1-.6-.5-1-1-1.1a.5.5,0,0,0-.3.9c.3.2,0,.5-.3.3s-.5-1.5.4-1.7a1.6,1.6,0,0,1,1.7,2c-.3,1.2-1.8,1.5-3,.9a2.7,2.7,0,0,1-1-3.7c1.2-1.8,4.2-1.5,5.4.4s.8,4.2-.9,5.2-3.6.9-5.6-1.6a5.2,5.2,0,0,1-.8-4.1c-2.1,2.1-1.3,5.9.7,7.4a6.6,6.6,0,0,0,8.1-.6c2.5-2.7,1.4-7.4-.5-9S244.6,95.2,243.2,97.6Z"/><path d="M186.7,137.4c2.3,3.2,5.3,2.1,8.4,1.9A148.7,148.7,0,0,0,212.2,128c3-2.2,6-4.5,9.2-6.6l.8-.5V120l-.3-1.8h.4c.4-.2,4.4-2.3,4.7-2a21.2,21.2,0,0,0,16,6,26.7,26.7,0,0,0,8-1.7c7.6-2.8,14.2-9.7,14.6-18.2a21,21,0,0,0-1.1-7.9c-2.4-7.1-8.1-14.3-15.8-16a21,21,0,0,0-7.5-.1,30.5,30.5,0,0,0-8.5,2.9c-6.9,3.7-12.1,11.6-11.5,19.5a25.8,25.8,0,0,0,1.4,6.7c.2.6-4.2,3.5-4.7,4l-.4.4-.6-.4-.9-.5-.8.5c-7,4.5-14.7,8.1-21.7,12.7l-4.4,3.1c-.8,2-2.6,3.1-3.1,5.2A6.1,6.1,0,0,0,186.7,137.4Z"/><path class="cls-2" d="M212.8,114.6a12.8,12.8,0,0,1,4.5,7.7l3.2-2.2a9.3,9.3,0,0,0-4.5-7.5Z"/><path class="cls-2" d="M204.6,119.2a15.4,15.4,0,0,1,5.3,8.5l6.3-4.6a11.2,11.2,0,0,0-4.7-7.8Z"/><path class="cls-2" d="M209,128.4a15.4,15.4,0,0,0-5.9-8.4l-3,1.7a16.5,16.5,0,0,1,4.9,9.6Z"/><path class="cls-2" d="M204.1,131.9a15,15,0,0,0-5.1-9.5l-3.7,2.2a17,17,0,0,1,5.1,9.9Z"/><path class="cls-2" d="M199.5,135a15.5,15.5,0,0,0-5.3-9.6l-2.8,1.9a17.4,17.4,0,0,1,4.9,9.6A22.3,22.3,0,0,0,199.5,135Z"/><path class="cls-2" d="M190.4,128.1c-6.9,6.6-1.4,12.6,4.9,9.3A16,16,0,0,0,190.4,128.1Z"/><path class="cls-2" d="M258.8,101.2a15.8,15.8,0,0,0-3.4-11.6c-2.4-2.8-6.3-5.4-10.1-5.7-7.4-.7-15.1,3.7-17.2,11.1a17.6,17.6,0,0,0,.3,10.4,16.2,16.2,0,0,0,7.9,8.4,14.7,14.7,0,0,0,11.6.6,18,18,0,0,0,9.4-7.8,13.1,13.1,0,0,0,1.2-3.3Zm-29-6.4a56.9,56.9,0,0,1,1.1,10.2A49.8,49.8,0,0,1,229.8,94.8Zm2.2-1.6a93.4,93.4,0,0,1,1.3,12.1C232.8,103.9,231.7,95.8,232,93.2Zm2.4-1.7a88.2,88.2,0,0,1,1.6,14.7C235.4,104.6,234.1,94.6,234.4,91.5Zm2.3,0a101.6,101.6,0,0,1,1.6,14.8C237.7,104.7,236.3,94.6,236.7,91.5Zm2.6.5a89.4,89.4,0,0,1,1.7,14.8C240.4,105.1,239,95.1,239.3,92Zm17,12a58.1,58.1,0,0,1-.7-10.3A46.7,46.7,0,0,1,256.3,104Zm-2.3,1.5a81.1,81.1,0,0,1-.7-12.1C253.7,94.7,254.4,103,254,105.5Zm-2.5,1.6a103.2,103.2,0,0,1-.9-14.8C251.1,93.9,252,104,251.5,107.1Zm-2.3-.2a90,90,0,0,1-.8-14.8C248.9,93.7,249.7,103.8,249.2,106.9Zm-2.6-.5a104.6,104.6,0,0,1-.9-14.9C246.2,93.2,247.1,103.3,246.6,106.4Zm-2.9.1a102.3,102.3,0,0,1-.9-14.8C243.3,93.4,244.2,103.5,243.7,106.5Z"/><path class="cls-2" d="M263,106.5a17.4,17.4,0,0,0-.1-11.7,29.2,29.2,0,0,0-1.9-4.4c-2.5-4.3-6.1-8.6-11-10.2a14.8,14.8,0,0,0-4.2-.7,23.8,23.8,0,0,0-12.5,3,19.9,19.9,0,0,0-10.4,13.7,21,21,0,0,0-.3,5,19.1,19.1,0,0,0,.6,3.3c.1.4,1.2,3.2,1,3.3s-4.3,3.8-5.4,4.7a34.3,34.3,0,0,1,2.9,4.1c1.4-.5,4.1-2,5.7-2.2a19.8,19.8,0,0,0,15.5,6.1,23.9,23.9,0,0,0,7.4-1.6,21.1,21.1,0,0,0,10.2-7.2A19.1,19.1,0,0,0,263,106.5Zm-16.8,9.9a16.4,16.4,0,0,1-18.5-10.2,18.1,18.1,0,0,1-.7-11.7c1.5-4.9,4.5-8.5,9.2-10.3,3-1.2,6.3-2.3,9.4-1.8a14.3,14.3,0,0,1,7.3,2.9,21.1,21.1,0,0,1,3.9,4C264.8,100.5,258.1,112.8,246.2,116.4Z"/></svg>