<svg id="Calque_1" data-name="Calque 1" xmlns="http://www.w3.org/2000/svg" viewBox="0 0 334.9 116.6"><defs><style>.cls-1{fill:#ffc850;}</style></defs><polygon class="cls-1" points="64.1 6.7 4.9 109.3 325 109.3 265.7 6.7 64.1 6.7"/><path class="cls-1" d="M68.8,9.7V4.4h2.5a23.4,23.4,0,0,0,7-.2,2.5,2.5,0,0,1,1.5.1h1.3a1.8,1.8,0,0,1,2.2,0l.9-.4.8.7.8-1.6a18.9,18.9,0,0,1,2.4,0c1.1.1,1.9.2,2.4-.3a3,3,0,0,0-.4-1h.5l.5.3,2.3-.3c-.1.5-.1.9-.2,1.2a28.5,28.5,0,0,0,2.9.3c.2,0,.6-.3.6-.5s-.3-.4-.7-.9l3.7.5-2,.5c1.7.3,3.2.4,4-.6s1.4.9,2.3.1l1.2,2,2.3-1.9c1.4-.6,1.9.2,2.7.6l2.1-.7a3.9,3.9,0,0,1,.1.9l4.2-.3V4.1h.6V3l1.2.8h.3l-.7-1.4H120l1.1.9,1.8-1,.3.2-.6.5,3.4.6-2.5.3c1.9.6,4,.5,4.8-.2l1,.7c.7-.4,1.4-.7.5-1.3s-.3-.7,0-.8,1,.1,1.2.4.6.4,1,.6l-1.3.5c1.6.6,8,.5,8.8-.1l-1.4-.3,1.8-1,1.3.8-1.4.4c1.2.7,2.6.5,3.8.5l5.5-.2a4,4,0,0,0,1.3-.4,9.5,9.5,0,0,0,2.3.5l5.9-.4h3.5l3.1-.2c1.5-.2,3-.6,4.4.1s.6-.1,1.3-.3l.8.3V2.8l.4.2c1,.9,1.6,1,3.4.5a3.8,3.8,0,0,1,1.5,0,11.2,11.2,0,0,0,4.1.2,9.1,9.1,0,0,1,2.3.1l9.3.2c.4,0,.8-.3,1.3-.3h1.4c.7.6,1.2.5,2.1.2s2.1-.5,2.6-.1l3-.2a1.4,1.4,0,0,1,.7-.4l1.3-.4-1.4-.6c1.2-.7,2.6.1,3.9-.3s-3.3.5-1.4,1.5l.3-.2,2.1.2a1.5,1.5,0,0,0,1.1-.2,1.8,1.8,0,0,0-.4-.9,1.5,1.5,0,0,1-.8-.2H213v.3h-.8l-1.6.3c.4.4.7.9,1.1,1a6.9,6.9,0,0,0,3.7-.4,15.3,15.3,0,0,1,3.8-.1c.1-.1.2.3.5.7s.8-.6.8-.9-.6-.2-.9-.3a4.4,4.4,0,0,1-1.6-.6h2.7l-1.5-.4h1.7c.1.7,1.2.4,1.9.5h3.6a1.9,1.9,0,0,0,.8-.3c.2,0,.8.2.9.1a3.4,3.4,0,0,0,.9-.8c2.6.1,5.8-.9,8.6.6l-1.4.3a.8.8,0,0,0-.5-.5,4.7,4.7,0,0,0-2.1-.3l2.3,2.2c.1-.5.2-.7.3-1.1l1.5,1,2.4-.7c-.8-.3-2.3-.1-2.2-.9S239,1,240.2.8l-.3-.7c.7-.3,1.4.1,1.4.6V.9l4.8.3a7.5,7.5,0,0,0,1.5,0V.9L245.8.6V.3h2.8c-.1.7-.1.7,1.7.8s.7.4,1.1.4l3.3.2,2,.2a19.8,19.8,0,0,1,4.2-.3,35.5,35.5,0,0,0,4.6.3h7.7l4,6.5,1.2-.7.3.5-1.3,1.1.2.3h1.1l.8,1.5c-.7.9-.4,1.7.9,3.4s1,1.8,1.6,2.7h.2l-1-2c-.6-1-.9-1.6.2-1.4l1.8,4.5a4.3,4.3,0,0,0,.8,1.4c1,.3,1.1,1.3,1.5,2.1s.3,1.5,1.1,1.4a3.3,3.3,0,0,1,.3.6c-.1.2-.2.5-.4.5a1.2,1.2,0,0,1-.8-.1l1.6,2.6.4-1.9L290,29c1.6,1.7,2.5,4.1,3.5,6.5l-.6-.8h-.2c.2.4.3,1.1.5,1.4s1.4,1.4,1.4,2.5a1.3,1.3,0,0,0,.5.6c1.1.6,1.5,1.9,2,3l.9,2.7c1,.1,1.5.7,2,2s.5,2.5,1.7,3.2a4.9,4.9,0,0,1,.3.7l1.5,2.6a7.5,7.5,0,0,1,.6,1.3l1,.7-.3.7a22,22,0,0,1,2.4,3.8c.8,2,2.2,3.8,3.2,5.8s1.3,4.6,3,6.8c0-.3.1-.6.1-1.1l2.4,3.7.2-.2.3,1.6h.8c-.3,1-.1,1.5.7,1.3l1.5,3.3.4.4c1.6,1.3,1.9,1.8,2,3.8,2,1.5,2.3,3.9,3.4,6.1l.5-.6a15.5,15.5,0,0,1,.7,2.3h.2l1.3,1.8.4.4.2.3.2.4,1.1,1.7a3.8,3.8,0,0,1,.4,1.2l7.1,12.1h.4c.1.6.1,1,.2,1.5a7,7,0,0,0,1.7,2.3s-.1.1,0,.1h-1.2l-14.1-.4-4,.2h-3.7a5.2,5.2,0,0,1-1.7-.2h-3.4a44.3,44.3,0,0,0-5.2.2,53.2,53.2,0,0,1-6.9.4l-13.1.4h-2.7v.7H257.3v-.7h-2.7l-13.1-.4a53.2,53.2,0,0,1-6.9-.4,46.1,46.1,0,0,0-5.3-.2h-3.4a4.7,4.7,0,0,1-1.6.2c-1.6,0-3.2-.3-4.7-.3l-7.6.4h-.7c-.9-1-1.8-.2-2.7.1V115h-7.8c-.1,0-.5.3-.8.3l-4.3-.5c-.2,0-.2-.1-.2-.1l-2.4.6.2-.8c-2.4.2-4.6,1.1-6.9.2-1.8.8-2.3.8-4.3.1h-.5l-3.6.2c-.2-.7-.8-.6-1.6.1a2.1,2.1,0,0,0-.4-.6l-1.5.5v-.2l-4.4-.3.9-.6c-2.7-.3-4.9.6-7.4.8s-4.4-.2-6.6.1-3-.1-4.5-.2l-.4.6-1.2-.5-1.3.2h-3.8c-1.2-.7-2.5-.1-3.6.1s-2.2,0-2.7-.7l-2.9.5c-1.2.1-2.5.4-3.6-.2s-.6-.2-.7-.1a4.1,4.1,0,0,1-2.9,0c-.4-.1-1,.2-1.5.3v.2h1c-2.6.3-5.1.8-7.4.3h-4.9l1.5-1.3h-3l.5.7a.9.9,0,0,1-.3.6h-.6c-.4-.7-1.1-.4-1.8-.3s-1.8.5-2.6-.2a8.3,8.3,0,0,0-1.6,0l-4.8.7c-.7-.8,0-.9,1.1-.9h2.3v-.2a16.1,16.1,0,0,1-3.1-.1c-2.1-.3-2.9-.1-3.4.9H99.2a9.3,9.3,0,0,1-.5-1h-.4l-.3,1.6h-.6v-1.4l-5-.2a57.8,57.8,0,0,0-9.3.3,19.9,19.9,0,0,1-4.2-.4l-1.9.3H73.6c-.4.1-.6.5-1,.5s-1.8.1-1.8.8H68.1v-.3l1.8-.3v-.3H68.4l-4.8.4h0c0,.6-.8.9-1.5.7l.4-.8c-1.2-.1-2.2-.2-2.3-1s1.3-.6,2.1-1l-2.4-.6-1.5,1c-.1-.5-.1-.7-.2-1.1l-2.3,2.2a7.1,7.1,0,0,0,2.1-.3c.3-.1.3-.4.5-.6l1.3.3c-2.8,1.5-5.9.6-8.5.7-.4-.4-.6-.7-.9-.8s-.7.1-1,.1a1.9,1.9,0,0,0-.8-.3H45.1c-.7,0-1.8-.2-1.9.5H41.4l1.6-.5H40.3a2.8,2.8,0,0,1,1.5-.6l1-.4a5.7,5.7,0,0,0-.8-.8c-.3.4-.4.7-.5.7s-3.1.2-3.9-.2a7.4,7.4,0,0,0-3.6-.3c-.5,0-.8.6-1.1.9l1.5.4h.8v.3H30.8c.2-.2.7-.1.7-.2s.5-.5.5-.8-.7-.3-1.1-.3l-2.1.2h-.4c-1.8.9,1.4.8,1.4,1.4s-2.6.4-3.8-.2l1.4-.6-1.4-.4-.6-.4-3-.2a2.3,2.3,0,0,1-1.3.3,6.4,6.4,0,0,1-2.2-.4,3.5,3.5,0,0,0-3,.2,7.3,7.3,0,0,1-2.1,0l-1.5-.2H4.7l2.5-4.7a14.3,14.3,0,0,1,1.5-2.7,16.9,16.9,0,0,0,2.7-5.1,13.2,13.2,0,0,1,1.2-2l.9-1.1a2.5,2.5,0,0,0,.4-.7,2.2,2.2,0,0,0,0-1.6,2,2,0,0,0,.1-.5l.7.4v-.8l.9-1c.1-1.5,1.2-2.6,2.1-3.8S19,86.9,19.5,86l1.7-3.1c1.1-1.7,2.3-3.2,3.3-4.9a9.4,9.4,0,0,0,.7-2.2,2.8,2.8,0,0,0,1-.9c1-1.6,2-3.1,2.9-4.7s1.5-2.2,1.5-3.5l-1,.9a7.6,7.6,0,0,0-.1-1.5l1.8-1-.4,1.4c.9-.4,4.1-5.9,4.4-7.6l-1,.8a4,4,0,0,0,0-1.1c-.3-.4-.5-.7.2-1.3s.7.1.7.4.6.6,1.3.2V56.8c1-.4,2.1-2.2,2.5-4.1a20.7,20.7,0,0,0-1.5,2l1.2-3.2-.8.2v-.4l1.7-1a10.6,10.6,0,0,0-.3-1.4l.9-1.7.9,1.3.2-.2a7.6,7.6,0,0,0-.1-1.4l1,.5.3-.5-1.1-.6,2.4-3.4a2.2,2.2,0,0,0-.7-.7l1.7-1.4c0-.9-.4-1.8.7-2.6l2.9-1.1-1.2-2c1.2-.4,1.1-1.3,1.1-2.1s1.9-1.5,2.5-3.1a17.8,17.8,0,0,1-1.4,1.4l1.4-3.4c.2.6.2,1,.4,1.1l.8-.3,1.2-2.6-1.2-.5,1.4-1.8v-.6l.3-.4.7.8c.7-.2,1.1-.9,1.5-1.9a8.7,8.7,0,0,1,1.2-2h1.7l-.2-1,.9-.6a1.7,1.7,0,0,1,1-1.9,2.7,2.7,0,0,0,.7-1.2,3,3,0,0,1,.6-1.3,25.5,25.5,0,0,0,3.7-5.9l1.2-2.3,4.6,2.7v.7a8.9,8.9,0,0,0-2.4,4.2c-.2,1.4-.6,2.1-1.6,2.5s-.6,2.5-1.8,3.2-.4.7-.4.9-.4,2-1.3,2.2-.2,1.2-.4,1.6l-5.4,10c-1.4,2.4-2.7,4.9-4,7.4s-4.2,7-6.4,10.5a9.4,9.4,0,0,0-1.3,2.4,7,7,0,0,1-2,3.2,5.5,5.5,0,0,0-.8,1.3c.8,1-.7,1.9-1.1,2.9v-1h-.3c-.3,1.4-.4,3-1.8,4.1l-.2-.5L39,65.2c-.3,1.3-.5,2.2-.8,3.1s-.5.3-.6.3a5.9,5.9,0,0,1-.5,1.3,10.7,10.7,0,0,1-1.6,1.4c.1.8.4,1.4-.6,2.2l.4-1.4-1,1.7c-.5.7-1.4,1.3-.7,1.9l-.3.6H33c-.4-.6-1.1.5-1.3.9s-1.4,2.9-2.2,4.4.5.8-.2,1.9-3.2,5-4.7,7.5l-1.3,1.7h-.1L24.5,90h-.1L23,91.5a4.5,4.5,0,0,0-.4,1.7c.1.6.3,1-.6.8l-.5.6-1.2,3L20,98l-1,1.4-.6,1-.3.7-.7,1.4h-.3v-.8l-.8,1.5c1-.3,1,.1.8.4l-1,2H23c1.7,0,3.3-.2,5-.3l13.3-.3,21.1-.7H72.8l10.2-.4,16.6-.5,15.6-.4h21.7c2.4,0,4.7-.2,7.1-.3h23.6l26.4-.2h44l31.7-.2h1.5l31.6.2h14.7l-.2-.2h0l-.2-.3L315,98.1,301.9,75,293,59.3l-2.8-4.7c-1.2-2.1-2.2-4.2-3.3-6.3l-5.1-8.6-5.7-10.3-7.5-13.7-.8-1.5-.4-.8h-.1l-.3-.6h-6.2l-10.3-.4H240.2L219,11.2l-13.3-.4-4.9-.2h-7.6l-10.8-.2c-.8,0-1.8-.2-1.4-.9h-2.8l1.6.3v.3L174,9.9l-1.8.2h-.4l-3.2-.4-.8.2c-.3.8-.5.4-1,0a5.3,5.3,0,0,0-1.7-.4l-2,.4H163l3,.2v.2h-2.1l-8.9.4c-1.2.1-1.7-.3-1.7-.7a42.2,42.2,0,0,0-4.9-.4c-.5,0-1.7,0-1.5.7s0,.2-.1.2a1.1,1.1,0,0,1-.6,0c-.2-.8-1.2-.4-2-.3h-2l1.4.3c-1.2.5-1.6-.1-2.2-.6l-2,.8a4.7,4.7,0,0,1-1.5-.2s-.4.4-.5.3l-3-.8-2,.5.4.4c-1.7.6-3.1-.1-4.5-.5l-.2.2,1,.5c-1.1-.1-2.6.7-3-.5a3.6,3.6,0,0,0-1.5,0,7.4,7.4,0,0,1-3.9.1,8.2,8.2,0,0,0-2.7,0c-4.1.1-8.3.5-12.3.3l-8.4-.3L86,10.6a5.5,5.5,0,0,1-1.7-.5c-.5.7-1.4.8-2.5,0h-1c-1.2.8-2.4.2-3.6.1s-1.7.6-3,0a9.8,9.8,0,0,0-4.8,0Zm-16,104.2,1.3-.5-.5-.8-4.8.2a5.3,5.3,0,0,1-1-.6,2.9,2.9,0,0,1-3.1.4H43.5c-.2.1-.4.4-.2.5s.7.2,1.1.2h5.9c.6.1,1.7.5,1.6.6s.8.5,1.7.5Zm52.9-1.5a5.7,5.7,0,0,0-2.2-.9,13.2,13.2,0,0,0-3.1.5l.8-1.5h-1.1c-1.3-.1-2.5.3-3.9,0a11.3,11.3,0,0,0-2.5.3l-1.6.5H89.2l.8.2c-1.3.9-3.1.7-4.9.5l1.1-.9-3.8.4-.6.7-1.1-.4a4.9,4.9,0,0,0-1.6-.5c-1,0-2,.3-3,.4v.2l1.2.2v.2c-2.2-.4-4.1.6-6.4,0a9.2,9.2,0,0,0-1.6.1l-2.6.3a1.9,1.9,0,0,0-.8.3l.2.2h2c.3.7.9.8,2.2.4a5.9,5.9,0,0,1,4.2.1,27.6,27.6,0,0,1,4.9-.1,8.1,8.1,0,0,0,2.2.1,41.8,41.8,0,0,1,6.1-.1c1.8.2,3.2.2,4.4-.6h.9c1.3.8,1.5.8,2.4,0,2.4.8,4.5-.8,6.8-.1l-.9.4c2.5-.1,2.5-.1,2.2-.5Zm3.2-.7a7,7,0,0,1,4,.3l1.4-1.5-.7-.2-1.3.9a.9.9,0,0,1-.3-.6c.1-.6-.8-.7-1.4-.5s-3.1.1-4.6.3a2.9,2.9,0,0,1-1.6,0c-1.2-.5-1.2.1-1.6.3v.3l4.1-.2a9.3,9.3,0,0,1,.4,1.3Zm6.3,2.2-7,.2v.3h1.2c1.3,0,2.6-.1,3.9,0A1.9,1.9,0,0,0,115.2,113.9Zm15.9-3.3a10.3,10.3,0,0,0-5.2-.2,5.1,5.1,0,0,0-1.4-.4l-9.2.7.3,1.1c2.4-.3,4.9-.1,6.7-1.2.3.9,1.5.6,2.4.5l4.2-.3ZM282.9,25.7c1.3,2.8,2.7,5.5,4,8.3.1.3.6.5,1,1a11.3,11.3,0,0,0,2.8,4.4l-.9-2L288,33.6c-.4-.8-.7-2-1.6-1.8,0-2.2-1.5-4.2-2.4-6.4Zm-.6-7.9,3.4,6.2a2.1,2.1,0,0,0-.6-1.8c-.7-1.1-1.3-2.3-1.9-3.4l-.5-1.1Zm-5.4-3.1h-.3c.1.5-.4.8.6,1.5a4.2,4.2,0,0,1,.8,1.5c.6,1.3,1.7,2.5,2,4.1s.7,1.3,1.2.9.4,0,.7,0a13.7,13.7,0,0,0-.2,1.6l.5.5.7-2a5.9,5.9,0,0,1-2.3-3.3,15.4,15.4,0,0,0-.5-1.7l-1.3.5ZM243.7,3l.8.3,2.6.2a5.6,5.6,0,0,0,1.7.2c2.2-.7,4.2.4,6.3,0v.2H254v.2a14.5,14.5,0,0,0,2.9.4c.6.1,1.2-.3,1.7-.4l1.1-.4.6.6,3.7.4-1-.9h2.6a5.4,5.4,0,0,1,2.7.7h-1.1l.4.2h3.3l.6.2c.2.5.3,1,.5,1.4a8.5,8.5,0,0,0,1.2,2.7,12.5,12.5,0,0,1,1.1,1.8,15.1,15.1,0,0,0,.9,1.8,3.3,3.3,0,0,0,.6.8l.9-1.4a23.9,23.9,0,0,0,1,2.9,6.5,6.5,0,0,0,2,1.5c-.2-.9-.4-1.5-.5-2.2s.4.1-.7-2.1c0,.5.1.8.1,1a6.7,6.7,0,0,1-1.6-3l-.6-1.5-.2-.4-.4-.6a3.9,3.9,0,0,0-.8-1c-.1-1.8-.4-2.2-1.9-3.2l-.4-.6a1.1,1.1,0,0,1-.8,0,6.9,6.9,0,0,0-2.8-.6h-3.5a30.2,30.2,0,0,1-6-.1,8.2,8.2,0,0,0-2.2.2,44,44,0,0,1-5-.1,7,7,0,0,1-4.1.1c-1.3-.4-1.9-.3-2.3.4H244Zm-22.4.5a2,2,0,0,0,1.1,0,3.1,3.1,0,0,1,3.1.3l1-.6,4.8.2a2.2,2.2,0,0,0,.5-.8l-1.3-.4.8-.5c-.9,0-2-.5-1.6.5a3.8,3.8,0,0,1-1.7.5h-5.8l-1.2.2C220.9,3,221,3.4,221.3,3.5Z" transform="translate(-4.7 0)"/><path d="M93.2,40.9h8.5v3.8h-4V74.9h4v3.9H93.2Z" transform="translate(-4.7 0)"/><path d="M116.7,48.5c5.6,0,8.5,3.3,8.5,7.3a6.9,6.9,0,0,1-5.4,6.8l5.7,9.5H120l-5.2-9.2h-2.3v9.2h-4.7V48.5Zm-.2,3.9h-4v7h4c2.6,0,3.8-1.4,3.8-3.5S119.1,52.4,116.5,52.4Z" transform="translate(-4.7 0)"/><path d="M137.7,72.4c-5.5,0-9.5-3.8-9.5-9.6s3.9-9.7,9.5-9.7,9.2,3.7,9.2,9.3a10.9,10.9,0,0,1-.1,1.8H133.1a4.3,4.3,0,0,0,4.5,4.3,3.8,3.8,0,0,0,3.7-2.3h5.1A8.6,8.6,0,0,1,137.7,72.4ZM133.1,61H142c-.1-2.5-2-4-4.5-4A4.3,4.3,0,0,0,133.1,61Z" transform="translate(-4.7 0)"/><path d="M160.5,72.1H150.3V48.5h9.8c4.9,0,7.6,2.6,7.6,6.1a5.4,5.4,0,0,1-4,5.4,5.8,5.8,0,0,1,4.6,5.7C168.3,69.5,165.4,72.1,160.5,72.1Zm-1.1-19.8h-4.3v6h4.3c2.2,0,3.5-1.1,3.5-3S161.6,52.3,159.4,52.3Zm.3,9.6h-4.6v6.4h4.7c2.3,0,3.7-1.1,3.7-3.1S162,61.9,159.7,61.9Z" transform="translate(-4.7 0)"/><path d="M189.8,72.1H185V69.8a7.3,7.3,0,0,1-5.6,2.6c-4.4,0-7.5-2.9-7.5-8v-11h4.7V63.7c0,3,1.7,4.6,4.2,4.6s4.2-1.6,4.2-4.6V53.4h4.8Z" transform="translate(-4.7 0)"/><path d="M193.9,48.4a2.9,2.9,0,0,1,5.8,0,2.9,2.9,0,0,1-5.8,0Zm.5,5h4.7V72.1h-4.7Z" transform="translate(-4.7 0)"/><path d="M203.8,47.1h4.7v25h-4.7Z" transform="translate(-4.7 0)"/><path d="M220.6,53.1a7.6,7.6,0,0,1,6.1,2.9V47.1h4.8v25h-4.8V69.4a7.1,7.1,0,0,1-6.2,3c-4.7,0-8.5-3.9-8.5-9.7S215.8,53.1,220.6,53.1Zm1.2,4.1c-2.6,0-5,1.9-5,5.5s2.4,5.6,5,5.6,4.9-2,4.9-5.5S224.4,57.2,221.8,57.2Z" transform="translate(-4.7 0)"/><path d="M246,78.8h-8.5V74.9h4V44.7h-4V40.9H246Z" transform="translate(-4.7 0)"/></svg>