<svg id="Calque_1" data-name="Calque 1" xmlns="http://www.w3.org/2000/svg" viewBox="0 0 625 122.6"><defs><style>.cls-1{fill:#014353;}.cls-2{fill:#fff;}</style></defs><polygon class="cls-1" points="566.8 6.7 61.7 6.7 8.8 115.4 619.7 115.4 566.8 6.7"/><path class="cls-1" d="M592.6,8.4l3.9-2.7c.7,1.6,1.5,3.1,2.1,4.7a130.6,130.6,0,0,0,6.3,12.4,11.9,11.9,0,0,1,1.2,2.6,11,11,0,0,0,1.1,2.4,7.1,7.1,0,0,1,1.9,4l1.2,1.4a11,11,0,0,0,.2,1.8l1.8.7c.5.9,1.4,2.6,2.1,4.2s1.5,3.5,2.4,4.2a3.6,3.6,0,0,1,.4-1.1l.4.8a8.4,8.4,0,0,1,.2,1l2.2,3.9-1,.4c.8,1.9,1.5,3.6,2.3,5.2s.8,1,1,.9a8.5,8.5,0,0,0,0-1.7c1.1,2.6,1.8,4.4,2.8,6.9L623,57.1c1.3,3.2,2.5,6,3.9,6.9s.6,2.9,2,4.2-.2,1.9-.4,3.1l3.4,3.2c1.6,2.1,1.5,3.5,1.9,5.1l2.3,3.4-.5.8c1.4,2.5,2.6,4.9,3.9,7.3l-.9.6.5,1.1.8-.6a22.4,22.4,0,0,1,.5,2.6l.3.5a15.5,15.5,0,0,0,.4-2.1l1.7,3.6.3,2.4,2.2,2.7.2.7-1-.9a11.1,11.1,0,0,1,.7,1.6l.9,2.2,2.1,4.8-3.3-6.2c.9,2.4,1.9,4.7,2.9,6.8a35.4,35.4,0,0,0,3.1,5.3l.3,1.8h-.1c-.5.1-1.1.3-1.2.5s.2.4,1.8.7,1.7.8,1.1.8a7.5,7.5,0,0,1-4-.4,14.1,14.1,0,0,0-3.1-.6l2.7-.5-5-.3h-6.5a32.6,32.6,0,0,0-7.1.5l2.5.3-3.1,1-2.3-.8,2.4-.4c-2-.7-4.5-.5-6.7-.5l-9.6.2a9.7,9.7,0,0,0-2.2.4,18.7,18.7,0,0,0-4-.4c-3.5,0-6.9.2-10.3.3h-6.2a50.7,50.7,0,0,0-5.5.3c-2.6.1-5.2.5-7.6-.2a9,9,0,0,0-2.3.3l-1.4-.3v.8l-.7-.2c-1.8-.9-2.8-1-5.9-.5a12.2,12.2,0,0,1-2.7,0,35.1,35.1,0,0,0-7.3-.2,28,28,0,0,1-4-.1l-16.2-.2c-.7,0-1.4.3-2.2.3H532c-1.1-.6-2.1-.5-3.7-.2s-3.6.5-4.5.1l-5.3.2a4,4,0,0,1-1.2.4l-2.3.4,2.4.7c-2,.6-4.5-.2-6.7.2,0-.7,5.7-.5,2.5-1.5l-.7.2-3.7-.2-1.9.2c0,.3.4.6.8.9a3.7,3.7,0,0,1,1.3.2h-7.8v-.3h1.4l2.8-.3c-.7-.3-1.2-.9-2-1a19.9,19.9,0,0,0-6.4.4c-1.4.3-4.4.1-6.7.2-.1,0-.4-.4-.8-.8a5,5,0,0,0-1.5.9l1.7.3a18.1,18.1,0,0,1,2.7.6h-4.7l2.7.4h-3c-.2-.7-2.2-.4-3.4-.5h-6.2a5.8,5.8,0,0,0-1.4.3,11.6,11.6,0,0,0-1.7-.1l-1.6.8c-4.5-.1-10,.9-14.9-.6l2.4-.3a1.2,1.2,0,0,0,.8.5,14.6,14.6,0,0,0,3.7.3l-4.1-2.2a3.6,3.6,0,0,1-.4,1.1l-2.6-1-4.2.7c1.4.3,4.1.1,3.8.9s-1.9.9-4.1,1.1l.7.7c-1.3.3-2.5,0-2.6-.6v-.2l-8.3-.3h-2.6v.3l3.1.3v.3h-4.8c.1-.7.1-.7-3.1-.8-.6,0-1.1-.4-1.7-.4l-5.9-.2-3.4-.2a61.1,61.1,0,0,1-7.4.3c-5.4-.4-10.8-.3-16.3-.2h-8.6v1.5h-1.1l-.5-1.7h-.7l-1,1h-2.9c-.8-1-2.3-1.2-6-.9H375l-.2.3h4.1c1.8,0,3.1,0,1.8.9l-8.4-.7h-2.8c-1.3.7-3,.3-4.5.2s-2.5-.5-3.1.2h-1.2c-.2-.2-.5-.4-.4-.6s.6-.4.9-.6h-5.4l2.6,1.3-8.5-.2c-4,.6-8.5.1-12.9-.2h1.7l.2-.2-2.6-.3a12.5,12.5,0,0,1-5.1,0H330a17.1,17.1,0,0,1-6.4.2l-4.9-.5c-1,.8-2.4.9-4.8.7s-4.1-.7-6.4-.1h-8.9l-2.1.5-.6-.6a70.6,70.6,0,0,1-7.9.2c-3.9-.3-7.7,0-11.5-.2s-8.2-1.1-13.1-.8l1.6.7-7.6.2v.2l-2.7-.4-.7.5c-1.3-.7-2.3-.8-2.7,0l-6.3-.3h-1c-3.4.7-4.3.7-7.4-.1-4.1.9-7.9,0-12.2-.2l.4.8-4.2-.6c.1,0-.1.2-.3.2l-7.6.4a2.7,2.7,0,0,1-1.3-.2H197.8v.3c-1.5-.4-3-1.2-4.7-.1H192c-4.5-.2-8.9-.4-13.4-.4-2.7,0-5.4.2-8.1.3l-2.9-.2-6-.2c-3.1.1-6.3,0-9.2.3s-8,.2-12,.3l-23,.4h-4.7v.7h-46v-.7H62l-11.5-.2H28c3-6.2,6.1-12.4,9.3-18.3a19.1,19.1,0,0,1,1.5-2.8L40,98.1c.7-1.6,1.5-3.2,2.3-4.8s2-4.1,2.9-6.2.8-2.1,1.3-3c1.4-2.8,3-5.5,4.3-8.3,2.2-4.6,4.3-9.2,6.4-13.9.2-.4.5-1.1.6-1.1,1.6-1.2,1.7-3.1,2.2-4.9l.2.2,6.9-13.9a5,5,0,0,1,.5-1.5c1.3-2.6,2.7-5.1,4.1-7.6a.7.7,0,0,1,.3-.3l1.6-4.5.4.8c2-4.5,3.3-8.9,6-12.6a17.6,17.6,0,0,1,3.6-7.7l.6-1c.9-2.1,1.9-4.1,2.9-6.2l5-.2a1.8,1.8,0,0,0,.7.5h.8l1.6-.6.8.5,2.7-.4v.2l7.7.3-1.6.6c4.8.3,8.7-.6,13.1-.8s7.6.1,11.5-.2a73.1,73.1,0,0,1,7.9.3l.6-.7,2.1.5h8.9c2.2.7,4.4.1,6.4-.1s3.8-.1,4.8.7l4.9-.5a17.1,17.1,0,0,1,6.4.2,2.6,2.6,0,0,0,1.2.1,12.5,12.5,0,0,1,5.1,0l2.5-.3V1.4h-1.8c4.5-.4,8.9-.9,13-.3l8.5-.2-2.6,1.4h5.4c-.4-.2-.9-.4-1-.6s.3-.4.5-.6a4.8,4.8,0,0,1,1.2,0c.5.7,1.8.4,3.1.2s3.1-.5,4.5.2a10.4,10.4,0,0,0,2.7.1L222,.8c1.3.9,0,1-1.9.9h-4v.3c1.8,0,3.7-.1,5.4,0,3.7.3,5.2.1,6-.9h2.9l1,.9h.6l.6-1.7h1.1V1.9h8.6c5.5.1,10.8.2,16.3-.2a61.1,61.1,0,0,1,7.4.3l3.4-.2,5.8-.2c.7,0,1.2-.4,1.8-.4,3.2-.1,3.2-.1,3.1-.8H285V.8l-3.1.3v.3h2.7l8.3-.4V.9c0-.5,1.3-.9,2.5-.6l-.6.7c2.1.2,3.8.3,4.1,1.1s-2.4.6-3.8.9l4.2.7,2.6-1a3.6,3.6,0,0,1,.4,1.1l4.1-2.2a14.2,14.2,0,0,0-3.7.3,1.9,1.9,0,0,0-.9.5l-2.3-.3c4.9-1.5,10.4-.5,14.9-.6a11.9,11.9,0,0,0,1.6.8,9.7,9.7,0,0,0,1.6-.1,6.6,6.6,0,0,0,1.5.3h6.2c1.2-.1,3.2.2,3.3-.5h3.1l-2.7.4h4.7A11.8,11.8,0,0,1,331,3l-1.7.3c.1.3.7.5,1.4.9s.7-.7.9-.7a47.3,47.3,0,0,1,6.7.1,19.9,19.9,0,0,0,6.4.4,5.4,5.4,0,0,0,2-1l-2.8-.3h-1.4V2.4h7.8a4,4,0,0,1-1.3.2c-.4.3-.8.6-.8.9a4.5,4.5,0,0,0,1.9.2l3.7-.2.7.2c3.2-1-2.5-.8-2.5-1.5,2.2.4,4.6-.4,6.7.3l-2.4.6,2.3.4a2.5,2.5,0,0,1,1.1.4l5.3.2c1-.4,2.2-.5,4.6.1s2.5.4,3.6-.2h2.6l2.2.3L394.2,4a28,28,0,0,1,4-.1,28.4,28.4,0,0,0,7.2-.2,13.1,13.1,0,0,1,2.8,0c3.1.5,4.1.4,5.9-.5l.7-.2v.8l1.4-.3a9,9,0,0,0,2.3.3c2.4-.7,5-.3,7.6-.1l5.5.2h6.1l10.3.4a27.3,27.3,0,0,0,4-.5,12,12,0,0,0,2.3.4l9.6.2c2.1,0,4.6.2,6.7-.4l-2.4-.5,2.2-.8,3.1,1-2.4.3c1.3.6,12.5.7,15.3.1l-2.1-.5A9.1,9.1,0,0,0,486,3c.3-.4.7-.8,2.1-.5s.5.6,0,.8-.4.9.8,1.3l1.8-.7c1.4.7,5.1.8,8.3.2l-4.3-.3,6-.6-1.2-.5.7-.2,3.1,1,1.8-.9h3.5l-1.3,1.4h.5l2.1-.8V4.4H511V3.1l7.3.4a2.6,2.6,0,0,1,.3-1l3.6.7c1.4-.4,2.3-1.2,4.7-.6l4,1.9,2.1-2c1.6.8,2.8.3,4.1-.1s3.9,1,6.9.6l-3.4-.5,6.5-.5c-.7.5-1.3.7-1.3.9s.7.5,1.1.5l4.9-.2a8.3,8.3,0,0,0-.2-1.3l4,.3.9-.3h.8l-.7,1c1,.5,2.4.4,4.3.3H565l1.4,1.6,1.4-.7,1.7.4a5,5,0,0,1,3.8,0,8.8,8.8,0,0,0,2.3,0,7.3,7.3,0,0,1,2.6-.1,70.5,70.5,0,0,0,12.2.2h4.4V9.9l-1,.4a29.5,29.5,0,0,0-8.4,0c-2.3.6-3.7.6-5.2,0s-4.3.7-6.4-.1h-1.7c-1.9.8-3.5.7-4.5,0a16.6,16.6,0,0,1-2.8.5l-19.8.3-14.7.3c-7.1.2-14.4-.2-21.6-.3a24.5,24.5,0,0,0-4.7,0,22.1,22.1,0,0,1-6.8-.1h-2.6c-.7,1.2-3.5.4-5.3.5l1.7-.4-.3-.3c-2.5.4-5,1.1-7.9.5l.7-.4-3.4-.5-5.4.9-.9-.4a12.9,12.9,0,0,1-2.5.2l-3.5-.8a4.2,4.2,0,0,1-3.9.6l2.5-.3h-3.6c-1.3-.1-3.1-.5-3.4.3h-1.1c-.1,0-.3-.1-.2-.2s-1.8-.7-2.5-.7c-2.8,0-5.6.2-8.6.4-.1.4-.9.8-3.1.7l-15.5-.4h-3.7v-.2l5.1-.2h-.1l-3.5-.4a15.5,15.5,0,0,0-3,.4c-.8.4-1.2.8-1.7,0l-1.4-.2-5.6.4h-.7l-3.2-.2-10,.2v-.2l2.7-.4h-4.8c.6.7-1,.9-2.4.9l-18.9.2H363.8l-8.6.2-23.3.4-37,.6H276.8l-17.9.4L230,13l-27.4.3-20.5.2H164.5l-12.3.2c-3.2.1-6.4,0-9.6,0H93.1l-1.4,2.9-3.1,6.4L82.3,36.2,63.2,75.4l-16,33H223.4l46.2.2h41.3l12.4.2h17.5l20.5.2,27.4.3,28.9.5c6,.1,11.9.4,17.9.4h18.1l37,.6,23.3.4,8.6.2h13.4l18.9.2c1.4,0,3.1.2,2.4.9H562l-2.6-.3v-.3l10,.2,3.2-.2h.8l5.5.4,1.4-.2c.5-.8.9-.4,1.8,0a13.2,13.2,0,0,0,2.9.4l3.5-.4h.1l-5.1-.2h-.1l3.7-.2,15.5-.4c2.3-.1,3,.3,3.1.7,3,.2,5.8.4,8.6.4.7,0,3,0,2.5-.7s.1-.2.2-.2h1.1c.4.8,2.1.4,3.5.3h3.5l-2.5-.3a4.8,4.8,0,0,1,4,.6l3.4-.8a12.9,12.9,0,0,1,2.5.2c.1,0,.8-.4.9-.3l2.5.4h1.3l.8.2a4.3,4.3,0,0,0,1.5-.5l-.6-.4a1.2,1.2,0,0,1,1-.2l1.7.4v-.5l-.4-.3c0,.1-.1.2-.2.3a8.3,8.3,0,0,0-.8-1.2c-.2-.4-.2-.6.4-.7l-.6-1.2-.6-.6V107h0v-.2l-.5-.8c-.5-1.1-1.1-2.3-1.6-3.6a42.6,42.6,0,0,0-2.3-4.9c-3.7-7.3-7.6-14.6-11-22l-7.2-15.3L607,39.7a23.9,23.9,0,0,1-1.1-3.2c-1-.6-1.8-2.2-2.2-4.6l-.8-1.8c-1.6-1.7-2.3-4.2-3.2-6.5a10.9,10.9,0,0,1-2.7-5.3,49.7,49.7,0,0,0-4.2-8.7Zm-280.8-6-2.3.4.9.8,8.4-.2,1.8.6a8.8,8.8,0,0,1,5.4-.3h2c.4-.1.7-.5.4-.5a5.4,5.4,0,0,0-1.9-.3c-3.5,0-6.9.1-10.3,0a8.8,8.8,0,0,1-2.9-.5c.7-1-1.3-.5-2.9-.5ZM219.2,3.9a15.5,15.5,0,0,0,3.9.9,38.6,38.6,0,0,0,5.4-.5l-1.4,1.4,1.8.2c2.3,0,4.5-.3,7-.1a20.3,20.3,0,0,0,4.2-.3c1.1-.1,1.9-.4,2.9-.4h4.5l.6-.2h-1.4c2.3-1,5.4-.7,8.5-.6l-1.9.9,6.6-.4L261,4l1.9.4a25,25,0,0,0,2.9.5l5.1-.5V4.2h-2.1V3.9c3.7.4,7.2-.6,11,0a16.7,16.7,0,0,0,3-.2l4.5-.2,1.4-.3-.5-.2h-3.4c-.5-.7-1.6-.8-3.9-.4a21.8,21.8,0,0,1-7.3-.1c-3.4,0-6.2.3-8.6.1a25.5,25.5,0,0,0-3.9-.2,92.4,92.4,0,0,1-10.5.1,20,20,0,0,0-7.7.6,4.8,4.8,0,0,1-1.7,0c-2.3-.9-2.6-.9-4.2-.1-4.1-.8-7.9.8-11.9.2l1.7-.4c-4.4.1-4.4.1-3.9.4Zm-5.6.7a21.1,21.1,0,0,1-7-.3l-2.5,1.5,1.2.2,2.4-1,.5.6c-.2.7,1.4.8,2.5.6s5.3-.2,7.9-.3a15.1,15.1,0,0,1,2.9-.1,2.8,2.8,0,0,0,2.8-.2V5.3l-7.2.2-.5-1.4ZM202.5,2.3l12.2-.2V1.8h-2.1c-2.3,0-4.7.1-6.9,0A6.4,6.4,0,0,0,202.5,2.3ZM174.8,5.7a35,35,0,0,0,9.1.2,14.8,14.8,0,0,0,2.4.4l16.1-.7-.5-1.1c-4.2.3-8.6.1-11.8,1.1-.6-.8-2.6-.5-4.2-.5l-7.3.3ZM361.1,116.9l-16.1-.7a13.9,13.9,0,0,0-2.3.4,35.7,35.7,0,0,0-9.2.2l3.8.3,7.3.3c1.7,0,3.7.4,4.2-.5,3.2,1,7.6.8,11.8,1.1Zm12.4,3.5-12.3-.2a6.9,6.9,0,0,0,3.3.4h8.9Zm9.4-3.2v-.3c-.7-.2-.8-.8-2.7-.2h-3c-2.6-.2-5.3.2-7.9-.4-1.1-.2-2.7,0-2.5.6s-.2.3-.5.6l-2.4-1-1.2.2,2.5,1.6a18.7,18.7,0,0,1,7-.3l2.9.4c.2-.4.3-.9.5-1.4Zm64.5,2.1L446,119l-4.5-.2a15.7,15.7,0,0,0-2.9-.2c-3.9.7-7.4-.4-11.1,0v-.2h2v-.2a43.8,43.8,0,0,0-5.1-.4,14.5,14.5,0,0,0-2.9.4l-1.9.4-1-.6-6.6-.4,1.8.9c-3.1.1-6.2.4-8.5-.6h1.5l-.7-.2h-4.5l-2.8-.5a21.7,21.7,0,0,0-4.3-.3c-2.5.2-4.7-.1-7-.1l-1.8.2,1.4,1.4c-2.1-.2-3.8-.5-5.4-.5a15.5,15.5,0,0,0-3.9.9l3.7.7c-.5.3-.5.3,3.9.5l-1.7-.5c4-.6,7.8,1,11.9.2,1.6.8,1.9.8,4.2,0a5,5,0,0,1,1.7-.1,20,20,0,0,0,7.7.6c3.3-.2,7,0,10.6.1h3.8a64.5,64.5,0,0,1,8.7.1,18.5,18.5,0,0,1,7.2-.2c2.4.4,3.4.3,3.9-.4H447Zm39.4-.5h-2.1a8.8,8.8,0,0,1-5.4-.3l-1.8.6-8.4-.2-.9.8,2.4.4-1.5.6c1.6-.1,3.6.4,2.9-.6a9.4,9.4,0,0,1,2.9-.5h10.3l1.9-.2C487.4,119.3,487.1,118.9,486.8,118.8Z" transform="translate(-28 -0.2)"/><path class="cls-2" d="M169.1,44.7h8.5v3.9h-4V78.7h4v3.9h-8.5Z" transform="translate(-28 -0.2)"/><path class="cls-2" d="M194.5,52c5.2,0,9.5,2.8,11.1,7.7h-5.5a5.8,5.8,0,0,0-5.6-3.4c-4.2,0-7.1,3-7.1,7.8s2.9,7.8,7.1,7.8a5.8,5.8,0,0,0,5.6-3.4h5.5c-1.6,4.9-5.9,7.7-11.1,7.7a11.7,11.7,0,0,1-12-12.1A11.7,11.7,0,0,1,194.5,52Z" transform="translate(-28 -0.2)"/><path class="cls-2" d="M209.6,50.9h4.8V76h-4.8Z" transform="translate(-28 -0.2)"/><path class="cls-2" d="M227.4,76.3c-5.5,0-9.5-3.8-9.5-9.7a9.6,9.6,0,1,1,19.2,0A9.3,9.3,0,0,1,227.4,76.3Zm0-4.2c2.5,0,4.9-1.8,4.9-5.5s-2.4-5.6-4.9-5.6-4.7,1.8-4.7,5.6S224.8,72.1,227.4,72.1Z" transform="translate(-28 -0.2)"/><path class="cls-2" d="M258.3,76h-4.8V73.6a6.8,6.8,0,0,1-5.6,2.6c-4.3,0-7.5-2.8-7.5-8v-11h4.8V67.5c0,3,1.6,4.7,4.1,4.7s4.2-1.7,4.2-4.7V57.2h4.8Z" transform="translate(-28 -0.2)"/><path class="cls-2" d="M270.3,56.9a7.6,7.6,0,0,1,6.1,2.9V50.9h4.8V76h-4.8V73.2a7.1,7.1,0,0,1-6.1,3.1c-4.8,0-8.6-3.9-8.6-9.8S265.5,56.9,270.3,56.9Zm1.2,4.2c-2.5,0-4.9,1.9-4.9,5.4s2.4,5.6,4.9,5.6,5-2,5-5.5S274.1,61.1,271.5,61.1Z" transform="translate(-28 -0.2)"/><path class="cls-2" d="M307.6,56.2h-8.9v5.9h7.9v3.7h-7.9v6.3h8.9V76H293.9V52.3h13.7Z" transform="translate(-28 -0.2)"/><path class="cls-2" d="M325,65.6c0-3-1.6-4.6-4.1-4.6s-4.3,1.6-4.3,4.6V76h-4.7V57.2h4.7v2.4a7.3,7.3,0,0,1,5.7-2.7c4.3,0,7.5,2.9,7.5,8.1V76H325Z" transform="translate(-28 -0.2)"/><path class="cls-2" d="M341.6,56.9a7.3,7.3,0,0,1,6.2,3V57.2h4.7V76h-4.7V73.2a7.5,7.5,0,0,1-6.2,3.1c-4.8,0-8.6-3.9-8.6-9.8S336.8,56.9,341.6,56.9Zm1.2,4.2c-2.5,0-4.9,1.9-4.9,5.4s2.4,5.6,4.9,5.6,5-2,5-5.5S345.4,61.1,342.8,61.1Z" transform="translate(-28 -0.2)"/><path class="cls-2" d="M368.1,56.9c4.8,0,8.5,3.8,8.5,9.6s-3.7,9.8-8.5,9.8a7.5,7.5,0,0,1-6.2-3V76h-4.7V50.9h4.7V60A7.2,7.2,0,0,1,368.1,56.9Zm-1.3,4.2c-2.5,0-4.9,1.9-4.9,5.5s2.4,5.5,4.9,5.5,5-2,5-5.6S369.4,61.1,366.8,61.1Z" transform="translate(-28 -0.2)"/><path class="cls-2" d="M380.1,50.9h4.7V76h-4.7Z" transform="translate(-28 -0.2)"/><path class="cls-2" d="M397.7,76.3c-5.5,0-9.4-3.8-9.4-9.7s3.8-9.7,9.4-9.7,9.2,3.7,9.2,9.3a10.9,10.9,0,0,1-.1,1.8H393.1a4.3,4.3,0,0,0,4.5,4.3,3.8,3.8,0,0,0,3.7-2.2h5.1A8.7,8.7,0,0,1,397.7,76.3Zm-4.6-11.5H402a4.2,4.2,0,0,0-4.5-4A4.4,4.4,0,0,0,393.1,64.8Z" transform="translate(-28 -0.2)"/><path class="cls-2" d="M436.6,65.6c0-3-1.7-4.5-4.2-4.5s-4.2,1.5-4.2,4.5V76h-4.7V65.6c0-3-1.7-4.5-4.2-4.5s-4.2,1.5-4.2,4.5V76h-4.8V57.2h4.8v2.3a6.8,6.8,0,0,1,5.5-2.6,7.3,7.3,0,0,1,6.6,3.6,7.5,7.5,0,0,1,6.4-3.6c4.5,0,7.7,2.9,7.7,8.1V76h-4.7Z" transform="translate(-28 -0.2)"/><path class="cls-2" d="M454,76.3c-5.5,0-9.4-3.8-9.4-9.7s3.8-9.7,9.4-9.7,9.2,3.7,9.2,9.3a10.9,10.9,0,0,1-.1,1.8H449.4a4.3,4.3,0,0,0,4.5,4.3,3.8,3.8,0,0,0,3.7-2.2h5.1A8.7,8.7,0,0,1,454,76.3Zm-4.6-11.5h8.9a4.2,4.2,0,0,0-4.5-4A4.4,4.4,0,0,0,449.4,64.8Z" transform="translate(-28 -0.2)"/><path class="cls-2" d="M479.8,65.6c0-3-1.7-4.6-4.2-4.6s-4.2,1.6-4.2,4.6V76h-4.8V57.2h4.8v2.4a6.9,6.9,0,0,1,5.6-2.7c4.4,0,7.5,2.9,7.5,8.1V76h-4.7Z" transform="translate(-28 -0.2)"/><path class="cls-2" d="M489.7,61.1h-2.2V57.2h2.2V52.6h4.8v4.6h4.2v3.9h-4.2v9.1c0,1.2.5,1.8,2,1.8h2.2v4h-3c-3.6,0-6-1.6-6-5.9Z" transform="translate(-28 -0.2)"/><path class="cls-2" d="M512,82.6h-8.5V78.7h4V48.6h-4V44.7H512Z" transform="translate(-28 -0.2)"/></svg>