<svg id="teams" xmlns="http://www.w3.org/2000/svg" xmlns:xlink="http://www.w3.org/1999/xlink" viewBox="0 0 353.7 177.2"><defs><style>.cls-1{fill:#59b4d9;}.cls-1,.cls-2,.cls-3,.cls-4,.cls-5,.cls-7{fill-rule:evenodd;}.cls-2{fill:#3999c6;}.cls-3,.cls-6{fill:#fff;}.cls-4{fill:#7fba00;}.cls-5{fill:#b8d432;}</style><symbol id="A" data-name="A" viewBox="0 0 80 80"><path class="cls-1" d="M79.8,47.1h0V27.7L57.9,46.8h-.5V27.7L35.5,46.8h0V6.9C35.5,3.5,28,.2,18.1.2S0,3.4,0,6.9V80H80Zm-61.7-37c-7.2,0-13-1.8-13-3.7s5.8-3.7,13-3.7S31,4.3,31,6.4,25.1,10.1,18.1,10.1ZM55.8,67H47V58.2h8.8ZM40.3,67H31.5V58.2h8.8Zm22.4,0V58.2h8.8V67Z"/><path class="cls-2" d="M0,6.4H17.8V80H0Z"/><path class="cls-3" d="M35.4,6.4c0,3.5-8,6.4-17.8,6.4S0,9.9,0,6.4,8,0,17.8,0,35.4,2.7,35.4,6.4"/><path class="cls-4" d="M31.8,5.9c0,2.4-6.2,4.2-14,4.2S3.7,8.3,3.7,5.9,9.9,1.8,17.8,1.8s14,1.9,14,4.1"/><path class="cls-5" d="M28.8,8.5c1.9-.6,2.9-1.6,2.9-2.6S25.4,1.8,17.6,1.8,3.5,3.7,3.5,5.9s1.3,2,3.1,2.6A32.7,32.7,0,0,1,17.8,6.9a31.6,31.6,0,0,1,11,1.6"/></symbol></defs><path class="cls-6" d="M51.5,84.2c0,.4-.1.7-.1,1.1L47,84.6a2.2,2.2,0,0,1,.1-.8A21.8,21.8,0,0,1,51.5,84.2Z"/><path class="cls-6" d="M51.3,85.8l-.6,1.5-4.2-.6.3-1.5C48.3,85,49.6,85.8,51.3,85.8Z"/><path class="cls-6" d="M20,75.7l-.3.5a19,19,0,0,0-4.1,11.2,25.8,25.8,0,0,0,.8,6.8,15.9,15.9,0,0,0,1.2,2.7c0,.2.1.3.1.5a1.5,1.5,0,0,1-1-.9,13.9,13.9,0,0,1-2.2-4.6,15.5,15.5,0,0,1,.6-10A15.8,15.8,0,0,1,20,75.7Z"/><path class="cls-6" d="M17.8,97.4h0Z"/><use width="80" height="80" transform="translate(0 14.2) scale(2.04)" xlink:href="#A"/><path class="cls-7" d="M280.5,75a7.5,7.5,0,0,1,2.3-10,6.9,6.9,0,0,1,9.7,2.3,7.5,7.5,0,0,1-2.3,10,7,7,0,0,1-9.7-2.3Z"/><path class="cls-3" d="M281.5,74.3a6.2,6.2,0,0,1,1.9-8.3,5.8,5.8,0,0,1,8.1,1.9,6.1,6.1,0,0,1-1.9,8.3,5.8,5.8,0,0,1-8.1-1.9Zm2.7-2.5a3.1,3.1,0,0,1,.7-3.9,2.2,2.2,0,0,1,3.3.9,3,3,0,0,1-.7,3.8,2.2,2.2,0,0,1-3.3-.8Z"/><path class="cls-3" d="M285.8,69.1a1.7,1.7,0,0,1,1.7.9,1.1,1.1,0,0,1-.9,1.4,1.4,1.4,0,0,1-1.7-.8,1.1,1.1,0,0,1,.9-1.5Z"/><path class="cls-7" d="M188,25.7a7.4,7.4,0,0,1,2.3-10,6.8,6.8,0,0,1,9.6,2.3,7.4,7.4,0,0,1-2.2,10,6.9,6.9,0,0,1-9.7-2.3Z"/><path class="cls-3" d="M189,25a6.1,6.1,0,0,1,1.9-8.3,5.8,5.8,0,0,1,8,1.9,6.1,6.1,0,0,1-1.9,8.3,5.6,5.6,0,0,1-8-1.9Zm2.6-2.5a3.2,3.2,0,0,1,.7-3.9,2.2,2.2,0,0,1,3.3.9,3,3,0,0,1-.7,3.8,2.1,2.1,0,0,1-3.3-.8Z"/><path class="cls-3" d="M193.2,19.8a1.6,1.6,0,0,1,1.7.9,1.1,1.1,0,0,1-.9,1.4,1.4,1.4,0,0,1-1.7-.8,1.2,1.2,0,0,1,.9-1.5Z"/><path class="cls-7" d="M240.1,66.2a3.6,3.6,0,0,1,2.6-4.2,3.1,3.1,0,0,1,3.9,2.7,3.6,3.6,0,0,1-2.6,4.2,3.2,3.2,0,0,1-3.9-2.7Z"/><path class="cls-3" d="M241.5,65.9a2.3,2.3,0,0,1,1.7-2.5,2.1,2.1,0,0,1,2.5,1.6,2.1,2.1,0,0,1-4.2.9Z"/><path class="cls-7" d="M238.3,29.9a3.6,3.6,0,0,1,2.6-4.3,3.3,3.3,0,0,1,3.9,2.7,3.7,3.7,0,0,1-2.7,4.2,3,3,0,0,1-3.8-2.6Z"/><path class="cls-3" d="M239.7,29.5a2.2,2.2,0,0,1,1.7-2.5,2.1,2.1,0,0,1,2.4,1.6,2.1,2.1,0,0,1-1.6,2.5,2,2,0,0,1-2.5-1.6Z"/><path class="cls-7" d="M241.6,105.4c-2.4-2.6-1.3-6.7,1.3-8.4a5.6,5.6,0,0,1,8.6-.3,7,7,0,0,1-.5,9.4C248.4,108.5,244,108,241.6,105.4Z"/><path class="cls-6" d="M243.2,97.6a4.3,4.3,0,0,0,.8,5.5c1.5,1.3,3.3,1.5,4.6.4a3.2,3.2,0,0,0,.1-4.4c-1.2-1.3-2.9-1.5-3.9,0a2,2,0,0,0,.7,2.9,1.4,1.4,0,0,0,2.1-1c.1-.6-.5-1-1-1.1a.5.5,0,0,0-.3.9c.3.2,0,.5-.3.3s-.5-1.5.4-1.7a1.6,1.6,0,0,1,1.7,2c-.3,1.2-1.8,1.5-3,.9a2.7,2.7,0,0,1-1-3.7c1.2-1.8,4.2-1.5,5.4.4s.8,4.2-.9,5.2-3.6.9-5.6-1.6a5.2,5.2,0,0,1-.8-4.1c-2.1,2.1-1.3,5.9.7,7.4a6.6,6.6,0,0,0,8.1-.6c2.5-2.7,1.4-7.4-.5-9S244.6,95.2,243.2,97.6Z"/></svg>