<svg id="teams" xmlns="http://www.w3.org/2000/svg" xmlns:xlink="http://www.w3.org/1999/xlink" viewBox="0 0 340.11 319.88"><defs><style>.cls-1{fill:#5059c9;}.cls-2{fill:#7b83eb;}.cls-3{opacity:0.1;}.cls-3,.cls-4{isolation:isolate;}.cls-4{opacity:0.2;}.cls-5{fill:url(#Dégradé_sans_nom_2);}.cls-6,.cls-9{fill:#fff;}.cls-7{stroke:#000;stroke-miterlimit:10;stroke-width:0.5px;}.cls-8,.cls-9{fill-rule:evenodd;}</style><linearGradient id="Dégradé_sans_nom_2" x1="98.03" y1="-1174.04" x2="156.52" y2="-1072.74" gradientTransform="translate(0 1283.33)" gradientUnits="userSpaceOnUse"><stop offset="0" stop-color="#5a62c3"/><stop offset="0.5" stop-color="#4d55bd"/><stop offset="1" stop-color="#3940ab"/></linearGradient></defs><path class="cls-1" d="M204.66,139.57h45.25a7.74,7.74,0,0,1,7.74,7.74h0v41.22A28.45,28.45,0,0,1,229.2,217h-.13a28.44,28.44,0,0,1-28.46-28.44h0V143.62a4,4,0,0,1,4-4.05Z"/><circle class="cls-1" cx="235.24" cy="113.09" r="18.33"/><circle class="cls-2" cx="178.2" cy="104.94" r="26.48"/><path class="cls-2" d="M213.52,139.57h-74.7a7.66,7.66,0,0,0-7.47,7.84v47a46,46,0,0,0,44.82,47,46,46,0,0,0,44.81-47v-47A7.66,7.66,0,0,0,213.52,139.57Z"/><path class="cls-3" d="M180.24,139.57v65.88a7.5,7.5,0,0,1-4.65,6.89,7.09,7.09,0,0,1-2.81.57H134.93c-.53-1.35-1-2.69-1.42-4.07a49.37,49.37,0,0,1-2.16-14.43v-47a7.65,7.65,0,0,1,7.45-7.82Z"/><path class="cls-4" d="M176.17,139.57v70a7.18,7.18,0,0,1-.58,2.81,7.49,7.49,0,0,1-6.88,4.64H136.85c-.7-1.34-1.35-2.69-1.92-4.07a39.42,39.42,0,0,1-1.42-4.07,49.37,49.37,0,0,1-2.16-14.43v-47a7.65,7.65,0,0,1,7.45-7.82Z"/><path class="cls-4" d="M176.17,139.57v61.81a7.54,7.54,0,0,1-7.46,7.46h-35.2a49.37,49.37,0,0,1-2.16-14.43v-47a7.65,7.65,0,0,1,7.45-7.82Z"/><path class="cls-4" d="M172.09,139.57v61.81a7.53,7.53,0,0,1-7.46,7.46H133.51a49.37,49.37,0,0,1-2.16-14.43v-47a7.65,7.65,0,0,1,7.45-7.82Z"/><path class="cls-3" d="M180.24,118.51v12.83c-.69,0-1.34.08-2,.08s-1.34,0-2-.08a22.52,22.52,0,0,1-4.08-.65,26.47,26.47,0,0,1-18.33-15.57,22.2,22.2,0,0,1-1.31-4.07h20.33A7.49,7.49,0,0,1,180.24,118.51Z"/><path class="cls-4" d="M176.17,122.58v8.76a22.52,22.52,0,0,1-4.08-.65,26.47,26.47,0,0,1-18.33-15.57h15A7.5,7.5,0,0,1,176.17,122.58Z"/><path class="cls-4" d="M176.17,122.58v8.76a22.52,22.52,0,0,1-4.08-.65,26.47,26.47,0,0,1-18.33-15.57h15A7.5,7.5,0,0,1,176.17,122.58Z"/><path class="cls-4" d="M172.09,122.58v8.11a26.47,26.47,0,0,1-18.33-15.57h10.87A7.49,7.49,0,0,1,172.09,122.58Z"/><path class="cls-5" d="M89.92,115.12h74.7a7.47,7.47,0,0,1,7.47,7.47v74.7a7.46,7.46,0,0,1-7.47,7.47H89.92a7.47,7.47,0,0,1-7.47-7.47v-74.7A7.48,7.48,0,0,1,89.92,115.12Z"/><path class="cls-6" d="M146.93,143.56H132v40.66h-9.51V143.56H107.62v-7.89h39.31Z"/><path d="M271.69,204.69a8.89,8.89,0,0,0,.37,5.33,17.44,17.44,0,0,0,8.83,9.51l.12.05c-.09,1.11-.29,2.91-.48,4.67-.3,2.71-.61,5.52-.62,6.77l0,2.13,1.73-1.24c2-1.43,6.56-4.29,8.46-5.36a17,17,0,0,0,2.19,1.59l1,.64c2.43,1.54,4.53,2.87,8,3.2a13.27,13.27,0,0,0,10.93-3.63c3.07-2.8,3.75-6.94,2-11.94a27.31,27.31,0,0,0-5.25-8.68,35.54,35.54,0,0,0-6.3-5.43c-8.49-5.81-18.18-6.28-24-4.16C275,199.46,272.5,201.78,271.69,204.69Z"/><path class="cls-6" d="M297.29,226a36.55,36.55,0,0,1-6.42-4.65c-1.59.42-4.36,2.32-5.73,2.9-.26-1.33.11-4.7.15-6.31-6.47-3.33-9.39-7.56-8.55-11.26,1.49-6.52,13.72-6.05,22.62.07,5.16,3.53,9.14,8.35,10.42,11.88C312.42,225.9,303.73,229.34,297.29,226Z"/><path class="cls-6" d="M311.44,227.56c5.71-5.23.75-14.57-3.34-19.11a34.79,34.79,0,0,0-6.1-5.26c-12-8.2-27.12-5.87-29.27,1.79-1.23,4.36,2.93,11,8.61,13.57.26.12.53.23.79.33,0,1.94-1.12,9.91-1.14,12.15,2.21-1.59,7.9-5.15,9.25-5.79a15.45,15.45,0,0,0,2.59,2c2.91,1.81,4.9,3.33,8.51,3.68A12.2,12.2,0,0,0,311.44,227.56Zm-15.95-1.31a49.65,49.65,0,0,1-5.1-4c-1.12.79-4.53,2.8-6.47,4.19,0-2,.41-6.36.45-8.06-.88-.45-1.7-.93-2.46-1.42-5.13-3.31-7.44-7.34-6.46-10.82,1.89-6.71,14.37-7.26,24.87-.08a30.13,30.13,0,0,1,10.27,11.43c1.07,2,1.6,6.86-1.81,9.47S299.58,229,295.49,226.25Z"/><path class="cls-7" d="M290.18,255.42l-1.44-.39c.07-.3.13-.56.17-.75a2.25,2.25,0,0,0-.23-1.71,2.11,2.11,0,0,0-1.43-.88l-1.7-.33c.07-.36.14-.71.21-1a4,4,0,0,0-2.44-4.76l-33.92-6.23s0,0,.07,0c-3.09-.41-3.68,1.14-4.45,4-.06.29-.12.62-.18.94a2.42,2.42,0,0,0-2.17.26,3.85,3.85,0,0,0-1.4,2.73c-.17.84-.46,2.11-.77,3.48-.55,2.44-1.18,5.21-1.37,6.51-.66,4.74-.84,7,2.34,7.71l.19,0a2.71,2.71,0,0,0,.34.92,4.13,4.13,0,0,0,2.74,1.54l3.57.74,2.5.51,4.55,1,16.77,3.12,1.64.25,3.33.51a4,4,0,0,0,4.81-3.4l.33-1.65.56.11.36.08a2.18,2.18,0,0,0,1.64-.29,2.28,2.28,0,0,0,.95-1.49l.17-.77,1.75.52,7.75,9.18,6.67-25.33ZM241.67,264c-2.06-.44-2.33-1.29-1.57-6.62.28-2,1.65-7.6,2.12-9.93s1.51-2.65,2.53-2.21C244,249.34,242.25,260.65,241.67,264ZM281,270a3.08,3.08,0,0,1-3.72,2.63c-10-1.46-21.36-3.87-32.3-6.11-2.14-.45-2.67-1.34-2.25-3.15.62-3.61,2.31-14.91,3.28-19.84.79-2.86,1.55-3.58,4.15-3.07,10.56,2,21.64,3.65,32.13,5.74a3,3,0,0,1,2.56,3.93C283.79,255.07,281.94,265.18,281,270Zm3.84-3.25a1.18,1.18,0,0,1-1.45,1l-1.08-.22c.88-4.5,2.06-10.69,3-15.27l1.83.35a1,1,0,0,1,.9,1.44C287.57,256,285.18,264.88,284.8,266.75Zm1.29-1.53c.66-2.63,1.69-6.58,2.36-9.26l1.34.36-2.05,9.39Zm2.4.95,2.36-10,7-2.87-4.82,18.27Zm6.46,7.65-1.32-1.56L298.72,253l1.94-.79Z"/><path class="cls-8" d="M71.18,48c9.24-3,16.85-.81,20.5,4.06s4.14,13.64-1.47,20.66c-4.74,5.91-12.49,10.1-22.29,12.15-2.51.52-7,1.16-9.69,4.56a9.28,9.28,0,0,0-1.07,10.14c-5.33-3.78-8.69-8.25-10.34-13.53-2-6.5-1.06-13.51,3-20.81,4.84-8.81,14-14.83,21.4-17.23Z"/><path class="cls-6" d="M90.2,52.82c3.48,4.65,3.89,12.61-1.58,19.28-4.5,5.47-12.13,9.14-20.83,11.3-2.33.59-6.68,1-9.82,3.94-1.94,1.82-3.8,4.27-3,8.41A22.37,22.37,0,0,1,48,85.07c-1.69-6-1-12.8,3.09-19.46,5.13-8.37,13-14,20-16.22C79,46.86,86.61,48,90.2,52.82ZM85.35,70.11c4.46-5.42,5-11.23,2.56-14.61-2.29-3.18-7.8-5.62-15.4-3.1-5.63,1.86-14.14,7.32-18.31,14.15-4.71,7.67-5.52,17.71-1.7,23.36-.09-2.68,2.62-5.19,4.79-6.72,3-2.11,6.36-2.12,10.19-3C76,78.22,81.69,74.58,85.35,70.11Z"/><path class="cls-6" d="M86.34,56.63c2.24,3.15,2.07,8.37-2.59,13.19a31.67,31.67,0,0,1-16.12,8.9c-4,.89-11.29,1.28-15.41,7C50.92,82,50.94,74.06,55.4,67.2A36.15,36.15,0,0,1,72.19,53.88C79.59,51.1,84.14,53.53,86.34,56.63Z"/><path d="M60.25,125c-1.6-.29-3.2-2.82-4.25-3.94-1.62-1.72-3.28-3.41-4.89-5.15-1.16-1.24-2.73-3.6-4.28-4.34-.81,1.78-2.23,8.78-2.84,13a5.52,5.52,0,0,0-2.57,1.63,6.28,6.28,0,0,0-1.65,5.28,6.62,6.62,0,0,0,2,4l.42.37c0,.15-.06.3-.08.44L41.58,139c0,.84-2.36,8.46-.71,8.72,1.13.18,3.08-1.17,4.09-1.56,4.12-1.59,8.41-2.9,12.38-5l.44.16c1.12.4,3.16,1,4.32.6,1-.32,1.06-1.39,1.12-2.26.1-1.37.25-2.75.45-4.11.23-1.57.67-3.1.89-4.68.18-1.34.9-3,.82-4.29C65.26,124.59,61.59,125.19,60.25,125Z"/><path d="M39.11,124.3c-.67-1.15-2.34,1.43-2.58,1.91a8.1,8.1,0,0,0-.75,4.72,4.74,4.74,0,0,0,1.31,2.56c1.37,1,.79-1.88.81-2.46a15.37,15.37,0,0,1,.29-3.27C38.41,126.89,39.6,125.13,39.11,124.3Z"/><path d="M31.64,125.63a13.7,13.7,0,0,0,.4,9.05c.29.84,3.36,5.43,4.58,4.06.44-.5-.27-1.48-.5-1.87a13.68,13.68,0,0,1-1-2.23A13.28,13.28,0,0,1,36.93,122c.31-.41,1.16-1.2,1.08-1.76-.17-1.26-3.08.69-3.42,1A9.29,9.29,0,0,0,31.64,125.63Z"/><path d="M29.12,138.79a4.86,4.86,0,0,0,2,1.33c1.29.44.83-.79.58-1.61a36.92,36.92,0,0,1-1.46-4.06,21.82,21.82,0,0,1-.5-5.16,18.41,18.41,0,0,1,1.78-7.21,32.26,32.26,0,0,1,1.94-3.24c.27-.42,1.51-1.82,1.07-2.34-.88-1-3.32,1.56-3.83,2.07a16,16,0,0,0-3.18,4.76,16.29,16.29,0,0,0-.72,10.6A11.25,11.25,0,0,0,29.12,138.79Z"/><path class="cls-6" d="M64.68,126.07c0,.37-.07.68-.11,1.12l-4.39-.76c0-.25,0-.46.08-.75A18.47,18.47,0,0,1,64.68,126.07Z"/><path class="cls-6" d="M64.45,127.61l-.54,1.49-4.21-.55c.1-.55.18-1,.27-1.49C61.49,126.85,62.8,127.61,64.45,127.61Z"/><path class="cls-6" d="M63.79,129.78c0,.44,0,.78,0,1.25-1.45.17-2.75-.33-4.23-.48.06-.5.11-.89.16-1.29C61.13,129,62.36,129.6,63.79,129.78Z"/><path class="cls-6" d="M63.47,132c-.06.42-.1.78-.16,1.27-1.38-.4-2.75-.21-4.13-.74.07-.46.12-.85.2-1.36A16.6,16.6,0,0,1,63.47,132Z"/><path class="cls-6" d="M63.11,133.81c0,.5-.1.91-.16,1.44-1.35-.07-2.62-.34-3.87-.46a1.52,1.52,0,0,1,.37-1.7Z"/><path class="cls-6" d="M62.71,135.87c0,.42,0,.82,0,1.24-1.41.33-2.59-.32-3.94-.35,0-.51,0-.9,0-1.41A14.67,14.67,0,0,1,62.71,135.87Z"/><path class="cls-6" d="M62.6,138l-.42,1.18-3.9-.74c.12-.4.21-.67.29-1C60,137.23,61.14,137.86,62.6,138Z"/><path class="cls-6" d="M62.19,139.77c-.07.43-.13.8-.2,1.28a11.26,11.26,0,0,1-3.9-.55c.06-.47.12-.9.19-1.45.73.09,1.34.14,1.95.25S61.43,139.59,62.19,139.77Z"/><path class="cls-6" d="M59.13,125.68c-.66,4.9-1.33,9.8-2,14.58a115.45,115.45,0,0,1-12.55,5.08c.59-3.23,1.15-6.41,1.75-9.59s1.35-6.4,1.9-9.62c.58-3.45,1.69-8.81,2.21-9.68C53.39,119.58,56.24,122.61,59.13,125.68Z"/><path class="cls-6" d="M49.41,115.24a10.73,10.73,0,0,1-.11,1.14c-.37,1.91-.77,3.81-1.14,5.72q-1.48,7.56-3,15.11-.75,3.76-1.49,7.54c-.07.34-.11.69-.16,1.06a4.32,4.32,0,0,1-2.33,1c.11-.89.19-1.68.32-2.46.47-2.63,1-5.27,1.45-7.9s.93-5.13,1.4-7.7q1.13-6.2,2.26-12.39c.19-1,.44-2,.73-3.35Z"/><path class="cls-6" d="M43,125.94c.18-.2.52-.25,1-.48-.58,3.27-1.1,6.29-1.63,9.31a4.93,4.93,0,0,1-1.44-5.36A8,8,0,0,1,43,125.94Z"/><path class="cls-6" d="M38.65,124.82l0,.1h0A.36.36,0,0,1,38.65,124.82Z"/><path class="cls-6" d="M38.62,124.92h0Z"/><path class="cls-6" d="M37.42,125.9c.28-.43.53-1,1.18-1-.2.57-.37,1.15-.6,1.7a9.17,9.17,0,0,0-.58,5.35,4.06,4.06,0,0,1,.08.69c0,.06-.07.12-.17.27a2.07,2.07,0,0,1-.81-1.45A7.08,7.08,0,0,1,37.42,125.9Z"/><path class="cls-6" d="M32.51,125.91A8.49,8.49,0,0,1,36.44,121c-3.81,5.21-4.26,10.64-1,16.5a6.92,6.92,0,0,1-2.52-3.16A13,13,0,0,1,32.51,125.91Z"/><path class="cls-6" d="M33.2,117.56a4.27,4.27,0,0,1-.3.51,19.15,19.15,0,0,0-4.12,11.18,25.64,25.64,0,0,0,.83,6.82,15.48,15.48,0,0,0,1.13,2.67c.07.17.12.35.18.52-.56-.08-.81-.54-1.07-.94a14.81,14.81,0,0,1-2.19-4.61,15.25,15.25,0,0,1,.67-10A14.94,14.94,0,0,1,33.2,117.56Z"/><path class="cls-6" d="M30.94,139.26l.06.07-.07-.05Z"/><path class="cls-6" d="M30.94,139.26v0Z"/><path class="cls-8" d="M283.21,298.06a5,5,0,0,1,3.65-6,4.74,4.74,0,0,1,5.82,3.58,5.06,5.06,0,0,1-3.65,6,4.74,4.74,0,0,1-5.82-3.59Z"/><path class="cls-9" d="M284,297.86a4.21,4.21,0,0,1,3-5,4,4,0,0,1,4.85,3,4.23,4.23,0,0,1-3,5,4,4,0,0,1-4.85-3Zm2.28-1.1a2.09,2.09,0,0,1,1.28-2.36,1.52,1.52,0,0,1,2,1.29,2.08,2.08,0,0,1-1.27,2.36,1.54,1.54,0,0,1-2-1.29Z"/><path class="cls-9" d="M287.88,295.39a1,1,0,0,1,.93.93.75.75,0,0,1-.88.74,1,1,0,0,1-.93-.93.74.74,0,0,1,.88-.74Z"/><path class="cls-8" d="M253.78,227a2.55,2.55,0,0,1,2.63-2.22,2.21,2.21,0,0,1,2,2.59,2.54,2.54,0,0,1-2.63,2.21,2.2,2.2,0,0,1-2-2.58Z"/><path class="cls-9" d="M254.79,227a1.48,1.48,0,0,1,1.63-1.26,1.4,1.4,0,0,1,1.28,1.56,1.49,1.49,0,0,1-1.63,1.26,1.42,1.42,0,0,1-1.28-1.56Z"/><polygon points="319.88 259.79 324.07 257.64 328.39 260.86 328.2 255.78 332.61 253.25 327.18 251.49 325.82 246.41 323.11 250.57 318.4 249.48 320.87 254.41 319.88 259.79"/><polygon class="cls-6" points="326.46 252.18 325.67 248.16 323.45 251.56 319.56 250.41 321.73 254.32 320.66 258.48 324.17 256.69 327.78 259.6 327.34 255.36 330.9 253.32 326.46 252.18"/></svg>