<svg id="Calque_1" data-name="Calque 1" xmlns="http://www.w3.org/2000/svg" viewBox="0 0 601.3 116.6"><defs><style>.cls-1{fill:#3bb260;}</style></defs><polygon class="cls-1" points="65.4 6.7 6.2 109.3 591.2 109.3 531.9 6.7 65.4 6.7"/><path class="cls-1" d="M76.6,13V7.6a31,31,0,0,1,4.3.2,76.9,76.9,0,0,0,11.8-.3,6.7,6.7,0,0,1,2.5.1,8.1,8.1,0,0,0,2.2,0,4.5,4.5,0,0,1,3.8.1l1.6-.5,1.3.7,1.4-1.6h4c1.8.2,3.2.2,4.1-.3L113,5h.8l.8.3,3.9-.3a8.3,8.3,0,0,0-.2,1.3l4.8.2a1.9,1.9,0,0,0,1.1-.5c0-.2-.6-.4-1.3-.9l6.3.5-3.3.6c2.9.3,5.4.4,6.7-.6s2.4.9,4,.1l2,2,3.9-2c2.3-.6,3.2.3,4.5.7l3.5-.8.4,1,7-.4V7.4H159V6.2l2,.8h.5l-1.2-1.5h3.3l1.8.9,3-1,.6.2-1.1.6,5.8.5-4.2.3c3.2.6,6.8.5,8.2-.1l1.6.6c1.2-.4,2.3-.7.8-1.3a.4.4,0,0,1,0-.8c1.4-.3,1.8.1,2.1.5a7.1,7.1,0,0,0,1.7.5l-2.1.5c2.7.6,13.5.5,14.9,0l-2.4-.4,3-1,2.2.9-2.3.4c1.9.6,4.4.4,6.5.4s6.2,0,9.2-.2a9.7,9.7,0,0,0,2.2-.4,29.8,29.8,0,0,0,3.9.5l10-.4h6l5.3-.2c2.5-.2,5-.6,7.4.1a8.5,8.5,0,0,0,2.2-.3l1.4.3V6l.6.2c1.8.9,2.8,1,5.8.5a12.2,12.2,0,0,1,2.7,0,23.2,23.2,0,0,0,7,.2c1-.1,2.5.1,3.9.1l15.7.2,2.1-.3h2.5c1.1.6,2,.5,3.5.2s3.5-.5,4.5-.1l5.1-.2a2.5,2.5,0,0,1,1.1-.4l2.3-.4-2.4-.6c2-.6,4.4.1,6.5-.3.1.7-5.5.6-2.4,1.5l.7-.2c1.2.1,2.4.3,3.6.3l1.8-.3c0-.3-.4-.6-.7-.9h6.3v.2h-1.3l-2.7.3c.6.4,1.2,1,1.9,1a21.7,21.7,0,0,0,6.2-.3c1.4-.4,4.3-.2,6.5-.2.2,0,.4.3.9.7s1.3-.6,1.4-.9L332.6,6a11,11,0,0,1-2.6-.6h4.6l-2.7-.4h3c.2.7,2.1.4,3.2.5h6a5.7,5.7,0,0,0,1.5-.3,9.7,9.7,0,0,0,1.6.1,5.5,5.5,0,0,0,1.5-.8c4.4.1,9.8-.8,14.5.7l-2.3.3c-.3-.2-.4-.5-.8-.6a20.2,20.2,0,0,0-3.6-.3l3.9,2.2a3.6,3.6,0,0,0,.4-1.1l2.6,1,4.1-.6c-1.4-.4-4-.1-3.7-1s1.9-.9,3.9-1.1l-.6-.7c1.2-.2,2.4.1,2.5.6v.2l8.1.4h2.5V4.1l-3-.3V3.5h4.7c-.1.7-.1.7,3,.8.6,0,1.1.4,1.7.4l5.7.2,3.3.3a56.9,56.9,0,0,1,7.2-.4,138.8,138.8,0,0,0,15.8.2H427V3.5h1l.6,1.7h.6l.9-1H433c.7,1,2.2,1.1,5.8.9a44.7,44.7,0,0,1,5.2-.1V4.8h-3.9c-1.8,0-3-.1-1.8-.9l8.2.7a10.7,10.7,0,0,0,2.7-.1c1.3-.6,2.9-.3,4.4-.1s2.4.4,3-.3h1.1c.2.2.5.4.5.6s-.6.4-.9.7h5.2L460,4h8.3c3.9-.5,8.2-.1,12.6.3h-1.7l-.2.2,2.5.3a11.6,11.6,0,0,1,4.9,0,2.5,2.5,0,0,0,1.2-.1c1.9-.6,4.1-.3,6.2-.2l4.8.5c.9-.7,2.3-.9,4.6-.7s4.1.8,6.2.1h8.7l2-.5.6.7a68.7,68.7,0,0,1,7.7-.3,52.4,52.4,0,0,0,5.6.2h6l5.9.3,3.2,6.5a34.6,34.6,0,0,0,2.3,4.1,12.8,12.8,0,0,0-.2-1.7l3.9,6.3h.2l.9,2.5.9.3c-.1,1.4.3,2.4,1.2,2.3l2.8,5.5.6.7a11.4,11.4,0,0,1,3.5,6.3c2.8,3,3.9,6.7,5.7,10.3l.6-.7c.5,1.3.9,2.4,1.5,3.8l.2.2c1.4,2,2.8,4.1,4.1,6.2a3.1,3.1,0,0,1,.4,1.2l6.8,11.4.2-.2c.4,1.5.4,3.1,2.2,4l.5,1c2,3.8,4,7.6,6.2,11.4,1.2,2.3,2.8,4.4,4.2,6.7s.8,1.7,1.2,2.5,1.5,2.9,3.5,6.4,5.3,9.2,8.2,13.8a23.3,23.3,0,0,1,1.7,2.6c-5.7.2-12,.1-18.1.2H581.1L570,119h-4.6v.7H520.7v-.7h-4.5l-22.3-.4c-3.9-.1-7.8,0-11.7-.3a86.3,86.3,0,0,0-8.9-.3l-5.8.2-2.8.2c-2.7-.1-5.3-.4-7.9-.3-4.4,0-8.7.2-13,.3h-1.1c-1.6-1-3-.2-4.5.1v-.2l-13.2-.2a2.7,2.7,0,0,1-1.3.3l-7.4-.4a.4.4,0,0,1-.3-.2l-4,.6.3-.8c-4.1.2-7.8,1.1-11.8.2-3,.8-3.9.8-7.2.1h-.9l-6.1.3c-.4-.8-1.4-.7-2.6,0l-.8-.6-2.6.5v-.2l-7.5-.3,1.6-.6c-4.7-.3-8.5.6-12.7.8s-7.4-.2-11.2.2a68.7,68.7,0,0,1-7.7-.3l-.5.7-2-.5h-8.7c-2.2-.7-4.3-.1-6.2.1s-3.7.1-4.7-.7l-4.8.5a15.6,15.6,0,0,1-6.1-.2,2.6,2.6,0,0,0-1.2-.1,11.6,11.6,0,0,1-4.9,0l-2.5.3v.2h1.7a59.5,59.5,0,0,1-12.6.3h-8.2l2.5-1.3h-5.2c.3.2.8.4.9.6s-.2.4-.5.6h-1.1c-.5-.7-1.7-.4-3-.3s-3.1.6-4.4-.1a9.9,9.9,0,0,0-2.6-.1l-8.2.7c-1.3-.8-.1-.9,1.8-.9h3.9l-.2-.3H261c-3.6-.3-5-.1-5.8.9h-2.8l-1-.9h-.6l-.6,1.7h-1v-1.4h-8.4c-5.3-.1-10.5-.2-15.8.2-2.2.1-4.9-.2-7.1-.3l-3.3.2-5.7.2c-.7,0-1.1.4-1.8.4-3,.1-3,.1-3,.8h-4.6v-.3l3-.3v-.3h-2.6l-8,.4v.2c0,.5-1.2.8-2.4.6l.6-.7c-2.1-.2-3.7-.3-3.9-1.1s2.2-.6,3.6-.9l-4-.7-2.6,1-.4-1.1-4,2.2a13.1,13.1,0,0,0,3.6-.3c.5-.1.6-.4.9-.5l2.2.3c-4.7,1.5-10,.5-14.5.6a10.9,10.9,0,0,0-1.5-.8,9.7,9.7,0,0,0-1.6.1,5.8,5.8,0,0,0-1.4-.3h-6c-1.2.1-3.1-.2-3.2.5h-3l2.6-.4h-4.5a9.1,9.1,0,0,1,2.6-.6l1.6-.3c-.1-.3-.7-.5-1.4-.9l-.8.7c-2.3,0-5.2.2-6.5-.2a21.9,21.9,0,0,0-6.2-.3,5.4,5.4,0,0,0-2,1l2.8.3h1.3v.3h-7.6a4,4,0,0,1,1.3-.2c.4-.3.8-.6.7-.9l-1.8-.3-3.6.3-.6-.2c-3.1,1,2.4.8,2.4,1.5-2.1-.4-4.5.3-6.5-.3l2.3-.6-2.2-.4a2.5,2.5,0,0,1-1.1-.4l-5.2-.2c-.9.4-2.1.5-4.4-.1s-2.5-.4-3.5.2h-2.5l-2.1-.3-15.8.2a26.3,26.3,0,0,1-3.9.1,27,27,0,0,0-7,.2,11.3,11.3,0,0,1-2.6,0c-3.1-.5-4-.4-5.8.5l-.7.2v-.8l-1.3.3a8.9,8.9,0,0,0-2.2-.3c-2.4.7-4.9.3-7.5.1l-5.3-.2H51.3l-10-.4a26,26,0,0,0-3.9.5,9.7,9.7,0,0,0-2.2-.4l-4.6-.2H20a29.6,29.6,0,0,0-5,.4l2.8.5-4.4.8-2.3-.8,1.1-1.3-.4,1,2.6-.2-1.8-.3c1.4-2.2,3.4-5.4,5.1-8.5.9-1.5,1.7-3,2.4-4.3l.9-1.9.3-.6c0-.2.1-.3.1-.5l-.3.5-.2.2-.3.3-.9,1.1a12.1,12.1,0,0,1,.5-1.4v-.5a.2.2,0,0,0,0-.3c-.1-.4-.2-.9.7-2s.8-.1.7.4.5.8,1.5-.1l.3-1.7c1.3-.9,3.1-3.9,4.1-7l-2.3,3.5c1-2.1,1.7-3.7,2.4-5.3l-1,.7.2-.7,2.3-2c0-.9.1-1.6.1-2.1l1.6-2.9.6,1.8.3-.4c.1-.6.2-1.2.4-2.2l1,.6.5-.9-1.1-.6c1.2-2,2.5-3.9,3.8-6l-.6-.7,2.4-2.7c.3-1.3,0-2.6,1.7-4.3l3.6-2.3-.7-2.8c1.5-1,1.6-2.3,1.9-3.5s2.7-2.9,3.9-5.5a28,28,0,0,0-2.1,2.6c.9-2,1.6-3.5,2.7-5.7,0,.8-.1,1.4.1,1.5s.8-.4,1-.7,1.4-2.7,2.2-4.2l-1.2-.5,2.2-3.2a7.8,7.8,0,0,0,.1-.9l.5-.6.6,1c.9-.5,1.5-1.7,2.3-3.4a38.8,38.8,0,0,1,2-3.4l2.1-.5V31.2l1.2-1.1a5,5,0,0,1,1.8-3.3,6.9,6.9,0,0,0,1.2-1.9,5.7,5.7,0,0,1,1.1-2.2,85.2,85.2,0,0,0,6.2-10.1c.5-1.3,1.3-2.6,1.9-3.8l4.7,2.6-.2,1a32,32,0,0,0-4,7.2c-.6,2.1-1.3,3.4-2.6,4.3s-1.4,4-3.1,5.3a5.3,5.3,0,0,0-.8,1.5c-.3,2-1.1,3.3-2.1,3.8s-.6,1.8-1,2.6c-3.1,5.6-6.2,11.2-9.4,16.8L49.1,66.4c-3.3,6.1-7.1,12-10.7,18a23,23,0,0,0-2.2,4A30.9,30.9,0,0,1,32.8,94a7.3,7.3,0,0,0-.9,1.3l-.4.9c.7,1.2-1.4,3.1-2.2,4.7l.5-1.6h-.3c-.8,2.3-1.9,5.5-2.7,5.6l-.3-.4-1.3,1.4a9.2,9.2,0,0,0,0,1.7l-.4.3-.4.3v.3c.4-.1.7-.2.7-.1s.3.5.6.7l1.4-.6c.4-.2.6-.2.9.1l-1.3.3h1.7l1,.2h.4a1,1,0,0,0,.5-.4h1c.1,0,.3.1.2.2s1.7.7,2.5.7c2.7,0,5.4-.2,8.3-.4.1-.5.8-.8,3-.7l15,.4h3.6v.2l-5.1.2H59l3.3.4a22,22,0,0,0,2.9-.4c.9-.4,1.2-.8,1.7,0l1.4.2,5.4-.4c.2-.1.5,0,.7,0l3.1.2,9.7-.2v.2l-2.6.4h4.6c-.6-.7,1-.9,2.4-.9l18.3-.2h13c2.8,0,5.6-.2,8.3-.3l22.7-.3,35.9-.6h17.6l17.3-.4,28.1-.5,26.6-.3,19.9-.2h17l12-.2h40l45-.2H590v-.2l-2.1-3.6-8.3-14.5L561,55.1,539.2,17v-.2h-33l-11.9-.3h-37L430.7,16l-28.1-.5-17.4-.4H367.6l-35.9-.6-22.6-.3-8.3-.3h-13l-18.4-.2c-1.3,0-2.9-.2-2.3-.9h-4.7l2.6.4v.2l-9.8-.2-3,.2h-.8l-5.3-.5-1.4.2c-.5.8-.9.4-1.7,0a25.1,25.1,0,0,0-2.9-.4l-3.4.4h-.1l5,.2v.2l-3.6.2-15.1.3c-2.1.1-2.9-.2-3-.7l-8.3-.4c-.7,0-2.9.1-2.4.7s-.1.2-.3.3h-1c-.3-.8-2-.4-3.3-.3h-3.5l2.4.3c-2.1.6-2.7,0-3.8-.5l-3.3.7a12.4,12.4,0,0,1-2.5-.2l-.9.4-5.2-.9-3.3.5.7.4c-2.8.6-5.2,0-7.7-.5l-.3.3,1.7.4c-1.8-.1-4.5.7-5.2-.5h-2.5a20.8,20.8,0,0,1-6.6.1h-4.6c-7,.1-14,.5-20.9.3l-14.3-.3-19.2-.3c-.9,0-1.7-.3-2.7-.4s-2.5.7-4.4-.1H96.9c-2,.8-4.1.2-6.1.1a7.9,7.9,0,0,1-5.1.1,28.1,28.1,0,0,0-8.2-.1Zm96.9,104.1,2.2-.4-.9-.8h-8.1l-1.7-.5a8.5,8.5,0,0,1-5.3.3h-2c-.3.1-.6.4-.3.5a5,5,0,0,0,1.9.3h9.9a8.6,8.6,0,0,1,2.8.5c-.7,1,1.3.5,2.8.5Zm89.9-1.5a15.9,15.9,0,0,0-3.8-.9,37.4,37.4,0,0,0-5.3.5l1.4-1.4-1.8-.2c-2.2,0-4.4.3-6.7.1a15.4,15.4,0,0,0-4.2.3,25.1,25.1,0,0,1-2.7.4h-4.4l-.6.2h1.4c-2.3.9-5.3.7-8.3.6l1.8-.9-6.4.4-1,.6-1.8-.4a15.1,15.1,0,0,0-2.8-.5l-5,.5v.2h2v.2c-3.6-.4-6.9.6-10.7,0-.7-.1-1.9.1-2.9.1l-4.4.3-1.3.3.5.2h3.3c.5.7,1.5.8,3.8.4a17.8,17.8,0,0,1,7,.1c3.3,0,6.1-.3,8.4-.1a24.2,24.2,0,0,0,3.8.2c3.4-.1,7-.4,10.2-.2s5.4.2,7.5-.5a4.3,4.3,0,0,1,1.6,0c2.2.8,2.6.9,4.1.1,4,.8,7.7-.8,11.6-.2l-1.7.4c4.3-.1,4.3-.1,3.8-.4Zm5.4-.7a19.9,19.9,0,0,1,6.8.3l2.4-1.5-1.1-.2-2.4,1c-.2-.3-.5-.5-.4-.6s-1.4-.8-2.5-.6-5.1.2-7.7.3a14,14,0,0,1-2.8.1c-1.9-.6-2,0-2.7.2v.3l7-.2.5,1.4Zm10.8,2.3H267.7v.4h8.6A6.4,6.4,0,0,0,279.6,117.2Zm26.8-3.4a29.1,29.1,0,0,0-8.8-.2,13.9,13.9,0,0,0-2.3-.4l-15.6.7.5,1.1c4-.3,8.3-.1,11.4-1.1.5.8,2.5.5,4.1.5l7.1-.3ZM457.4,8.6l15.6.7a12.4,12.4,0,0,0,2.3-.4,29.7,29.7,0,0,0,8.9-.2l-3.6-.2-7.2-.3c-1.6-.1-3.5-.4-4,.4-3.2-1-7.4-.8-11.5-1.1Zm-12-3.4,11.9.2a4.9,4.9,0,0,0-3.1-.5h-8.7Zm-9.2,3.1v.3c.8.2.8.8,2.7.2a15.1,15.1,0,0,1,2.9.1c2.5.1,5.2-.2,7.7.3s2.6.1,2.4-.6l.5-.5,2.3.9,1.2-.2-2.4-1.5a20,20,0,0,1-6.8.3l-2.9-.5a7.8,7.8,0,0,1-.5,1.4ZM373.6,6.2a7,7,0,0,0,1.4.3l4.4.3c1,0,2.2.2,2.9.1,3.7-.6,7.1.4,10.7,0v.2l-2,.2v.2l5,.4a13.7,13.7,0,0,0,2.8-.5l1.9-.4,1,.6,6.4.5-1.8-1c3-.1,6-.3,8.3.6H413l.6.2H418a13.7,13.7,0,0,1,2.8.5,19.4,19.4,0,0,0,4.1.2c2.4-.2,4.5.1,6.8.1l1.7-.2-1.3-1.4a36.1,36.1,0,0,0,5.2.5,13.9,13.9,0,0,0,3.8-.9l-3.6-.7c.5-.3.5-.3-3.7-.4l1.6.4c-3.9.6-7.5-.9-11.6-.1-1.5-.8-1.8-.8-4,0h-1.7c-2-.8-4.3-.8-7.4-.6s-6.9-.1-10.3-.2l-3.7.2c-2.4.2-5.1-.1-8.4-.1a18.3,18.3,0,0,1-7.1.1c-2.2-.4-3.2-.3-3.8.4h-3.3Zm-38.1.5h2a7.5,7.5,0,0,1,5.2.4l1.7-.6h8.2l.9-.7-2.3-.5,1.4-.5c-1.5,0-3.5-.5-2.8.5a8.6,8.6,0,0,1-2.8.5H337a5.5,5.5,0,0,0-1.9.2C334.9,6.3,335.1,6.6,335.5,6.7Z" transform="translate(-11.1 -3.2)"/><path d="M237.7,46.5h8.5v3.9h-4.1V80.5h4.1v3.9h-8.5Z" transform="translate(-11.1 -3.2)"/><path d="M261.1,54.2c5.7,0,8.5,3.2,8.5,7.2a6.8,6.8,0,0,1-5.3,6.8l5.6,9.6h-5.5l-5.2-9.2H257v9.2h-4.7V54.2Zm-.2,3.9H257V65h3.9c2.7,0,3.9-1.4,3.9-3.5S263.6,58.1,260.9,58.1Z" transform="translate(-11.1 -3.2)"/><path d="M282.1,78.1c-5.4,0-9.4-3.8-9.4-9.7s3.9-9.7,9.4-9.7,9.2,3.7,9.2,9.3a10.9,10.9,0,0,1-.1,1.8H277.5a4.3,4.3,0,0,0,4.5,4.3,4.1,4.1,0,0,0,3.8-2.2h5.1A8.8,8.8,0,0,1,282.1,78.1Zm-4.6-11.5h8.9a4.1,4.1,0,0,0-4.4-4A4.4,4.4,0,0,0,277.5,66.6Z" transform="translate(-11.1 -3.2)"/><path d="M309.6,67.7H299.5V77.8h-4.7V54.2h4.7v9.7h10.1V54.2h4.8V77.8h-4.8Z" transform="translate(-11.1 -3.2)"/><path d="M327.3,78.1c-5.4,0-9.5-3.8-9.5-9.7a9.7,9.7,0,1,1,19.3,0C337.1,74.3,332.8,78.1,327.3,78.1Zm0-4.2c2.5,0,4.9-1.8,4.9-5.5s-2.3-5.6-4.8-5.6-4.8,1.8-4.8,5.6S324.8,73.9,327.3,73.9Z" transform="translate(-11.1 -3.2)"/><path d="M347.8,78.1c-4.7,0-8-2.8-8.2-6.3h4.7a3.2,3.2,0,0,0,3.4,2.6c1.9,0,2.9-.9,2.9-2,0-3.3-10.6-1.2-10.6-8.1,0-3.1,2.8-5.6,7.4-5.6s7.3,2.5,7.6,6.2h-4.6c-.1-1.4-1.3-2.4-3.1-2.4s-2.7.7-2.7,1.8c0,3.4,10.4,1.3,10.5,8.1C355.1,75.6,352.3,78.1,347.8,78.1Z" transform="translate(-11.1 -3.2)"/><path d="M359.8,62.9h-2.3V59h2.3V54.4h4.7V59h4.2v3.9h-4.2V72c0,1.2.5,1.8,2,1.8h2.2v4h-3c-3.5,0-5.9-1.6-5.9-5.9Z" transform="translate(-11.1 -3.2)"/><path d="M382,84.4h-8.5V80.5h4V50.4h-4V46.5H382Z" transform="translate(-11.1 -3.2)"/></svg>